<?xml version="1.0" encoding="UTF-8"?>
<svg id="Capa_2" data-name="Capa 2" xmlns="http://www.w3.org/2000/svg" viewBox="0 0 137.27 158.62">
  <defs>
    <style>
      .cls-1 {
        fill: #fff;
      }

      .cls-2 {
        fill: #c9a607;
      }
    </style>
  </defs>
  <g id="Capa_1-2" data-name="Capa 1">
    <g>
      <path class="cls-2" d="M113.88,23.39C88.89-1.6,48.38-1.6,23.39,23.39-1.6,48.38-1.6,88.9,23.39,113.89l36.47,36.47c4.83,4.83,12.73,4.83,17.56,0l36.47-36.47c24.99-24.99,24.99-65.51,0-90.5h0ZM68.64,92.64c-13.25,0-24-10.74-24-24,0-13.25,10.74-24,24-24,13.25,0,24,10.74,24,24,0,13.25-10.74,24-24,24Z"/>
      <g>
        <path class="cls-1" d="M117.17,20.1C104.21,7.14,86.97,0,68.64,0S33.07,7.14,20.1,20.1C7.14,33.07,0,50.3,0,68.64s7.14,35.57,20.1,48.53l36.47,36.47c3.21,3.21,7.5,4.98,12.07,4.98s8.85-1.77,12.07-4.98l36.47-36.47c12.96-12.96,20.1-30.2,20.1-48.53s-7.14-35.57-20.1-48.53h0ZM110.6,110.6l-36.47,36.47c-1.46,1.46-3.41,2.26-5.5,2.26s-4.04-.8-5.49-2.26l-36.47-36.47C3.54,87.46,3.54,49.81,26.68,26.67c11.21-11.21,26.11-17.38,41.96-17.38s30.75,6.17,41.96,17.38c23.14,23.14,23.14,60.79,0,83.92Z"/>
        <path class="cls-1" d="M68.64,39.99c-15.79,0-28.64,12.85-28.64,28.64,0,15.79,12.85,28.64,28.64,28.64h0c15.79,0,28.64-12.85,28.64-28.64,0-15.79-12.85-28.64-28.64-28.64h0ZM68.64,87.99c-10.67,0-19.35-8.68-19.35-19.35,0-10.67,8.68-19.35,19.35-19.35,10.67,0,19.35,8.68,19.35,19.35,0,10.67-8.68,19.35-19.35,19.35Z"/>
      </g>
    </g>
  </g>
</svg>