<svg width="114" height="104" viewBox="0 0 114 104" fill="none" xmlns="http://www.w3.org/2000/svg">
<path d="M102.083 20.2777C99.9294 18.4194 96.7124 18.688 94.8828 20.7991L87.979 28.7651L85.2729 26.162C82.0205 23.0356 76.5434 25.378 76.6279 29.9216C76.6535 31.282 77.2077 32.5502 78.1883 33.493L84.7757 39.8243C86.9197 41.8845 90.2979 41.6571 92.1786 39.4872L102.606 27.4538C104.451 25.3251 104.218 22.1124 102.083 20.2737V20.2777ZM100.073 25.276L89.6455 37.3094C88.9675 38.0915 87.7982 38.0994 87.0966 37.4251L80.5092 31.0938C79.3773 30.0059 80.1496 28.0791 81.7296 28.0791C82.1855 28.0791 82.6179 28.2535 82.948 28.5691L86.9276 32.3953C87.2577 32.7129 87.7097 32.8815 88.1657 32.8619C88.6255 32.8403 89.0559 32.6325 89.3566 32.2856L97.4159 22.9866C98.0409 22.2653 99.1473 22.1614 99.8941 22.8063C100.629 23.4394 100.71 24.5449 100.075 25.278L100.073 25.276Z" fill="#FF0000"/>
<path d="M112.481 32.4031C111.571 32.2267 110.695 32.8167 110.518 33.7223C108.767 42.6743 101.436 49.2918 92.7148 50.4914C79.9861 52.232 68.7706 42.3215 68.7706 29.6726C68.7706 18.0391 78.2646 8.65776 89.8397 8.65776C100.173 8.65776 109.128 16.3298 110.671 26.5011C110.808 27.4125 111.663 28.0378 112.577 27.9026C113.491 27.7654 114.12 26.9147 113.982 26.0012C112.18 14.1286 101.902 5.31766 89.8416 5.31766C84.0973 5.31766 78.8089 7.30722 74.6348 10.6316H66.3691L53.1118 1.01512C51.2468 -0.337392 48.7392 -0.339352 46.8723 1.01512L33.6169 10.6316H19.6914C17.2172 10.6316 15.2048 12.6388 15.2048 15.1067V23.9881L2.18335 33.4341C0.815563 34.426 0 36.0255 0 37.7112V98.7073C0 101.624 2.37987 103.998 5.30411 103.998H46.3751C47.3007 103.998 48.0494 103.251 48.0494 102.328C48.0494 101.405 47.3007 100.658 46.3751 100.658H9.94987L49.2404 68.2191C49.6747 67.8584 50.3075 67.8604 50.7418 68.2191C52.2825 69.4912 88.2931 99.2229 90.0323 100.658H54.1848C53.2592 100.658 52.5105 101.405 52.5105 102.328C52.5105 103.251 53.2592 103.998 54.1848 103.998H94.678C97.618 103.998 99.9821 101.604 99.9821 98.7073V51.8165C106.961 48.6273 112.259 42.2431 113.802 34.3593C113.978 33.4537 113.387 32.5775 112.479 32.4011L112.481 32.4031ZM48.8414 3.71621C49.5292 3.21637 50.4549 3.21637 51.1427 3.71621L60.6759 10.6316H39.3062L48.8395 3.71621H48.8414ZM18.5516 15.1067C18.5516 14.4794 19.0626 13.9698 19.6914 13.9698H71.178C67.8509 17.8979 65.8366 22.8219 65.4809 28.0025H28.5506C27.625 28.0025 26.8762 28.7494 26.8762 29.6726C26.8762 30.5958 27.625 31.3426 28.5506 31.3426H65.4809C65.6145 33.3361 66.0017 35.3276 66.6266 37.2368H28.5506C27.625 37.2368 26.8762 37.9837 26.8762 38.9069C26.8762 39.8301 27.625 40.5769 28.5506 40.5769H68.0022C69.9871 44.5247 73.0076 47.8589 76.7317 50.2248C69.8967 54.8253 72.9546 52.7672 68.5918 55.7035H31.3903L18.5496 47.0611V15.1067H18.5516ZM4.15249 36.1352L15.2029 28.1182V44.805L3.51183 36.9369C3.6494 36.6213 3.86557 36.341 4.15249 36.1352ZM4.78726 100.589C3.9206 100.352 3.34676 99.5659 3.34676 98.7093V40.8533C4.89534 41.8961 42.4171 67.1508 43.9972 68.2151L4.78726 100.589ZM49.9911 64.6143C48.2361 64.6143 47.2476 65.5317 46.6856 65.9962C45.1566 64.9672 37.1877 59.6042 36.3505 59.0397H63.6296L53.2946 65.9962C52.8092 65.5964 51.7892 64.6143 49.9891 64.6143H49.9911ZM96.6354 98.7093C96.6354 99.5933 96.0399 100.358 95.1949 100.589C93.9371 99.5502 57.7851 69.7029 55.983 68.2151C57.3921 67.2664 78.8581 52.8181 80.0726 52.0007C85.4317 54.3412 91.349 54.5979 96.6334 53.0671V98.7093H96.6354Z" fill="#FF0000"/>
</svg>
