<svg width="100" height="100" viewBox="0 0 100 100" fill="none" xmlns="http://www.w3.org/2000/svg">
<g clip-path="url(#clip0_10755_6065)">
<path d="M46.5227 30.1089H77.0375C78.1439 30.1089 79.0387 29.2141 79.0387 28.1077C79.0387 27.0013 78.1439 26.1064 77.0375 26.1064H46.5227C45.4163 26.1064 44.5215 27.0013 44.5215 28.1077C44.5215 29.2141 45.4163 30.1089 46.5227 30.1089Z" fill="#E53835"/>
<path d="M46.5227 23.2095H60.8242C61.9225 23.2095 62.8255 22.3146 62.8255 21.2083C62.8255 20.1019 61.9306 19.207 60.8242 19.207H46.5227C45.4163 19.207 44.5215 20.1019 44.5215 21.2083C44.5215 22.3146 45.4163 23.2095 46.5227 23.2095Z" fill="#E53835"/>
<path d="M63.2886 47.3711C54.1448 47.3711 46.7012 54.8147 46.7012 63.9586C46.7012 73.1024 54.1448 80.546 63.2886 80.546C72.4325 80.546 79.8761 73.1024 79.8761 63.9586C79.8761 54.8147 72.4325 47.3711 63.2886 47.3711ZM75.7109 65.9598C74.7429 71.9635 69.4469 76.5517 63.2886 76.5517C62.0114 76.5517 60.7668 76.3646 59.5546 75.9822L64.5252 65.9598H75.7109ZM61.2874 51.5281V63.4867L55.9752 74.1925C52.6561 71.8252 50.7036 68.0587 50.7036 63.9586C50.7036 57.7922 55.2837 52.5043 61.2874 51.5281ZM75.7109 61.9573H65.2817V51.5281C70.6509 52.3823 74.8568 56.5882 75.7109 61.9573Z" fill="#E53835"/>
<path d="M9.52402 42.1729H32.5301C33.6365 42.1729 34.5313 41.278 34.5313 40.1716V21.5178C34.5313 20.9809 34.3279 20.4765 33.9456 20.1023C33.5714 19.7281 33.067 19.5166 32.5301 19.5166H26.7786C25.6803 19.5166 24.7773 20.4115 24.7773 21.5178V23.9665H21.0271C19.9288 23.9665 19.0258 24.8614 19.0258 25.9677V27.6354H15.2674C14.161 27.6354 13.2662 28.5303 13.2662 29.6367V30.9301H9.51588C8.40951 30.9301 7.51465 31.825 7.51465 32.9314V40.1879C7.51465 41.2861 8.40951 42.1891 9.51588 42.1891L9.52402 42.1729ZM11.5253 38.1704V34.9163H13.2824V38.1704H11.5253ZM17.2768 38.1704V31.6216H19.034V38.1704H17.2768ZM23.0283 38.1704V27.9527H24.7855V38.1704H23.0283ZM28.7798 38.1704V23.5109H30.537V38.1704H28.7798Z" fill="#E53835"/>
<path d="M94.3648 27.3914H89.6953V22.6974C89.6953 22.1686 89.4838 21.6561 89.1096 21.2819L68.8857 1.0662C68.5033 0.691981 68.0071 0.480469 67.4783 0.480469H24.167C21.336 0.480469 19.0338 2.7827 19.0338 5.61372V13.8464H2.74733C1.64095 13.8464 0.746094 14.7413 0.746094 15.8477V45.8418C0.746094 46.94 1.64095 47.843 2.74733 47.843H19.0338V84.2069C19.0338 87.0379 21.336 89.3402 24.167 89.3402H28.5844V94.449C28.5844 97.1417 30.7727 99.3382 33.4736 99.3382H94.3648C97.0575 99.3382 99.254 97.1499 99.254 94.449V32.2724C99.254 29.5797 97.0657 27.3832 94.3648 27.3832V27.3914ZM70.1792 20.6962C69.7887 20.6962 69.4714 20.3789 69.4714 19.9884V7.30582L82.8618 20.6962H70.171H70.1792ZM23.0281 47.8349H39.3146C40.4128 47.8349 41.3158 46.94 41.3158 45.8337V15.8477C41.3158 14.7494 40.421 13.8464 39.3146 13.8464H23.0281V5.61372C23.0281 4.98731 23.5406 4.48294 24.1589 4.48294H65.4689V19.9966C65.4689 22.5917 67.5759 24.6987 70.171 24.6987H85.6847V84.2069C85.6847 84.8333 85.1722 85.3377 84.5458 85.3377H24.1589C23.8579 85.3377 23.5732 85.2238 23.3617 85.0042C23.142 84.7927 23.0281 84.4998 23.0281 84.1988V47.8349ZM32.5869 89.3402H84.562C87.3931 89.3402 89.6953 87.0379 89.6953 84.2069V31.3857H94.3648C94.8529 31.3857 95.2516 31.7843 95.2516 32.2724V94.4409C95.2516 94.929 94.8529 95.3276 94.3648 95.3276H33.4736C32.9855 95.3276 32.5869 94.929 32.5869 94.4409V89.332V89.3402ZM37.3134 17.8489V43.8406H4.74856V17.8489H37.3215H37.3134Z" fill="#E53835"/>
<path d="M26.7708 73.7779H41.0641C42.1705 73.7779 43.0654 72.883 43.0654 71.7766C43.0654 70.6703 42.1705 69.7754 41.0641 69.7754H26.7708C25.6644 69.7754 24.7695 70.6703 24.7695 71.7766C24.7695 72.883 25.6644 73.7779 26.7708 73.7779Z" fill="#E53835"/>
<path d="M26.7708 68.3677H41.0641C42.1705 68.3677 43.0654 67.4728 43.0654 66.3665C43.0654 65.2601 42.1705 64.3652 41.0641 64.3652H26.7708C25.6644 64.3652 24.7695 65.2601 24.7695 66.3665C24.7695 67.4728 25.6644 68.3677 26.7708 68.3677Z" fill="#E53835"/>
<path d="M26.7708 79.1792H41.0641C42.1705 79.1792 43.0654 78.2844 43.0654 77.178C43.0654 76.0716 42.1705 75.1768 41.0641 75.1768H26.7708C25.6644 75.1768 24.7695 76.0716 24.7695 77.178C24.7695 78.2844 25.6644 79.1792 26.7708 79.1792Z" fill="#E53835"/>
<path d="M26.7708 62.9663H41.0641C42.1705 62.9663 43.0654 62.0715 43.0654 60.9651C43.0654 59.8587 42.1705 58.9639 41.0641 58.9639H26.7708C25.6644 58.9639 24.7695 59.8587 24.7695 60.9651C24.7695 62.0715 25.6644 62.9663 26.7708 62.9663Z" fill="#E53835"/>
<path d="M26.7708 57.564H41.0641C42.1705 57.564 43.0654 56.6691 43.0654 55.5628C43.0654 54.4564 42.1705 53.5615 41.0641 53.5615H26.7708C25.6644 53.5615 24.7695 54.4564 24.7695 55.5628C24.7695 56.6691 25.6644 57.564 26.7708 57.564Z" fill="#E53835"/>
<path d="M46.5227 43.9136H77.0375C78.1439 43.9136 79.0387 43.0187 79.0387 41.9124C79.0387 40.806 78.1439 39.9111 77.0375 39.9111H46.5227C45.4163 39.9111 44.5215 40.806 44.5215 41.9124C44.5215 43.0187 45.4163 43.9136 46.5227 43.9136Z" fill="#E53835"/>
<path d="M46.5227 36.8277H77.0375C78.1439 36.8277 79.0387 35.9328 79.0387 34.8264C79.0387 33.7201 78.1439 32.8252 77.0375 32.8252H46.5227C45.4163 32.8252 44.5215 33.7201 44.5215 34.8264C44.5215 35.9328 45.4163 36.8277 46.5227 36.8277Z" fill="#E53835"/>
</g>
<defs>
<clipPath id="clip0_10755_6065">
<rect width="98.5079" height="98.8496" fill="white" transform="translate(0.746094 0.480469)"/>
</clipPath>
</defs>
</svg>
