<svg width="126" height="112" viewBox="0 0 126 112" fill="none" xmlns="http://www.w3.org/2000/svg">
<g clip-path="url(#clip0_10720_4108)">
<path d="M30.5553 53.9287C25.5848 53.9287 21.5391 58.0187 21.5391 63.047C21.5391 68.0753 25.583 72.1653 30.5553 72.1653C35.5276 72.1653 39.5715 68.0753 39.5715 63.047C39.5715 58.0187 35.5276 53.9287 30.5553 53.9287ZM30.5553 67.2022C28.298 67.2022 26.4615 65.3387 26.4615 63.047C26.4615 60.7553 28.298 58.8937 30.5553 58.8937C32.8126 58.8937 34.649 60.7572 34.649 63.047C34.649 65.3368 32.8126 67.2022 30.5553 67.2022Z" fill="#FF0000"/>
<path d="M52.0025 53.9287C47.0321 53.9287 42.9863 58.0187 42.9863 63.047C42.9863 68.0753 47.0302 72.1653 52.0025 72.1653C56.9748 72.1653 61.0188 68.0753 61.0188 63.047C61.0188 58.0187 56.9748 53.9287 52.0025 53.9287ZM52.0025 67.2022C49.7453 67.2022 47.9088 65.3387 47.9088 63.047C47.9088 60.7553 49.7453 58.8937 52.0025 58.8937C54.2598 58.8937 56.0963 60.7572 56.0963 63.047C56.0963 65.3368 54.2598 67.2022 52.0025 67.2022Z" fill="#FF0000"/>
<path d="M73.4498 53.9287C68.4794 53.9287 64.4336 58.0187 64.4336 63.047C64.4336 68.0753 68.4775 72.1653 73.4498 72.1653C78.4221 72.1653 82.466 68.0753 82.466 63.047C82.466 58.0187 78.4221 53.9287 73.4498 53.9287ZM73.4498 67.2022C71.1925 67.2022 69.3561 65.3387 69.3561 63.047C69.3561 60.7553 71.1925 58.8937 73.4498 58.8937C75.7071 58.8937 77.5436 60.7572 77.5436 63.047C77.5436 65.3368 75.7071 67.2022 73.4498 67.2022Z" fill="#FF0000"/>
<path d="M126 26.8099C126 12.5256 114.509 0.905273 100.384 0.905273C88.789 0.905273 78.9699 8.73717 75.8248 19.4453H12.0136C5.38943 19.4453 0 24.8962 0 31.5962V91.1071C0 97.8071 5.38943 103.258 12.0136 103.258H17.9992L20.6164 110.295C20.884 111.014 21.4673 111.568 22.1945 111.794C22.4326 111.868 22.678 111.903 22.9198 111.903C23.42 111.903 23.9165 111.749 24.3355 111.453L35.8951 103.258H91.9894C98.6136 103.258 104.003 97.8071 104.003 91.1071V52.454C116.419 50.6705 125.998 39.8507 125.998 26.8099H126ZM91.9912 98.2949H35.118C34.6123 98.2949 34.1177 98.4531 33.7024 98.7454L24.1085 105.548L22.0081 99.9052C21.6481 98.9371 20.729 98.2949 19.7046 98.2949H12.0136C8.1026 98.2949 4.92247 95.0705 4.92247 91.109V31.5962C4.92247 27.6346 8.10444 24.4103 12.0136 24.4103H74.8798C74.8078 25.2015 74.7691 26.0001 74.7691 26.8099C74.7691 40.653 85.5608 51.9941 99.0824 52.6811V91.1071C99.0824 95.0686 95.9004 98.293 91.9894 98.293L91.9912 98.2949ZM100.384 47.7496C88.9735 47.7496 79.6897 38.3558 79.6897 26.8099C79.6897 15.2641 88.9717 5.87025 100.384 5.87025C111.796 5.87025 121.078 15.2641 121.078 26.8099C121.078 38.3558 111.796 47.7496 100.384 47.7496Z" fill="#FF0000"/>
<path d="M101.845 17.4551H98.1927C96.8343 17.4551 95.7324 18.5665 95.7324 19.9366C95.7324 21.3068 96.8343 22.4182 98.1927 22.4182H99.3832V37.1623C99.3832 38.5325 100.485 39.6439 101.844 39.6439C103.202 39.6439 104.304 38.5325 104.304 37.1623V19.9366C104.304 18.5665 103.202 17.4551 101.844 17.4551H101.845Z" fill="#FF0000"/>
</g>
<defs>
<clipPath id="clip0_10720_4108">
<rect width="126" height="111" fill="white" transform="translate(0 0.905273)"/>
</clipPath>
</defs>
</svg>
