<svg width="108" height="99" viewBox="0 0 108 99" fill="none" xmlns="http://www.w3.org/2000/svg">
<g clip-path="url(#clip0_10720_4280)">
<path d="M95.8682 0.405273H12.1296C5.70967 0.411836 0.506542 5.63133 0.5 12.0715V63.4067C0.506542 69.8468 5.70967 75.0663 12.1296 75.0729H16.781V93.6342C16.7636 95.5811 17.9324 97.3399 19.7315 98.0706C21.4717 98.775 23.467 98.3375 24.7558 96.9702L45.6861 75.0729H95.866C102.286 75.0663 107.489 69.8468 107.496 63.4067V12.0715C107.491 5.63133 102.288 0.411836 95.8682 0.405273ZM102.846 63.4067C102.842 67.2721 99.7215 70.4025 95.8682 70.4068H44.6939C44.0593 70.4068 43.4531 70.6672 43.0148 71.1244L21.4325 93.6364V72.741C21.4325 71.4525 20.3923 70.409 19.11 70.4068H12.1296C8.27635 70.4025 5.15578 67.2721 5.15142 63.4067V12.0715C5.15578 8.20607 8.27635 5.07569 12.1296 5.07132H95.8682C99.7215 5.07569 102.842 8.20607 102.846 12.0715V63.4067ZM23.7614 23.7399C23.7614 22.4514 24.8016 21.4079 26.0839 21.4057H49.3475C50.6319 21.4057 51.6743 22.4514 51.6743 23.7399C51.6743 25.0283 50.6319 26.074 49.3475 26.074H26.0861C24.8016 26.074 23.7614 25.0305 23.7593 23.7442L23.7614 23.7399ZM74.9335 51.7405C74.9335 53.0289 73.8934 54.0724 72.6111 54.0746H26.0861C24.8016 54.0746 23.7593 53.0289 23.7593 51.7405C23.7593 50.452 24.8016 49.4064 26.0861 49.4064H72.6068C73.8912 49.4064 74.9314 50.4498 74.9335 51.7361V51.7405ZM84.2386 37.7402C84.2386 39.0286 83.1984 40.0721 81.9161 40.0743H26.0861C24.8016 40.0743 23.7593 39.0286 23.7593 37.7402C23.7593 36.4517 24.8016 35.4061 26.0861 35.4061H81.9118C83.1962 35.4061 84.2364 36.4495 84.2386 37.7358V37.7402Z" fill="#FF0000"/>
</g>
<defs>
<clipPath id="clip0_10720_4280">
<rect width="107" height="98" fill="white" transform="translate(0.5 0.405273)"/>
</clipPath>
</defs>
</svg>
