<svg width="123" height="98" viewBox="0 0 123 98" fill="none" xmlns="http://www.w3.org/2000/svg">
<path fill-rule="evenodd" clip-rule="evenodd" d="M11.1236 80.5632H111.876V14.2052C111.876 8.42275 107.168 3.71764 101.376 3.71764H21.6263C15.837 3.71764 11.1236 8.42007 11.1236 14.2052V80.5632ZM113.284 83.3756H9.71573C8.93953 83.3756 8.31055 82.7447 8.31055 81.9694V14.2052C8.30787 6.8722 14.2819 0.905273 21.6236 0.905273H101.376C108.718 0.905273 114.692 6.8722 114.692 14.2052V81.9694C114.692 82.7447 114.06 83.3756 113.284 83.3756Z" fill="#FF0000"/>
<path fill-rule="evenodd" clip-rule="evenodd" d="M18.5032 73.1959H104.5V14.2056C104.5 12.5161 103.068 11.0858 101.377 11.0858H21.624C19.9325 11.0858 18.5005 12.5134 18.5005 14.2056V73.1959H18.5032ZM105.908 76.0082H17.0954C16.3165 76.0082 15.6875 75.3773 15.6875 74.602V14.2056C15.6875 10.9361 18.3506 8.27344 21.6267 8.27344H101.379C104.653 8.27344 107.319 10.9361 107.319 14.2056V74.602C107.319 75.3773 106.687 76.0082 105.911 76.0082H105.908Z" fill="#FF0000"/>
<path fill-rule="evenodd" clip-rule="evenodd" d="M2.81571 83.3758V88.4739C2.81571 92.1231 5.78666 95.0905 9.43745 95.0905H113.563C117.213 95.0905 120.182 92.1231 120.182 88.4739V83.3758H76.2597V89.0113C76.2597 89.7892 75.6281 90.4175 74.8519 90.4175H48.1481C47.3719 90.4175 46.7403 89.7892 46.7403 89.0113V83.3758H2.81571ZM113.563 97.9055H9.43745C4.2316 97.9055 0 93.6763 0 88.4766V81.9697C0 81.1944 0.628985 80.5635 1.40786 80.5635H48.1481C48.927 80.5635 49.556 81.1944 49.556 81.9697V87.6051H73.444V81.9697C73.444 81.1944 74.0757 80.5635 74.8519 80.5635H121.592C122.368 80.5635 123 81.1944 123 81.9697V88.4766C123 93.6763 118.766 97.9055 113.563 97.9055Z" fill="#FF0000"/>
<path fill-rule="evenodd" clip-rule="evenodd" d="M27.0061 41.7886H32.7607V24.8609H27.0061V41.7886ZM34.1712 44.601H25.5983C24.8194 44.601 24.1904 43.9701 24.1904 43.1948V23.4521C24.1904 22.6768 24.8221 22.0459 25.5983 22.0459H34.1712C34.9501 22.0459 35.5791 22.6768 35.5791 23.4521V43.1948C35.5791 43.9728 34.9474 44.601 34.1712 44.601Z" fill="#FF0000"/>
<path fill-rule="evenodd" clip-rule="evenodd" d="M42.8379 41.7886H48.5925V21.3641H42.8379V41.7886ZM50.0003 44.6009H41.4301C40.6512 44.6009 40.0195 43.97 40.0195 43.1947V19.9579C40.0195 19.1827 40.6512 18.5518 41.4274 18.5518H49.9976C50.7738 18.5518 51.4055 19.1827 51.4055 19.9579V43.1947C51.4055 43.9727 50.7738 44.6009 49.9976 44.6009H50.0003Z" fill="#FF0000"/>
<path fill-rule="evenodd" clip-rule="evenodd" d="M58.6673 41.7885H64.4191V32.651H58.6673V41.7885ZM65.8297 44.6009H57.2594C56.4832 44.6009 55.8516 43.97 55.8516 43.1947V31.2421C55.8516 30.4668 56.4832 29.8359 57.2594 29.8359H65.8297C66.6085 29.8359 67.2375 30.4668 67.2375 31.2421V43.1947C67.2375 43.9726 66.6085 44.6009 65.8297 44.6009Z" fill="#FF0000"/>
<path fill-rule="evenodd" clip-rule="evenodd" d="M76.1549 27.6046C75.799 29.9625 75.5741 37.6296 86.0233 43.8532C96.4002 37.6617 96.2182 29.9491 95.8836 27.6019C90.6778 25.8802 88.2421 22.437 86.7593 20.3357C86.5211 19.9962 86.2428 19.6086 86.0233 19.3332C85.8038 19.6086 85.5281 19.9962 85.2899 20.3357C83.8045 22.437 81.3688 25.8829 76.1549 27.6046ZM86.0233 46.8875C85.7824 46.8875 85.5469 46.826 85.3301 46.7057C77.544 42.3134 74.7524 37.0094 73.7835 33.3362C72.7049 29.2674 73.556 26.2385 73.5935 26.1128C73.7327 25.645 74.0967 25.2814 74.5677 25.1477C79.3909 23.8057 81.5562 20.7394 82.9854 18.713C83.9517 17.3469 84.7145 16.2695 86.0233 16.2695C87.3321 16.2695 88.0949 17.3496 89.0612 18.713C90.4958 20.7394 92.6584 23.8057 97.4789 25.1477C97.9526 25.2787 98.3193 25.6423 98.4558 26.1128C98.4933 26.2385 99.3444 29.2674 98.2684 33.3362C97.2969 37.0094 94.5026 42.3107 86.7192 46.7057C86.5078 46.8287 86.2669 46.8901 86.0287 46.8875H86.0233Z" fill="#FF0000"/>
<path fill-rule="evenodd" clip-rule="evenodd" d="M83.8312 36.346C83.4726 36.346 83.1112 36.207 82.8356 35.9343L80.4936 33.5951C79.9422 33.0444 79.9422 32.1542 80.4936 31.6062C81.045 31.0554 81.9336 31.0554 82.4849 31.6062L83.8312 32.9509L89.567 27.2245C90.1184 26.6738 91.0097 26.6765 91.5584 27.2245C92.1071 27.7752 92.1071 28.6655 91.5584 29.2162L84.8269 35.937C84.5539 36.2097 84.1926 36.3487 83.8312 36.3487V36.346Z" fill="#FF0000"/>
<path fill-rule="evenodd" clip-rule="evenodd" d="M97.1045 53.3378H25.5983C24.8194 53.3378 24.1904 52.7068 24.1904 51.9316C24.1904 51.1536 24.8221 50.5254 25.5983 50.5254H97.1045C97.8807 50.5254 98.5124 51.1563 98.5124 51.9316C98.5124 52.7068 97.8807 53.3378 97.1045 53.3378Z" fill="#FF0000"/>
<path fill-rule="evenodd" clip-rule="evenodd" d="M97.1045 60.6757H25.5983C24.8194 60.6757 24.1904 60.0447 24.1904 59.2695C24.1904 58.4915 24.8221 57.8633 25.5983 57.8633H97.1045C97.8807 57.8633 98.5124 58.4915 98.5124 59.2695C98.5124 60.0447 97.8807 60.6757 97.1045 60.6757Z" fill="#FF0000"/>
<path fill-rule="evenodd" clip-rule="evenodd" d="M97.1045 68.0116H25.5983C24.8194 68.0116 24.1904 67.3807 24.1904 66.6054C24.1904 65.8275 24.8221 65.1992 25.5983 65.1992H97.1045C97.8807 65.1992 98.5124 65.8301 98.5124 66.6054C98.5124 67.3807 97.8807 68.0116 97.1045 68.0116Z" fill="#FF0000"/>
</svg>
