<svg width="108" height="119" viewBox="0 0 108 119" fill="none" xmlns="http://www.w3.org/2000/svg">
<g clip-path="url(#clip0_10755_6086)">
<path d="M6.01023 24.1909C6.01023 17.7909 8.50023 11.7809 13.0102 7.26086C13.5302 6.74086 13.8102 6.05086 13.8102 5.32086C13.8102 4.59086 13.5202 3.90086 13.0202 3.39086C11.9802 2.33086 10.1402 2.34086 9.12023 3.39086C3.55023 8.95086 0.490234 16.3409 0.490234 24.1909C0.490234 32.0409 3.55023 39.4409 9.11023 45.0009C9.63023 45.5209 10.3202 45.8109 11.0602 45.8109C11.8002 45.8109 12.4902 45.5209 13.0102 45.0009C14.0702 43.9309 14.0802 42.1809 13.0102 41.1109C8.49023 36.6009 6.01023 30.5909 6.01023 24.1909Z" fill="#E53835"/>
<path d="M88.1401 37.0101C88.1401 37.7501 88.4301 38.4401 88.9501 38.9601C89.4801 39.4901 90.1901 39.7601 90.8901 39.7601C91.5901 39.7601 92.3001 39.4901 92.8401 38.9601C96.7801 35.0501 98.9501 29.8101 98.9501 24.2001C98.9501 18.5901 96.7801 13.3401 92.8301 9.41008C91.7501 8.34008 90.0001 8.35008 88.9401 9.41008C88.4101 9.93008 88.1201 10.6201 88.1201 11.3601C88.1201 12.1001 88.4101 12.7901 88.9401 13.3101C91.8401 16.1901 93.4401 20.0401 93.4501 24.1301C93.4501 28.2501 91.8601 32.1301 88.9401 35.0501C88.4101 35.5701 88.1301 36.2601 88.1301 37.0001L88.1401 37.0101Z" fill="#E53835"/>
<path d="M91.5901 68.4903C89.2701 67.2203 86.6201 67.1203 84.2801 68.1503C83.5201 65.9603 81.8801 64.1703 79.7101 63.2303C77.5701 62.2903 75.1601 62.3103 73.0601 63.2303C71.9201 59.9003 68.7801 57.6003 65.1601 57.6003C64.2001 57.6003 63.2401 57.8703 62.3001 58.4003V50.7803H78.1501C82.1301 50.7803 85.3701 47.5403 85.3701 43.5503C85.3701 39.5603 82.1701 36.3603 78.2201 36.3303V24.7803C78.2201 11.4303 67.3501 0.570312 54.0001 0.570312C40.6501 0.570312 29.7901 11.4303 29.7901 24.7803V36.3303C25.8301 36.3703 22.6301 39.5903 22.6301 43.5503C22.6301 47.5103 25.8801 50.7803 29.8601 50.7803H45.5301L45.5101 66.1703L37.0201 61.8603C29.5601 58.4803 23.5501 60.9103 21.7001 64.9103C20.0601 68.4403 21.1801 74.0103 29.7401 78.0803C34.3501 80.2703 36.9301 83.6403 37.8601 88.6703L38.7601 95.0103C39.0501 97.0003 39.6201 98.6703 40.6101 100.41C41.3601 101.72 42.5701 103.54 43.8601 105.47C46.1101 108.84 48.9101 113.04 49.3301 114.8C49.8601 116.85 51.7001 118.27 53.8101 118.27H83.4401C85.1201 118.27 86.6301 117.4 87.4201 115.99L87.5201 115.84C95.3101 102.63 95.9301 90.4203 95.9301 75.8403C95.9301 72.7403 94.3001 70.0003 91.5701 68.5103L91.5901 68.4903ZM54.5001 112.75C53.7501 110.36 51.1901 106.53 48.7101 102.81C47.4101 100.87 46.1901 99.0303 45.4001 97.6603C44.7601 96.5403 44.4101 95.5103 44.2201 94.2203L43.3001 87.7303C42.0301 80.8603 38.3701 76.0703 32.1101 73.1003C27.8901 71.1003 26.3101 68.8403 26.6201 67.4903C26.8601 66.4403 28.2501 65.7703 30.1701 65.7703C31.5601 65.7703 33.1101 66.1403 34.6101 66.8103L47.0201 73.1103C47.8801 73.5403 48.8901 73.5003 49.7101 72.9903C50.5301 72.4803 51.0201 71.6103 51.0201 70.6503L51.0801 30.8903C51.0801 29.3203 52.3601 28.0303 53.9401 28.0303C55.5201 28.0303 56.7901 29.3103 56.7901 30.8903V65.4303C56.7901 66.9503 58.0201 68.1803 59.5301 68.1803C61.0401 68.1803 61.7701 67.1203 62.3301 66.2803C64.3401 63.2403 65.1201 63.1003 65.1401 63.1003C66.7101 63.1003 68.0001 64.3803 68.0001 65.9503V70.7103C68.0001 72.2003 69.2201 73.4403 70.7101 73.4603C70.7301 73.4603 70.7501 73.4603 70.7601 73.4603C72.2401 73.4603 73.4701 72.2703 73.5101 70.7903C73.5501 69.2703 74.8301 68.0303 76.3701 68.0303C77.9101 68.0303 79.2101 69.3103 79.2101 70.9003L79.2401 75.3903C79.2401 76.8703 80.4001 78.0803 81.8901 78.1403C83.3501 78.1703 84.6201 77.0803 84.7401 75.6003C84.8501 74.1303 86.1001 72.9703 87.5801 72.9703C89.1501 72.9703 90.4301 74.2503 90.4301 75.8203C90.4301 89.4403 89.8701 100.83 82.9301 112.75H54.4801H54.5001ZM72.7101 36.3203H62.3001V30.8903C62.3001 26.2803 58.5501 22.5303 53.9401 22.5303C49.3301 22.5303 45.5701 26.2803 45.5701 30.8903V36.3203H35.2901V24.7703C35.2901 14.4603 43.6801 6.06031 54.0001 6.06031C64.3201 6.06031 72.7101 14.4503 72.7101 24.7703V36.3203ZM62.3001 45.2603V41.8203H78.1501C79.0901 41.8203 79.8501 42.5903 79.8501 43.5403C79.8501 44.4903 79.0901 45.2603 78.1501 45.2603H62.3001ZM45.5601 41.8203V45.2603H29.8701C28.9201 45.2603 28.1501 44.4903 28.1501 43.5403C28.1501 42.5903 28.9201 41.8203 29.8701 41.8203H45.5601Z" fill="#E53835"/>
<path d="M98.89 3.38055C98.38 2.86055 97.69 2.57055 96.96 2.56055H96.95C96.21 2.56055 95.52 2.85055 95 3.37055C94.48 3.89055 94.2 4.58055 94.2 5.31055C94.2 6.04055 94.49 6.73055 95 7.25055C104.31 16.5705 104.31 31.7505 95 41.1005C94.21 41.8905 93.98 43.0705 94.41 44.1005C94.84 45.1505 95.82 45.8005 96.95 45.8005C97.69 45.8005 98.39 45.5105 98.9 44.9905C104.46 39.4305 107.52 32.0405 107.52 24.1705C107.52 16.3005 104.46 8.91055 98.9 3.36055L98.89 3.38055Z" fill="#E53835"/>
<path d="M19.8601 11.3704C19.8601 10.6304 19.5701 9.94035 19.0501 9.42035C18.5301 8.90035 17.8401 8.61035 17.1101 8.61035C16.3701 8.61035 15.6801 8.90035 15.1701 9.42035C7.05008 17.5604 7.05008 30.8104 15.1701 38.9504C15.6901 39.4704 16.3701 39.7604 17.1001 39.7604C17.8301 39.7604 18.5201 39.4704 19.0401 38.9604C19.5701 38.4404 19.8601 37.7504 19.8601 37.0104C19.8601 36.2704 19.5701 35.5804 19.0401 35.0604C16.1501 32.1804 14.5501 28.3204 14.5501 24.1904C14.5501 20.0604 16.1401 16.1904 19.0401 13.3204C19.5701 12.8004 19.8601 12.1104 19.8601 11.3704Z" fill="#E53835"/>
</g>
<defs>
<clipPath id="clip0_10755_6086">
<rect width="107.02" height="117.69" fill="white" transform="translate(0.490234 0.560547)"/>
</clipPath>
</defs>
</svg>
