<svg width="108" height="94" viewBox="0 0 108 94" fill="none" xmlns="http://www.w3.org/2000/svg">
<g clip-path="url(#clip0_10755_6239)">
<path d="M72.6663 43.6095H63.7122V34.7165C63.7237 32.9265 62.2658 31.4557 60.4635 31.4443H47.5375C45.7352 31.4443 44.2658 32.8923 44.2658 34.6937V43.5867H35.3347C33.5324 43.5753 32.0515 45.0232 32.04 46.8132V59.651C32.04 61.441 33.4979 62.9004 35.3117 62.9004H44.2658V71.7706C44.2543 73.5606 45.7122 75.0313 47.5145 75.0427H60.4176C62.2199 75.0427 63.6893 73.5948 63.6893 71.7934V62.9004H72.6434C74.4456 62.9118 75.9265 61.4638 75.938 59.6738V46.8588C75.938 45.0688 74.4801 43.6095 72.6663 43.6095ZM71.5528 58.5337H61.5311C60.3143 58.5337 59.3385 59.5142 59.3385 60.7113V70.6646H48.674V60.7113C48.674 59.5028 47.6867 58.5337 46.4814 58.5337H36.4597V47.9647H46.4814C47.6982 47.9647 48.674 46.9842 48.674 45.7871V35.811H59.3155V45.7643C59.3155 46.9728 60.3028 47.9419 61.5082 47.9419H71.5528V58.5337Z" fill="#E53835"/>
<path d="M60.4289 75.7045H47.5488C46.4697 75.7045 45.471 75.2826 44.7363 74.5301C43.9901 73.7777 43.5883 72.7971 43.5998 71.7482V63.5735H35.3345C33.1534 63.5735 31.374 61.8063 31.374 59.6401V46.8479C31.374 45.7534 31.7988 44.7615 32.5564 44.0318C33.3141 43.2907 34.2898 42.9373 35.3574 42.9031H43.5883V34.6942C43.5883 32.5279 45.3676 30.7607 47.5488 30.7607H60.4518C62.6559 30.7721 64.4238 32.5507 64.4123 34.717V42.9145H72.6776C74.8587 42.9145 76.6381 44.6817 76.6381 46.8479V59.6401C76.6381 60.7118 76.2133 61.7037 75.4557 62.4334C74.7095 63.1631 73.7222 63.5621 72.6776 63.5621H64.3893V71.771C64.3893 73.9373 62.61 75.7045 60.4289 75.7045ZM35.3345 44.2712C34.6457 44.2712 34.0029 44.5335 33.5207 45.0123C33.0271 45.4912 32.7516 46.1296 32.7516 46.8137V59.6401C32.7516 61.0539 33.911 62.2054 35.3345 62.2054H44.9773V71.7596C44.9773 72.4437 45.2414 73.0936 45.7235 73.5838C46.2057 74.0741 46.8485 74.3363 47.5373 74.3477H60.4289C61.8523 74.3477 63.0118 73.1962 63.0118 71.7824V62.2054H72.6546C73.2975 62.2054 73.9977 61.9432 74.4914 61.4643C74.985 60.9855 75.249 60.347 75.2605 59.6629V46.8593C75.2605 45.4456 74.1011 44.294 72.6776 44.294H63.0347V34.717C63.0347 33.3032 61.8983 32.1403 60.4748 32.1289H47.5602C46.1368 32.1289 44.9773 33.2804 44.9773 34.6942V44.2712H35.346H35.3345ZM60.0156 71.3492H47.9735V60.7118C47.9735 59.8909 47.2962 59.2183 46.4697 59.2183H35.7592V47.2812H46.4697C47.2962 47.2812 47.9735 46.6085 47.9735 45.7876V35.1274H59.9926V45.7648C59.9926 46.5857 60.6699 47.2584 61.4965 47.2584H72.2299V59.2183H61.5194C60.6929 59.2183 60.0156 59.8909 60.0156 60.7118V71.3492ZM49.3511 69.981H58.6381V60.7118C58.6381 59.1385 59.9352 57.8501 61.5194 57.8501H70.8523V48.6265H61.4965C59.9123 48.6265 58.6151 47.3382 58.6151 45.7648V36.4956H49.3511V45.7876C49.3511 47.361 48.0539 48.6493 46.4697 48.6493H37.1368V57.8501H46.4697C48.0539 57.8501 49.3511 59.1385 49.3511 60.7118V69.981Z" fill="#E53835"/>
<path d="M92.1693 15.1519H74.089V7.47885C74.2038 3.97867 71.4372 1.04855 67.913 0.934535C67.7293 0.934535 67.5571 0.934535 67.3734 0.934535H40.6145C37.0903 0.752115 34.0941 3.44281 33.9104 6.93159C33.9104 7.11401 33.9104 7.28503 33.9104 7.46745V15.0949H15.8301C8.85047 15.0949 0.688477 19.0397 0.688477 30.1331V77.5281C0.688477 88.6216 8.85047 92.5664 15.8301 92.5664H92.1808C99.1604 92.5664 107.322 88.6216 107.322 77.5281V30.1901C107.322 19.0967 99.1834 15.1519 92.1808 15.1519H92.1693ZM38.2841 7.47885C38.2841 6.85178 38.2841 5.153 40.626 5.153H67.3734C69.7153 5.153 69.7153 6.82898 69.7153 7.47885V15.1063H38.2727V7.47885H38.2841ZM102.914 77.5281C102.914 87.1622 95.4066 88.1997 92.1693 88.1997H15.8301C12.6043 88.1997 5.08516 87.1508 5.08516 77.5281V30.1901C5.08516 20.5561 12.5928 19.5186 15.8301 19.5186H92.1808C95.4066 19.5186 102.926 20.5675 102.926 30.1901V77.5395L102.914 77.5281Z" fill="#E53835"/>
<path d="M92.1696 93.2506H15.8304C8.52934 93.2506 0 89.1348 0 77.5283V30.1447C0 18.5382 8.52934 14.4224 15.8304 14.4224H33.2219V7.47901C33.2219 7.30799 33.2219 7.10277 33.2219 6.90894C33.4286 3.04392 36.7691 0.0453907 40.6492 0.262014H67.3737C67.5344 0.262014 67.7411 0.250613 67.9362 0.262014C69.8304 0.319021 71.5752 1.10571 72.8724 2.47386C74.1582 3.84201 74.8469 5.632 74.7781 7.50181V14.468H92.1696C99.4707 14.468 108 18.5838 108 30.1903V77.5397C108 89.1462 99.4707 93.262 92.1696 93.262V93.2506ZM15.8304 15.7905C9.16071 15.7905 1.37755 19.5529 1.37755 30.1447V77.5397C1.37755 88.1314 9.16071 91.8939 15.8304 91.8939H92.1696C98.8393 91.8939 106.622 88.1314 106.622 77.5397V30.1903C106.622 19.5985 98.8393 15.8361 92.1696 15.8361H73.4005V7.47901C73.4464 5.95124 72.9069 4.50328 71.8622 3.40876C70.8176 2.31424 69.4171 1.67577 67.8903 1.61876C67.7296 1.61876 67.5689 1.61876 67.4082 1.61876H40.6148C37.4464 1.43634 34.7602 3.85341 34.5995 6.97735C34.5995 7.13697 34.5995 7.29659 34.5995 7.4562V15.7905H15.8304ZM92.1696 88.8953H15.8304C13.1441 88.8953 4.39668 88.0744 4.39668 77.5397V30.1903C4.39668 19.6441 13.1556 18.8347 15.8304 18.8347H92.1696C94.8559 18.8347 103.603 19.6555 103.603 30.1903V77.5397C103.603 88.0858 94.8444 88.8953 92.1696 88.8953ZM15.8304 20.1914C12.0765 20.1914 5.77423 21.4911 5.77423 30.1789V77.5283C5.77423 86.2274 12.0765 87.5158 15.8304 87.5158H92.1696C95.9235 87.5158 102.226 86.216 102.226 77.5283V30.1903C102.226 21.4911 95.9235 20.2028 92.1696 20.2028H15.8304V20.1914ZM70.4158 15.7905H37.6071V7.47901C37.6071 4.98213 39.2602 4.45767 40.6378 4.45767H67.3852C68.7742 4.45767 70.4158 4.98213 70.4158 7.47901V15.7905ZM38.9732 14.4224H69.0383V7.47901C69.0383 6.61251 68.912 5.83723 67.3737 5.83723H40.6263C39.0995 5.83723 38.9617 6.61251 38.9617 7.47901V14.4224H38.9732Z" fill="#E53835"/>
</g>
<defs>
<clipPath id="clip0_10755_6239">
<rect width="108" height="93" fill="white" transform="translate(0 0.250977)"/>
</clipPath>
</defs>
</svg>
