<svg width="138" height="80" viewBox="0 0 138 80" fill="none" xmlns="http://www.w3.org/2000/svg">
<g clip-path="url(#clip0_10755_6208)">
<path d="M10.2671 66.0706C9.61863 66.0706 8.97017 65.8269 8.47032 65.326C2.99896 59.8437 -0.0136719 52.5474 -0.0136719 44.7909C-0.0136719 37.0344 2.99896 29.7246 8.47032 24.2558C9.45652 23.2676 11.0642 23.2676 12.0504 24.2558C13.0365 25.244 13.0365 26.8548 12.0504 27.843C7.53816 32.3642 5.05241 38.3745 5.05241 44.7909C5.05241 51.2073 7.53816 57.2176 12.0504 61.7388C13.0365 62.727 13.0365 64.3379 12.0504 65.326C11.5505 65.8269 10.902 66.0706 10.2536 66.0706H10.2671Z" fill="#E53835"/>
<path d="M22.4117 58.5987C21.7632 58.5987 21.1148 58.3551 20.6149 57.8542C17.143 54.3753 15.2246 49.7322 15.2246 44.7913C15.2246 39.8504 17.143 35.2074 20.6149 31.7284C21.6011 30.7403 23.2087 30.7403 24.1949 31.7284C25.1811 32.7166 25.1811 34.3275 24.1949 35.3157C21.6687 37.847 20.2907 41.2041 20.2907 44.7913C20.2907 48.3785 21.6822 51.7356 24.1949 54.267C25.1811 55.2552 25.1811 56.866 24.1949 57.8542C23.6951 58.3551 23.0466 58.5987 22.3982 58.5987H22.4117Z" fill="#E53835"/>
<path d="M127.719 66.0706C127.071 66.0706 126.422 65.8269 125.922 65.326C124.936 64.3379 124.936 62.727 125.922 61.7388C130.434 57.2176 132.92 51.2073 132.92 44.7909C132.92 38.3745 130.434 32.3642 125.922 27.843C124.936 26.8548 124.936 25.244 125.922 24.2558C126.908 23.2676 128.516 23.2676 129.502 24.2558C134.974 29.7381 137.986 37.0344 137.986 44.7909C137.986 52.5474 134.974 59.8572 129.502 65.326C129.002 65.8269 128.354 66.0706 127.706 66.0706H127.719Z" fill="#E53835"/>
<path d="M115.574 58.5989C114.925 58.5989 114.277 58.3552 113.777 57.8543C112.791 56.8662 112.791 55.2553 113.777 54.2671C118.991 49.042 118.991 40.5409 113.777 35.3293C112.791 34.3411 112.791 32.7303 113.777 31.7421C114.763 30.7539 116.371 30.7539 117.357 31.7421C124.544 38.9436 124.544 50.6664 117.357 57.8679C116.857 58.3687 116.208 58.6124 115.56 58.6124L115.574 58.5989Z" fill="#E53835"/>
<path d="M69.1146 79.9054C58.4826 79.9054 48.0667 75.0322 41.2309 66.8561C34.8949 59.2755 32.3146 49.9352 33.9763 40.5678C35.2192 33.5559 37.9346 27.5862 40.0015 23.8095C44.4867 15.5927 46.3915 15.7687 47.3102 15.8499C48.7017 15.9853 49.7284 17.1629 49.7149 18.6114C49.6338 24.6487 50.6741 29.1429 51.5387 30.4289C53.3084 29.7656 54.0109 26.6251 54.9026 21.7248C55.7131 17.3119 56.6183 12.3033 59.3202 8.24228C62.5625 3.38262 67.7772 0.918945 74.8426 0.918945C75.5857 0.918945 76.3017 1.25736 76.788 1.8259C77.2744 2.40798 77.477 3.16603 77.3419 3.89701C76.4638 8.89204 76.4233 12.2897 77.2338 13.9818C77.7337 15.0242 78.5848 15.3761 80.287 16.0259C82.2189 16.7433 84.61 17.6503 86.4879 20.3035C88.2306 22.7807 89.1493 26.2867 89.3114 31.2411C90.5948 28.3578 91.8512 24.3509 91.7296 21.6977C91.662 20.2222 92.6888 19.031 94.1073 18.9227C96.0797 18.7738 96.8227 20.3847 97.944 22.8213C98.6735 24.4051 99.5516 26.4762 100.416 28.6556C101.713 31.9315 103.956 37.8605 104.28 40.7303C105.401 50.6121 102.24 60.5615 95.5933 68.0202C88.8656 75.5737 79.2197 79.9054 69.1146 79.9054ZM45.0001 25.2579C42.771 29.1429 40.1096 35.0178 38.9748 41.4613C37.5833 49.3261 39.7584 57.1909 45.1217 63.5937C50.9983 70.6193 59.9686 74.8156 69.1146 74.8156C77.7742 74.8156 86.0421 71.1066 91.8106 64.6225C97.4981 58.2467 100.2 49.7322 99.2409 41.2853C99.0112 39.2277 97.1199 34.0161 95.3636 29.6708C94.0397 33.786 91.9727 37.7251 89.9193 38.9841C88.798 39.6744 87.5416 39.7421 86.4744 39.1465C84.529 38.0636 84.2723 35.451 84.2723 33.0415C84.2723 22.9296 81.5974 21.9279 78.5172 20.7637C73.9915 19.0716 70.5871 16.8381 71.8705 6.15764C62.657 7.43008 61.3061 14.8211 59.8876 22.6047C59.3607 25.5151 58.8609 28.263 57.8882 30.483C56.5777 33.4746 54.5243 35.1667 51.7683 35.5457C50.566 35.7082 49.3636 35.3292 48.391 34.4628C46.378 32.676 45.4459 28.7774 45.0001 25.2308V25.2579Z" fill="#E53835"/>
<path d="M68.9935 79.9053C60.9823 79.9053 54.4707 73.3806 54.4707 65.3534C54.4707 61.0217 58.0778 53.8202 59.6313 50.9233C65.1162 40.7031 67.4534 40.7031 68.4666 40.7031C69.6014 40.7031 71.5333 41.4747 71.5333 44.3445C71.5333 48.6627 73.33 49.881 76.0454 51.7355C79.3688 53.9961 83.5162 56.7982 83.5162 65.3669C83.5162 73.3942 77.0046 79.9189 68.9935 79.9189V79.9053ZM66.9941 48.4732C66.0349 49.9081 64.8595 51.8709 63.5896 54.3075C61.1309 59.0588 59.5503 63.4041 59.5503 65.3534C59.5503 70.5786 63.7923 74.8155 68.9935 74.8155C74.1946 74.8155 78.4366 70.565 78.4366 65.3534C78.4366 59.492 76.1265 57.9218 73.1949 55.9319C70.8713 54.3616 68.1153 52.48 66.9805 48.4732H66.9941Z" fill="#E53835"/>
</g>
<defs>
<clipPath id="clip0_10755_6208">
<rect width="138" height="79" fill="white" transform="translate(0 0.905273)"/>
</clipPath>
</defs>
</svg>
