<svg width="106" height="108" viewBox="0 0 106 108" fill="none" xmlns="http://www.w3.org/2000/svg">
<g clip-path="url(#clip0_10755_6262)">
<path d="M53.0004 19.8516C32.5076 19.8516 15.8975 36.5965 15.8975 57.2556C15.8975 77.9147 32.5076 94.6597 53.0004 94.6597C73.4932 94.6597 90.1034 77.9147 90.1034 57.2556C90.0836 36.6065 73.4833 19.8715 53.0004 19.8516ZM53.0004 91.095C34.4589 91.095 19.4334 75.9477 19.4334 57.2556C19.4334 38.5636 34.4589 23.4162 53.0004 23.4162C71.542 23.4162 86.5674 38.5636 86.5674 57.2556C86.5476 75.9377 71.5321 91.0751 53.0004 91.095Z" fill="#E53835"/>
<path d="M8.83491 57.2553C8.83491 70.3757 14.5895 82.8271 24.5636 91.2744L20.9583 95.8176C18.5019 98.7433 18.8585 103.127 21.7704 105.603C24.6725 108.079 29.0207 107.72 31.477 104.784C31.5563 104.694 31.6355 104.595 31.7048 104.495L36.4492 98.5036C47.067 102.847 58.9526 102.847 69.5705 98.5036L74.3148 104.495C76.6127 107.55 80.9411 108.149 83.9719 105.823C87.0027 103.506 87.597 99.1427 85.2892 96.0872C85.2199 95.9874 85.1406 95.8975 85.0614 95.7977L81.4462 91.2445C100.087 75.4481 102.494 47.42 86.8244 28.6281C85.3486 26.8607 83.7441 25.2132 82.0108 23.6955L83.9917 20.69C85.8142 22.2576 87.5178 23.9651 89.0926 25.7923C89.9444 26.8008 91.1924 27.3899 92.4998 27.3999C94.9463 27.3999 96.9669 25.4828 97.1253 23.0265C97.1848 22.038 97.1848 21.0394 97.1055 20.0509C96.2537 8.30848 86.0915 -0.548273 74.404 0.320428C71.4722 0.540099 68.6196 1.36886 66.0246 2.7468C64.3804 3.60552 63.4197 5.39284 63.6277 7.25007C63.8059 9.11727 65.0837 10.6849 66.8566 11.2241C69.1842 11.943 71.4524 12.8417 73.6413 13.9101L71.6604 16.9056C67.6093 14.9985 63.2909 13.7204 58.8635 13.1213C61.0425 9.85617 60.1808 5.43278 56.942 3.23607C53.7032 1.03935 49.3154 1.90805 47.1364 5.17317C45.5318 7.57957 45.5318 10.7149 47.1364 13.1213C42.709 13.7104 38.3905 14.9885 34.3395 16.9056L32.3586 13.9001C34.5475 12.8317 36.8157 11.9331 39.1433 11.2141C40.9162 10.6749 42.1939 9.10729 42.3722 7.24008C42.5703 5.38286 41.6194 3.59553 39.9753 2.73681C29.6348 -2.78493 16.7884 1.17914 11.3012 11.6135C9.92443 14.2296 9.10234 17.1153 8.88444 20.0709C8.8052 21.0694 8.8052 22.0779 8.86463 23.0764C9.03301 25.5227 11.0536 27.4199 13.4802 27.4299C14.7975 27.4299 16.0455 26.8408 16.8874 25.8223C18.4623 23.995 20.1659 22.2876 21.9883 20.7199L23.9693 23.7254C14.3518 32.1628 8.82501 44.3945 8.82501 57.2453L8.83491 57.2553ZM28.9414 102.288C27.8222 103.776 25.7224 104.075 24.2367 102.957C22.7609 101.829 22.4638 99.7118 23.5731 98.2141C23.6127 98.1541 23.6622 98.1042 23.7019 98.0543L27.3369 93.4711C29.1692 94.7992 31.1106 95.9774 33.1212 97.0059L28.9315 102.298L28.9414 102.288ZM82.298 98.0443C83.5064 99.4622 83.338 101.599 81.9315 102.817C80.5251 104.035 78.4055 103.866 77.1971 102.448C77.1476 102.398 77.1079 102.338 77.0683 102.288L72.8786 96.9959C74.8992 95.9674 76.8306 94.7792 78.663 93.4612L82.298 98.0543V98.0443ZM93.6389 57.2553C93.6389 79.8815 75.444 98.224 52.9999 98.224C30.5559 98.224 12.3709 79.8715 12.3709 57.2553C12.3709 34.6391 30.5559 16.2866 52.9999 16.2866C75.4341 16.3065 93.6092 34.6391 93.6389 57.2553ZM67.8867 7.81921C67.4707 7.70938 67.1735 7.33993 67.1438 6.91057C67.0943 6.4912 67.3122 6.08181 67.6886 5.8921C70.2341 4.52414 73.0668 3.8152 75.9491 3.82519C76.3948 3.82519 76.8306 3.84516 77.2763 3.87511C86.9433 4.63398 94.2133 13.0714 93.5993 22.8268C93.5794 23.2761 93.2823 23.6655 92.8564 23.8053C92.4701 23.9451 92.0343 23.8253 91.7768 23.4958C85.4477 16.0968 77.1575 10.665 67.8867 7.81921ZM76.7811 15.5776C78.3163 16.4663 79.7921 17.4448 81.2184 18.5032L79.2573 21.4788C77.831 20.4204 76.3453 19.4418 74.8101 18.5631L76.7811 15.5876V15.5776ZM49.464 9.15721C49.464 7.19016 51.0487 5.59254 52.9999 5.59254C54.9512 5.59254 56.5359 7.19016 56.5359 9.15721C56.5359 11.1243 54.9512 12.7219 52.9999 12.7219C51.0487 12.7219 49.464 11.1243 49.464 9.15721ZM14.2231 23.4958C13.9655 23.8253 13.5297 23.9451 13.1435 23.8053C12.7176 23.6755 12.4204 23.2861 12.4006 22.8467C11.7766 13.0813 19.0566 4.63398 28.7334 3.87511C29.1791 3.84516 29.6249 3.82519 30.0607 3.82519C32.9429 3.82519 35.7757 4.53413 38.3212 5.8921C38.6976 6.08181 38.9155 6.4912 38.8659 6.91057C38.8362 7.33993 38.5391 7.69939 38.1231 7.81921C28.8424 10.665 20.5621 16.0968 14.2231 23.5058V23.4958ZM24.7815 18.5132C26.2077 17.4548 27.6934 16.4763 29.2188 15.5776L31.1898 18.5532C29.6546 19.4318 28.1689 20.4104 26.7426 21.4688L24.7815 18.5132Z" fill="#E53835"/>
<path d="M53.0003 34.1008C53.9809 34.1008 54.7634 33.302 54.7634 32.3235V28.7588C54.7634 27.7703 53.971 26.9814 53.0003 26.9814C52.0297 26.9814 51.2373 27.7802 51.2373 28.7588V32.3235C51.2373 33.312 52.0297 34.1008 53.0003 34.1008Z" fill="#E53835"/>
<path d="M34.2603 35.8475C33.5669 35.1485 32.4477 35.1485 31.7544 35.8475C31.061 36.5464 31.061 37.6747 31.7544 38.3737L34.2504 40.8899C34.9536 41.5689 36.0728 41.5489 36.7463 40.85C37.4099 40.161 37.4099 39.0626 36.7463 38.3737L34.2504 35.8475H34.2603Z" fill="#E53835"/>
<path d="M28.2678 55.4688H24.7318C23.7512 55.4688 22.9688 56.2676 22.9688 57.2461C22.9688 58.2246 23.7611 59.0234 24.7318 59.0234H28.2678C29.2483 59.0234 30.0308 58.2246 30.0308 57.2461C30.0308 56.2676 29.2384 55.4688 28.2678 55.4688Z" fill="#E53835"/>
<path d="M34.2601 73.6313L31.7641 76.1476C31.0708 76.8465 31.0708 77.9748 31.7641 78.6638C32.4575 79.3528 33.5767 79.3628 34.2601 78.6638L36.7561 76.1476C37.4593 75.4686 37.4791 74.3403 36.7957 73.6313C36.1222 72.9224 35.003 72.9024 34.2997 73.5914C34.2898 73.6014 34.27 73.6214 34.2601 73.6313Z" fill="#E53835"/>
<path d="M53.0003 80.4014C52.0198 80.4014 51.2373 81.2002 51.2373 82.1787V85.7434C51.2373 86.7319 52.0297 87.5207 53.0003 87.5207C53.971 87.5207 54.7634 86.7219 54.7634 85.7434V82.1787C54.7634 81.1902 53.971 80.4014 53.0003 80.4014Z" fill="#E53835"/>
<path d="M71.7401 73.6313C71.0666 72.9224 69.9474 72.9024 69.2441 73.5914C68.5409 74.2704 68.5211 75.3987 69.2045 76.1076C69.2144 76.1176 69.2342 76.1376 69.2441 76.1476L71.7401 78.6638C72.4335 79.3628 73.5527 79.3628 74.2361 78.6638C74.9195 77.9649 74.9294 76.8366 74.2361 76.1476L71.7401 73.6313Z" fill="#E53835"/>
<path d="M75.9688 57.2559C75.9688 58.2444 76.7611 59.0332 77.7318 59.0332H81.2678C82.2483 59.0332 83.0308 58.2344 83.0308 57.2559C83.0308 56.2773 82.2384 55.4785 81.2678 55.4785H77.7318C76.7512 55.4785 75.9688 56.2773 75.9688 57.2559Z" fill="#E53835"/>
<path d="M71.7401 35.8482L69.2441 38.3744C68.5409 39.0534 68.5211 40.1817 69.2045 40.8907C69.878 41.5996 70.9973 41.6196 71.7005 40.9306C71.7104 40.9206 71.7302 40.9007 71.7401 40.8907L74.2361 38.3744C74.9294 37.6755 74.9294 36.5472 74.2361 35.8582C73.5428 35.1592 72.4235 35.1592 71.7401 35.8582V35.8482Z" fill="#E53835"/>
<path d="M59.0715 60.8504C59.7252 59.762 60.0718 58.5238 60.0718 57.2557C60.0619 54.0206 57.8829 51.1948 54.7728 50.386V39.4424C54.7728 38.4539 53.9805 37.665 53.0098 37.665C52.0391 37.665 51.2468 38.4638 51.2468 39.4424V50.386C47.4731 51.3646 45.2049 55.2388 46.1756 59.0431C46.9778 62.1884 49.7908 64.3851 53.0098 64.3851C54.2677 64.3851 55.4959 64.0256 56.5755 63.3766L58.8239 65.6432C59.5271 66.3222 60.6463 66.3022 61.3198 65.6033C61.9834 64.9143 61.9834 63.8159 61.3198 63.127L59.0715 60.8604V60.8504ZM49.4639 57.2557C49.4639 55.2887 51.0388 53.6911 52.99 53.6911C54.9412 53.6911 56.526 55.2787 56.526 57.2458C56.526 58.1943 56.1595 59.093 55.4959 59.762C54.1191 61.1499 51.8807 61.1599 50.494 59.762C49.8304 59.093 49.454 58.1844 49.454 57.2458L49.4639 57.2557Z" fill="#E53835"/>
<path d="M100.087 35.9972C99.176 36.3467 98.7105 37.3651 99.0472 38.2937C103.613 50.5255 103.613 64.0053 99.0472 76.227C98.7105 77.1456 99.1661 78.1741 100.087 78.5236C100.998 78.8631 102.019 78.4038 102.365 77.4752C107.229 64.4446 107.229 50.0761 102.365 37.0456C102.029 36.127 101.008 35.6577 100.097 35.9972H100.087Z" fill="#E53835"/>
<path d="M5.92255 35.9976C5.01132 35.6481 3.99114 36.1174 3.64447 37.036C-1.21873 50.0666 -1.21873 64.4351 3.64447 77.4656C3.98123 78.3842 5.00142 78.8535 5.92255 78.514C6.83378 78.1745 7.2993 77.1461 6.96254 76.2175C2.39648 63.9857 2.39648 50.5059 6.96254 38.2842C7.2993 37.3655 6.84369 36.3371 5.92255 35.9976Z" fill="#E53835"/>
</g>
<defs>
<clipPath id="clip0_10755_6262">
<rect width="106" height="107" fill="white" transform="translate(0 0.250977)"/>
</clipPath>
</defs>
</svg>
