<svg width="100" height="111" viewBox="0 0 100 111" fill="none" xmlns="http://www.w3.org/2000/svg">
<path d="M99.9514 83.081C99.3412 76.8008 93.7037 71.8664 87.1265 71.8664C86.3455 71.8664 85.711 71.248 85.711 70.46V49.5584C85.711 34.0398 75.7171 20.4975 61.9404 15.4418C62.099 14.6416 62.1844 13.8293 62.1844 13.017C62.1844 6.32465 56.7177 0.905273 49.9941 0.905273C43.2705 0.905273 37.8037 6.33677 37.8037 13.017C37.8037 13.8172 37.8891 14.6174 38.0356 15.3812C33.301 17.0543 28.9325 19.6973 25.1985 23.2738C18.1576 30.0147 14.2894 39.0834 14.2894 48.8067V70.4721C14.2894 71.2359 13.667 71.8785 12.8739 71.8785C6.2845 71.8785 0.659117 76.8129 0.0489892 83.0931C-0.292683 86.5848 0.866561 90.0643 3.24606 92.6588C5.60116 95.2291 8.98126 96.7203 12.4956 96.7203H34.0331C34.9239 104.686 41.7451 110.917 49.9941 110.917C58.243 110.917 65.0642 104.686 65.955 96.7203H87.4926C91.0069 96.7203 94.387 95.2291 96.7421 92.6588C99.0972 90.0643 100.281 86.5969 99.9392 83.0931L99.9514 83.081ZM50.0063 7.99775C52.7885 7.99775 55.0581 10.2528 55.0581 13.017C55.0581 13.2474 55.0215 13.4656 54.9849 13.696C53.7647 13.5141 52.5444 13.3929 51.312 13.3565C49.1887 13.2838 47.1021 13.4292 45.0276 13.7081C44.991 13.4777 44.9544 13.2595 44.9544 13.0292C44.9544 10.2407 47.2241 7.98562 50.0063 7.98562V7.99775ZM50.0063 103.801C45.6988 103.801 42.099 100.745 41.257 96.7082H58.7555C57.9135 100.758 54.3138 103.801 50.0063 103.801ZM91.4706 87.8699C90.4334 88.9853 89.0423 89.6036 87.5048 89.6036H12.5078C10.9703 89.6036 9.57919 88.9853 8.54197 87.8699C7.50476 86.7545 7.02886 85.2754 7.18749 83.7599C7.43154 81.0805 9.95747 78.971 12.8983 78.971C17.6085 78.971 21.4523 75.1519 21.4523 70.4721V48.8067C21.4523 41.0353 24.5639 33.7852 30.1893 28.3901C35.5462 23.2253 42.5505 20.4247 50.0063 20.4247C50.3602 20.4247 50.7018 20.4247 51.0557 20.4369C66.2113 20.9703 78.5725 34.0398 78.5725 49.5705V70.4721C78.5725 75.1519 82.4163 78.971 87.1265 78.971C90.0673 78.971 92.5932 81.0805 92.8373 83.7599C92.9837 85.2875 92.4956 86.7424 91.4584 87.8699H91.4706Z" fill="#E52320"/>
</svg>
