<?xml version="1.0" encoding="UTF-8"?>
<svg id="Capa_2" data-name="Capa 2" xmlns="http://www.w3.org/2000/svg" viewBox="0 0 416.04 496">
  <defs>
    <style>
      .cls-1 {
        fill: red;
      }
    </style>
  </defs>
  <g id="Capa_1-2" data-name="Capa 1">
    <g id="layer6">
      <path id="path848" class="cls-1" d="M56.04,111.97c-27.8,0-42.24,14.56-49.19,28.46C-.1,154.34,0,168.01,0,168.01v151.95s-.1,13.67,6.85,27.58c6.95,13.91,21.48,28.46,49.19,28.46h68.27v-16H56.04c-20.23,0-29.8-9.51-34.84-19.61-5.05-10.09-5.2-20.43-5.2-20.43v-151.95s.15-10.34,5.2-20.43c5.05-10.09,14.73-19.61,34.84-19.61h175.98c20.26,0,29.8,9.51,34.84,19.61,5.05,10.09,5.14,20.43,5.14,20.43v16h16v-16s.1-13.67-6.85-27.58c-6.95-13.91-21.36-28.46-49.13-28.46H56.04Z"/>
      <path id="path850" class="cls-1" d="M144.04,0C95.74,0,56.12,39.72,56.1,87.99l-.06,32.01h16l.06-32.01c.01-39.52,32.4-71.99,71.93-71.99,39.53,0,72,32.45,71.99,71.99v32.01h16v-32.01C232.05,39.69,192.32,0,144.04,0Z"/>
      <path id="path852" class="cls-1" d="M144.04,47.95c-23.35,0-39.97,17.63-39.98,40.04v32.01h16v-32.01c0-14.64,10.37-24.04,23.98-24.04s24.04,9.43,24.04,24.04l-.06,32.01h16l.06-32.01c0-22.4-16.67-40.04-40.04-40.04Z"/>
      <g>
        <path id="path854" class="cls-1" d="M232.03,176.04c-3.82,0-7.11,2.69-7.85,6.44l-3.07,15.24c-13.37,3.48-26.08,8.82-37.91,15.94l-13.23-8.74c-3.17-2.12-7.4-1.7-10.1,1l-33.96,33.96c-2.67,2.69-3.09,6.88-1,10.04l8.68,12.99c-7.08,11.93-12.32,24.76-15.71,38.21l-15.41,3.07c-3.75.75-6.44,4.04-6.44,7.85v47.95c0,3.82,2.69,7.11,6.44,7.85l15.24,3.01c3.48,13.39,8.87,26.18,16,38.03l-8.8,13.23c-2.12,3.17-1.7,7.4,1,10.1l33.96,33.9c2.7,2.7,6.92,3.12,10.1,1l12.93-8.62c11.93,7.07,24.82,12.32,38.27,15.71l3.01,15.35c.75,3.75,4.04,6.44,7.85,6.44h48.01c3.82,0,7.11-2.69,7.85-6.44l3.01-15.18c13.57-3.34,26.52-8.56,38.56-15.65l12.64,8.39c3.17,2.12,7.4,1.7,10.1-1l33.96-33.9c2.7-2.7,3.12-6.92,1-10.1l-8.44-12.7c7.09-12.05,12.37-24.98,15.71-38.56l15.18-3.01c3.75-.75,6.44-4.04,6.44-7.85v-47.95c0-3.82-2.69-7.11-6.44-7.85l-14.88-2.95c-3.51-13.52-8.95-26.38-16.18-38.33l8.62-12.99c2.08-3.16,1.66-7.35-1-10.04l-33.96-33.96c-2.7-2.7-6.92-3.12-10.1-1l-12.81,8.56c-11.99-7.09-24.87-12.4-38.39-15.77l-3.01-15.24c-.75-3.75-4.04-6.44-7.85-6.44h-48.01ZM238.58,192.05h34.9l2.6,12.87c.63,3.14,3.07,5.6,6.2,6.26,15.54,3.21,30.38,9.33,43.7,17.95,2.67,1.71,6.1,1.69,8.74-.06l10.81-7.2,24.69,24.69-7.32,10.93c-1.78,2.68-1.78,6.17,0,8.86,8.8,13.27,15.05,28.02,18.43,43.58.68,3.11,3.14,5.52,6.26,6.14l12.46,2.54v34.84l-12.81,2.6c-3.16.64-5.62,3.1-6.26,6.26-3.17,15.62-9.26,30.49-17.89,43.88-1.71,2.67-1.69,6.1.06,8.74l7.09,10.57-24.69,24.69-10.57-7.03c-2.66-1.78-6.12-1.8-8.8-.06-13.39,8.64-28.26,14.66-43.88,17.83-3.17.65-5.64,3.14-6.26,6.32l-2.54,12.76h-34.9l-2.6-12.93c-.63-3.14-3.07-5.6-6.2-6.26-15.49-3.24-30.25-9.33-43.52-17.95-2.68-1.74-6.14-1.72-8.8.06l-10.93,7.26-24.69-24.69,7.44-11.16c1.8-2.67,1.82-6.16.06-8.86-8.71-13.19-14.89-27.84-18.25-43.29-.68-3.11-3.14-5.52-6.26-6.14l-12.81-2.6v-34.84l12.99-2.6c3.14-.63,5.6-3.07,6.26-6.2,3.24-15.49,9.33-30.25,17.95-43.52,1.74-2.68,1.72-6.14-.06-8.8l-7.32-10.93,24.69-24.69,11.16,7.44c2.68,1.78,6.17,1.78,8.86,0,13.19-8.71,27.9-14.89,43.35-18.25,3.11-.68,5.52-3.14,6.14-6.26l2.54-12.76Z"/>
        <path id="path856" class="cls-1" d="M256,232.03c-57.34,0-104,46.65-104,104s46.65,104,104,104,104-46.65,104-104-46.65-104-104-104ZM256,248.03c48.7,0,88.05,39.3,88.05,87.99s-39.36,87.99-88.05,87.99-87.99-39.3-87.99-87.99,39.3-87.99,87.99-87.99Z"/>
        <path id="path858" class="cls-1" d="M256,264.04c-22,0-39.98,17.98-39.98,39.98,0,22,17.98,40.04,39.98,40.04s40.04-18.04,40.04-40.04c0-22-18.04-39.98-40.04-39.98ZM256,280.04c13.35,0,24.04,10.63,24.04,23.98s-10.69,24.04-24.04,24.04-23.98-10.69-23.98-24.04,10.63-23.98,23.98-23.98Z"/>
        <path id="path860" class="cls-1" d="M256,352.03c-34.37,0-62.73,27.36-63.96,61.71l16,.59c.93-25.91,22.03-46.3,47.95-46.3s47.11,20.37,48.01,46.3l15.94-.53c-1.2-34.37-29.57-61.77-63.96-61.77Z"/>
      </g>
    </g>
  </g>
</svg>