<?xml version="1.0" encoding="UTF-8"?>
<svg id="Capa_2" data-name="Capa 2" xmlns="http://www.w3.org/2000/svg" viewBox="0 0 380.51 508.32">
  <defs>
    <style>
      .cls-1 {
        fill: red;
      }
    </style>
  </defs>
  <g id="Capa_1-2" data-name="Capa 1">
    <g>
      <path class="cls-1" d="M8,425.86h73.77c4.42,0,8-3.58,8-8v-11.72h30.36l24.52,21.98c10.7,9.6,24.57,14.91,38.95,14.9h44.8v16c0,27.23,22.07,49.3,49.3,49.3s49.3-22.07,49.3-49.3v-16h1.75c15.11.5,27.78-11.3,28.37-26.4v-13.55c0-4.77-1.38-9.44-3.95-13.45,9.16-4.24,15.08-13.35,15.24-23.44v-13.5c-.04-6.99-2.95-13.66-8.05-18.45,5.1-4.78,8.01-11.45,8.05-18.45v-13.51c-.16-10.09-6.09-19.19-15.24-23.43,2.58-4.01,3.95-8.68,3.95-13.46v-13.51c-.59-15.1-13.26-26.9-28.37-26.4h-1.78v-44.39c49.8-27.16,68.15-89.56,40.98-139.35-9.36-17.15-23.41-31.28-40.51-40.73-3.87-2.14-8.73-.74-10.87,3.13-.65,1.18-1,2.51-1,3.86v78.18l-37.88,20.35-37.88-20.35V7.99c0-4.42-3.59-8-8.01-7.99-1.35,0-2.68.35-3.86,1-49.66,27.4-67.7,89.88-40.29,139.53,9.45,17.12,23.59,31.19,40.76,40.55v4h-41.84c-18.95,0-36.72,9.21-47.66,24.68l-19.84,28.09h-29.28v-11.72c0-4.42-3.58-8-8-8H8c-4.42,0-8,3.58-8,8v191.74c0,4.42,3.58,8,8,8h0ZM73.77,409.86H16v-35.68h57.77v35.68ZM311.05,458.98c0,18.39-14.91,33.3-33.3,33.3s-33.3-14.91-33.3-33.3h0v-16h14.94c-4.11,10.77,1.29,22.83,12.06,26.94s22.83-1.29,26.94-12.06c1.83-4.79,1.83-10.09,0-14.88h12.66v16ZM282.36,453.89c-1.91,1.91-5.01,1.91-6.92,0-1.91-1.91-1.91-5.01,0-6.92,1.91-1.91,5.01-1.91,6.92,0,1.89,1.93,1.88,5.02-.03,6.93h.03ZM244.39,207.94v-23.74h66.58v41.22h-66.58v-17.49ZM190.86,90.95c.02-26.52,12.15-51.58,32.94-68.05v68.05c0,2.95,1.62,5.65,4.22,7.05l45.87,24.66c2.37,1.27,5.21,1.27,7.58,0l45.89-24.66c2.59-1.4,4.21-4.1,4.21-7.05V22.91c37.54,29.64,43.94,84.1,14.3,121.63-7.82,9.91-17.71,17.98-28.98,23.66h-78.4c-29.26-14.62-47.71-44.55-47.62-77.26h0ZM123.19,253.85c2.6,0,5.04-1.26,6.54-3.38l22.22-31.45c7.94-11.23,20.84-17.91,34.6-17.91h41.84v24.33h-33.22v16h133.6c6.27-.48,11.76,4.14,12.37,10.4v13.51c-.58,6.27-6.08,10.92-12.37,10.45h-51.09v16h62.4c6.26-.48,11.76,4.15,12.36,10.4v13.51c-.58,6.27-6.08,10.92-12.36,10.45h-62.4v16h62.4c6.28-.48,11.78,4.17,12.36,10.45v13.5c-.58,6.27-6.08,10.92-12.36,10.45h-62.4v16h51.09c6.27-.48,11.76,4.14,12.37,10.4v13.51c-.6,6.26-6.1,10.88-12.37,10.4h-145.14c-10.44,0-20.51-3.85-28.28-10.82l-26.82-24c-1.47-1.31-3.37-2.04-5.34-2.04h-33.42v-136.16h33.42ZM73.77,234.13v124.06H16v-124.06h57.77Z"/>
      <path class="cls-1" d="M44.89,382.94c-5.08,0-9.2,4.11-9.21,9.19,0,5.08,4.11,9.2,9.19,9.21,5.08,0,9.2-4.11,9.21-9.19h0c0-5.09-4.11-9.2-9.19-9.21Z"/>
    </g>
  </g>
</svg>