<?xml version="1.0" encoding="UTF-8"?>
<svg id="Capa_2" data-name="Capa 2" xmlns="http://www.w3.org/2000/svg" viewBox="0 0 329.99 330">
  <defs>
    <style>
      .cls-1 {
        fill: red;
      }
    </style>
  </defs>
  <g id="Capa_1-2" data-name="Capa 1">
    <g>
      <path class="cls-1" d="M234.27,0H95.72c-13.35,0-24.23,10.87-24.23,24.23v281.54c0,13.36,10.87,24.23,24.23,24.23h138.54c13.36,0,24.23-10.87,24.23-24.23V24.23c0-13.35-10.87-24.23-24.23-24.23ZM82.49,44h165v209H82.49V44ZM95.72,11h138.54c7.3,0,13.23,5.93,13.23,13.23v8.77H82.49v-8.77c0-7.29,5.93-13.23,13.23-13.23ZM234.27,319H95.72c-7.29,0-13.23-5.93-13.23-13.23v-41.77h165v41.77c0,7.29-5.93,13.23-13.23,13.23Z"/>
      <path class="cls-1" d="M164.99,269.5c-12.13,0-22,9.87-22,22s9.87,22,22,22,22-9.87,22-22-9.87-22-22-22ZM164.99,302.5c-6.07,0-11-4.93-11-11s4.93-11,11-11,11,4.93,11,11-4.93,11-11,11Z"/>
      <path class="cls-1" d="M142.99,27.5h22c3.04,0,5.5-2.46,5.5-5.5s-2.46-5.5-5.5-5.5h-22c-3.04,0-5.5,2.46-5.5,5.5s2.46,5.5,5.5,5.5Z"/>
      <path class="cls-1" d="M181.49,27.5h5.5c3.04,0,5.5-2.46,5.5-5.5s-2.46-5.5-5.5-5.5h-5.5c-3.04,0-5.5,2.46-5.5,5.5s2.46,5.5,5.5,5.5Z"/>
      <path class="cls-1" d="M311.36,25.13c-2.15-2.15-5.63-2.15-7.78,0s-2.15,5.63,0,7.78c20.55,20.55,20.55,53.98,0,74.54-2.15,2.15-2.15,5.63,0,7.78,1.07,1.07,2.48,1.61,3.89,1.61s2.82-.54,3.89-1.61c24.84-24.83,24.84-65.25,0-90.09Z"/>
      <path class="cls-1" d="M288.2,37.65c-2.15-2.15-5.63-2.15-7.78,0-2.15,2.15-2.15,5.63,0,7.78,6.8,6.8,10.55,15.87,10.55,25.51s-3.75,18.71-10.55,25.51c-2.15,2.15-2.15,5.63,0,7.78,1.07,1.07,2.48,1.61,3.89,1.61s2.82-.54,3.89-1.61c8.88-8.88,13.77-20.7,13.77-33.29s-4.88-24.41-13.77-33.29Z"/>
      <path class="cls-1" d="M26.41,32.91c2.15-2.15,2.15-5.63,0-7.78s-5.63-2.15-7.78,0c-24.84,24.84-24.84,65.25,0,90.09,1.07,1.07,2.48,1.61,3.89,1.61s2.82-.54,3.89-1.61c2.15-2.15,2.15-5.63,0-7.78-20.55-20.55-20.55-53.98,0-74.54Z"/>
      <path class="cls-1" d="M49.57,36.13c-2.15-2.15-5.63-2.15-7.78,0-8.88,8.88-13.77,20.7-13.77,33.29s4.89,24.41,13.77,33.29c1.07,1.07,2.48,1.61,3.89,1.61s2.82-.54,3.89-1.61c2.15-2.15,2.15-5.63,0-7.78-6.8-6.8-10.55-15.87-10.55-25.51s3.74-18.71,10.55-25.51c2.15-2.14,2.15-5.63,0-7.78Z"/>
    </g>
  </g>
</svg>