<?xml version="1.0" encoding="UTF-8"?>
<svg id="Capa_2" data-name="Capa 2" xmlns="http://www.w3.org/2000/svg" viewBox="0 0 395.65 512">
  <defs>
    <style>
      .cls-1 {
        fill: red;
      }
    </style>
  </defs>
  <g id="Capa_1-2" data-name="Capa 1">
    <g>
      <path class="cls-1" d="M382.49,53.54c-62.39-3.95-123.14-21.63-177.89-51.8-4.22-2.33-9.34-2.33-13.55,0C136.29,31.91,75.55,49.6,13.16,53.54,5.77,54.04.02,60.18,0,67.59v183.59c-.05,62.65,27.53,122.13,75.38,162.57l111.83,94.36c6.12,5.19,15.1,5.19,21.23,0l111.85-94.37c47.84-40.44,75.42-99.91,75.36-162.55V67.59c-.02-7.41-5.76-13.55-13.16-14.05h0ZM370.61,251.18c.05,55.27-24.28,107.75-66.49,143.43l-106.3,89.69-106.29-89.68c-42.22-35.68-66.55-88.17-66.5-143.45V77.74c60.47-5.19,119.25-22.61,172.79-51.19,53.54,28.58,112.32,46,172.79,51.19v173.44Z"/>
      <path class="cls-1" d="M153.1,212.53c-4.96-4.82-12.88-4.71-17.7.25-4.73,4.86-4.73,12.6,0,17.45l56.55,56.55,130.52-130.52c4.82-4.96,4.71-12.88-.25-17.7-4.86-4.73-12.6-4.73-17.45,0l-112.82,112.82-38.85-38.84Z"/>
      <path class="cls-1" d="M81.66,231.4c.02,64.15,52.04,116.15,116.2,116.13,64.13-.02,116.11-52,116.13-116.13-.06-6.91-5.72-12.47-12.63-12.41-6.83.06-12.34,5.58-12.41,12.41,0,50.33-40.8,91.13-91.13,91.13s-91.13-40.8-91.13-91.13,40.8-91.13,91.13-91.13c14.18-.04,28.18,3.26,40.84,9.64,6.18,3.09,13.7.59,16.8-5.6,3.08-6.17.6-13.67-5.56-16.77-16.15-8.14-34-12.36-52.08-12.3-64.12.07-116.09,52.04-116.16,116.16h0Z"/>
    </g>
  </g>
</svg>