<?xml version="1.0" encoding="UTF-8"?>
<svg id="Capa_2" data-name="Capa 2" xmlns="http://www.w3.org/2000/svg" viewBox="0 0 512 476.32">
  <defs>
    <style>
      .cls-1 {
        fill: red;
      }
    </style>
  </defs>
  <g id="Capa_1-2" data-name="Capa 1">
    <g>
      <path class="cls-1" d="M494.56,139.11v258.51c0,10.35-12.41,20.66-35.24,29.49v-58.97c7.58,2.92,7.86,3.65,10.51,3.65,9.15,0,11.87-12.58,3.48-16.32-4.3-1.92-8.97-3.76-13.99-5.52V120.66c69.63-24.47,80.8-78.27-31.57-104.31-94.09-21.8-249.76-21.8-343.86,0C28.22,29.25,0,48.31,0,73v256.45c0,11.27,17.05,11.29,17.05,0V102.83c8.56,6.63,20.31,12.59,35.24,17.84v306.46c-34.15-13.21-49.61-31.62-18.15-50.37,9.7-5.78.96-20.43-8.73-14.65-16.86,10.05-25.41,22-25.41,35.52,0,20.52,19.59,37.23,58.21,49.65,5.52,1.77,11.14-2.36,11.14-8.12v-76.76c24.7-7.28,57.08-12.96,94.23-16.5,11.21-1.07,9.64-18.02-1.62-16.98-35.85,3.42-67.56,8.83-92.61,15.75V114.54c0-3.7-2.39-6.98-5.92-8.12C-11.11,82.44,9.41,51.11,87.73,32.97c91.54-21.21,244.56-21.23,336.16,0,77.39,17.93,99.5,49.25,24.28,73.45-3.52,1.13-5.92,4.41-5.92,8.12v230.12c-32.86-9.11-76.41-15.45-126.8-18.33v-3.8c0-79.23-119.31-79.27-119.31,0v32.88c-11.33,2.63-19.8,12.8-19.8,24.92v70.42c0,14.1,11.48,25.58,25.58,25.58h107.76c14.1,0,25.58-11.48,25.58-25.58v-45.97c0-11.27-17.05-11.29-17.05,0v45.97c0,4.7-3.83,8.53-8.53,8.53h-107.75c-4.7,0-8.53-3.83-8.53-8.53v-70.42c0-4.7,3.83-8.53,8.53-8.53h105c4.71,0,8.53-3.82,8.53-8.53v-19.86c50.67,2.97,94.98,9.66,126.8,19.01v76.74c0,5.77,5.63,9.89,11.14,8.12,38.63-12.42,58.21-29.13,58.21-49.65V139.11c0-11.27-17.05-11.29-17.05,0h0ZM298.41,354.75h-85.2v-12.19c28.19-1.16,46.53-.78,56.34-.78,4.66,0,8.46-3.75,8.52-8.42.06-4.71-3.71-8.58-8.42-8.64-18.91-.25-37.85.01-56.44.77v-2.97c0-56.68,85.2-56.69,85.2,0v32.22h0Z"/>
      <path class="cls-1" d="M242.43,136.67V62.06c0-4.72-3.85-8.61-8.7-8.52-35.67.74-70.65,3.3-101.15,7.42-4.23.57-7.39,4.18-7.39,8.45v74.61c0,4.71,3.82,8.53,8.53,8.53,3.62,0,38.72-6.07,100.37-7.34,4.64-.1,8.35-3.89,8.35-8.52h0ZM225.38,128.35c-29.06.83-57.46,2.88-83.14,5.97v-57.43c25.55-3.16,53.98-5.24,83.14-6.09v57.55Z"/>
      <path class="cls-1" d="M285.55,146.52c-2.93,10.89,13.54,15.33,16.47,4.43,2.64-9.81,9.44-17.91,18.68-22.22,6-2.8,6.66-11.13,1.12-14.82-6.77-4.51-10.81-12.05-10.81-20.17,0-13.35,10.86-24.21,24.21-24.21s24.21,10.86,24.21,24.21c0,8.12-4.04,15.66-10.81,20.17-5.51,3.67-4.91,12,1.12,14.82,12.06,5.63,19.86,17.87,19.86,31.17,0,11.27,17.05,11.29,17.05,0,0-15.78-7.33-30.55-19.36-40.19,5.88-7.25,9.19-16.37,9.19-25.97,0-22.76-18.51-41.27-41.27-41.27s-41.27,18.51-41.27,41.27c0,9.59,3.31,18.7,9.17,25.95-8.5,6.78-14.7,16.12-17.58,26.84h0Z"/>
      <path class="cls-1" d="M251.34,181.22c-11.26.05-11.22,17.05.04,17.05,41.89,0,83.46,1.82,125.39,7.48,11.17,1.5,13.47-15.39,2.28-16.9-38.41-5.18-82.56-7.82-127.71-7.63Z"/>
      <path class="cls-1" d="M132.57,188.86c-10.49,1.41-9.41,16.98,1.13,16.98,2.84,0,26.18-4.11,71.35-6.33,11.28-.56,10.42-17.6-.84-17.03-25.38,1.25-49.48,3.4-71.64,6.39Z"/>
      <path class="cls-1" d="M327.8,254.07c19.96,1.7,39.14,4,57,6.85,11.16,1.76,13.82-15.06,2.69-16.84-18.28-2.91-37.87-5.27-58.25-7-11.23-.97-12.7,16.04-1.44,16.99h0Z"/>
      <path class="cls-1" d="M264.33,431.66v-18.36h1.62c11.27,0,11.29-17.05,0-17.05h-20.29c-11.27,0-11.29,17.05,0,17.05h1.62v18.36c0,11.27,17.05,11.29,17.05,0Z"/>
      <path class="cls-1" d="M147.95,288.66c16.66,0,30.22-13.56,30.22-30.22s-13.56-30.22-30.22-30.22-30.22,13.56-30.22,30.22,13.56,30.22,30.22,30.22ZM147.95,245.27c7.26,0,13.17,5.91,13.17,13.17s-5.91,13.17-13.17,13.17-13.17-5.91-13.17-13.17,5.91-13.17,13.17-13.17h0Z"/>
    </g>
  </g>
</svg>