<?xml version="1.0" encoding="UTF-8"?>
<svg id="Capa_2" data-name="Capa 2" xmlns="http://www.w3.org/2000/svg" viewBox="0 0 450.39 496.48">
  <defs>
    <style>
      .cls-1 {
        fill: red;
      }
    </style>
  </defs>
  <g id="Capa_1-2" data-name="Capa 1">
    <g>
      <path class="cls-1" d="M118.36,226.52c-3.88,0-6.98-3.1-7.76-6.98-4.65-34.91,20.17-65.94,55.08-70.59,20.95-2.33,41.89,5.43,55.85,20.95,3.1,3.1,2.33,7.76-.78,10.86s-7.76,2.33-10.86-.78c-10.86-11.64-26.38-17.84-41.89-16.29-26.38,3.1-44.99,27.15-41.12,53.53.78,3.88-2.33,7.76-6.98,8.53-.78.78-1.55.78-1.55.78h0Z"/>
      <path class="cls-1" d="M123.79,300.22c-10.08,0-19.39-3.1-27.15-9.31-9.31-6.98-15.52-17.84-17.07-30.25-1.55-11.64,1.55-23.27,8.53-33.36,6.98-9.31,17.84-15.52,29.48-17.07,3.88-.78,7.76,2.33,8.53,6.98.78,3.88-2.33,7.76-6.98,8.53-7.76.78-14.74,4.65-19.39,10.86-4.65,6.21-6.98,13.96-5.43,21.72.78,7.76,4.65,14.74,10.86,19.39,6.21,4.65,13.96,6.98,21.72,5.43h.78l263.76-.78c6.21,0,12.41-2.33,17.07-7.76,4.65-4.65,6.98-10.08,6.21-16.29,0-6.21-2.33-12.41-6.98-16.29-4.65-4.65-10.86-6.98-17.07-6.98-4.65,0-7.76-3.1-7.76-7.76s3.1-7.76,7.76-7.76c10.08,0,20.95,4.65,27.93,11.64s11.64,17.07,11.64,27.15c.78,10.08-3.1,19.39-10.86,27.15-7.76,7.76-17.84,12.41-27.93,12.41l-262.98.78c-.78.78-3.1,1.55-4.65,1.55h0Z"/>
      <path class="cls-1" d="M391.43,236.61h-2.33c-3.88-1.55-6.21-5.43-5.43-10.08,5.43-18.62-4.65-38.79-22.5-44.22-10.08-2.33-19.39-1.55-27.15,2.33-3.88,2.33-8.53.78-10.86-3.1-2.33-3.88-.78-8.53,3.1-10.86,11.64-6.21,24.82-7.76,38.79-3.88,26.38,8.53,41.89,37.24,33.36,64.39-.78,3.1-3.88,5.43-6.98,5.43h0Z"/>
      <path class="cls-1" d="M334.02,183.08c-3.88,0-6.98-3.1-7.76-6.98-3.1-28.7-26.38-48.87-55.08-48.87-25.6,0-47.32,17.07-53.53,41.12-.78,3.88-5.43,6.98-9.31,5.43-3.88-.78-6.98-5.43-5.43-9.31,7.76-31.03,36.46-53.53,69.04-53.53,36.46,0,65.94,26.38,70.59,62.84.78,3.88-2.33,7.76-6.98,8.53-.78.78-1.55.78-1.55.78h0Z"/>
      <g>
        <path class="cls-1" d="M48.55,109.38c-3.88,0-6.98-3.1-7.76-6.98C34.58,54.3,69.49,10.08,117.59,3.88,146.29,0,175.77,10.86,195.94,33.36c3.1,3.1,2.33,7.76-.78,10.86s-7.76,2.33-10.86-.78c-16.29-18.62-40.34-27.93-64.39-24.82-19.39,2.33-36.46,12.41-48.1,27.15-11.64,15.52-17.07,34.13-14.74,53.53.78,3.88-2.33,7.76-6.98,8.53-.78,1.55-1.55,1.55-1.55,1.55Z"/>
        <path class="cls-1" d="M388.33,200.15c-4.65,0-7.76-3.1-7.76-7.76s3.1-7.76,7.76-7.76c17.07,0,31.03-13.96,31.03-31.81,0-10.08-5.43-17.07-9.31-21.72-6.21-6.21-13.96-9.31-22.5-9.31-4.65,0-7.76-3.1-7.76-7.76s3.1-7.76,7.76-7.76c12.41,0,24.82,5.43,33.36,13.96,9.31,9.31,13.96,20.17,13.96,32.58,0,26.38-20.95,47.32-46.55,47.32h0Z"/>
        <path class="cls-1" d="M54.75,200.92c-27.15,0-50.42-20.17-54.3-47.32-3.88-29.48,17.84-56.63,47.32-60.51,3.88-.78,7.76,2.33,8.53,6.98.78,3.88-2.33,7.76-6.98,8.53-20.95,2.33-36.46,21.72-33.36,43.44,2.33,20.95,21.72,36.46,43.44,33.36h58.18c4.65,0,7.76,3.1,7.76,7.76s-3.1,7.76-7.76,7.76h-62.84Z"/>
        <path class="cls-1" d="M386.78,121.79h-2.33c-3.88-1.55-6.21-5.43-4.65-10.08,7.76-24.05-4.65-49.65-29.48-57.41-10.86-3.88-23.27-2.33-34.91,3.1-3.88,1.55-8.53,0-10.08-3.1-1.55-3.88,0-8.53,3.1-10.08,15.52-7.76,31.81-9.31,47.32-4.65,32.58,10.86,49.65,44.99,38.79,77.58-1.55,2.33-4.65,4.65-7.76,4.65h0Z"/>
        <path class="cls-1" d="M316.18,76.8c-3.88,0-6.98-3.1-7.76-6.98-3.1-31.03-29.48-54.3-61.28-54.3-27.93,0-52.75,18.62-59.73,46.55-.78,3.88-5.43,6.98-9.31,5.43-4.65-1.55-6.98-5.43-6.21-10.08C181.2,24.05,212.23,0,247.14,0c39.56,0,72.15,29.48,76.8,68.27.78,3.88-2.33,7.76-6.98,8.53h-.78Z"/>
      </g>
      <g>
        <path class="cls-1" d="M257.22,390.21c-4.65,0-7.76-3.1-7.76-7.76v-89.99c0-4.65,3.1-7.76,7.76-7.76s7.76,3.1,7.76,7.76v89.99c0,4.65-3.1,7.76-7.76,7.76h0Z"/>
        <path class="cls-1" d="M257.22,435.98c-15.52,0-27.93-12.41-27.93-27.93s12.41-27.93,27.93-27.93,27.93,12.41,27.93,27.93-12.41,27.93-27.93,27.93ZM257.22,395.64c-6.98,0-12.41,5.43-12.41,12.41s5.43,12.41,12.41,12.41,12.41-5.43,12.41-12.41-5.43-12.41-12.41-12.41Z"/>
        <path class="cls-1" d="M152.5,459.25c-15.52,0-27.93-12.41-27.93-27.93s12.41-27.93,27.93-27.93,27.93,12.41,27.93,27.93-12.41,27.93-27.93,27.93ZM152.5,418.91c-6.98,0-12.41,5.43-12.41,12.41s5.43,12.41,12.41,12.41,12.41-5.43,12.41-12.41-5.43-12.41-12.41-12.41Z"/>
        <path class="cls-1" d="M153.27,414.25c-4.65,0-7.76-3.1-7.76-7.76v-17.84c0-17.84,13.96-31.81,31.81-31.81,8.53,0,16.29-7.76,16.29-16.29v-44.99c0-4.65,3.1-7.76,7.76-7.76s7.76,3.1,7.76,7.76v44.99c0,17.84-13.96,31.81-31.81,31.81-8.53,0-16.29,7.76-16.29,16.29v17.84c0,4.65-3.1,7.76-7.76,7.76Z"/>
        <path class="cls-1" d="M94.32,496.48c-15.52,0-27.93-12.41-27.93-27.93s12.41-27.93,27.93-27.93,27.93,12.41,27.93,27.93-12.41,27.93-27.93,27.93ZM94.32,456.15c-6.98,0-12.41,5.43-12.41,12.41s5.43,12.41,12.41,12.41,12.41-5.43,12.41-12.41-5.43-12.41-12.41-12.41Z"/>
        <path class="cls-1" d="M95.87,451.49c-4.65,0-7.76-3.1-7.76-7.76v-82.23c0-17.84,13.96-31.81,31.81-31.81h3.1c8.53,0,16.29-7.76,16.29-16.29v-17.84c0-4.65,3.1-7.76,7.76-7.76s7.76,3.1,7.76,7.76v17.84c0,17.84-13.96,31.81-31.81,31.81h-3.1c-8.53,0-16.29,7.76-16.29,16.29v82.23c0,4.65-3.1,7.76-7.76,7.76h0Z"/>
        <path class="cls-1" d="M422.46,496.48c-15.52,0-27.93-12.41-27.93-27.93s12.41-27.93,27.93-27.93,27.93,12.41,27.93,27.93-12.41,27.93-27.93,27.93ZM422.46,456.15c-6.98,0-12.41,5.43-12.41,12.41s5.43,12.41,12.41,12.41,12.41-5.43,12.41-12.41-5.43-12.41-12.41-12.41Z"/>
        <path class="cls-1" d="M421.69,451.49c-4.65,0-7.76-3.1-7.76-7.76v-82.23c0-8.53-7.76-16.29-16.29-16.29h-3.1c-17.84,0-31.81-13.96-31.81-31.81v-17.84c0-4.65,3.1-7.76,7.76-7.76s7.76,3.1,7.76,7.76v17.84c0,8.53,7.76,16.29,16.29,16.29h3.1c17.84,0,31.81,13.96,31.81,31.81v82.23c0,4.65-3.1,7.76-7.76,7.76h0Z"/>
        <path class="cls-1" d="M362.73,459.25c-15.52,0-27.93-12.41-27.93-27.93s12.41-27.93,27.93-27.93,27.93,12.41,27.93,27.93-12.41,27.93-27.93,27.93ZM362.73,418.91c-6.98,0-12.41,5.43-12.41,12.41s5.43,12.41,12.41,12.41,12.41-5.43,12.41-12.41-5.43-12.41-12.41-12.41Z"/>
        <path class="cls-1" d="M361.95,414.25c-4.65,0-7.76-3.1-7.76-7.76v-17.84c0-8.53-7.76-16.29-16.29-16.29-17.84,0-31.81-13.96-31.81-31.81v-44.99c0-4.65,3.1-7.76,7.76-7.76s7.76,3.1,7.76,7.76v44.99c0,8.53,7.76,16.29,16.29,16.29,17.84,0,31.81,13.96,31.81,31.81v17.84c0,4.65-3.1,7.76-7.76,7.76Z"/>
      </g>
    </g>
  </g>
</svg>