<?xml version="1.0" encoding="UTF-8"?>
<svg id="Capa_2" data-name="Capa 2" xmlns="http://www.w3.org/2000/svg" viewBox="0 0 383.51 383.51">
  <defs>
    <style>
      .cls-1 {
        fill: red;
      }
    </style>
  </defs>
  <g id="Capa_1-2" data-name="Capa 1">
    <g>
      <path class="cls-1" d="M199.75,223.71h127.84c4.41,0,7.99-3.58,7.99-7.99s-3.58-7.99-7.99-7.99h-127.84c-4.41,0-7.99,3.58-7.99,7.99s3.58,7.99,7.99,7.99Z"/>
      <path class="cls-1" d="M383.51,151.81v-31.96c0-7.72-2.3-14.86-6.1-20.98-.1-.19-.11-.42-.22-.59l-49.41-79.42c-7.33-11.79-20.02-18.86-33.92-18.86H89.68c-13.92,0-26.59,7.06-33.92,18.86L6.34,98.27c-.1.16-.1.34-.19.51-3.84,6.12-6.15,13.31-6.15,21.06v31.96c0,13.1,6.44,24.67,16.24,31.96-9.8,7.29-16.24,18.84-16.24,31.96v31.96c0,13.1,6.44,24.67,16.24,31.96-9.8,7.29-16.24,18.84-16.24,31.96v31.96c0,22.02,17.93,39.95,39.95,39.95h104.76c4.43,0,7.99-3.58,7.99-7.99s-3.58-7.99-7.99-7.99H39.95c-13.22,0-23.97-10.75-23.97-23.97v-31.96c0-13.23,10.75-23.97,23.97-23.97h133.65c4.41,0,7.99-3.58,7.99-7.99s-3.58-7.99-7.99-7.99H39.95c-13.22,0-23.97-10.75-23.97-23.97v-31.96c0-13.23,10.75-23.97,23.97-23.97h303.61c13.22,0,23.97,10.75,23.97,23.97v31.96c0,3.52-.86,7.05-2.53,10.45-1.93,3.96-.3,8.74,3.66,10.69,3.98,1.95,8.76.32,10.69-3.66,2.76-5.62,4.15-11.49,4.15-17.48v-31.96c0-13.1-6.44-24.67-16.24-31.96,9.8-7.3,16.24-18.86,16.24-31.96ZM69.32,27.29c4.39-7.08,12-11.31,20.34-11.31h204.17c8.34,0,15.95,4.23,20.36,11.31l32.97,52.97c-1.2-.13-2.36-.37-3.6-.37H39.95c-1.23,0-2.4.24-3.6.35l32.97-52.96ZM367.53,151.81c0,13.22-10.75,23.97-23.97,23.97H39.95c-13.22,0-23.97-10.75-23.97-23.97v-31.96c0-13.23,10.75-23.97,23.97-23.97h303.61c13.22,0,23.97,10.74,23.97,23.97v31.96h0Z"/>
      <path class="cls-1" d="M31.96,327.58c0,13.22,10.75,23.97,23.97,23.97s23.97-10.75,23.97-23.97-10.75-23.97-23.97-23.97-23.97,10.74-23.97,23.97ZM63.92,327.58c0,4.41-3.58,7.99-7.99,7.99s-7.99-3.58-7.99-7.99,3.58-7.99,7.99-7.99,7.99,3.58,7.99,7.99Z"/>
      <path class="cls-1" d="M327.58,271.65c-1.45,0-2.91.08-4.33.21-13.31-19.97-35.67-32.17-59.59-32.17-37.2,0-67.9,28.4-71.54,64.65-18.39,3.55-32.33,19.78-32.33,39.21,0,22.02,17.93,39.95,39.95,39.95h127.84c30.84,0,55.93-25.09,55.93-55.93s-25.09-55.93-55.93-55.93ZM327.58,367.53h-127.84c-13.22,0-23.97-10.75-23.97-23.97s10.75-23.97,23.97-23.97c4.41,0,7.99-3.58,7.99-7.99,0-30.84,25.09-55.93,55.93-55.93,19.97,0,38.59,11.01,48.55,28.73,1.66,2.96,4.95,4.52,8.37,3.95,2.29-.4,4.6-.72,7-.72,22.02,0,39.95,17.93,39.95,39.95s-17.93,39.95-39.95,39.95Z"/>
      <path class="cls-1" d="M327.58,111.86h-127.84c-4.41,0-7.99,3.58-7.99,7.99s3.58,7.99,7.99,7.99h127.84c4.41,0,7.99-3.58,7.99-7.99s-3.58-7.99-7.99-7.99Z"/>
      <path class="cls-1" d="M327.58,143.82h-127.84c-4.41,0-7.99,3.58-7.99,7.99s3.58,7.99,7.99,7.99h127.84c4.41,0,7.99-3.58,7.99-7.99s-3.58-7.99-7.99-7.99Z"/>
      <path class="cls-1" d="M55.93,111.86c-13.22,0-23.97,10.74-23.97,23.97s10.75,23.97,23.97,23.97,23.97-10.75,23.97-23.97-10.75-23.97-23.97-23.97ZM55.93,143.82c-4.41,0-7.99-3.58-7.99-7.99s3.58-7.99,7.99-7.99,7.99,3.58,7.99,7.99-3.58,7.99-7.99,7.99Z"/>
      <path class="cls-1" d="M31.96,231.7c0,13.22,10.75,23.97,23.97,23.97s23.97-10.75,23.97-23.97-10.75-23.97-23.97-23.97-23.97,10.74-23.97,23.97ZM63.92,231.7c0,4.41-3.58,7.99-7.99,7.99s-7.99-3.58-7.99-7.99,3.58-7.99,7.99-7.99,7.99,3.58,7.99,7.99Z"/>
    </g>
  </g>
</svg>