<?xml version="1.0" encoding="UTF-8"?>
<svg id="Capa_2" xmlns="http://www.w3.org/2000/svg" version="1.1" viewBox="0 0 1200 1200">
  <!-- Generator: Adobe Illustrator 29.0.0, SVG Export Plug-In . SVG Version: 2.1.0 Build 186)  -->
  <defs>
    <style>
      .st0 {
        fill: red;
      }

      .st1 {
        fill: #6d6d6d;
      }

      .st2 {
        fill: #9e9e9e;
      }
    </style>
  </defs>
  <path class="st1" d="M599.8,867v87c-427,7.6-549.3-481.7-251.7-721.1.5.8,13.8,23.2,14.8,24.8l7-22.2,40.9,5.1c-5.5,25.8-17.5,82.1-22.9,107.5l-15-20.5c-195.9,186.5-47.7,548.9,226.9,539.5h0Z"/>
  <path class="st0" d="M1091.6,552.3c-15.3,668.5-1014.1,633.1-982-34.8,4.2-60.7,19.9-120.6,46.1-175.5,30-63.3,73.8-120,127.3-165.2l.7,1.2,12.5,22.2c4.8-14,16.5-48.3,21.1-61.9,11.4,2.5,66.2,14.6,78.8,17.4-8.9,28.5-24.1,76.8-32.9,104.8-1.1-1.8-14.3-23.9-14.8-24.8-50.1,39.9-90.6,91.7-117,150-22.2,48.8-34.4,102.1-35.7,155.6-4.2,538.6,798.6,549.6,809,10.9h87-.1Z"/>
  <path class="st2" d="M1091.6,552.3c-15.3,668.5-1014.1,633.1-982-34.8,4.2-60.7,19.9-120.6,46.1-175.5,30-63.3,73.8-120,127.3-165.2l.7,1.2,12.5,22.2c10.3-30.2,25.2-73.8,35.5-104-27.8-6.9-81.9-20.3-109.4-27.1l17.3,30.8C-183.7,412.1,64.7,1149.6,600,1130.9c319,0,578.6-259.6,578.6-578.6h-87Z"/>
</svg>