<?xml version="1.0" encoding="UTF-8"?>
<svg id="Capa_2" data-name="Capa 2" xmlns="http://www.w3.org/2000/svg" viewBox="0 0 650.9 759.69">
  <defs>
    <style>
      .cls-1 {
        fill: #fff;
      }

      .cls-2 {
        fill: #ee0909;
      }
    </style>
  </defs>
  <g id="Capa_1-2" data-name="Capa 1">
    <g>
      <rect class="cls-1" width="650.9" height="759.69" rx="40.79" ry="40.79"/>
      <path class="cls-2" d="M491,214.29h0c-44.22-44.22-103.01-68.57-165.55-68.57s-121.33,24.35-165.55,68.57c-44.22,44.22-68.57,103.01-68.57,165.55s24.35,121.33,68.57,165.55c44.22,44.22,103.01,68.57,165.55,68.57s121.33-24.35,165.55-68.57c44.22-44.22,68.57-103.01,68.57-165.55s-24.35-121.33-68.57-165.55Z"/>
      <path class="cls-1" d="M347.64,361.72h-3.9v-63.23h3.9c14.55,0,27.39,10.29,30.53,24.47,2.18,9.86,11.95,16.09,21.81,13.91,9.86-2.18,16.09-11.94,13.91-21.81-3.28-14.85-11.62-28.34-23.48-37.98-12.04-9.79-27.23-15.18-42.77-15.18h-3.9v-20.7c0-10.1-8.19-18.29-18.29-18.29s-18.29,8.19-18.29,18.29v20.7h-3.2c-37.8,0-68.55,30.75-68.55,68.55s30.44,67.85,67.85,67.85h3.9v62.53h-3.9c-15.03,0-27.96-10.7-30.72-25.43-1.87-9.93-11.43-16.47-21.35-14.6-9.93,1.87-16.46,11.43-14.6,21.35,6.02,32.02,34.06,55.26,66.68,55.26h3.9v26.18c0,10.1,8.19,18.29,18.29,18.29s18.29-8.19,18.29-18.29v-26.18h3.9c37.41,0,67.85-30.44,67.85-67.85s-30.44-67.85-67.85-67.85h0ZM303.26,361.72c-17.24,0-31.26-14.02-31.26-31.26s14.34-31.97,31.97-31.97h3.2v63.23h-3.9ZM347.64,460.83h-3.9v-62.53h3.9c17.24,0,31.26,14.03,31.26,31.26s-14.03,31.26-31.26,31.26Z"/>
    </g>
  </g>
</svg>