<?xml version="1.0" encoding="UTF-8"?>
<svg id="Capa_1" xmlns="http://www.w3.org/2000/svg" version="1.1" viewBox="0 0 1080 1080">
  <!-- Generator: Adobe Illustrator 29.0.0, SVG Export Plug-In . SVG Version: 2.1.0 Build 186)  -->
  <defs>
    <style>
      .st0 {
        fill: none;
        stroke: #da0303;
        stroke-miterlimit: 10;
        stroke-width: 44px;
      }

      .st1 {
        fill: #da0303;
      }
    </style>
  </defs>
  <circle class="st0" cx="540" cy="462.7" r="309.2"/>
  <path class="st0" d="M743.3,695.7l27.1.3v230.5l-211.8-74c-12-4.2-25.1-4.2-37.2,0l-211.8,74v-230.5l27.1-.3"/>
  <path class="st1" d="M536.2,550.7l-86.8,63.1c-5,3.6-11.8-1.3-9.9-7.2l33.2-102.1c.9-2.6,0-5.5-2.3-7.2l-86.8-63.1c-5-3.6-2.4-11.6,3.8-11.6h107.3c2.8,0,5.2-1.8,6.1-4.4l33.2-102.1c1.9-5.9,10.3-5.9,12.2,0l33.2,102.1c.9,2.6,3.3,4.4,6.1,4.4h107.3c6.2,0,8.8,7.9,3.8,11.6l-86.8,63.1c-2.2,1.6-3.2,4.5-2.3,7.2l33.2,102.1c1.9,5.9-4.8,10.8-9.9,7.2l-86.8-63.1c-2.2-1.6-5.3-1.6-7.5,0Z"/>
</svg>