<?xml version="1.0" encoding="UTF-8"?>
<svg id="Capa_1" xmlns="http://www.w3.org/2000/svg" version="1.1" viewBox="0 0 1080 1080">
  <!-- Generator: Adobe Illustrator 29.0.0, SVG Export Plug-In . SVG Version: 2.1.0 Build 186)  -->
  <defs>
    <style>
      .st0 {
        fill: #da0303;
      }

      .st1 {
        fill: #f5f5f5;
      }
    </style>
  </defs>
  <rect class="st1" x="50.8" y="50.8" width="978.4" height="978.4" rx="84.8" ry="84.8"/>
  <g>
    <path class="st0" d="M692.4,634.6c-19.1-18.9-43-18.9-62,0-14.5,14.4-29,28.8-43.3,43.4-3.9,4-7.2,4.9-11.9,2.2-9.4-5.1-19.4-9.3-28.4-14.9-42-26.4-77.3-60.4-108.5-98.7-15.5-19-29.2-39.4-38.9-62.3-1.9-4.6-1.6-7.7,2.2-11.5,14.5-14,28.6-28.4,42.9-42.8,19.9-20,19.9-43.4-.1-63.5-11.3-11.5-22.7-22.7-34-34.1-11.7-11.7-23.3-23.5-35.1-35.1-19.1-18.6-43-18.6-62,.1-14.6,14.4-28.6,29.1-43.5,43.3-13.8,13-20.7,29-22.2,47.6-2.3,30.3,5.1,59,15.6,86.9,21.4,57.8,54.1,109.1,93.7,156.1,53.5,63.6,117.4,113.9,192.1,150.3,33.6,16.3,68.5,28.9,106.4,31,26.1,1.5,48.7-5.1,66.9-25.5,12.4-13.9,26.4-26.6,39.6-39.8,19.5-19.7,19.6-43.6.2-63.1-23.2-23.3-46.4-46.4-69.7-69.6Z"/>
    <path class="st0" d="M669.1,537.5l45-7.7c-7.1-41.3-26.6-78.7-56.2-108.5-31.3-31.3-70.9-51.1-114.5-57.2l-6.3,45.2c33.8,4.8,64.5,20,88.7,44.2,22.9,22.9,37.9,51.9,43.4,83.8Z"/>
    <path class="st0" d="M739.5,342c-51.9-51.9-117.6-84.7-190.1-94.8l-6.3,45.2c62.6,8.8,119.4,37.2,164.3,81.9,42.5,42.5,70.4,96.3,80.5,155.4l45-7.7c-11.8-68.5-44.1-130.6-93.3-180Z"/>
  </g>
</svg>