<?xml version="1.0" encoding="UTF-8"?>
<svg id="Capa_1" xmlns="http://www.w3.org/2000/svg" version="1.1" viewBox="0 0 1080 1080">
  <!-- Generator: Adobe Illustrator 29.0.0, SVG Export Plug-In . SVG Version: 2.1.0 Build 186)  -->
  <defs>
    <style>
      .st0 {
        fill: #da0303;
      }
    </style>
  </defs>
  <path class="st0" d="M770.1,724l-81.2-27.1-29.2-58.3c26.3-26.7,44.5-62.1,50.7-99l3.6-21.8h31.1c28.3,0,51.3-23,51.3-51.3v-107.7c0-141.4-115-256.4-256.4-256.4s-256.4,114.7-256.4,256.4v107.7c0,22.3,14.3,41.3,34.2,48.3v20c0,28.3,23,51.3,51.3,51.3h15c7.4,16.1,17,31,28.7,44.4,2.4,2.8,4.9,5.5,7.5,8.1l-29.2,58.3-81.2,27.1c-94.5,31.5-163,130.9-163,236.5s7.7,17.1,17.1,17.1h752.1c9.4,0,17.1-7.7,17.1-17.1,0-105.5-68.6-205-163-236.5ZM762.2,466.5c0,9.4-7.7,17.1-17.1,17.1h-26.1c4.3-33.7,7.2-69.5,8.4-104.7,0-1,0-2,0-2.9h34.7v90.6ZM334.9,483.6c-9.4,0-17.1-7.7-17.1-17.1v-90.6h34.7c0,1.8.1,3.6.2,5.4,0,0,0,.1,0,.2h0c1.2,34.3,4.1,69.2,8.3,102.1h-26.1ZM369.1,552c-9.4,0-17.1-7.7-17.1-17.1v-17.1h14l3.6,21.8c.7,4.1,1.5,8.3,2.5,12.4h-3.1ZM352,341.7h-33.6c8.7-114.6,104.3-205.1,221.6-205.1s212.8,90.5,221.6,205.1h-33.6c-1.2-94.4-78.1-170.9-172.7-170.9h-30.6c-94.6,0-171.5,76.5-172.7,170.9ZM524.7,205h30.6c76.6,0,138.6,62.6,138.5,139.2,0,5.4,0,10.1-.1,14.3,0,0,0,.1,0,.2l-21.4-3.1c-58.1-8.3-112.9-35.7-154.4-77.2-3.2-3.2-7.6-5-12.1-5-45.9,0-89.9,20.9-118.9,56.3,7.2-69.6,66-124.6,137.8-124.6ZM407.6,552c-8.6-28.5-18.3-112.2-20.5-165.9l23-30.7c21.1-28.2,54-45.7,89-47.7,46,43.8,105.5,72.7,168.4,81.7l25.2,3.6c-1.7,35.7-5.1,71.5-10,104.5,0,0,0,0,0,0-1.6,10.6-2.8,17.4-6,36.5-9.1,54.3-49.6,103.4-103.1,116.8-22,5.5-45.2,5.5-67.2,0-33.4-8.3-64-31.5-83.8-64.6h34.8c7.1,19.9,26.1,34.2,48.3,34.2h34.2c28.3,0,51.3-22.9,51.3-51.3s-23-51.3-51.3-51.3h-34.2c-22.8,0-41.5,14.7-48.4,34.2h-49.9ZM504.4,685.3c11.7,2.5,23.7,3.7,35.6,3.7s18.7-.8,28-2.3l-30.2,31.9-33.4-33.4ZM514.2,743.5l-54.2,57.3c-14.9-28.6-27.8-58.3-38.3-88.7l20.4-40.7,72.1,72.1ZM635,665.6l23.3,46.5c-10.5,30.5-23.4,60.2-38.3,88.8l-58-58,73.1-77.3ZM488.7,569.1c0-9.4,7.7-17.1,17.1-17.1h34.2c9.4,0,17.1,7.7,17.1,17.1s-7.7,17.1-17.1,17.1h-34.2c-9.4,0-17.1-7.7-17.1-17.1ZM181.7,943.4c6.8-84.7,63.1-161.6,139-186.9l72-24c13.2,36.5,29.5,71.9,48.7,105.5,0,0,0,.1,0,.2,0,0,0,0,0,0,14,24.6,29.7,48.6,46.8,71.4l21,33.8H181.7ZM540,928.2l-23.2-37.2c-.3-.4-.5-.8-.8-1.2-13.8-18.5-26.8-37.8-38.5-57.5l61-64.5,64.2,64.2c-11.8,19.9-24.8,39.3-38.7,57.8-.8,1.1.4-.6-24,38.4ZM570.8,943.4l21-33.8c17.1-22.9,33-47.1,47.1-72,0-.2.2-.3.3-.5,0,0,0,0,0,0,18.9-33.3,35.1-68.5,48.1-104.6l72,24c75.8,25.3,132.2,102.3,139,186.9h-327.5Z"/>
</svg>