<?xml version="1.0" encoding="UTF-8"?>
<svg id="Capa_1" xmlns="http://www.w3.org/2000/svg" version="1.1" viewBox="0 0 1080 1080">
  <!-- Generator: Adobe Illustrator 29.0.0, SVG Export Plug-In . SVG Version: 2.1.0 Build 186)  -->
  <defs>
    <style>
      .st0 {
        fill: #da0303;
      }

      .st1 {
        fill: #f5f5f5;
      }
    </style>
  </defs>
  <rect class="st1" x="50.8" y="50.8" width="978.4" height="978.4" rx="84.8" ry="84.8"/>
  <path class="st0" d="M540,243.4c-163.8,0-296.6,132.8-296.6,296.6s132.8,296.6,296.6,296.6,296.6-132.8,296.6-296.6-132.8-296.6-296.6-296.6ZM625.2,656.9c-12.9,15.7-29.8,26.4-49.4,31.7-8.5,2.3-12.4,6.8-12,15.7.4,8.8,0,17.5-.1,26.2,0,7.8-4,12-11.7,12.2-5,.1-10,.2-15,.2s-8.8,0-13.2-.1c-8.3-.1-12.2-4.9-12.2-12.9-.1-6.3-.1-12.8-.1-19.2-.1-14.2-.6-14.6-14.2-16.8-17.3-2.8-34.4-6.7-50.3-14.4-12.4-6.1-13.8-9.2-10.3-22.3,2.7-9.8,5.4-19.5,8.4-29.2,2.2-7.1,4.3-10.3,8.1-10.3s5,1.1,8.8,3.1c17.6,9.2,36.2,14.3,55.9,16.7,3.3.4,6.6.6,9.9.6,9.2,0,18.1-1.7,26.7-5.5,21.8-9.5,25.3-34.8,6.8-49.9-6.2-5.1-13.4-8.9-20.9-12.2-19.2-8.4-39.1-14.8-57.1-25.6-29.3-17.6-47.8-41.6-45.6-77.3,2.4-40.3,25.3-65.4,62.2-78.8,15.3-5.5,15.4-5.4,15.4-21.2s-.1-10.7.1-16.2c.4-12,2.3-14,14.3-14.4h13.9c22.7,0,22.7,1,22.8,25.5q.1,18.1,18.1,20.9c13.8,2.2,26.9,6.2,39.5,11.8,7,3.1,9.6,7.9,7.4,15.4-3.2,11-6.2,22.1-9.6,33-2.2,6.6-4.3,9.6-8.2,9.6s-4.9-.9-8.3-2.6c-17.6-8.5-36-12.7-55.3-12.7s-5,.1-7.4.2c-5.7.4-11.4,1.1-16.7,3.4-19,8.3-22.1,29.3-5.9,42.2,8.2,6.6,17.6,11.2,27.2,15.3,16.8,7,33.7,13.7,49.7,22.5,50.3,28.1,64,91.9,28.2,135.4Z"/>
</svg>