<?xml version="1.0" encoding="UTF-8"?>
<svg id="Capa_1" xmlns="http://www.w3.org/2000/svg" version="1.1" viewBox="0 0 1080 1080">
  <!-- Generator: Adobe Illustrator 29.0.0, SVG Export Plug-In . SVG Version: 2.1.0 Build 186)  -->
  <defs>
    <style>
      .st0 {
        fill: #fff;
      }

      .st1 {
        fill: #da0303;
      }
    </style>
  </defs>
  <rect class="st1" x="50.8" y="50.8" width="978.4" height="978.4" rx="84.8" ry="84.8"/>
  <path class="st0" d="M710.2,227.3c-61.4,0-115.3,27.4-155.8,79.2-5.4,6.9-10.2,13.8-14.5,20.5-4.3-6.7-9.1-13.6-14.5-20.5-40.5-51.8-94.3-79.2-155.8-79.2-116.1,0-199.1,97.2-199.1,213.8s109.3,259,354.4,407.5c4.6,2.8,9.8,4.2,15,4.2s10.4-1.4,15-4.2c245.1-148.5,354.4-274.1,354.4-407.5s-82.9-213.8-199.1-213.8ZM775.4,607.1c-51,56.9-128.1,116.9-235.4,183-107.3-66.1-184.4-126-235.4-183-51.3-57.2-76.2-111.6-76.2-166,0-84,56.7-156.1,141.4-156.1s79.9,18.7,109.2,55.7c23.5,29.6,33.4,60.1,33.5,60.3,3.8,12.1,14.9,20.3,27.5,20.3s23.8-8.2,27.5-20.3c0-.3,9.7-29.9,32.4-59,29.5-37.8,66.6-57,110.3-57,84.7,0,141.4,72.2,141.4,156.1s-24.9,108.8-76.2,166Z"/>
</svg>