<?xml version="1.0" encoding="UTF-8"?>
<svg id="Capa_2" data-name="Capa 2" xmlns="http://www.w3.org/2000/svg" viewBox="0 0 105.1 70.47">
  <defs>
    <style>
      .cls-1 {
        stroke: #000;
      }

      .cls-1, .cls-2, .cls-3, .cls-4, .cls-5, .cls-6, .cls-7, .cls-8, .cls-9, .cls-10 {
        fill-rule: evenodd;
      }

      .cls-1, .cls-2, .cls-3, .cls-4, .cls-5, .cls-7, .cls-8, .cls-9, .cls-10 {
        stroke-width: .05px;
      }

      .cls-1, .cls-3 {
        fill: #b2b6ba;
      }

      .cls-2 {
        fill: #a50a0a;
        stroke: #4c0505;
      }

      .cls-11 {
        fill: #fff;
      }

      .cls-3 {
        stroke: #485654;
      }

      .cls-12 {
        fill: #2b98f0;
      }

      .cls-4 {
        fill: #406325;
      }

      .cls-4, .cls-10 {
        stroke: #24420e;
      }

      .cls-5 {
        fill: #f9f0aa;
        stroke: #999270;
      }

      .cls-6 {
        fill: #b07e09;
      }

      .cls-7 {
        fill: #fab81c;
        stroke: #6c301e;
      }

      .cls-8 {
        fill: #6c301e;
        stroke: #351710;
      }

      .cls-9 {
        fill: #448127;
        stroke: #34541f;
      }

      .cls-10 {
        fill: #67923d;
      }
    </style>
  </defs>
  <g id="Capa_1-2" data-name="Capa 1">
    <g>
      <path class="cls-12" d="M35.03,0v70.46H11.73c-6.47,0-11.73-5.26-11.73-11.75V11.74C0,5.25,5.26,0,11.73,0h23.3Z"/>
      <rect class="cls-11" x="35.03" width="35.03" height="70.46"/>
      <path class="cls-12" d="M105.1,11.74v46.98c0,6.49-5.26,11.75-11.75,11.75h-23.28V0h23.28c6.49,0,11.75,5.24,11.75,11.73Z"/>
      <g id="guatemala">
        <g>
          <path id="path50-3-2" class="cls-4" d="M58.86,46.28c.32.26.64.61.95,1.03-.33.03-2.4-.74-3.01-1.5.28-.57,0,0,0,0,.08-.17.27-.25.53-.25,0,0-.02-.01-.02-.02.19-.6,0,0,0,0,.19-.6,1.76-.45,3.2,1.02-.18.04-.9-.07-1.64-.29ZM64.2,38.14c-.08,0-.16,0-.23-.02-.17-.52,0,0,0,0-.11-.36.41-.77,1.33-.87.15-.1.27-.16.33-.17-.02.05-.04.1-.06.15.35-.01.74.02,1.17.12-.11.13-.81.43-1.52.63-.69,1.21-1.6,1.65-1.91,1.28,0,0,.37.45,0,0,.14-.34.49-.75.88-1.12ZM63.22,38.85c-.16.37-.33.73-.49,1.09-.44,1.01-1.17,1.8-1.96,2.56.27-.66.38-1.76.37-2.25.06.47.26.75.5.74,0,0-.51.03,0,0,.31-.78.08-2.65-.06-2.88-.36.76-.48,1.46-.45,1.97,0-.02,0-.03-.01-.05-.94,1.27-.98,2.47-.6,2.71-.25.23-.5.47-.75.7-.03.03-.07.06-.1.09.56-.96.72-3.32.59-3.64-.45.61-.74,1.21-.9,1.75-.01-.28-.05-.57-.1-.88-.26.24-1.17,2.49-1.04,3.57.63.22,0,0,0,0,.11.04.22.02.34-.04-.04.03-.08.05-.1.06-.66.33-1.41.46-2.09.78-.28.13-.56.39-.83.44-1.19.19-2.24.44-3.29.99-.16.09-.34.19-.45.36h0l.19.11c.11-.17.28-.28.45-.36,1.05-.55,2.1-.8,3.29-.99.27-.05.55-.3.83-.44.68-.32,1.43-.44,2.09-.78.04-.02.21-.13.29-.21.26-.31.73-.4,1.03-.68.41-.39.83-.78,1.23-1.17.34.44,1.76-.01,2.92-1.6-.25-.02-1.52.46-2.37,1.03.48-.53.9-1.1,1.19-1.76.76-1.75,1.71-3.55,1.58-5.53,0-.04,0-.08,0-.12.01,0,.03,0,.04-.01,0,0-.61.22,0,0,0-.06,0-.12,0-.18.51,0,1.09-1.21.81-2.97.33-.35.67-.95.92-1.85-1.14.78-1.68,1.62-1.87,1.96-.03-.18-.06-.36-.11-.54-.36-1.42-.81-2.82-1.52-4.07.49-.29.12-1.77-1.45-3.02-.02.21.29,1.19.71,2.01l-.03-.02s.04.06.06.09c.15.29.31.55.48.75.73,1.27,1.19,2.7,1.56,4.14.08.32.13.64.15.96-.2-.18-.51-.36-.83-.51-.05-.07-.09-.12-.12-.15,0,.03,0,.06-.01.09-.56-.25-1.12-.41-1.27-.39.4.52.84.87,1.23,1.06-.01,1.51.55,2.53,1.05,2.64,0,0,0,0,0,0,.06.92-.11,1.8-.39,2.65-.03-.17-.09-.36-.16-.56,0-.39-.02-.7-.06-.8-.06.09-.12.17-.17.25-.25-.54-.55-1-.66-1.08-.03.74.1,1.36.29,1.79-.48,1.13-.35,2.04.06,2.17ZM63.62,37.9c.07-.17.14-.35.2-.53-.04,0-.08-.01-.11-.03-.02.19-.05.37-.08.55ZM57.43,42.8c.1-.29.19-.6.26-.93-.34.13-2.1,1.95-2.39,3.04.52.46,0,0,0,0,.14.13.35.13.59.02,0,.01,0,.03-.01.04.51.5,0,0,0,0,.51.5,1.97-.62,2.57-3.01-.15.05-.56.38-1.01.84ZM63.77,26.29c.04-.51-.08-1.22-.47-1.99-.14.23-.3,2.03.01,2.76.49.01,0,0,0,0,.2,0,.36-.2.43-.55-.08.67-.11,1.5.06,1.96.53.05,0,0,0,0,.53.05.89-1.31.17-2.99-.06.09-.14.41-.2.81ZM64.29,33.06c0-.4,0-.79-.02-1.19-.09.07-.24.11-.41.09.15.33.31.72.43,1.1ZM65.05,31.49c-.24.15-.46.17-.63.08.06.53.05,1.07.05,1.62.12-.64.36-1.29.58-1.7ZM59.21,43.13c-.1.41-.25.73-.42.94.22-.21.54-.31.79-.48-.17-.04-.3-.21-.37-.46ZM62.6,40.03c.37-1.02,0-3.41-.2-3.7-.91,2.11-.46,3.78.2,3.7,0,0-.66.08,0,0ZM55.3,46c.97.05,2.81,1.28,2.98,1.56-2.06.02-3.28-1-2.98-1.56,0,0-.29.56,0,0ZM64.65,35.02c.12-.87,1.32-2.46,1.58-2.59-.16,1.86-1.13,2.89-1.58,2.59,0,0,.45.29,0,0ZM63.06,40.24c.79-.59,3.02-.86,3.33-.76-1.61,1.33-3.21,1.35-3.33.76,0,0,.12.6,0,0ZM64.46,36.88c.41-.82,2.12-1.95,2.42-1.98-.79,1.79-2.09,2.44-2.42,1.98ZM64.26,30.62c-.01-1.05,1.09-3.12,1.36-3.33.16,2.22-.78,3.6-1.36,3.33,0,0,.58.27,0,0ZM63.92,30.81c-.45-.84-2.3-1.98-2.63-2.01.85,1.84,2.26,2.5,2.63,2.01,0,0-.37.49,0,0ZM63.71,29.71c-.24-.83-1.69-2.2-1.97-2.29.42,1.79,1.56,2.65,1.97,2.29,0,0-.42.36,0,0ZM59.67,43.85c.96-.71,3.62-1.05,3.99-.92-1.94,1.61-3.85,1.64-3.99.92,0,0,.14.72,0,0ZM64.01,35.47c0-1.04-1.16-3.05-1.44-3.24-.11,2.22.86,3.55,1.44,3.24,0,0-.58.3,0,0ZM58.41,44.7c1.07-.46,3.67-.09,3.99.13-2.22,1.1-4.03.63-3.99-.13,0,0-.04.76,0,0ZM60.66,24.95c.38,2.08,1.63,3.13,2.12,2.73-.23-.97-1.81-2.61-2.12-2.73Z"/>
          <path id="path50-3" class="cls-10" d="M46.26,44.27c.08.08.24.18.28.2.12.06.24.11.36.16-.52.07-1.22.37-1.92.95.19.06,1.21-.05,2.02-.3-1.11.46-2.37,1.33-2.52,1.59,2.44.02,3.89-1.18,3.57-1.85.19.07.39.14.57.23.28.14.56.39.83.44,1.19.19,2.24.44,3.29.99.17.09.34.19.45.36l.19-.11h0c-.11-.17-.29-.28-.45-.36-1.05-.56-2.1-.8-3.29-.99-.27-.05-.55-.31-.83-.44-.42-.2-.86-.32-1.3-.47-.01,0-.03,0-.04-.01-.26-.09-.51-.18-.75-.3-.02,0-.06-.03-.1-.06.11.06.23.08.34.04,0,0-.63.22,0,0,.13-1.07-.77-3.33-1.04-3.57-.28,1.57.03,2.79.45,3.31-.27-.26-.7-.36-.97-.62-.41-.39-.83-.77-1.22-1.16.39-.14.33-1.09-.45-2.1.05-.53-.05-1.27-.44-2.09-.15.23-.38,2.11-.06,2.88.51.03,0,0,0,0,.1,0,.19-.04.26-.12.16.51.37,1.04.62,1.35-.68-.68-1.29-1.4-1.68-2.28-.16-.36-.32-.73-.49-1.09.16-.05.27-.22.33-.46.02.47.08.92.21,1.22.58.03,0,0,0,0,.58.03.88-1.45-.03-3.23-.07.12-.15.63-.18,1.22-.05-.34-.18-.74-.38-1.16.26-.4.48-1.01.55-1.77-.14.07-.56.58-.91,1.15-.02-.03-.05-.07-.07-.1-.02.05-.04.16-.05.31-.12.22-.23.43-.3.63-.08-.3-.15-.6-.2-.91.58.13,1.46-1.17,1.35-3.28-.11.07-.34.4-.58.83.14-.44.23-1,.21-1.64.44-.23.92-.62,1.37-1.2-.25-.03-1.59.4-2.34.92.03-.23.07-.46.13-.68.44-1.71.99-3.39,1.99-4.82.6-.48,1.26-2.13,1.24-2.39-1.25.9-1.63,2.04-1.3,2.35-1.07,1.46-1.65,3.21-2.1,4.98-.05.21-.09.42-.12.63-.15-.46-.49-1.27-1.27-2.15.03,1.09.27,1.81.57,2.21-.23,1.43.14,2.46.59,2.61,0,.1,0,.19,0,.28.01,0,.03,0,.04.01,0,.04,0,.08,0,.12,0,.11-.01.22-.01.33-.28-1.13-1.66-2.94-1.97-3.1.2,2.31,1.39,3.61,1.98,3.31.05,1.77.9,3.4,1.59,4.99.29.66.71,1.23,1.19,1.76-.85-.57-2.12-1.04-2.37-1.03,1.16,1.58,2.58,2.03,2.92,1.6.37.37.76.73,1.15,1.09-.95-.55-3.05-.81-3.35-.71,1.68,1.4,3.33,1.45,3.51.85.29.23.69.33.94.6-1.09-.44-3.64-.08-3.96.14,2.2,1.09,3.99.64,3.99-.1ZM47.78,44.93c.08.03.16.05.24.08-.18.01-.39.06-.61.13.15-.06.27-.13.38-.21ZM41.18,38.31c.06,0,.12,0,.17-.02.19-.59,0,0,0,0,.11-.35-.32-.75-1.12-.92-.45-.37-.86-.64-1-.67.08.21.16.4.25.59-.38,0-.8.03-1.26.13.13.15.95.51,1.78.72.62.79,1.29,1.05,1.54.73,0,0-.37.45,0,0-.08-.18-.21-.37-.37-.57ZM41.55,37.91c-.12-.3-.23-.6-.32-.9.06,0,.13-.03.2-.07.02.32.06.65.12.97ZM40.87,35.34c-.03-.3-.03-.6-.01-.91,0,0,0,0,0,0,.14-.03.29-.14.43-.32-.19.42-.35.86-.42,1.23ZM41.35,31.89c-.17.04-.33.04-.45.02-.01.25-.02.49-.02.74.01.11.02.22.03.33.13-.38.29-.76.44-1.09ZM41.94,29.75c-.25.24-.46.48-.58.7.4.54,0,0,0,0,.4.54,1.94-.19,2.86-2.19-.17.01-.74.32-1.33.73.38-.48.73-1.17.93-2.05-.34.11-2.08,1.75-2.37,2.75.5.43,0,0,0,0,.12.1.29.12.48.06ZM49.28,44.72c.16.22.33.41.5.54.67-.3,0,0,0,0,.67-.3.15-2.15-1.91-3.64-.01.19.23.91.6,1.68-.38-.4-.89-.8-1.54-1.15.02.36,1.23,2.54,2.17,3.12.58-.36,0,0,0,0,.16-.1.22-.3.19-.55ZM48.76,45.85c-.97.05-2.81,1.28-2.98,1.56,2.06.02,3.28-1,2.98-1.56,0,0,.29.56,0,0ZM41.85,39.77c-.68-.51-2.59-.73-2.86-.65,1.38,1.14,2.76,1.16,2.86.65ZM40.57,36.36c-.39-.78-2.02-1.85-2.31-1.88.75,1.7,1.99,2.33,2.31,1.88,0,0-.32.44,0,0ZM40.94,29.84c.12-1.04-.75-3.22-1-3.45-.39,2.19.4,3.66,1,3.45,0,0-.6.21,0,0ZM41.55,27.79c.36-.89.1-3.08-.07-3.35-.87,1.85-.52,3.38.07,3.35,0,0-.59.03,0,0ZM42.24,26.74c.43-.66.57-2.43.48-2.67-.99,1.33-.95,2.6-.48,2.67,0,0-.47-.07,0,0ZM45.26,43.3c-.68-.85-1.09-3.28-.99-3.62,1.54,1.72,1.64,3.46.99,3.62,0,0,.65-.15,0,0ZM42.89,27.04c.98-.32,2.56-2.12,2.66-2.46-2.13.57-3.11,1.97-2.66,2.46,0,0-.45-.49,0,0Z"/>
          <g id="Group">
            <path id="path10388-7-3-5" class="cls-8" d="M47.98,28.01l5.21,5.69c.4.44,4.93,5.25,5.34,5.68.14.19.54.7.59.77.27.33.57.76.93,1.15.06.09.15.06.23.11.24.16.49.42.66.63l1.57,1.94c.1.12.13.19.05.26l-.96,1.17c-.17.16-.37.23-.44.09-.39-.77-1.4-1.96-1.76-2.88-.22-.55-.47-1.55-.67-1.79-.25-.31-.93-1.11-1.52-1.82-.04-.05-.08-.1-.12-.14-.04-.05-.08-.1-.12-.15-3.04-3.44-6.56-7.62-9.12-10.56.11-.1.04-.04.15-.14Z"/>
            <path id="_39022408-7-3-9" data-name=" 39022408-7-3-9" class="cls-3" d="M42.49,23.73l4.16,3.81c.04.05.08.04.13,0l.41-.31s0,0,0-.02c0-.02,0-.04.02-.06l-.18-.21s-.01-.04.02-.08c.03-.03.05-.05.08-.08.03-.02.06,0,.09.03l.18.21c.1,0,.18.1.17.2,2.5,2.7,4.64,5.1,7.13,7.76l2.93,3.11c.1.15.56.43.87.65.11.08.2.15.24.22l.21.76c.07.17.3.56.31.59-.34.31-.32.29-.55.49-.23-.29-.87-1.02-1.44-1.7-.05-.05-.05-.06-.11-.14.05-.07.14-.16.2-.22.06-.05.12-.1.17-.14.03-.03.07-.05.09-.07.02-.02-.03-.06-.06-.09-3.43-3.69-7.13-7.73-10.16-11.03-.02,0-.04,0-.06,0-.03,0-.06-.01-.09-.02l-.4.42c-.09.08-.17.08-.24.04l-4.13-4.13Z"/>
            <path id="path2253_352-9-6" data-name="path2253 352-9-6" class="cls-3" d="M47.71,35.18c-.57-.37-1.13-.71-1.66-1.01.49-.02,1.56.53,2,.82,3.27,2.12,6.04,4.92,8.96,8.21-.13.12-.22.21-.33.31l-.16.16c-2.59-3.36-6.03-6.6-8.81-8.49Z"/>
            <path id="path2266_354-0-1" data-name="path2266 354-0-1" class="cls-7" d="M57.67,42.84c-.27.07-.51.17-.72.31-.03.19-.27.41-.49.45-.04-.05-.05-.07-.08-.11,0,0-.01-.01-.02,0-.02.01-.05.02-.08.05-.08-.01-.18.03-.23.13-.05.13.05.31.17.42.13.1.19.15.34.13.15-.03.23-.17.26-.21.51.62.89.95,1.53,1.46.29,0,.44-.18.34-.38-.03-.07-.11-.11-.18-.09,0-.02,0-.04,0-.06.34-.31.48-.7.12-1.36-.3-.55-.64-.74-.97-.74h0ZM58.52,43.46c.06.1.09.19.14.28.2.41.03.91-.32,1.06-.02,0-.01,0-.03,0,.06-.09-.11-.3-.2-.23.04-.1-.09-.28-.2-.23.06-.1-.07-.26-.19-.21.06-.11-.04-.26-.17-.23.04-.11-.06-.24-.18-.22.01-.1-.02-.15-.07-.2.15-.12.32-.3.47-.38.37-.16.6.15.75.35h0s0,0,0,0h0Z"/>
            <path id="path9165" class="cls-1" d="M48.22,43.15c-.11-.1-.2-.19-.31-.33,3.11-3.12,6.04-5.74,9.43-7.66.45-.26,1.56-.75,2.05-.7-.55.26-1.12.57-1.72.91-2.88,1.72-6.51,4.75-9.29,7.94l-.15-.17Z"/>
            <path id="Shape" class="cls-7" d="M48.85,43.34c-.04-.11-.13-.16-.22-.15-.03-.02-.06-.04-.08-.05,0,0-.02,0-.02,0-.03.04-.04.05-.09.1-.22-.06-.44-.29-.46-.48-.2-.15-.43-.26-.7-.35h0c-.32-.02-.67.15-1.01.68-.39.63-.27,1.03.04,1.36,0,.02,0,.04,0,.06-.07-.03-.15.01-.19.08-.11.2.03.39.32.4.67-.47,1.07-.78,1.62-1.37.03.05.1.19.25.23.14.03.21-.01.34-.11.12-.11.24-.28.19-.41,0,0,.04.14,0,0ZM47.53,43.28c-.13-.03-.23.09-.2.21-.12-.03-.24.11-.18.22-.12-.06-.26.1-.21.2-.11-.05-.25.11-.21.22-.08-.08-.26.12-.21.21-.02,0-.01,0-.03,0-.34-.17-.48-.68-.26-1.08.05-.09.09-.18.16-.27h0c.16-.19.41-.48.77-.3.14.09.3.28.45.4-.05.04-.09.09-.08.19,0,0,0-.1,0,0Z"/>
            <path id="path10388-7-3" class="cls-8" d="M57.36,28.31l-5.48,5.43c-.42.42-5.18,5-5.61,5.41-.15.18-.58.67-.62.74-.29.32-.61.73-.98,1.1-.07.08-.16.05-.24.1-.25.14-.5.39-.69.6l-1.67,1.85c-.11.12-.14.19-.06.26l.9,1.22c.17.17.36.25.44.11.43-.75,1.5-1.89,1.9-2.79.24-.54.54-1.52.76-1.76.26-.3.98-1.06,1.61-1.74.04-.05.09-.09.13-.14.04-.05.09-.09.13-.14,3.21-3.29,6.92-7.28,9.62-10.1-.11-.11-.04-.04-.14-.14Z"/>
            <path id="_39022408-7-3" data-name=" 39022408-7-3" class="cls-3" d="M63.06,24.3l-4.34,3.6c-.04.05-.09.04-.13,0l-.4-.33s0,0,0-.02c0-.02,0-.04-.01-.06l.19-.2s.02-.04-.02-.08c-.02-.03-.05-.05-.08-.08-.03-.02-.06,0-.09.02l-.2.2c-.1,0-.18.09-.18.19-2.63,2.57-4.88,4.87-7.5,7.4l-3.08,2.96c-.11.14-.59.4-.9.61-.11.07-.21.14-.25.21l-.25.75c-.08.16-.33.55-.34.58.32.33.31.3.53.51.25-.28.91-.98,1.52-1.63.05-.05.05-.06.11-.13-.05-.07-.13-.17-.19-.23-.05-.05-.11-.11-.16-.15-.03-.03-.06-.05-.09-.08-.02-.02.03-.06.06-.09,3.61-3.51,7.5-7.37,10.68-10.52.02,0,.04,0,.05,0,.03,0,.06,0,.09-.02l.38.44c.09.09.16.09.24.05l4.35-3.92Z"/>
          </g>
          <g id="bird">
            <path id="path14573-4" class="cls-2" d="M51.98,24.21l-.51.62c-.16.72.24,1.26,1.04,1.73.65.41,1.85.33,2.23,0l-1.87-1.62-.89-.73Z"/>
            <path id="Shape-2" data-name="Shape" class="cls-9" d="M55.77,42.73c-.09-.11-.18-.22-.28-.33-1.17,1.55-2.63,2.94-4.45,3.92,2.06-.59,3.4-2.09,4.73-3.59,0,0-1.32,1.5,0,0ZM53.66,47.63c.73-1.48,1.6-2.96,2.48-4.44-.1-.12-.19-.24-.29-.36-1,1.67-2.18,3.66-2.19,4.8,0,0,.01-1.14,0,0ZM58.77,30.11c-.36-.75-.9-1.49-1.61-2.31-1.28-1.4-2.56-2.75-4.36-3.74,0,0,.04-.01.04-.01l.04-.03-.03-.04h.06l-.05-.05h.06l-.04-.05h.07l-.04-.05h.05s-.05-.05-.05-.05h.07s-.06-.05-.06-.05h.07s-.06-.05-.06-.05l.08-.03-.07-.04.09-.04-.09-.06.09-.03-.1-.04.08-.04-.1-.02.07-.08h-.1s.04-.08.04-.08h-.09s.04-.06.04-.06l-.09.02.04-.08-.09.04.03-.1-.09.06v-.1s-.07.07-.07.07v-.09s-.06.07-.06.07v-.1s-.06.08-.06.08v-.1s-.06.08-.06.08l-.03-.09-.05.09-.02-.1-.04.1-.02-.1-.04.1-.03-.09-.03.09-.02-.08-.03.1-.03-.09-.03.11-.04-.09-.02.11-.05-.09v.11s-.06-.08-.06-.08v.11s-.06-.08-.06-.08v.09s-.05-.05-.05-.05l.03.1-.07-.04.03.09-.06-.03.02.09-.05-.02.03.06s-.05,0-.05,0l.02.05c-.05.14-.06.31-.05.48,0,.03.08.06.09.08.04.06.03.09.03.09-.22.35-.41.63-.43,1.03.17-.22.36-.49.61-.49-.13.21-.19.85-.04.94l.11-.19c0,.15.02.25.05.32.04-.09.09-.17.13-.24.01.21.04.37.1.45.06-.1.14-.16.22-.22-.03.12-.07.23-.05.37.09-.15.18-.24.26-.35-.05.22,0,.38.06.62.05-.29.08-.32.21-.44.01.26-.04.5.02.64.12-.23.2-.2.27-.35-.01.22-.06.45,0,.65.05-.19.17-.3.27-.37,0,.3.08.25-.11.51.08.04.35-.05.49-.11-.07.16-.05.29-.12.4.15-.07.27-.2.4-.32-.06.19-.21.37-.13.56.03-.17.17-.32.31-.34-.02.1-.03.3-.17.4.33.03.46-.19.63-.37-.02.19-.02.34.21.6-.05-.33.03-.27.18-.47.07.29.16.61.46.83-.13-.31-.15-.47-.08-.67.04.2.23.45.28.64.03-.21.06-.42.13-.56.09.24.16.49.18.77.07-.14.12-.28.16-.42,2.69,2.83,3.29,6.43.34,10.24,1.06-.72,1.33-1.86,1.92-2.84-.58,1.28-.83,2.71-1.84,3.77.98-.85,1.19-1.63,1.78-2.45-.63,1.72-1.5,3.6-2.7,5.32.21.23.43.47.64.71.19-.31.37-.63.56-.94,1.28-2.12,3.36-5.15,2.31-9.77-.13-.58-.31-1.21-.59-1.79Z"/>
          </g>
        </g>
        <g id="Group-2" data-name="Group">
          <g>
            <path id="path814-3" class="cls-5" d="M48.76,37.76s-.84.09-1.08-1.08c-.25-1.25.72-1.38.72-1.38,0,0,1.11-.11,1.79-.12l.31,2.47-1.75.12Z"/>
            <path id="Shape-3" data-name="Shape" class="cls-5" d="M48.34,35.32s1.03-.26,1.16.89c.03.3-.13.98-.64,1.17l1.89-.2-.17-2.06-.64.05s-1.35.05-1.61.15c0,0,.26-.1,0,0Z"/>
            <path id="path814-3-2" data-name="path814-3" class="cls-5" d="M48.76,37.76s7.08-.48,7.81-.45c2.15-1.19-.01-5.84-1.82-8.45.21-.59-4.07-1.91-6.01-1.79-.24.01-.48.03-.7.05-1.05.11-1.06,1.47-.63,2.32.42.83,4.14,7.57,1.52,8.28l-.16.03Z"/>
          </g>
          <g id="g3643">
            <g id="text6835-1-5-5-4-6-7-1">
              <path id="path3436" class="cls-6" d="M52.25,32.02s0,.04,0,.05c0,.01,0,.02.01.03,0,0,.01.01.02.02,0,0,.02,0,.03,0,0,0,0,0,0,.01,0,0,0,.01,0,.02,0,0,0,.01,0,.02,0,0,0,.01-.01.01,0,0-.02,0-.03,0s-.02,0-.03,0c0,0-.02,0-.03,0,0,0-.02,0-.03,0,0,0-.02,0-.02,0,0,0-.02,0-.03,0,0,0-.02,0-.03,0,0,0-.02,0-.03,0,0,0,0,0-.01,0,0,0,0-.01,0-.02,0,0,0-.01,0-.02,0,0,0-.01.01-.01.01,0,.02,0,.03-.02,0,0,.02-.01.02-.02,0,0,.01-.02.01-.03,0-.01,0-.03,0-.05v-.48s-.02-.03-.02-.04c0,0,0-.02,0-.02,0,0,0,0,0,0,0,0-.01,0-.02,0,0,0-.01,0-.02,0,0,0-.01,0-.02,0,0,0-.01,0-.01,0,0,0,0-.02,0-.02,0,0,0-.01,0-.02,0,0,0-.01,0-.02.02-.01.04-.03.06-.04.02-.02.04-.03.06-.05,0,0,0,0,.01,0,0,0,0,.01,0,.02l.02.66Z"/>
              <path id="path3438" class="cls-6" d="M52.43,31.32s.02,0,.03,0c.01,0,.02,0,.04,0,.01,0,.03,0,.04,0,.01,0,.03,0,.04,0,0,0,0,0,.01,0,0,0,0,0,0-.02,0,0,0-.01,0-.02,0,0,0-.01,0-.02,0,0,0-.01.01-.01,0,0,0,0,0,0,0,0,0,0,0,0,0,0,0,.01,0,.02,0,0,0,.02,0,.03s0,.02,0,.04c0,.01,0,.02,0,.04,0,.01,0,.02-.01.03,0,0,0,.02-.01.03,0,0-.01.01-.02.01,0,0-.02,0-.03,0s-.02,0-.03,0c-.01,0-.02,0-.03,0-.01,0-.02,0-.03,0,0,.02,0,.05,0,.07,0,.03,0,.05,0,.08,0,0,0,.01,0,.02,0,0,0,.01,0,.01,0,0,0,0,0,0,0,0,0,0,.01,0,0,0,.01,0,.02,0,0,0,.01,0,.02,0,.02,0,.04,0,.06.01.02.01.03.03.05.05.01.02.03.05.03.08,0,.03.01.07.01.11,0,.05,0,.09,0,.13,0,.04-.02.07-.03.1-.01.03-.03.05-.05.06-.02.02-.04.02-.07.03-.01,0-.02,0-.03,0-.01,0-.02,0-.03-.01-.01,0-.02-.02-.03-.03,0-.01-.01-.03-.01-.06,0-.02,0-.03,0-.05,0-.02.01-.03.03-.03,0,0,0,0,.01,0,0,0,0,0,.01.01,0,0,0,.01,0,.02s0,.02,0,.03c0,0,0,.01,0,.01,0,0,0,0,0,.01,0,0,0,0,0,0s0,0,0,0c0,0,0,0,0,0,0,0,0,0,.01,0,0,0,0,0,.02,0,0,0,.01,0,.02,0,.03,0,.05-.02.06-.06.01-.04.02-.09.01-.16,0-.06-.01-.1-.03-.14-.02-.03-.04-.05-.07-.04-.01,0-.02,0-.03.01,0,0-.01.01-.01.01,0,0-.02,0-.02,0s0-.02,0-.03c0-.06,0-.11,0-.16,0-.05,0-.11,0-.16,0,0,0-.01,0-.02,0,0,0-.01.01-.01h0Z"/>
              <path id="path3440" class="cls-6" d="M52.9,31.48s0-.05,0-.07c0-.02,0-.04,0-.05,0-.01,0-.02-.02-.03,0,0-.02,0-.03,0,0,0,0,0-.01,0,0,0,0-.01,0-.02,0,0,0-.01,0-.02,0,0,0-.01.01-.01,0,0,.01,0,.02,0,0,0,.01,0,.02,0,0,0,.01,0,.02,0,0,0,.01,0,.02,0,.02,0,.03,0,.05,0,.02,0,.03,0,.05,0,.03,0,.06,0,.09.02.03.02.05.05.07.08.02.04.04.08.05.14.01.05.02.11.02.18,0,.07,0,.13-.01.19,0,.05-.02.1-.04.14-.02.04-.04.07-.07.08-.03.02-.05.03-.08.03-.02,0-.04,0-.05,0-.02,0-.03,0-.04,0,0,0-.02,0-.02,0,0,0-.01,0-.02,0,0,0-.01,0-.02,0,0,0-.01,0-.02,0,0,0,0,0-.01,0s0-.02,0-.02c0,0,0-.01,0-.02,0,0,0-.01.01-.01,0,0,.02,0,.02-.01,0,0,.01-.01.01-.02s0-.02,0-.03c0-.01,0-.03,0-.05v-.47ZM52.99,31.86s0,.07,0,.1c0,.02,0,.04,0,.05,0,0,.01.02.02.02,0,0,.02,0,.04,0,.02,0,.03-.01.04-.03.01-.02.02-.04.03-.07,0-.03.02-.07.02-.11,0-.04,0-.09,0-.15,0-.06,0-.11-.01-.16,0-.04-.02-.08-.03-.11-.01-.03-.03-.05-.05-.06-.02-.01-.05-.02-.08-.02,0,0,0,0-.01,0,0,0,0,.01,0,.02v.5Z"/>
              <path id="path3442" class="cls-6" d="M53.57,31.2s0,0,.01,0c0,0,0,.01,0,.03,0,0,0,.01,0,.02,0,0,0,.02,0,.02v.02s0,.04,0,.05c0,.02,0,.03,0,.05,0,0,0,.01,0,.02,0,0,0,0-.01,0,0,0,0,0,0,0,0,0,0,0,0-.02,0-.03,0-.05,0-.07,0-.02,0-.03-.01-.04,0,0-.01-.01-.02-.01,0,0-.02,0-.03,0h-.04s-.02,0-.02,0c0,0,0,0-.01,0,0,0,0,0,0,.02,0,0,0,.02,0,.05v.22s0,.01,0,.01c0,0,0,0,0,0,.02,0,.03,0,.04,0,0,0,.02,0,.02-.02,0,0,0-.02,0-.03,0-.01,0-.03,0-.05,0,0,0-.01,0-.02,0,0,0,0,.01,0,0,0,0,0,.01,0s0,.01,0,.02c0,.01,0,.02,0,.04,0,.01,0,.02,0,.03,0,.01,0,.02,0,.03,0,.01,0,.02,0,.04,0,.03,0,.05,0,.07,0,0,0,.02,0,.04,0,.01,0,.03,0,.04,0,0,0,.02,0,.02,0,0,0,0-.01,0,0,0,0,0-.01,0,0,0,0,0,0-.02,0-.02,0-.04,0-.06,0-.01,0-.02,0-.03,0,0-.01-.01-.02-.01,0,0-.02,0-.04,0,0,0,0,0,0,0,0,0,0,0,0,0v.16s0,.07,0,.09c0,.02,0,.03,0,.04,0,0,.01.01.02.02,0,0,.02,0,.04,0,0,0,.02,0,.03,0,0,0,.01,0,.02,0,0,0,.01-.01.02-.02,0,0,0-.01.01-.02,0,0,0-.02,0-.04,0-.01,0-.03,0-.06,0,0,0-.01,0-.02,0,0,0,0,.01,0,0,0,0,0,.01,0,0,0,0,.01,0,.02,0,.04,0,.07,0,.1,0,.03,0,.06,0,.09,0,0,0,0,0,0,0,0,0,0,0,.01,0,0,0,0,0,0,0,0,0,0,0,0l-.21.02s-.03,0-.04,0c-.01,0-.03,0-.04,0,0,0,0,0-.01-.01s0-.01,0-.02c0,0,0-.01,0-.02,0,0,0-.01,0-.01,0,0,.02,0,.02-.01,0,0,.01-.01.01-.02,0,0,0-.02,0-.03,0-.01,0-.03,0-.05v-.47s0-.03-.01-.05c0-.02,0-.03,0-.05,0-.01,0-.02,0-.03,0,0,0-.01-.01-.02,0,0,0,0-.01,0,0,0,0,0-.01,0,0,0,0,0,0,0s0-.01,0-.02c0,0,0-.01,0-.02,0,0,0-.01,0-.01.01,0,.02,0,.04,0,0,0,.02,0,.04,0l.21-.02Z"/>
            </g>
            <g id="text6835-1-5-6-4-1-9-5">
              <path id="path3445" class="cls-6" d="M52.12,34.11s0-.05,0-.07c0-.02,0-.04,0-.05,0-.01,0-.02-.02-.03,0,0-.02,0-.03,0,0,0,0,0-.01,0,0,0,0-.01,0-.02,0,0,0-.01,0-.02,0,0,0-.01.01-.01,0,0,.01,0,.02,0,0,0,.01,0,.02,0,0,0,.01,0,.02,0,0,0,.01,0,.02,0,.02,0,.04,0,.05,0,.02,0,.03,0,.05,0,.03,0,.07,0,.1.02.03.02.06.05.08.08.02.04.04.08.05.14.01.05.02.11.02.18,0,.07,0,.14-.01.19,0,.06-.02.1-.04.14-.02.04-.04.07-.07.09s-.06.03-.09.04c-.02,0-.04,0-.05,0-.02,0-.03,0-.05,0,0,0-.02,0-.02,0,0,0-.01,0-.02,0,0,0-.01,0-.02,0,0,0-.01,0-.02,0,0,0,0,0-.01,0,0,0,0-.02,0-.02,0,0,0-.01,0-.02,0,0,0-.01.01-.01,0,0,.02,0,.02-.01,0,0,.01-.01.01-.02,0,0,0-.02,0-.03,0-.01,0-.03,0-.05l-.02-.49ZM52.21,34.5s0,.07,0,.1c0,.02,0,.04.01.05,0,0,.01.02.02.02,0,0,.02,0,.04,0,.02,0,.03-.01.05-.03.01-.02.03-.04.04-.07,0-.03.02-.07.02-.11,0-.04,0-.09,0-.15,0-.06,0-.11-.01-.16,0-.05-.02-.08-.03-.11-.01-.03-.03-.05-.06-.06-.02-.01-.05-.02-.08-.01,0,0-.01,0-.01,0,0,0,0,.01,0,.02l.02.51Z"/>
              <path id="path3447" class="cls-6" d="M52.82,33.79s0,0,.01,0c0,0,0,.01,0,.03,0,0,0,.01,0,.02,0,0,0,.02,0,.02v.02s0,.04,0,.06c0,.02,0,.03,0,.05,0,0,0,.01,0,.02,0,0,0,0-.01,0,0,0,0,0-.01,0,0,0,0,0,0-.02,0-.03,0-.05-.01-.07,0-.02,0-.03-.01-.04,0,0-.01-.01-.02-.01,0,0-.02,0-.03,0h-.04s-.02,0-.03,0c0,0,0,0-.01,0,0,0,0,.01,0,.02,0,0,0,.03,0,.05v.22s0,.01,0,.01c0,0,0,0,0,0,.02,0,.03,0,.04-.01,0,0,.02-.01.02-.02,0,0,0-.02,0-.03,0-.01,0-.03,0-.05,0,0,0-.02,0-.02,0,0,0,0,.01,0,0,0,0,0,.01,0,0,0,0,.01,0,.02,0,.01,0,.02,0,.04,0,.01,0,.02,0,.03,0,.01,0,.02,0,.03,0,.01,0,.02,0,.04,0,.03,0,.05,0,.07,0,0,0,.02,0,.04s0,.03,0,.04c0,0,0,.02,0,.02,0,0,0,0-.01,0,0,0,0,0-.01,0,0,0,0,0,0-.02,0-.02,0-.04,0-.06,0-.01,0-.02-.01-.03,0,0-.01-.01-.02-.01-.01,0-.02,0-.04,0,0,0,0,0,0,0,0,0,0,0,0,0v.17s0,.07,0,.09c0,.02,0,.03.01.04,0,0,.01.01.02.02.01,0,.03,0,.04,0,.01,0,.02,0,.03,0,0,0,.01,0,.02,0,0,0,.01-.01.02-.02,0,0,0-.02.01-.03,0,0,0-.02,0-.04,0-.02,0-.04,0-.06,0,0,0-.02,0-.02,0,0,0,0,.01,0,0,0,0,0,.01,0,0,0,0,.01,0,.02,0,.04,0,.07,0,.1,0,.03,0,.06,0,.09,0,0,0,0,0,0,0,0,0,0,0,.01s0,0,0,0c0,0,0,0,0,0l-.22.03s-.03,0-.05,0c-.01,0-.03,0-.04,0,0,0,0,0-.01,0,0,0,0-.01,0-.02,0,0,0-.01,0-.02,0,0,0-.01.01-.01,0,0,.02,0,.02-.01,0,0,.01-.01.01-.02,0,0,0-.02,0-.03,0-.01,0-.03,0-.05v-.49s-.02-.04-.02-.05c0-.02,0-.03,0-.05,0-.01,0-.02,0-.03,0,0,0-.01-.01-.02,0,0,0,0-.01,0,0,0,0,0-.01,0,0,0,0,0-.01,0,0,0,0-.01,0-.02,0,0,0-.01,0-.02,0,0,0-.01.01-.01.01,0,.03,0,.04,0,0,0,.02,0,.04,0l.22-.03Z"/>
              <path id="path3449" class="cls-6" d="M53.27,34.44s0,.04,0,.05c0,.01,0,.02.01.03,0,0,.01.01.02.02,0,0,.02,0,.03,0,0,0,0,0,.01.01,0,0,0,.01,0,.02,0,0,0,.01,0,.02,0,0,0,.01-.01.01,0,0-.02,0-.03,0,0,0-.02,0-.03,0s-.02,0-.03,0c-.01,0-.02,0-.03,0,0,0-.02,0-.03,0,0,0-.02,0-.03,0-.01,0-.02,0-.03,0,0,0-.02,0-.03,0,0,0,0,0-.01,0,0,0,0-.01,0-.02,0,0,0-.01,0-.02s0-.01.01-.01c.01,0,.02,0,.03-.01,0,0,.02-.01.02-.02,0,0,.01-.02.02-.03,0-.01,0-.03,0-.05v-.5s-.01-.03-.01-.04c0,0,0-.02,0-.02,0,0,0,0,0,0s-.01,0-.02,0c0,0-.01,0-.02,0s-.01,0-.02,0c0,0-.01,0-.01,0,0,0,0-.02,0-.02,0,0,0-.01,0-.02,0,0,0-.01,0-.02.02-.01.04-.03.07-.04.02-.02.04-.03.07-.05,0,0,0,0,.02,0,0,0,0,.01,0,.02l.02.68Z"/>
              <path id="path3451" class="cls-6" d="M53.6,33.92s0-.08-.02-.1c0-.02-.02-.03-.04-.03-.02,0-.03.01-.04.04-.01.02-.01.06-.01.1,0,.02,0,.03,0,.05,0,.01.01.03.02.04,0,.01.02.02.03.03.01.01.02.02.03.03,0,0,0,0,0,0,0,0,0,0,0,0,0-.02.02-.04.02-.06,0-.03,0-.06,0-.09h0ZM53.63,34.38s0-.05,0-.06c0-.02-.01-.03-.02-.05s-.02-.03-.03-.04c-.01-.01-.02-.02-.04-.04,0,0,0,0,0,0-.01.02-.03.05-.03.08,0,.03-.01.06-.01.09,0,.06,0,.1.02.13.01.03.03.04.05.04.02,0,.04-.02.05-.05.01-.03.02-.07.02-.11,0,0,0,.04,0,0ZM53.7,34.34s0,.08-.01.11-.02.06-.03.08-.03.04-.05.05c-.02.01-.04.02-.05.02-.02,0-.04,0-.05,0-.02,0-.03-.02-.05-.04-.01-.02-.02-.04-.03-.07,0-.03-.01-.06-.01-.1,0-.06,0-.11.02-.15.02-.04.04-.07.06-.09-.02-.02-.04-.04-.05-.08-.02-.03-.02-.07-.03-.12,0-.04,0-.07,0-.1,0-.03.02-.06.03-.08.01-.02.03-.04.04-.05.02-.01.03-.02.05-.02.02,0,.03,0,.05.01.02,0,.03.02.04.04.01.02.02.04.03.07,0,.03.01.06.01.09,0,.02,0,.04,0,.06,0,.02,0,.04-.02.06,0,.02-.02.03-.02.05,0,.02-.02.02-.03.03,0,0,.02.01.03.02.01.01.02.03.03.05,0,.02.02.04.02.07,0,.03,0,.05,0,.09Z"/>
              <path id="path3453" class="cls-6" d="M53.95,34.43s.03-.01.04-.03c0-.02.02-.05.02-.1,0,0,0-.01,0-.02,0,0,0,0,.01,0,0,0,0,0,.01,0,0,0,0,.01,0,.02,0,.03,0,.06,0,.09,0,.03,0,.06-.01.08,0,.03-.01.05-.02.06,0,.02-.02.03-.03.03-.01,0-.03,0-.04,0-.01,0-.03,0-.04,0-.01,0-.03,0-.04,0-.01,0-.02,0-.03,0-.01,0-.02,0-.03.01,0,0,0,0-.01.01,0,0,0,0-.01,0,0,0-.01,0-.02-.01,0-.01,0-.02,0-.03,0,0,0-.01,0-.02,0-.04.02-.08.03-.11,0-.03.02-.06.03-.08.01-.03.02-.05.03-.07.01-.02.02-.04.03-.06.01-.02.02-.04.03-.05,0-.02.02-.03.02-.05,0-.02.01-.04.02-.07,0-.02,0-.05,0-.08,0-.06,0-.1-.02-.13-.01-.03-.03-.05-.06-.05-.01,0-.02,0-.03.02,0,0-.02.02-.02.03,0,.01,0,.02-.01.04,0,.01,0,.02,0,.03,0,0,0,0,0,.01,0,0,0,0,0,.01,0,0,0,0,0,.01,0,0,0,0,.01,0,.01,0,.02,0,.03.02,0,.01,0,.03,0,.04,0,.02,0,.04,0,.05,0,.01-.01.02-.03.02-.01,0-.02,0-.03-.01,0,0-.01-.02-.02-.03,0-.01,0-.03,0-.04,0-.01,0-.03,0-.04,0-.03,0-.06,0-.09,0-.03.01-.06.03-.08.01-.02.03-.04.04-.05.02-.01.03-.02.05-.02.02,0,.04,0,.06.01.02.01.03.03.04.05.01.02.02.05.03.08,0,.03,0,.06,0,.1,0,.05,0,.1-.01.13-.01.04-.02.07-.04.1s-.03.06-.05.08c0,0-.01.02-.02.03,0,.01-.02.03-.03.04-.01.02-.03.05-.04.07,0,.02-.01.04-.01.07,0,0,0-.01,0-.02.01,0,.02,0,.04-.01,0,0,.02,0,.02,0,0,0,.02,0,.02,0s.01,0,.02,0c0,0,.01,0,.02,0Z"/>
              <path id="path3455" class="cls-6" d="M54.26,34.36s0,.04,0,.05c0,.01,0,.02.01.03,0,0,.01.01.02.02s.02,0,.03,0c0,0,0,0,0,.01,0,0,0,.01,0,.02,0,0,0,.01,0,.02,0,0,0,.01-.01.01,0,0-.02,0-.03,0,0,0-.02,0-.03,0-.01,0-.02,0-.03,0-.01,0-.02,0-.03,0,0,0-.02,0-.03,0-.01,0-.02,0-.03,0-.01,0-.02,0-.03,0,0,0-.02,0-.03,0,0,0,0,0-.01-.01,0,0,0-.01,0-.02,0,0,0-.01,0-.02,0,0,0-.01.01-.01.01,0,.02,0,.03-.01,0,0,.02-.01.03-.02,0,0,.01-.02.02-.03,0-.01,0-.03,0-.05v-.5s0-.03,0-.04c0,0,0-.02,0-.02,0,0,0,0,0,0,0,0-.01,0-.02,0,0,0-.01,0-.02,0s-.01,0-.02,0c0,0-.01,0-.01,0,0,0,0-.02,0-.02,0,0,0-.01,0-.02,0,0,0-.01,0-.02.02-.01.05-.03.07-.04.02-.01.04-.03.07-.04,0,0,0,0,.01,0,0,0,0,.01,0,.02v.68Z"/>
            </g>
            <g id="text6835-1-5-8-4-4-7-7">
              <path id="path3458" class="cls-6" d="M50.16,30.35s0-.03-.01-.04c0,0-.01-.02-.02-.02,0,0-.02,0-.04,0,0,0-.01,0-.02,0,0,0,0-.01,0-.02,0,0,0-.02,0-.02,0,0,0-.01.02-.01.02,0,.04,0,.06,0,.02,0,.04,0,.07,0,.01,0,.03,0,.03,0,0,0,.02,0,.03,0,.01,0,.02,0,.03,0,.01,0,.02,0,.03,0,0,0,.01,0,.02,0,0,0,0,.01,0,.02,0,0,0,.02,0,.02,0,0,0,.01-.01.01-.02,0-.03,0-.04.01s-.02.01-.02.02c0,.01,0,.02,0,.04,0,.02,0,.04,0,.07l.02.44s0,.05,0,.07c0,.02,0,.03.01.04,0,0,.01.02.02.02,0,0,.02,0,.03.01,0,0,.01,0,.02,0,0,0,.02,0,.03,0,.02,0,.04,0,.05-.01s.02-.02.03-.03c0-.01.02-.03.02-.05,0-.02.01-.05.02-.09,0,0,0-.02,0-.02,0,0,.01,0,.02,0,0,0,.01,0,.02,0,0,0,0,.01,0,.02,0,.04,0,.08,0,.11,0,.04,0,.07,0,.1,0,0,0,0,0,0,0,0,0,0,0,.01,0,0,0,0,0,0,0,0,0,0-.01,0l-.31.03s-.04,0-.06,0c-.02,0-.04,0-.06.01,0,0-.01,0-.02,0,0,0,0-.01,0-.02,0,0,0-.02,0-.02,0,0,0-.01.01-.01.02,0,.03-.01.04-.01,0,0,.02-.01.02-.02,0,0,0-.02,0-.03s0-.03,0-.06l-.02-.5s0-.05,0-.07Z"/>
              <path id="path3460" class="cls-6" d="M50.7,30.36s0-.05,0-.06c0-.02,0-.03-.01-.04,0,0-.01-.02-.02-.02,0,0-.02,0-.04,0,0,0-.01,0-.02,0,0,0,0-.01,0-.02,0,0,0-.02,0-.02,0,0,0-.01.01-.01.02,0,.04,0,.06,0,.02,0,.05,0,.07,0,.01,0,.03,0,.03,0,0,0,.02,0,.03,0,0,0,.02,0,.03,0,.01,0,.02,0,.03,0,0,0,.01,0,.02,0,0,0,0,.01,0,.02,0,0,0,.01,0,.02,0,0,0,.01-.01.01-.02,0-.03,0-.04.01,0,0-.02.01-.02.02,0,0,0,.02,0,.04,0,.02,0,.04,0,.07l.02.5s0,.05,0,.06,0,.02.01.03.01.01.02.01c.01,0,.02,0,.04,0,0,0,.01,0,.02.01,0,0,0,.01,0,.02,0,0,0,.01,0,.02,0,0,0,.01-.02.01-.02,0-.05,0-.07,0-.02,0-.04,0-.06,0-.02,0-.04,0-.07.01-.02,0-.04,0-.06.01,0,0-.01,0-.02,0,0,0,0-.01,0-.02s0-.01,0-.02c0,0,0-.01.01-.01.02,0,.03,0,.04-.01,0,0,.02-.01.02-.02,0,0,0-.02,0-.03,0-.01,0-.03,0-.06l-.02-.5Z"/>
              <path id="path3462" class="cls-6" d="M51.16,30.48s0,.01,0,.02c0,0,0,0,0,0h.02s.04,0,.05-.01c.01,0,.03-.01.04-.03,0-.01.02-.03.02-.05,0-.02,0-.05,0-.08,0-.03,0-.05-.01-.07,0-.02-.01-.03-.02-.04,0-.01-.02-.02-.03-.02-.01,0-.03,0-.05,0h-.03s0,0,0,0c0,0,0,0,0,0,0,0,0,0,0,.01,0,0,0,.01,0,.03v.24ZM51.17,30.73s0,.08,0,.11c0,.02,0,.04.01.05,0,.01.01.02.02.02s.02,0,.04,0c.04,0,.06-.02.08-.04.01-.03.02-.07.02-.12,0-.04,0-.07-.02-.09,0-.02-.02-.04-.03-.05-.01-.01-.03-.02-.05-.02-.02,0-.04,0-.06,0h-.02s-.01,0-.02,0c0,0,0,.01,0,.03v.12ZM51.04,30.35s0-.04,0-.05c0-.02,0-.03,0-.05,0-.01,0-.03-.01-.03,0,0-.01-.01-.02-.02,0,0-.01,0-.02,0,0,0-.01,0-.02,0,0,0-.01,0-.01,0,0,0,0-.01,0-.02,0,0,0-.01,0-.02,0,0,0-.01.01-.01,0,0,.02,0,.03,0,.01,0,.02,0,.03,0,0,0,.02,0,.02,0,0,0,.02,0,.03,0,.01,0,.02,0,.03,0s.02,0,.03,0c.01,0,.02,0,.03,0,.01,0,.02,0,.03,0,.01,0,.03,0,.05,0,.02,0,.03,0,.05,0,.02,0,.03.01.05.02.02,0,.03.02.04.04.01.02.02.03.03.06,0,.02.01.05.01.08,0,.03,0,.05,0,.07,0,.02-.01.04-.02.06,0,.02-.02.03-.03.04-.01.01-.03.02-.04.03,0,0,0,0,0,0,0,0,0,0,0,0,.05.01.09.04.11.07.03.04.04.09.05.16,0,.05,0,.09-.01.12-.01.03-.02.06-.04.08-.02.02-.04.03-.06.04-.02,0-.05.01-.07.02-.01,0-.02,0-.04,0-.01,0-.03,0-.04,0-.01,0-.03,0-.04,0-.01,0-.03,0-.04,0-.01,0-.02,0-.03,0,0,0-.02,0-.03,0,0,0-.02,0-.03,0,0,0-.02,0-.03,0,0,0-.01,0-.02,0,0,0,0-.02,0-.02,0,0,0-.01,0-.02,0,0,0-.01.01-.01.01,0,.03,0,.03-.01,0,0,.02-.01.02-.02,0,0,0-.02.01-.03,0-.01,0-.03,0-.05l-.02-.49Z"/>
              <path id="path3464" class="cls-6" d="M51.93,30.05s.01,0,.02,0c0,0,.01.01.01.03,0,0,0,.01,0,.02,0,0,0,.02,0,.02v.02s0,.04,0,.06c0,.02,0,.03,0,.05,0,0,0,.02,0,.02,0,0-.01,0-.02,0,0,0,0,0-.01,0,0,0,0,0,0-.02,0-.03,0-.05-.01-.07,0-.02-.01-.03-.02-.04,0,0-.02-.01-.03-.01-.01,0-.03,0-.05,0h-.05s-.03,0-.04,0c0,0-.01,0-.02,0,0,0,0,.01,0,.02,0,0,0,.03,0,.05v.22s0,.01.01.01,0,0,0,0c.03,0,.05,0,.06-.01.01,0,.02-.01.03-.02,0,0,0-.02.01-.03,0-.01,0-.03,0-.05,0,0,0-.02,0-.02,0,0,.01,0,.02,0,0,0,.01,0,.02,0,0,0,0,.01,0,.02,0,.01,0,.02,0,.04,0,.01,0,.02,0,.03,0,.01,0,.02,0,.03,0,.01,0,.02,0,.04,0,.03,0,.05,0,.07,0,0,0,.02,0,.04s0,.03,0,.04c0,0,0,.02,0,.02,0,0-.01,0-.02,0,0,0-.01,0-.02,0s0,0-.01-.02c0-.02,0-.04,0-.06s0-.02-.01-.03c0,0-.02-.01-.03-.01-.01,0-.03,0-.06,0,0,0,0,0,0,0,0,0,0,0,0,0v.17s.01.07.01.09c0,.02,0,.04.02.04,0,0,.02.01.03.02.01,0,.04,0,.06,0,.01,0,.03,0,.04,0,.01,0,.02,0,.02,0,.01,0,.02-.01.03-.02,0,0,.01-.02.02-.03,0-.01,0-.02.01-.04,0-.02,0-.04,0-.06,0,0,0-.02,0-.02,0,0,.01,0,.02,0,0,0,.01,0,.02,0,0,0,0,.01,0,.02,0,.04,0,.07,0,.1,0,.03,0,.06,0,.09,0,0,0,0,0,0,0,0,0,0,0,.01,0,0,0,0,0,0,0,0,0,0-.01,0l-.32.03s-.04,0-.06,0c-.02,0-.04,0-.06,0,0,0-.01,0-.02-.01,0,0,0-.02,0-.02,0,0,0-.01,0-.02,0,0,0-.01.01-.01.01,0,.02,0,.03-.01,0,0,.02-.01.02-.02,0,0,0-.02.01-.03,0-.01,0-.03,0-.05l-.02-.49s0-.04,0-.05c0-.02,0-.03,0-.05,0-.01,0-.02-.01-.03,0,0-.01-.01-.02-.02,0,0-.01,0-.02,0s-.01,0-.02,0c0,0-.01,0-.01,0,0,0,0-.01,0-.02,0,0,0-.02,0-.02,0,0,0-.01.01-.01.02,0,.04,0,.05,0,.01,0,.03,0,.05,0l.31-.03Z"/>
              <path id="path3466" class="cls-6" d="M52.13,30.26s0-.04,0-.05c0-.02,0-.03,0-.05,0-.01,0-.03-.01-.03,0,0-.01-.01-.02-.02,0,0-.01,0-.02,0,0,0-.01,0-.02,0,0,0-.01,0-.02,0,0,0,0-.01,0-.02,0,0,0-.01,0-.02,0,0,0-.01.02-.01,0,0,.02,0,.03,0,.01,0,.02,0,.03,0,0,0,.02,0,.02,0,0,0,.02,0,.03,0,.02,0,.03,0,.05,0,.01,0,.03,0,.04,0,.03,0,.05,0,.07,0,.02,0,.05,0,.07,0,.02,0,.05.02.06.04.02.02.04.04.05.07.01.03.02.07.02.11,0,.03,0,.06,0,.09,0,.03-.02.05-.03.07-.01.02-.03.04-.04.05-.02.01-.03.02-.05.03,0,0,0,0,0,0,0,0,0,0,0,0,.02.01.04.03.05.04.01.01.03.03.03.05,0,.02.02.03.02.05s.01.03.01.05c0,.02,0,.03,0,.05,0,.02,0,.03,0,.05,0,.02,0,.03.01.04,0,0,.01,0,.01,0,0,0,0,0,.01-.01,0,0,0-.02.01-.03,0,0,0-.02,0-.02s0,0,.01,0c0,0,.01,0,.02,0,0,0,0,.01,0,.03,0,.02,0,.04-.01.06,0,.02-.01.03-.02.04,0,.01-.02.02-.03.03-.01,0-.02,0-.04.01-.01,0-.02,0-.03,0,0,0-.02,0-.03-.01,0,0-.02-.01-.02-.02,0,0-.01-.02-.01-.03,0-.01,0-.03-.01-.05,0-.02,0-.03-.01-.05,0-.02,0-.03-.01-.05,0-.02,0-.03,0-.05-.01-.05-.03-.09-.04-.11-.02-.02-.04-.03-.06-.03,0,0-.01,0-.02,0,0,0,0,.01,0,.03v.17s0,.05.01.06c0,.02,0,.03.02.04,0,0,.02.01.03.02.01,0,.02,0,.04,0,0,0,.01,0,.02.01s0,.02,0,.02c0,0,0,.02,0,.02,0,0,0,.01-.02.01-.01,0-.03,0-.04,0-.01,0-.02,0-.04,0-.01,0-.02,0-.03,0-.01,0-.02,0-.03,0-.02,0-.04,0-.06,0-.02,0-.04,0-.06,0,0,0-.01,0-.02,0,0,0,0-.01,0-.02,0,0,0-.01,0-.02,0,0,0-.01.01-.01.02,0,.03,0,.04-.01,0,0,.02-.01.02-.02,0,0,0-.02,0-.03,0-.01,0-.03,0-.06l-.02-.48ZM52.25,30.4s0,.02,0,.03c0,0,.02,0,.04,0,.02,0,.04,0,.05-.01s.02-.02.03-.03c0-.01.01-.03.02-.05,0-.02,0-.05,0-.08,0-.03,0-.06,0-.08,0-.02-.01-.04-.02-.05,0-.01-.02-.02-.03-.02-.01,0-.03,0-.05,0-.02,0-.03,0-.04,0,0,0,0,.02,0,.05v.25Z"/>
              <path id="path3468" class="cls-6" d="M52.97,30.68s0,.05,0,.06c0,.01,0,.02.01.03,0,0,.01.01.02.01.01,0,.02,0,.04,0,0,0,.01,0,.02.01,0,0,0,.01,0,.02,0,0,0,.01,0,.02,0,0,0,.01-.02.01-.02,0-.05,0-.07,0-.02,0-.04,0-.06,0-.02,0-.04,0-.07,0-.02,0-.04,0-.06,0,0,0-.01,0-.02-.01,0,0,0-.01,0-.02,0,0,0-.01,0-.02,0,0,0-.01.01-.01.02,0,.03,0,.04-.01,0,0,.02,0,.02-.02,0,0,0-.02,0-.03s0-.03,0-.06l-.02-.57s0-.04-.01-.05c0,0-.02,0-.05,0-.02,0-.04,0-.05,0-.01,0-.02.01-.03.02,0,.01-.01.03-.02.05,0,.02,0,.05-.01.08,0,0,0,.02,0,.02,0,0-.01,0-.02,0,0,0,0,0-.01,0,0,0,0-.01,0-.02,0-.03,0-.06,0-.1,0-.03,0-.06,0-.1,0-.02,0-.03.02-.03s.02,0,.03,0l.46-.03s.02,0,.03,0c.01,0,.02.01.02.03,0,.01,0,.02,0,.04,0,.01,0,.03,0,.05,0,.02,0,.04,0,.05,0,.02,0,.03,0,.05,0,0,0,.01,0,.02,0,0,0,0-.01,0,0,0-.01,0-.02,0,0,0,0,0-.01-.02,0-.03,0-.06-.02-.08,0-.02-.01-.03-.02-.05,0-.01-.02-.02-.03-.02-.01,0-.03,0-.05,0-.02,0-.04,0-.05.01,0,0-.01.02-.01.05l.02.57Z"/>
              <path id="path3470" class="cls-6" d="M53.42,30.53s0,0-.01,0c0,0,0,0,0,.02l-.04.15s0,.02,0,.03c0,0,0,.02,0,.02,0,0,0,0,.01.01,0,0,.01,0,.02,0,0,0,.02,0,.02,0,0,0,.01,0,.02.01,0,0,0,.02,0,.02,0,0,0,.02,0,.02,0,0,0,.01-.02.01,0,0-.02,0-.02,0,0,0-.02,0-.03,0,0,0-.02,0-.03,0,0,0-.02,0-.02,0-.01,0-.03,0-.04,0-.01,0-.03,0-.05,0,0,0-.01,0-.02-.01,0,0,0-.02,0-.02,0,0,0-.01,0-.02,0,0,0-.01.01-.01h.01s.01,0,.02-.01c0,0,.01,0,.02-.02,0,0,.01-.02.02-.03,0-.01.01-.03.02-.06l.18-.73s.01-.02.02-.02c.01,0,.02,0,.03.02.02.06.03.11.05.17.02.06.04.12.05.19.02.06.04.13.05.19.02.06.04.12.06.18,0,.02.01.04.02.05,0,.01.01.02.02.03,0,0,.01,0,.02.01s.01,0,.02,0c0,0,.01,0,.01.01,0,0,0,.01,0,.02,0,0,0,.01,0,.02,0,0,0,.01-.01.01,0,0-.02,0-.03,0s-.02,0-.03,0c0,0-.02,0-.03,0,0,0-.02,0-.03,0-.02,0-.05,0-.07,0-.02,0-.04,0-.06,0,0,0-.01,0-.02-.01s0-.02,0-.02c0,0,0-.01,0-.02,0,0,0-.01.02-.01.02,0,.03,0,.04-.02,0,0,0-.01,0-.03,0,0,0-.01,0-.02,0,0,0-.02,0-.03,0-.01,0-.03-.01-.05,0-.02-.01-.05-.02-.08,0,0,0-.01,0-.01,0,0,0,0-.02,0h-.15ZM53.56,30.45s0,0,0,0,0,0,0,0l-.08-.3s0,0,0,0c0,0,0,0,0,0l-.07.3s0,0,0,0c0,0,0,0,0,0h.14Z"/>
              <path id="path3472" class="cls-6" d="M53.97,30.15s0-.05,0-.07c0-.02,0-.04-.01-.05,0-.01-.01-.02-.02-.03,0,0-.02-.01-.04-.01,0,0-.01,0-.02-.01,0,0,0-.01,0-.02,0,0,0-.01,0-.02,0,0,0-.01.02-.01,0,0,.02,0,.03,0,.01,0,.02,0,.03,0,0,0,.02,0,.02,0,0,0,.02,0,.03,0,.03,0,.05,0,.07,0,.02,0,.05,0,.07,0,.05,0,.09,0,.14.03.04.02.08.05.11.09.03.04.05.09.07.14.02.06.03.12.03.18,0,.07,0,.14-.02.19-.02.06-.04.1-.07.14-.03.04-.06.06-.1.08-.04.02-.08.03-.12.03-.03,0-.05,0-.08,0-.02,0-.05,0-.07,0-.01,0-.02,0-.03,0,0,0-.02,0-.03,0,0,0-.02,0-.03,0,0,0-.02,0-.03,0,0,0-.01,0-.02-.01,0,0,0-.02,0-.02,0,0,0-.01,0-.02,0,0,0-.01.02-.01.01,0,.02,0,.03-.01,0,0,.02,0,.02-.02,0,0,0-.02.01-.03,0-.01,0-.03,0-.05v-.49ZM54.09,30.55s0,.08,0,.1c0,.02,0,.04.01.05,0,.01.02.02.03.02.01,0,.03,0,.05,0,.02,0,.05,0,.07-.02.02-.02.04-.04.05-.07.01-.03.03-.07.03-.11,0-.04.01-.1.01-.15,0-.06,0-.11-.01-.16,0-.05-.02-.08-.04-.12-.02-.03-.04-.05-.08-.07-.03-.02-.07-.02-.12-.02,0,0-.01,0-.02,0,0,0,0,.01,0,.02v.52Z"/>
            </g>
            <g id="text6835-1-2-3-4-7-5-4">
              <path id="path3475" class="cls-6" d="M50.17,32.84s0,.04.01.05c0,.01.02.03.03.03.01,0,.03.02.04.02.02,0,.03.01.05.02.03.01.05.03.08.04.03.01.05.03.07.05.02.02.04.05.05.07.01.03.02.07.03.11,0,.04,0,.08-.02.11-.01.03-.03.06-.05.08-.02.02-.05.04-.08.05-.03.01-.06.02-.09.02-.02,0-.04,0-.07,0s-.05-.01-.07-.03c0,0,0,0,0,0,0,0,0,0,0,0,0,0,0,0,0,0,0,0,0,.01,0,.02,0,0,0,.01-.01.02,0,0-.01,0-.02,0,0,0-.01,0-.02,0,0,0,0,0,0-.02,0-.02,0-.04,0-.06,0-.02,0-.04,0-.06,0-.02,0-.04,0-.06,0-.02,0-.04,0-.06,0,0,0-.02,0-.02,0,0,.01,0,.02-.01,0,0,.01,0,.02,0,0,0,0,0,.01.01,0,.03.02.06.03.09.01.02.02.04.04.06.02.02.03.03.05.04.02,0,.04.01.06,0,.02,0,.03,0,.05-.01.01,0,.03-.02.04-.03.01-.01.02-.03.02-.04,0-.02,0-.03,0-.05,0-.03,0-.05-.02-.07-.01-.02-.02-.04-.04-.05-.01-.01-.03-.02-.05-.03-.02,0-.04-.02-.05-.03-.02,0-.04-.02-.07-.03-.02-.01-.04-.03-.06-.04-.02-.02-.03-.04-.05-.06-.01-.03-.02-.06-.02-.1,0-.04,0-.07.01-.1.01-.03.03-.05.05-.07.02-.02.04-.03.07-.04.03-.01.06-.02.08-.02.02,0,.03,0,.05,0,.01,0,.03,0,.04.01,0,0,.01,0,.02,0,0,0,0,0,.01,0,0,0,0,0,0,0,0,0,0-.01.01-.01,0,0,.01,0,.02,0,0,0,0,0,.01,0,0,0,0,0,0,.02,0,.01,0,.03,0,.04,0,.01,0,.03,0,.04,0,.02,0,.04,0,.05s0,.04,0,.06c0,0,0,.01,0,.02,0,0,0,0-.01,0,0,0-.01,0-.02,0,0,0,0,0-.01-.01,0-.03-.02-.06-.03-.08,0-.02-.02-.04-.03-.05-.01-.01-.02-.02-.04-.02-.02,0-.03,0-.06,0-.02,0-.03,0-.04.01-.01,0-.02.01-.03.02,0,.01-.02.02-.02.04,0,.01,0,.03,0,.05Z"/>
              <path id="path3477" class="cls-6" d="M51.05,32.59s.01,0,.02,0c.01,0,.02.01.01.03,0,0,0,.01,0,.02,0,0,0,.01,0,.02v.02s0,.04,0,.05c0,.02,0,.03,0,.05,0,0,0,.01,0,.02,0,0-.01,0-.02,0,0,0-.01,0-.02,0,0,0,0,0-.01-.02,0-.03-.01-.05-.02-.07,0-.02-.01-.03-.02-.03,0,0-.02-.01-.03-.01-.01,0-.03,0-.05,0h-.06s-.03,0-.04,0c0,0-.02,0-.02,0,0,0,0,0,0,.02,0,0,0,.02,0,.04v.21s.01.01.01.01c0,0,0,0,0,0,.03,0,.05,0,.07-.01.02,0,.03-.01.03-.02,0,0,.01-.02.01-.03,0-.01,0-.03,0-.05,0,0,0-.01,0-.02,0,0,.01,0,.02,0,0,0,.01,0,.02,0,0,0,0,0,0,.02,0,.01,0,.02,0,.03,0,.01,0,.02,0,.03,0,.01,0,.02,0,.03,0,0,0,.02,0,.04,0,.02,0,.05,0,.06,0,0,0,.02,0,.03,0,.01,0,.03,0,.04,0,0,0,.01,0,.02,0,0-.01,0-.02,0,0,0-.01,0-.02,0,0,0,0,0-.01-.02,0-.02,0-.04,0-.05,0-.01,0-.02-.02-.03,0,0-.02,0-.04-.01-.02,0-.04,0-.07,0,0,0,0,0,0,0,0,0,0,0,0,0v.16s.01.06.02.08c0,.02,0,.03.02.04,0,0,.02.01.04.01s.04,0,.07,0c.02,0,.03,0,.04,0,.01,0,.02,0,.03,0,.01,0,.02-.01.03-.02,0,0,.02-.01.02-.02,0,0,0-.02.01-.04,0-.01,0-.03,0-.06,0,0,0-.01.01-.02,0,0,.01,0,.02,0,0,0,.01,0,.02,0,0,0,0,0,0,.02,0,.03,0,.07,0,.1,0,.03,0,.06,0,.09,0,0,0,0,0,0,0,0,0,0,0,.01,0,0,0,0,0,0,0,0,0,0-.02,0l-.35.03s-.05,0-.07,0c-.02,0-.04,0-.06.01,0,0-.01,0-.02,0,0,0,0-.01,0-.02,0,0,0-.01,0-.02,0,0,0-.01.02-.01.01,0,.03,0,.04-.01s.02-.01.02-.02c0,0,0-.02.01-.03,0-.01,0-.03,0-.05l-.03-.46s0-.03,0-.05c0-.02,0-.03,0-.04,0-.01,0-.02-.01-.03,0,0-.01-.01-.02-.02,0,0-.01,0-.02,0,0,0-.02,0-.02,0,0,0-.01,0-.02,0,0,0,0-.01,0-.02,0,0,0-.01,0-.02s0-.01.02-.01c.02,0,.04,0,.06,0,.02,0,.04,0,.06,0l.35-.03Z"/>
              <path id="path3479" class="cls-6" d="M51.42,33.21s0,.05,0,.06c0,.01.01.02.02.03,0,0,.02.01.03.01.01,0,.03,0,.05,0,0,0,.02,0,.02,0,0,0,0,.01,0,.02s0,.01,0,.02c0,0,0,.01-.02.01-.04,0-.07,0-.09,0-.03,0-.05,0-.07,0-.02,0-.05,0-.07.01-.02,0-.05,0-.07.01,0,0-.01,0-.02,0,0,0,0-.01,0-.02,0,0,0-.01,0-.02,0,0,0-.01.02-.01.02,0,.03,0,.04-.01.01,0,.02-.01.02-.02,0,0,0-.02,0-.03,0-.01,0-.03,0-.05l-.02-.45s0-.03,0-.05c0-.02,0-.03,0-.05,0-.01,0-.02-.01-.03,0,0-.01-.01-.02-.01,0,0-.02,0-.02,0,0,0-.01,0-.02,0,0,0-.01,0-.02,0,0,0,0-.01,0-.02,0,0,0-.01,0-.02,0,0,0-.01.02-.01.02,0,.04,0,.06,0,.02,0,.04,0,.07,0,.03,0,.06,0,.09-.01.03,0,.05,0,.07,0,.03,0,.05,0,.08,0,.03,0,.05.02.07.03.02.02.04.04.05.06.01.03.02.06.02.1,0,.05,0,.09-.02.12-.01.03-.03.06-.06.08-.03.02-.05.04-.09.05-.03.01-.07.02-.11.02,0,0,0,0,0,0,0,0,0,0,0,.01v.17ZM51.41,32.95s0,0,0,0c0,0,0,0,0,0,.03,0,.06,0,.08-.01.02,0,.03-.02.05-.03.01-.01.02-.03.02-.05,0-.02,0-.05,0-.08,0-.06-.01-.1-.03-.12-.02-.02-.05-.03-.09-.03-.02,0-.04,0-.04.01s0,.02,0,.04v.27Z"/>
              <path id="path3481" class="cls-6" d="M52.11,33.17s0,.05,0,.06c0,.01,0,.02.01.03,0,0,.01.01.03.01.01,0,.03,0,.05,0,0,0,.01,0,.02.01,0,0,0,.01,0,.02,0,0,0,.01,0,.02,0,0,0,.01-.02.01-.03,0-.05,0-.08,0-.02,0-.05,0-.07,0-.02,0-.05,0-.08.01-.03,0-.05,0-.07.01,0,0-.01,0-.02,0,0,0,0-.01,0-.02,0,0,0-.01,0-.02s0-.01.01-.01c.02,0,.04,0,.05-.01.01,0,.02,0,.02-.02,0,0,0-.02,0-.03,0-.01,0-.03,0-.06l-.03-.53s0-.04-.02-.04c0,0-.03,0-.05,0-.02,0-.04,0-.06.01-.01,0-.03.01-.03.02,0,.01-.01.03-.02.04,0,.02,0,.04-.01.08,0,0,0,.02-.01.02,0,0-.01,0-.02,0,0,0-.01,0-.02,0,0,0,0,0,0-.02,0-.03,0-.06,0-.09,0-.03,0-.06,0-.09,0-.02,0-.03.02-.03.01,0,.02,0,.04,0l.52-.04s.03,0,.04,0,.02.01.02.03c0,.01,0,.02,0,.04,0,.01,0,.03,0,.05,0,.02,0,.03,0,.05,0,.02,0,.03,0,.05,0,0,0,.01,0,.02,0,0-.01,0-.02,0s-.01,0-.02,0c0,0-.01,0-.01-.02,0-.03-.01-.06-.02-.08,0-.02-.02-.03-.03-.04,0,0-.02-.02-.04-.02-.01,0-.03,0-.05,0-.03,0-.05,0-.06.01-.01,0-.01.02-.01.05l.03.53Z"/>
              <path id="path3483" class="cls-6" d="M52.48,32.67s0-.04,0-.06c0-.02,0-.03-.01-.04,0,0-.01-.02-.03-.02-.01,0-.03,0-.04,0,0,0-.01,0-.02,0,0,0,0-.01,0-.02,0,0,0-.01,0-.02,0,0,0-.01.02-.01.02,0,.04,0,.07,0,.03,0,.05,0,.08,0,.02,0,.03,0,.04,0,.01,0,.02,0,.03,0s.02,0,.04,0,.02,0,.04,0c0,0,.01,0,.02,0,0,0,0,.01,0,.02,0,0,0,.01,0,.02,0,0,0,.01-.02.01-.02,0-.03,0-.04.01-.01,0-.02.01-.02.02,0,0,0,.02,0,.04,0,.02,0,.04,0,.06l.02.47s0,.05,0,.06,0,.02.01.03c0,0,.01.01.03.01.01,0,.03,0,.05,0,0,0,.01,0,.02.01,0,0,0,.01,0,.02,0,0,0,.01,0,.02,0,0,0,.01-.02.01-.03,0-.05,0-.08,0-.02,0-.05,0-.07,0-.02,0-.05,0-.08,0-.03,0-.05,0-.07,0,0,0-.01,0-.02,0,0,0,0-.01,0-.02,0,0,0-.01,0-.02,0,0,0-.01.01-.01.02,0,.04,0,.05-.01.01,0,.02,0,.02-.02,0,0,0-.02,0-.03,0-.01,0-.03,0-.06l-.02-.47Z"/>
              <path id="path3485" class="cls-6" d="M53.24,32.43s.01,0,.02,0c.01,0,.02.01.01.03,0,0,0,.01,0,.02,0,0,0,.01,0,.02v.02s0,.04,0,.05c0,.02,0,.03,0,.05,0,0,0,.01,0,.02,0,0-.01,0-.02,0,0,0-.01,0-.02,0,0,0,0,0-.01-.02,0-.03-.01-.05-.02-.07,0-.02-.01-.03-.02-.03,0,0-.02-.01-.03-.01-.01,0-.03,0-.05,0h-.06s-.03,0-.04,0c0,0-.02,0-.02,0,0,0,0,0,0,.02,0,0,0,.02,0,.04v.21s0,.01.01.01c0,0,0,0,0,0,.03,0,.05,0,.07,0,.02,0,.03,0,.03-.02s.01-.02.01-.03c0-.01,0-.03,0-.05,0,0,0-.01.01-.02,0,0,.01,0,.02,0,0,0,.01,0,.02,0,0,0,0,0,0,.02,0,.01,0,.02,0,.03,0,.01,0,.02,0,.03,0,.01,0,.02,0,.03,0,0,0,.02,0,.04,0,.02,0,.05,0,.06,0,0,0,.02,0,.03,0,.01,0,.03,0,.04,0,0,0,.01,0,.02,0,0-.01,0-.02,0,0,0-.01,0-.02,0,0,0,0,0-.01-.02,0-.02,0-.04,0-.05,0-.01,0-.02-.02-.03s-.02-.01-.04-.01c-.02,0-.04,0-.07,0,0,0,0,0,0,0,0,0,0,0,0,0v.16s.01.06.01.08c0,.02,0,.03.02.04s.02.01.04.01c.02,0,.04,0,.07,0,.02,0,.03,0,.04,0,.01,0,.02,0,.03,0,.01,0,.02-.01.03-.02,0,0,.02-.01.02-.02,0,0,0-.02.01-.04,0-.01,0-.03,0-.06,0,0,0-.01.01-.02,0,0,.01,0,.02,0,0,0,.01,0,.02,0,0,0,0,.01,0,.02,0,.03,0,.07,0,.1,0,.03,0,.06,0,.09,0,0,0,0,0,0,0,0,0,0,0,.01,0,0,0,0-.01,0,0,0,0,0-.02,0l-.35.02s-.05,0-.07,0c-.02,0-.04,0-.06,0,0,0-.01,0-.02,0,0,0,0-.01,0-.02,0,0,0-.01,0-.02,0,0,0-.01.02-.01.01,0,.03,0,.04-.01,0,0,.02-.01.02-.02,0,0,.01-.02.01-.03,0-.01,0-.03,0-.05l-.02-.46s0-.03,0-.05c0-.02,0-.03,0-.04,0-.01,0-.02-.01-.03,0,0-.01-.01-.02-.02,0,0-.01,0-.02,0,0,0-.02,0-.02,0,0,0-.01,0-.02,0,0,0,0-.01,0-.02,0,0,0-.01,0-.02,0,0,0-.01.02-.01.02,0,.04,0,.06,0,.02,0,.04,0,.06,0l.35-.02Z"/>
              <path id="path3487" class="cls-6" d="M53.45,32.58s0-.04,0-.05c0-.01,0-.02-.01-.03,0,0-.01,0-.02-.01-.01,0-.02,0-.04,0,0,0-.01,0-.02,0,0,0,0-.01,0-.02,0,0,0-.01,0-.02,0,0,0-.01.02-.01,0,0,.01,0,.02,0,0,0,.02,0,.04,0,.02,0,.03,0,.05,0,.02,0,.03,0,.04,0,.01,0,.03,0,.04,0,.01,0,.02,0,.02.01l.22.56s0,0,0,0c0,0,0,0,0,0l.17-.58s.01-.01.03-.02c.02,0,.04,0,.06,0,.02,0,.04,0,.07,0,.02,0,.04,0,.05,0,0,0,.01,0,.02,0,0,0,0,.01,0,.02s0,.01,0,.02c0,0,0,.01-.01.01-.02,0-.04.01-.05.02-.01,0-.02.01-.02.02,0,0,0,.02,0,.04,0,.02,0,.05,0,.09l.02.44s0,.05,0,.06,0,.02.01.03c0,0,.01.01.03.01.01,0,.03,0,.05,0,0,0,.01,0,.02.01,0,0,0,.01,0,.02,0,0,0,.01,0,.02,0,0,0,.01-.02.01-.03,0-.05,0-.08,0-.02,0-.05,0-.07,0-.02,0-.05,0-.08,0-.03,0-.05,0-.07,0,0,0-.01,0-.02,0,0,0,0-.01,0-.02,0,0,0-.01,0-.02,0,0,0-.01.01-.01.02,0,.04,0,.05-.01.01,0,.02,0,.02-.02,0,0,0-.02.01-.03s0-.03,0-.06l-.02-.44s0,0,0,0c0,0,0,0,0,0l-.13.41s-.02.06-.03.09-.02.07-.02.1c0,0,0,.01,0,.01,0,0,0,0-.01,0s0,0-.01,0c0,0,0,0-.01-.01l-.24-.59s0,0,0,0c0,0,0,0,0,0l.02.45s0,.05,0,.06c0,.01,0,.02.02.03,0,0,.01.01.02.01,0,0,.02,0,.04,0,0,0,.01,0,.01.01,0,0,0,.01,0,.02,0,0,0,.01,0,.02,0,0,0,.01-.02.01-.02,0-.03,0-.05,0-.02,0-.04,0-.06,0-.02,0-.04,0-.06,0-.02,0-.04,0-.05,0,0,0-.01,0-.02,0,0,0,0-.01,0-.02,0,0,0-.01,0-.02,0,0,0-.01.01-.01.02,0,.03,0,.04,0,.01,0,.02,0,.02-.01s0-.02.01-.03c0-.01,0-.04,0-.06l-.02-.5Z"/>
              <path id="path3489" class="cls-6" d="M54.49,32.71s0,.01,0,.02c0,0,0,0,.01,0h.02s.04,0,.06,0c.02,0,.03-.01.04-.02.01-.01.02-.03.03-.05,0-.02,0-.04,0-.08,0-.03,0-.05,0-.07,0-.02-.01-.03-.02-.04-.01-.01-.02-.02-.04-.02-.02,0-.03,0-.05,0h-.03s0,0,0,0c0,0,0,0,0,0,0,0,0,0,0,.01,0,0,0,.01,0,.03v.23ZM54.5,32.95s0,.08,0,.1c0,.02,0,.04.01.05,0,.01.01.02.03.02.01,0,.03,0,.05,0,.04,0,.07-.01.09-.04.02-.02.02-.06.02-.11,0-.04,0-.07-.02-.09,0-.02-.02-.04-.04-.05-.01-.01-.03-.02-.05-.02-.02,0-.04,0-.06,0h-.02s-.02,0-.02,0c0,0,0,.01,0,.03v.11ZM54.36,32.59s0-.03,0-.05c0-.02,0-.03,0-.04,0-.01,0-.02-.01-.03s-.01-.01-.02-.02c0,0-.01,0-.02,0,0,0-.01,0-.02,0,0,0-.01,0-.02,0,0,0,0-.01,0-.02,0,0,0-.01,0-.02,0,0,0-.01.02-.01,0,0,.02,0,.03,0,.01,0,.02,0,.03,0,0,0,.02,0,.03,0,0,0,.02,0,.03,0,.01,0,.02,0,.03,0,.01,0,.02,0,.03,0,.01,0,.03,0,.04,0,.01,0,.02,0,.03,0,.02,0,.03,0,.05,0,.02,0,.04,0,.06,0,.02,0,.04.01.05.02.02,0,.03.02.05.04.01.01.02.03.03.05,0,.02.01.05.01.07,0,.03,0,.05,0,.07,0,.02-.01.04-.03.05-.01.02-.02.03-.04.04-.01.01-.03.02-.05.03,0,0,0,0,0,0,0,0,0,0,0,0,.05.02.1.04.13.07.03.03.05.08.05.15,0,.04,0,.08-.02.11-.01.03-.03.05-.05.07-.02.02-.04.03-.07.04-.03,0-.05.01-.08.01-.01,0-.03,0-.04,0-.02,0-.03,0-.05,0-.02,0-.03,0-.05,0-.02,0-.03,0-.05,0-.01,0-.03,0-.04,0-.01,0-.02,0-.03,0,0,0-.02,0-.03,0-.01,0-.02,0-.04,0,0,0-.01,0-.02,0,0,0,0-.01,0-.02,0,0,0-.01,0-.02,0,0,0-.01.01-.01.02,0,.03,0,.04-.01.01,0,.02,0,.02-.02,0,0,0-.02.01-.03,0-.01,0-.03,0-.05v-.46Z"/>
              <path id="path3491" class="cls-6" d="M54.98,32.56s0-.03,0-.05c0-.02,0-.03,0-.04,0-.01,0-.02-.01-.03,0,0-.01-.01-.02-.02,0,0-.01,0-.02,0,0,0-.02,0-.02,0,0,0-.01,0-.02,0,0,0,0-.01,0-.02,0,0,0-.01,0-.02,0,0,0-.01.02-.01,0,0,.02,0,.03,0,.01,0,.02,0,.03,0,0,0,.02,0,.03,0,0,0,.02,0,.03,0,.02,0,.04,0,.05,0,.02,0,.03,0,.04,0,.03,0,.05,0,.07,0,.03,0,.05,0,.08,0,.03,0,.05.02.07.04.02.02.04.04.05.07.01.03.02.06.02.1,0,.03,0,.06,0,.08,0,.02-.02.04-.03.06s-.03.03-.05.04c-.02.01-.04.02-.06.03,0,0,0,0,0,0,0,0,0,0,0,0,.02.01.04.03.05.04.02.01.03.03.04.04,0,.02.02.03.02.05,0,.02.01.03.02.05,0,.02,0,.03.01.05,0,.02,0,.03,0,.05,0,.02,0,.03.01.04,0,0,.01,0,.02,0,0,0,.01,0,.02,0,0,0,0-.02.01-.03,0,0,0-.01,0-.02,0,0,0,0,.01,0,0,0,.01,0,.02,0,0,0,0,.01,0,.02,0,.02,0,.04-.01.05s-.02.03-.03.04c-.01.01-.02.02-.04.02s-.03,0-.04,0c-.01,0-.02,0-.03,0-.01,0-.02,0-.03-.01,0,0-.02-.01-.02-.02,0,0-.01-.02-.02-.03,0-.01,0-.03-.01-.04,0-.02,0-.03-.01-.05,0-.02,0-.03-.01-.05,0-.02,0-.03,0-.04-.01-.05-.03-.08-.04-.1-.02-.02-.04-.03-.07-.03,0,0-.02,0-.02,0,0,0,0,.01,0,.02v.16s0,.05.01.06c0,.01.01.03.02.03,0,0,.02.01.03.02.01,0,.03,0,.04,0,0,0,.01,0,.02.01,0,0,0,.01,0,.02,0,0,0,.01,0,.02,0,0,0,.01-.02.01-.02,0-.03,0-.05,0-.01,0-.03,0-.04,0s-.03,0-.04,0c-.01,0-.02,0-.03,0-.02,0-.05,0-.07,0-.02,0-.05,0-.07,0,0,0-.01,0-.02,0,0,0,0-.01,0-.02,0,0,0-.01,0-.02,0,0,0-.01.02-.01.02,0,.03,0,.04-.01.01,0,.02,0,.02-.02,0,0,0-.02.01-.03,0-.01,0-.03,0-.05v-.45ZM55.11,32.7s0,.02,0,.02c0,0,.02,0,.04,0,.02,0,.04,0,.06-.01.02,0,.03-.02.04-.03,0-.01.01-.03.02-.05,0-.02,0-.05,0-.08,0-.03,0-.05,0-.07,0-.02-.01-.03-.02-.05,0-.01-.02-.02-.04-.02-.01,0-.03,0-.06,0-.02,0-.04,0-.04,0,0,0-.01.02-.01.04v.24Z"/>
              <path id="path3493" class="cls-6" d="M56.03,32.31s.01,0,.02,0c.01,0,.01.01.01.03,0,0,0,.01,0,.02,0,0,0,.01,0,.02v.02s0,.04,0,.05c0,.02,0,.03,0,.05,0,0,0,.01,0,.02,0,0-.01,0-.02,0,0,0-.01,0-.02,0,0,0,0,0-.01-.02,0-.03,0-.05-.01-.07,0-.02-.01-.03-.02-.04s-.02-.01-.03-.01c-.01,0-.03,0-.05,0h-.06s-.03,0-.04,0c0,0-.02,0-.02,0,0,0,0,0,0,.02,0,0,0,.02,0,.04v.21s0,.01,0,.01c0,0,0,0,0,0,.03,0,.05,0,.07,0,.02,0,.03,0,.03-.02,0,0,.01-.02.01-.03,0-.01,0-.03,0-.05,0,0,0-.01.01-.02,0,0,.01,0,.02,0,0,0,.01,0,.02,0,0,0,0,.01,0,.02,0,.01,0,.02,0,.03,0,.01,0,.02,0,.03,0,.01,0,.02,0,.03,0,0,0,.02,0,.04,0,.02,0,.05,0,.06,0,0,0,.02,0,.03,0,.01,0,.03,0,.04,0,0,0,.01,0,.02,0,0-.01,0-.02,0,0,0-.01,0-.02,0,0,0,0,0-.01-.02,0-.02,0-.04,0-.05,0-.01,0-.02-.01-.03,0,0-.02-.01-.03-.01-.02,0-.04,0-.07,0,0,0,0,0,0,0,0,0,0,0,0,0v.16s0,.06,0,.08c0,.02,0,.03.02.04s.02.01.04.02c.02,0,.04,0,.07,0,.02,0,.03,0,.04,0,.01,0,.02,0,.03,0,.01,0,.02-.01.03-.02,0,0,.02-.01.02-.02,0,0,.01-.02.01-.04,0-.01,0-.03,0-.06,0,0,0-.01.01-.02,0,0,.01,0,.02,0,0,0,.01,0,.02,0,0,0,0,.01,0,.02,0,.03,0,.07,0,.1,0,.03,0,.06,0,.09,0,0,0,0,0,0,0,0,0,0,0,.01,0,0,0,0-.01,0,0,0,0,0-.02,0h-.35s-.05,0-.07.01c-.02,0-.04,0-.06,0,0,0-.01,0-.02-.01,0,0,0-.01,0-.02,0,0,0-.01,0-.02,0,0,0-.01.02-.01.01,0,.03,0,.04-.01,0,0,.02,0,.02-.02,0,0,.01-.02.01-.03,0-.01,0-.03,0-.05v-.46s0-.03,0-.05c0-.02,0-.03,0-.04,0-.01,0-.02-.01-.03,0,0-.01-.01-.02-.02,0,0-.01,0-.02,0,0,0-.02,0-.02,0,0,0-.01,0-.02,0,0,0,0-.01,0-.02,0,0,0-.01,0-.02,0,0,0-.01.02-.01.02,0,.04,0,.06,0,.02,0,.04,0,.06,0h.35Z"/>
            </g>
          </g>
          <path id="Shape-4" data-name="Shape" class="cls-5" d="M48.1,27.52c-.51,0-.64.49-.63.8.02.81.63.85.63.85l.81-.05.39-1.67-1.2.07Z"/>
          <path id="Shape-5" data-name="Shape" class="cls-5" d="M54.75,28.86c.91-.15.9-1.38.28-1.88-2.11-.08-4.9-.02-6.91.13.23,0,.86.05.94.89.03.39-.16.75-.42.96-.25.2-.53.2-.53.2.03.01.3,0,.49-.01.1,0,.35-.04.42-.05,2.87-.38,5.73-.25,5.73-.25h.01s0,0,0,0c0,0,0,0,0,0Z"/>
        </g>
      </g>
    </g>
  </g>
</svg>