<?xml version="1.0" encoding="UTF-8"?>
<svg id="Capa_2" data-name="Capa 2" xmlns="http://www.w3.org/2000/svg" viewBox="0 0 105.1 70.46">
  <defs>
    <style>
      .cls-1 {
        fill: #fff;
      }

      .cls-2 {
        fill: #ee2c28;
      }

      .cls-3 {
        fill: #2f4794;
      }
    </style>
  </defs>
  <g id="Capa_1-2" data-name="Capa 1">
    <g>
      <rect class="cls-1" y="0" width="105.1" height="70.46" rx="11.74" ry="11.74"/>
      <path class="cls-3" d="M0,35.23h52.55v35.23H11.63c-6.42,0-11.63-5.21-11.63-11.63v-23.6Z"/>
      <path class="cls-2" d="M105.1,35.23h-52.55V0h40.92c6.42,0,11.63,5.21,11.63,11.63v23.6Z"/>
      <path class="cls-3" d="M37.44,15.19h-8.69s-.02.03-.02.03v-.03s-2.65-8.23-2.65-8.23l-2.36,8.24h-8.61s7.16,4.83,7.16,4.83h.04l-.08.04-2.91,8.2,6.95-5.14v-.04s.02.04.02.04l6.94,5.14-2.91-8.2-.08-.04h.02l7.17-4.84Z"/>
      <path class="cls-2" d="M89.99,50.42h-8.69s-.02.03-.02.03v-.03s-2.65-8.23-2.65-8.23l-2.36,8.24h-8.61s7.16,4.83,7.16,4.83h.04l-.08.04-2.91,8.2,6.95-5.14v-.04s.02.04.02.04l6.94,5.14-2.91-8.2-.08-.04h.02l7.17-4.84Z"/>
    </g>
  </g>
</svg>