<?xml version="1.0" encoding="UTF-8"?>
<svg id="Capa_2" data-name="Capa 2" xmlns="http://www.w3.org/2000/svg" viewBox="0 0 105.1 70.46">
  <defs>
    <style>
      .cls-1 {
        fill: #ffe15a;
      }

      .cls-2 {
        fill: #fff;
      }

      .cls-3 {
        fill: #ee2c28;
      }

      .cls-4 {
        fill: #3cc8ff;
      }

      .cls-5 {
        fill: #73af00;
      }

      .cls-6 {
        fill: #41479b;
      }

      .cls-7 {
        fill: #f5f5f5;
      }

      .cls-8 {
        fill: #8c5a28;
      }

      .cls-9 {
        fill: #f0aa00;
      }
    </style>
  </defs>
  <g id="Capa_1-2" data-name="Capa 1">
    <g>
      <path class="cls-2" d="M105.1,11.73v46.98c0,6.49-5.26,11.75-11.75,11.75H11.73c-6.47,0-11.73-5.26-11.73-11.75V11.73C0,5.24,5.26,0,11.73,0h81.61c6.49,0,11.75,5.24,11.75,11.73Z"/>
      <path class="cls-6" d="M105.1,11.73v.96H0v-.96C0,5.24,5.26,0,11.73,0h81.61c6.49,0,11.75,5.24,11.75,11.73Z"/>
      <path class="cls-6" d="M105.1,57.75v.96c0,6.49-5.26,11.75-11.75,11.75H11.73c-6.47,0-11.73-5.26-11.73-11.75v-.96h105.1Z"/>
      <rect class="cls-3" y="25.51" width="105.1" height="19.44"/>
      <g>
        <rect class="cls-4" x="14.14" y="31.48" width="8.66" height="4.33"/>
        <polygon class="cls-1" points="15.29 33.94 15.39 34.9 15.78 34.02 15.58 34.96 16.22 34.24 15.74 35.07 16.57 34.59 15.86 35.23 16.8 35.03 15.92 35.42 16.87 35.52 15.92 35.62 16.8 36.01 15.86 35.81 16.57 36.45 15.74 35.97 16.22 36.8 15.58 36.08 15.78 37.02 15.39 36.14 15.29 37.1 15.19 36.14 14.81 37.02 15.01 36.08 14.36 36.8 14.85 35.97 14.02 36.45 14.73 35.81 13.79 36.01 14.67 35.62 13.71 35.52 14.67 35.42 13.79 35.03 14.73 35.23 14.02 34.59 14.85 35.07 14.36 34.24 15.01 34.96 14.81 34.02 15.19 34.9 15.29 33.94"/>
        <polygon class="cls-6" points="20.2 41.87 16.74 41.87 13.56 39.27 13.56 35.52 23.67 35.52 23.67 39.27 20.2 41.87"/>
        <path class="cls-5" d="M21.93,34.36h0c0-.08-.06-.14-.14-.14s-.14.06-.14.14h0c0,.5-.29,1.19-.65,1.69-.5-.63-.68-1.36-.75-1.81-.03-.22-.27-.34-.47-.24-.1.05-.16.14-.18.25-.22,1.42-.89,2.02-1.32,2.27-.65-.63-.86-1.64-.93-2.24-.03-.23-.28-.37-.49-.26-.08.04-.14.11-.17.2-.91,2.76-3.42,3.04-3.42,3.04v.87h10.11v-1.44c-1.15-.29-1.44-2.31-1.44-2.31Z"/>
        <g>
          <path class="cls-9" d="M23.38,31.77c-1.15-.58-1.15-1.15-1.15-1.15,0,0-1.44-.58-2.6-.58,0,0,.29-.58-.29-.58h-1.73c-.58,0-.29.58-.29.58-1.15,0-2.6.58-2.6.58,0,0,0,.58-1.15,1.15-1.15.58-1.15,1.88-1.15,1.88,0,.24.19.43.43.43s.43-.19.43-.43c0-.05-.01-.1-.03-.14h.03s2.89-2.03,2.89-2.03h4.62l2.89,2.02h.03s-.03.1-.03.14c0,.24.19.43.43.43s.43-.19.43-.43c0,0,0-1.3-1.15-1.88Z"/>
          <path class="cls-9" d="M24.24,35.23c-.29,0-1.15,0-1.15-.87s1.15-.87,1.15-.87l-1.73-.58c-.58,2.02.58,2.02.58,4.62,0,2.33-2.6,3.75-3.46,3.75s-1.15.58-1.15.58c0,0-.29-.58-1.15-.58s-3.46-1.43-3.46-3.75c0-2.6,1.15-2.6.58-4.62l-1.73.58s1.15,0,1.15.87-.87.87-1.15.87-1.44,0-1.44,1.44,1.44,3.18,3.46,4.33c2.02,1.15,1.15,2.31,3.75,2.31s1.73-1.15,3.75-2.31c2.02-1.15,3.46-2.89,3.46-4.33,0-1.44-1.15-1.44-1.44-1.44Z"/>
        </g>
        <g>
          <path class="cls-5" d="M17.89,30.71l-.7-.31c-.12-.05-.24-.06-.37-.04-.45.1-1.57.45-2.4,1.4l.87.29,2.6-1.34Z"/>
          <path class="cls-5" d="M19.05,30.71l.7-.31c.12-.05.24-.06.37-.04.45.1,1.57.45,2.4,1.4l-.87.29-2.6-1.34Z"/>
          <path class="cls-5" d="M18.57,30.9l.53-.53s.03-.07,0-.1-.07-.03-.1,0l-.53.53-.53-.53s-.07-.03-.1,0-.03.07,0,.1l.53.53-.53.53s-.03.07,0,.1c.01.01.03.02.05.02s.04,0,.05-.02l.53-.53.53.53s.03.02.05.02.04,0,.05-.02c.03-.03.03-.07,0-.1l-.53-.53Z"/>
        </g>
        <path class="cls-7" d="M24.24,33.5c0-.49-.46-.7-.87-.8v-.23c-.54-.05-.85-.26-1.37-.61-.2-.14-.43-.3-.71-.46-1.02-.62-1.8-.71-2.25-.68v.48h-1.15v-.48c-.45-.02-1.23.07-2.25.68-.28.17-.51.33-.71.46-.53.36-.83.56-1.37.61v.23c-.4.09-.87.3-.87.8l.87-.29v.13c.82-.06,1.29-.37,1.86-.77.19-.13.41-.28.67-.44.66-.4,1.17-.52,1.51-.55v.47h1.73v-.47c.34.03.85.15,1.51.55.26.16.48.31.67.44.57.39,1.04.71,1.86.77v-.13l.87.29Z"/>
        <path class="cls-4" d="M21.93,28.95v-.36h-.8c.14-.12.23-.26.23-.43,0-.8-1.82-1.01-2.89-1.01s-2.89.21-2.89,1.01c0,.17.09.31.23.43h-.8v.36c-.71.16-1.28.54-1.32.56l.32.48s.8-.53,1.57-.53v-.29h5.77v.29c.77,0,1.56.52,1.57.53l.32-.48s-.61-.4-1.32-.56ZM19.62,28.51v-.22c0-.14-.13-.24-.27-.21l-.89.22-.89-.22c-.14-.03-.27.07-.27.21v.22c-.65-.1-1.03-.25-1.14-.35.16-.15.92-.43,2.29-.43s2.14.28,2.29.43c-.1.1-.49.26-1.14.35Z"/>
        <g>
          <path class="cls-7" d="M18.51,32.16l.07.22h.23s.04.04.02.06l-.19.14.07.22s-.02.05-.05.03l-.19-.13-.19.13s-.06,0-.05-.03l.07-.22-.19-.14s-.01-.06.02-.06h.23s.07-.22.07-.22c0-.03.05-.03.06,0Z"/>
          <path class="cls-7" d="M17.37,32.24l.1.21.23-.02s.05.03.02.05l-.17.16.09.21s-.02.05-.04.04l-.2-.11-.17.15s-.06,0-.05-.03l.05-.23-.2-.12s-.02-.05.01-.06l.23-.03.05-.23s.05-.03.06,0Z"/>
          <path class="cls-7" d="M16.21,32.55l.14.18.22-.07s.05.02.04.05l-.13.19.14.19s0,.06-.03.05l-.22-.07-.14.19s-.06.01-.06-.02v-.23s-.22-.07-.22-.07c-.03,0-.03-.05,0-.06l.22-.08v-.23s.04-.04.06-.02Z"/>
          <path class="cls-7" d="M15.05,33.04l.16.16.21-.1s.05.02.04.04l-.11.21.16.17s0,.06-.03.05l-.23-.04-.11.2s-.05.02-.06-.01l-.03-.23-.23-.04s-.04-.05,0-.06l.21-.1-.03-.23s.03-.05.05-.03Z"/>
          <path class="cls-7" d="M19.58,32.24l-.1.21-.23-.02s-.05.03-.02.05l.17.16-.09.21s.02.05.04.04l.2-.11.17.15s.06,0,.05-.03l-.05-.23.2-.12s.02-.05-.01-.06l-.23-.03-.05-.23s-.05-.03-.06,0Z"/>
          <path class="cls-7" d="M20.74,32.55l-.14.18-.22-.07s-.05.02-.04.05l.13.19-.14.19s0,.06.03.05l.22-.07.14.19s.06.01.06-.02v-.23s.22-.07.22-.07c.03,0,.03-.05,0-.06l-.22-.08v-.23s-.04-.04-.06-.02Z"/>
          <path class="cls-7" d="M21.91,33.04l-.16.16-.21-.1s-.05.02-.04.04l.11.21-.16.17s0,.06.03.05l.23-.04.11.2s.05.02.06-.01l.03-.23.23-.04s.04-.05,0-.06l-.21-.1.03-.23s-.03-.05-.05-.03Z"/>
        </g>
        <polygon class="cls-8" points="16.48 39.09 17.95 40.08 19.72 40.08 20.54 39.37 19.91 39.63 17.82 39.63 16.48 39.09"/>
        <path class="cls-7" d="M17.48,37.82l-.14,1.43-.65-.25s.3-.69.79-1.19Z"/>
        <g>
          <rect class="cls-8" x="18.75" y="37.26" width=".1" height="2.44"/>
          <rect class="cls-8" x="19.64" y="37.46" width=".1" height="2.23"/>
          <rect class="cls-8" x="17.87" y="37.46" width=".1" height="2.23"/>
        </g>
        <g>
          <path class="cls-7" d="M19.09,39.46h-.58c-.06,0-.11-.05-.11-.11v-.29c0-.06.05-.11.11-.11h.58c.06,0,.11.05.11.11v.29c0,.06-.05.11-.11.11Z"/>
          <path class="cls-7" d="M19.09,38.78h-.58c-.06,0-.11-.05-.11-.11v-.29c0-.06.05-.11.11-.11h.58c.06,0,.11.05.11.11v.29c0,.06-.05.11-.11.11Z"/>
          <path class="cls-7" d="M19.09,38.15h-.58c-.06,0-.11-.05-.11-.11v-.29c0-.06.05-.11.11-.11h.58c.06,0,.11.05.11.11v.29c0,.06-.05.11-.11.11Z"/>
          <path class="cls-7" d="M19.92,39.46h-.48c-.06,0-.11-.05-.11-.11v-.29c0-.06.05-.11.11-.11h.48c.06,0,.11.05.11.11v.29c0,.06-.05.11-.11.11Z"/>
          <path class="cls-7" d="M19.92,38.83h-.48c-.06,0-.11-.05-.11-.11v-.21c0-.06.05-.11.11-.11h.48c.06,0,.11.05.11.11v.21c0,.06-.05.11-.11.11Z"/>
          <path class="cls-7" d="M19.92,38.21h-.48c-.06,0-.11-.05-.11-.11v-.14c0-.06.05-.11.11-.11h.48c.06,0,.11.05.11.11v.14c0,.06-.05.11-.11.11Z"/>
          <path class="cls-7" d="M18.16,39.46h-.48c-.06,0-.11-.05-.11-.11v-.29c0-.06.05-.11.11-.11h.48c.06,0,.11.05.11.11v.29c0,.06-.05.11-.11.11Z"/>
          <path class="cls-7" d="M18.16,38.83h-.48c-.06,0-.11-.05-.11-.11v-.21c0-.06.05-.11.11-.11h.48c.06,0,.11.05.11.11v.21c0,.06-.05.11-.11.11Z"/>
          <path class="cls-7" d="M18.16,38.21h-.48c-.06,0-.11-.05-.11-.11v-.14c0-.06.05-.11.11-.11h.48c.06,0,.11.05.11.11v.14c0,.06-.05.11-.11.11Z"/>
          <polygon class="cls-7" points="17.97 37.46 17.97 37.75 18.39 37.6 17.97 37.46"/>
          <polygon class="cls-7" points="19.73 37.46 19.73 37.75 20.15 37.6 19.73 37.46"/>
          <polygon class="cls-7" points="18.85 37.26 18.85 37.54 19.27 37.4 18.85 37.26"/>
        </g>
        <polygon class="cls-8" points="17.72 35.31 18.23 35.65 18.85 35.65 19.13 35.4 18.91 35.49 18.19 35.49 17.72 35.31"/>
        <path class="cls-7" d="M18.07,34.87l-.05.5-.22-.09s.1-.24.27-.41Z"/>
        <g>
          <rect class="cls-8" x="18.51" y="34.67" width=".03" height=".85"/>
          <rect class="cls-8" x="18.82" y="34.74" width=".03" height=".78"/>
          <rect class="cls-8" x="18.2" y="34.74" width=".03" height=".78"/>
        </g>
        <g>
          <path class="cls-7" d="M18.63,35.44h-.2s-.04-.02-.04-.04v-.1s.02-.04.04-.04h.2s.04.02.04.04v.1s-.02.04-.04.04Z"/>
          <path class="cls-7" d="M18.63,35.2h-.2s-.04-.02-.04-.04v-.1s.02-.04.04-.04h.2s.04.02.04.04v.1s-.02.04-.04.04Z"/>
          <path class="cls-7" d="M18.63,34.98h-.2s-.04-.02-.04-.04v-.1s.02-.04.04-.04h.2s.04.02.04.04v.1s-.02.04-.04.04Z"/>
          <path class="cls-7" d="M18.92,35.44h-.17s-.04-.02-.04-.04v-.1s.02-.04.04-.04h.17s.04.02.04.04v.1s-.02.04-.04.04Z"/>
          <path class="cls-7" d="M18.92,35.22h-.17s-.04-.02-.04-.04v-.07s.02-.04.04-.04h.17s.04.02.04.04v.07s-.02.04-.04.04Z"/>
          <path class="cls-7" d="M18.92,35h-.17s-.04-.02-.04-.04v-.05s.02-.04.04-.04h.17s.04.02.04.04v.05s-.02.04-.04.04Z"/>
          <path class="cls-7" d="M18.3,35.44h-.17s-.04-.02-.04-.04v-.1s.02-.04.04-.04h.17s.04.02.04.04v.1s-.02.04-.04.04Z"/>
          <path class="cls-7" d="M18.3,35.22h-.17s-.04-.02-.04-.04v-.07s.02-.04.04-.04h.17s.04.02.04.04v.07s-.02.04-.04.04Z"/>
          <path class="cls-7" d="M18.3,35h-.17s-.04-.02-.04-.04v-.05s.02-.04.04-.04h.17s.04.02.04.04v.05s-.02.04-.04.04Z"/>
          <polygon class="cls-7" points="18.24 34.74 18.24 34.84 18.38 34.79 18.24 34.74"/>
          <polygon class="cls-7" points="18.85 34.74 18.85 34.84 19 34.79 18.85 34.74"/>
          <polygon class="cls-7" points="18.54 34.67 18.54 34.77 18.69 34.72 18.54 34.67"/>
          <path class="cls-7" d="M17.36,33.79h-.37c-.14,0-.25-.11-.25-.25h0c0-.14.11-.25.25-.25h.37c.14,0,.25.11.25.25h0c0,.14-.11.25-.25.25Z"/>
          <path class="cls-7" d="M20.21,33.79h-.25c-.14,0-.25-.11-.25-.25h0c0-.14.11-.25.25-.25h.25c.14,0,.25.11.25.25h0c0,.14-.11.25-.25.25Z"/>
          <path class="cls-7" d="M21.96,34.16h-.22c-.08,0-.14-.06-.14-.14v-.02c0-.08.06-.14.14-.14h.22c.08,0,.14.06.14.14v.02c0,.08-.06.14-.14.14Z"/>
        </g>
      </g>
    </g>
  </g>
</svg>