<?xml version="1.0" encoding="UTF-8"?>
<svg id="Capa_2" data-name="Capa 2" xmlns="http://www.w3.org/2000/svg" viewBox="0 0 722.51 307.81">
  <defs>
    <style>
      .cls-1 {
        fill: #e2e2e2;
      }
    </style>
  </defs>
  <g id="Capa_1-2" data-name="Capa 1">
    <g>
      <path class="cls-1" d="M442.94,6.22c1.72,0,3.11-1.39,3.11-3.11s-1.39-3.11-3.11-3.11-3.11,1.39-3.11,3.11,1.39,3.11,3.11,3.11Z"/>
      <path class="cls-1" d="M455.5,6.22c1.72,0,3.11-1.39,3.11-3.11s-1.39-3.11-3.11-3.11-3.11,1.39-3.11,3.11,1.39,3.11,3.11,3.11Z"/>
      <path class="cls-1" d="M468.07,6.22c1.72,0,3.11-1.39,3.11-3.11s-1.39-3.11-3.11-3.11-3.11,1.39-3.11,3.11,1.39,3.11,3.11,3.11Z"/>
      <path class="cls-1" d="M480.63,6.22c1.72,0,3.11-1.39,3.11-3.11s-1.39-3.11-3.11-3.11-3.11,1.39-3.11,3.11,1.39,3.11,3.11,3.11Z"/>
      <path class="cls-1" d="M493.2,6.22c1.72,0,3.11-1.39,3.11-3.11s-1.39-3.11-3.11-3.11-3.11,1.39-3.11,3.11,1.39,3.11,3.11,3.11Z"/>
      <path class="cls-1" d="M442.94,18.79c1.72,0,3.11-1.39,3.11-3.11s-1.39-3.11-3.11-3.11-3.11,1.39-3.11,3.11,1.39,3.11,3.11,3.11Z"/>
      <path class="cls-1" d="M455.5,18.79c1.72,0,3.11-1.39,3.11-3.11s-1.39-3.11-3.11-3.11-3.11,1.39-3.11,3.11,1.39,3.11,3.11,3.11Z"/>
      <path class="cls-1" d="M468.07,18.79c1.72,0,3.11-1.39,3.11-3.11s-1.39-3.11-3.11-3.11-3.11,1.39-3.11,3.11,1.39,3.11,3.11,3.11Z"/>
      <path class="cls-1" d="M480.63,18.79c1.72,0,3.11-1.39,3.11-3.11s-1.39-3.11-3.11-3.11-3.11,1.39-3.11,3.11,1.39,3.11,3.11,3.11Z"/>
      <path class="cls-1" d="M493.2,18.79c1.72,0,3.11-1.39,3.11-3.11s-1.39-3.11-3.11-3.11-3.11,1.39-3.11,3.11,1.39,3.11,3.11,3.11Z"/>
      <path class="cls-1" d="M28.24,31.35c1.72,0,3.11-1.39,3.11-3.11s-1.39-3.11-3.11-3.11-3.11,1.39-3.11,3.11,1.39,3.11,3.11,3.11Z"/>
      <path class="cls-1" d="M40.81,31.35c1.72,0,3.11-1.39,3.11-3.11s-1.39-3.11-3.11-3.11-3.11,1.39-3.11,3.11,1.39,3.11,3.11,3.11Z"/>
      <path class="cls-1" d="M53.38,31.35c1.72,0,3.11-1.39,3.11-3.11s-1.39-3.11-3.11-3.11-3.11,1.39-3.11,3.11,1.39,3.11,3.11,3.11Z"/>
      <path class="cls-1" d="M65.94,31.35c1.72,0,3.11-1.39,3.11-3.11s-1.39-3.11-3.11-3.11-3.11,1.39-3.11,3.11,1.39,3.11,3.11,3.11Z"/>
      <path class="cls-1" d="M417.8,31.35c1.72,0,3.11-1.39,3.11-3.11s-1.39-3.11-3.11-3.11-3.11,1.39-3.11,3.11,1.39,3.11,3.11,3.11Z"/>
      <path class="cls-1" d="M430.37,31.35c1.72,0,3.11-1.39,3.11-3.11s-1.39-3.11-3.11-3.11-3.11,1.39-3.11,3.11,1.39,3.11,3.11,3.11Z"/>
      <path class="cls-1" d="M442.94,31.35c1.72,0,3.11-1.39,3.11-3.11s-1.39-3.11-3.11-3.11-3.11,1.39-3.11,3.11,1.39,3.11,3.11,3.11Z"/>
      <path class="cls-1" d="M455.5,31.35c1.72,0,3.11-1.39,3.11-3.11s-1.39-3.11-3.11-3.11-3.11,1.39-3.11,3.11,1.39,3.11,3.11,3.11Z"/>
      <path class="cls-1" d="M468.07,31.35c1.72,0,3.11-1.39,3.11-3.11s-1.39-3.11-3.11-3.11-3.11,1.39-3.11,3.11,1.39,3.11,3.11,3.11Z"/>
      <path class="cls-1" d="M480.63,31.35c1.72,0,3.11-1.39,3.11-3.11s-1.39-3.11-3.11-3.11-3.11,1.39-3.11,3.11,1.39,3.11,3.11,3.11Z"/>
      <path class="cls-1" d="M493.2,31.35c1.72,0,3.11-1.39,3.11-3.11s-1.39-3.11-3.11-3.11-3.11,1.39-3.11,3.11,1.39,3.11,3.11,3.11Z"/>
      <path class="cls-1" d="M505.77,31.35c1.72,0,3.11-1.39,3.11-3.11s-1.39-3.11-3.11-3.11-3.11,1.39-3.11,3.11,1.39,3.11,3.11,3.11Z"/>
      <path class="cls-1" d="M518.33,31.35c1.72,0,3.11-1.39,3.11-3.11s-1.39-3.11-3.11-3.11-3.11,1.39-3.11,3.11,1.39,3.11,3.11,3.11Z"/>
      <path class="cls-1" d="M530.9,31.35c1.72,0,3.11-1.39,3.11-3.11s-1.39-3.11-3.11-3.11-3.11,1.39-3.11,3.11,1.39,3.11,3.11,3.11Z"/>
      <path class="cls-1" d="M543.47,31.35c1.72,0,3.11-1.39,3.11-3.11s-1.39-3.11-3.11-3.11-3.11,1.39-3.11,3.11,1.39,3.11,3.11,3.11Z"/>
      <path class="cls-1" d="M556.03,31.35c1.72,0,3.11-1.39,3.11-3.11s-1.39-3.11-3.11-3.11-3.11,1.39-3.11,3.11,1.39,3.11,3.11,3.11Z"/>
      <path class="cls-1" d="M568.6,31.35c1.72,0,3.11-1.39,3.11-3.11s-1.39-3.11-3.11-3.11-3.11,1.39-3.11,3.11,1.39,3.11,3.11,3.11Z"/>
      <path class="cls-1" d="M581.17,31.35c1.72,0,3.11-1.39,3.11-3.11s-1.39-3.11-3.11-3.11-3.11,1.39-3.11,3.11,1.39,3.11,3.11,3.11Z"/>
      <path class="cls-1" d="M28.24,43.92c1.72,0,3.11-1.39,3.11-3.11s-1.39-3.11-3.11-3.11-3.11,1.39-3.11,3.11,1.39,3.11,3.11,3.11Z"/>
      <path class="cls-1" d="M40.81,43.92c1.72,0,3.11-1.39,3.11-3.11s-1.39-3.11-3.11-3.11-3.11,1.39-3.11,3.11,1.39,3.11,3.11,3.11Z"/>
      <path class="cls-1" d="M53.38,43.92c1.72,0,3.11-1.39,3.11-3.11s-1.39-3.11-3.11-3.11-3.11,1.39-3.11,3.11,1.39,3.11,3.11,3.11Z"/>
      <path class="cls-1" d="M65.94,43.92c1.72,0,3.11-1.39,3.11-3.11s-1.39-3.11-3.11-3.11-3.11,1.39-3.11,3.11,1.39,3.11,3.11,3.11Z"/>
      <path class="cls-1" d="M78.51,43.92c1.72,0,3.11-1.39,3.11-3.11s-1.39-3.11-3.11-3.11-3.11,1.39-3.11,3.11,1.39,3.11,3.11,3.11Z"/>
      <path class="cls-1" d="M367.54,43.92c1.72,0,3.11-1.39,3.11-3.11s-1.39-3.11-3.11-3.11-3.11,1.39-3.11,3.11,1.39,3.11,3.11,3.11Z"/>
      <path class="cls-1" d="M380.1,43.92c1.72,0,3.11-1.39,3.11-3.11s-1.39-3.11-3.11-3.11-3.11,1.39-3.11,3.11,1.39,3.11,3.11,3.11Z"/>
      <path class="cls-1" d="M392.67,43.92c1.72,0,3.11-1.39,3.11-3.11s-1.39-3.11-3.11-3.11-3.11,1.39-3.11,3.11,1.39,3.11,3.11,3.11Z"/>
      <path class="cls-1" d="M405.24,43.92c1.72,0,3.11-1.39,3.11-3.11s-1.39-3.11-3.11-3.11-3.11,1.39-3.11,3.11,1.39,3.11,3.11,3.11Z"/>
      <path class="cls-1" d="M417.8,43.92c1.72,0,3.11-1.39,3.11-3.11s-1.39-3.11-3.11-3.11-3.11,1.39-3.11,3.11,1.39,3.11,3.11,3.11Z"/>
      <path class="cls-1" d="M430.37,43.92c1.72,0,3.11-1.39,3.11-3.11s-1.39-3.11-3.11-3.11-3.11,1.39-3.11,3.11,1.39,3.11,3.11,3.11Z"/>
      <path class="cls-1" d="M442.94,43.92c1.72,0,3.11-1.39,3.11-3.11s-1.39-3.11-3.11-3.11-3.11,1.39-3.11,3.11,1.39,3.11,3.11,3.11Z"/>
      <path class="cls-1" d="M455.5,43.92c1.72,0,3.11-1.39,3.11-3.11s-1.39-3.11-3.11-3.11-3.11,1.39-3.11,3.11,1.39,3.11,3.11,3.11Z"/>
      <path class="cls-1" d="M468.07,43.92c1.72,0,3.11-1.39,3.11-3.11s-1.39-3.11-3.11-3.11-3.11,1.39-3.11,3.11,1.39,3.11,3.11,3.11Z"/>
      <path class="cls-1" d="M480.63,43.92c1.72,0,3.11-1.39,3.11-3.11s-1.39-3.11-3.11-3.11-3.11,1.39-3.11,3.11,1.39,3.11,3.11,3.11Z"/>
      <path class="cls-1" d="M493.2,43.92c1.72,0,3.11-1.39,3.11-3.11s-1.39-3.11-3.11-3.11-3.11,1.39-3.11,3.11,1.39,3.11,3.11,3.11Z"/>
      <path class="cls-1" d="M505.77,43.92c1.72,0,3.11-1.39,3.11-3.11s-1.39-3.11-3.11-3.11-3.11,1.39-3.11,3.11,1.39,3.11,3.11,3.11Z"/>
      <path class="cls-1" d="M518.33,43.92c1.72,0,3.11-1.39,3.11-3.11s-1.39-3.11-3.11-3.11-3.11,1.39-3.11,3.11,1.39,3.11,3.11,3.11Z"/>
      <path class="cls-1" d="M530.9,43.92c1.72,0,3.11-1.39,3.11-3.11s-1.39-3.11-3.11-3.11-3.11,1.39-3.11,3.11,1.39,3.11,3.11,3.11Z"/>
      <path class="cls-1" d="M543.47,43.92c1.72,0,3.11-1.39,3.11-3.11s-1.39-3.11-3.11-3.11-3.11,1.39-3.11,3.11,1.39,3.11,3.11,3.11Z"/>
      <path class="cls-1" d="M556.03,43.92c1.72,0,3.11-1.39,3.11-3.11s-1.39-3.11-3.11-3.11-3.11,1.39-3.11,3.11,1.39,3.11,3.11,3.11Z"/>
      <path class="cls-1" d="M568.6,43.92c1.72,0,3.11-1.39,3.11-3.11s-1.39-3.11-3.11-3.11-3.11,1.39-3.11,3.11,1.39,3.11,3.11,3.11Z"/>
      <path class="cls-1" d="M581.17,43.92c1.72,0,3.11-1.39,3.11-3.11s-1.39-3.11-3.11-3.11-3.11,1.39-3.11,3.11,1.39,3.11,3.11,3.11Z"/>
      <path class="cls-1" d="M593.73,43.92c1.72,0,3.11-1.39,3.11-3.11s-1.39-3.11-3.11-3.11-3.11,1.39-3.11,3.11,1.39,3.11,3.11,3.11Z"/>
      <path class="cls-1" d="M606.3,43.92c1.72,0,3.11-1.39,3.11-3.11s-1.39-3.11-3.11-3.11-3.11,1.39-3.11,3.11,1.39,3.11,3.11,3.11Z"/>
      <path class="cls-1" d="M618.87,43.92c1.72,0,3.11-1.39,3.11-3.11s-1.39-3.11-3.11-3.11-3.11,1.39-3.11,3.11,1.39,3.11,3.11,3.11Z"/>
      <path class="cls-1" d="M3.11,56.49c1.72,0,3.11-1.39,3.11-3.11s-1.39-3.11-3.11-3.11-3.11,1.39-3.11,3.11,1.39,3.11,3.11,3.11Z"/>
      <path class="cls-1" d="M15.68,56.49c1.72,0,3.11-1.39,3.11-3.11s-1.39-3.11-3.11-3.11-3.11,1.39-3.11,3.11,1.39,3.11,3.11,3.11Z"/>
      <path class="cls-1" d="M28.24,56.49c1.72,0,3.11-1.39,3.11-3.11s-1.39-3.11-3.11-3.11-3.11,1.39-3.11,3.11,1.39,3.11,3.11,3.11Z"/>
      <path class="cls-1" d="M40.81,56.49c1.72,0,3.11-1.39,3.11-3.11s-1.39-3.11-3.11-3.11-3.11,1.39-3.11,3.11,1.39,3.11,3.11,3.11Z"/>
      <path class="cls-1" d="M53.38,56.49c1.72,0,3.11-1.39,3.11-3.11s-1.39-3.11-3.11-3.11-3.11,1.39-3.11,3.11,1.39,3.11,3.11,3.11Z"/>
      <path class="cls-1" d="M65.94,56.49c1.72,0,3.11-1.39,3.11-3.11s-1.39-3.11-3.11-3.11-3.11,1.39-3.11,3.11,1.39,3.11,3.11,3.11Z"/>
      <path class="cls-1" d="M78.51,56.49c1.72,0,3.11-1.39,3.11-3.11s-1.39-3.11-3.11-3.11-3.11,1.39-3.11,3.11,1.39,3.11,3.11,3.11Z"/>
      <path class="cls-1" d="M91.08,56.49c1.72,0,3.11-1.39,3.11-3.11s-1.39-3.11-3.11-3.11-3.11,1.39-3.11,3.11,1.39,3.11,3.11,3.11Z"/>
      <path class="cls-1" d="M103.64,56.49c1.72,0,3.11-1.39,3.11-3.11s-1.39-3.11-3.11-3.11-3.11,1.39-3.11,3.11,1.39,3.11,3.11,3.11Z"/>
      <path class="cls-1" d="M116.21,56.49c1.72,0,3.11-1.39,3.11-3.11s-1.39-3.11-3.11-3.11-3.11,1.39-3.11,3.11,1.39,3.11,3.11,3.11Z"/>
      <path class="cls-1" d="M342.4,56.49c1.72,0,3.11-1.39,3.11-3.11s-1.39-3.11-3.11-3.11-3.11,1.39-3.11,3.11,1.39,3.11,3.11,3.11Z"/>
      <path class="cls-1" d="M354.97,56.49c1.72,0,3.11-1.39,3.11-3.11s-1.39-3.11-3.11-3.11-3.11,1.39-3.11,3.11,1.39,3.11,3.11,3.11Z"/>
      <path class="cls-1" d="M367.54,56.49c1.72,0,3.11-1.39,3.11-3.11s-1.39-3.11-3.11-3.11-3.11,1.39-3.11,3.11,1.39,3.11,3.11,3.11Z"/>
      <path class="cls-1" d="M380.1,56.49c1.72,0,3.11-1.39,3.11-3.11s-1.39-3.11-3.11-3.11-3.11,1.39-3.11,3.11,1.39,3.11,3.11,3.11Z"/>
      <path class="cls-1" d="M392.67,56.49c1.72,0,3.11-1.39,3.11-3.11s-1.39-3.11-3.11-3.11-3.11,1.39-3.11,3.11,1.39,3.11,3.11,3.11Z"/>
      <path class="cls-1" d="M405.24,56.49c1.72,0,3.11-1.39,3.11-3.11s-1.39-3.11-3.11-3.11-3.11,1.39-3.11,3.11,1.39,3.11,3.11,3.11Z"/>
      <path class="cls-1" d="M417.8,56.49c1.72,0,3.11-1.39,3.11-3.11s-1.39-3.11-3.11-3.11-3.11,1.39-3.11,3.11,1.39,3.11,3.11,3.11Z"/>
      <path class="cls-1" d="M430.37,56.49c1.72,0,3.11-1.39,3.11-3.11s-1.39-3.11-3.11-3.11-3.11,1.39-3.11,3.11,1.39,3.11,3.11,3.11Z"/>
      <path class="cls-1" d="M442.94,56.49c1.72,0,3.11-1.39,3.11-3.11s-1.39-3.11-3.11-3.11-3.11,1.39-3.11,3.11,1.39,3.11,3.11,3.11Z"/>
      <path class="cls-1" d="M455.5,56.49c1.72,0,3.11-1.39,3.11-3.11s-1.39-3.11-3.11-3.11-3.11,1.39-3.11,3.11,1.39,3.11,3.11,3.11Z"/>
      <path class="cls-1" d="M468.07,56.49c1.72,0,3.11-1.39,3.11-3.11s-1.39-3.11-3.11-3.11-3.11,1.39-3.11,3.11,1.39,3.11,3.11,3.11Z"/>
      <path class="cls-1" d="M480.63,56.49c1.72,0,3.11-1.39,3.11-3.11s-1.39-3.11-3.11-3.11-3.11,1.39-3.11,3.11,1.39,3.11,3.11,3.11Z"/>
      <path class="cls-1" d="M493.2,56.49c1.72,0,3.11-1.39,3.11-3.11s-1.39-3.11-3.11-3.11-3.11,1.39-3.11,3.11,1.39,3.11,3.11,3.11Z"/>
      <path class="cls-1" d="M505.77,56.49c1.72,0,3.11-1.39,3.11-3.11s-1.39-3.11-3.11-3.11-3.11,1.39-3.11,3.11,1.39,3.11,3.11,3.11Z"/>
      <path class="cls-1" d="M518.33,56.49c1.72,0,3.11-1.39,3.11-3.11s-1.39-3.11-3.11-3.11-3.11,1.39-3.11,3.11,1.39,3.11,3.11,3.11Z"/>
      <path class="cls-1" d="M530.9,56.49c1.72,0,3.11-1.39,3.11-3.11s-1.39-3.11-3.11-3.11-3.11,1.39-3.11,3.11,1.39,3.11,3.11,3.11Z"/>
      <path class="cls-1" d="M543.47,56.49c1.72,0,3.11-1.39,3.11-3.11s-1.39-3.11-3.11-3.11-3.11,1.39-3.11,3.11,1.39,3.11,3.11,3.11Z"/>
      <path class="cls-1" d="M556.03,56.49c1.72,0,3.11-1.39,3.11-3.11s-1.39-3.11-3.11-3.11-3.11,1.39-3.11,3.11,1.39,3.11,3.11,3.11Z"/>
      <path class="cls-1" d="M568.6,56.49c1.72,0,3.11-1.39,3.11-3.11s-1.39-3.11-3.11-3.11-3.11,1.39-3.11,3.11,1.39,3.11,3.11,3.11Z"/>
      <path class="cls-1" d="M581.17,56.49c1.72,0,3.11-1.39,3.11-3.11s-1.39-3.11-3.11-3.11-3.11,1.39-3.11,3.11,1.39,3.11,3.11,3.11Z"/>
      <path class="cls-1" d="M593.73,56.49c1.72,0,3.11-1.39,3.11-3.11s-1.39-3.11-3.11-3.11-3.11,1.39-3.11,3.11,1.39,3.11,3.11,3.11Z"/>
      <path class="cls-1" d="M606.3,56.49c1.72,0,3.11-1.39,3.11-3.11s-1.39-3.11-3.11-3.11-3.11,1.39-3.11,3.11,1.39,3.11,3.11,3.11Z"/>
      <path class="cls-1" d="M618.87,56.49c1.72,0,3.11-1.39,3.11-3.11s-1.39-3.11-3.11-3.11-3.11,1.39-3.11,3.11,1.39,3.11,3.11,3.11Z"/>
      <path class="cls-1" d="M631.43,56.49c1.72,0,3.11-1.39,3.11-3.11s-1.39-3.11-3.11-3.11-3.11,1.39-3.11,3.11,1.39,3.11,3.11,3.11Z"/>
      <path class="cls-1" d="M644,56.49c1.72,0,3.11-1.39,3.11-3.11s-1.39-3.11-3.11-3.11-3.11,1.39-3.11,3.11,1.39,3.11,3.11,3.11Z"/>
      <path class="cls-1" d="M3.11,69.05c1.72,0,3.11-1.39,3.11-3.11s-1.39-3.11-3.11-3.11-3.11,1.39-3.11,3.11,1.39,3.11,3.11,3.11Z"/>
      <path class="cls-1" d="M15.68,69.05c1.72,0,3.11-1.39,3.11-3.11s-1.39-3.11-3.11-3.11-3.11,1.39-3.11,3.11,1.39,3.11,3.11,3.11Z"/>
      <path class="cls-1" d="M28.24,69.05c1.72,0,3.11-1.39,3.11-3.11s-1.39-3.11-3.11-3.11-3.11,1.39-3.11,3.11,1.39,3.11,3.11,3.11Z"/>
      <path class="cls-1" d="M40.81,69.05c1.72,0,3.11-1.39,3.11-3.11s-1.39-3.11-3.11-3.11-3.11,1.39-3.11,3.11,1.39,3.11,3.11,3.11Z"/>
      <path class="cls-1" d="M53.38,69.05c1.72,0,3.11-1.39,3.11-3.11s-1.39-3.11-3.11-3.11-3.11,1.39-3.11,3.11,1.39,3.11,3.11,3.11Z"/>
      <path class="cls-1" d="M65.94,69.05c1.72,0,3.11-1.39,3.11-3.11s-1.39-3.11-3.11-3.11-3.11,1.39-3.11,3.11,1.39,3.11,3.11,3.11Z"/>
      <path class="cls-1" d="M78.51,69.05c1.72,0,3.11-1.39,3.11-3.11s-1.39-3.11-3.11-3.11-3.11,1.39-3.11,3.11,1.39,3.11,3.11,3.11Z"/>
      <path class="cls-1" d="M91.08,69.05c1.72,0,3.11-1.39,3.11-3.11s-1.39-3.11-3.11-3.11-3.11,1.39-3.11,3.11,1.39,3.11,3.11,3.11Z"/>
      <path class="cls-1" d="M103.64,69.05c1.72,0,3.11-1.39,3.11-3.11s-1.39-3.11-3.11-3.11-3.11,1.39-3.11,3.11,1.39,3.11,3.11,3.11Z"/>
      <path class="cls-1" d="M116.21,69.05c1.72,0,3.11-1.39,3.11-3.11s-1.39-3.11-3.11-3.11-3.11,1.39-3.11,3.11,1.39,3.11,3.11,3.11Z"/>
      <path class="cls-1" d="M128.77,69.05c1.72,0,3.11-1.39,3.11-3.11s-1.39-3.11-3.11-3.11-3.11,1.39-3.11,3.11,1.39,3.11,3.11,3.11Z"/>
      <path class="cls-1" d="M141.34,69.05c1.72,0,3.11-1.39,3.11-3.11s-1.39-3.11-3.11-3.11-3.11,1.39-3.11,3.11,1.39,3.11,3.11,3.11Z"/>
      <path class="cls-1" d="M153.91,69.05c1.72,0,3.11-1.39,3.11-3.11s-1.39-3.11-3.11-3.11-3.11,1.39-3.11,3.11,1.39,3.11,3.11,3.11Z"/>
      <path class="cls-1" d="M166.47,69.05c1.72,0,3.11-1.39,3.11-3.11s-1.39-3.11-3.11-3.11-3.11,1.39-3.11,3.11,1.39,3.11,3.11,3.11Z"/>
      <path class="cls-1" d="M317.27,69.05c1.72,0,3.11-1.39,3.11-3.11s-1.39-3.11-3.11-3.11-3.11,1.39-3.11,3.11,1.39,3.11,3.11,3.11Z"/>
      <path class="cls-1" d="M329.84,69.05c1.72,0,3.11-1.39,3.11-3.11s-1.39-3.11-3.11-3.11-3.11,1.39-3.11,3.11,1.39,3.11,3.11,3.11Z"/>
      <path class="cls-1" d="M342.4,69.05c1.72,0,3.11-1.39,3.11-3.11s-1.39-3.11-3.11-3.11-3.11,1.39-3.11,3.11,1.39,3.11,3.11,3.11Z"/>
      <path class="cls-1" d="M354.97,69.05c1.72,0,3.11-1.39,3.11-3.11s-1.39-3.11-3.11-3.11-3.11,1.39-3.11,3.11,1.39,3.11,3.11,3.11Z"/>
      <path class="cls-1" d="M367.54,69.05c1.72,0,3.11-1.39,3.11-3.11s-1.39-3.11-3.11-3.11-3.11,1.39-3.11,3.11,1.39,3.11,3.11,3.11Z"/>
      <path class="cls-1" d="M380.1,69.05c1.72,0,3.11-1.39,3.11-3.11s-1.39-3.11-3.11-3.11-3.11,1.39-3.11,3.11,1.39,3.11,3.11,3.11Z"/>
      <path class="cls-1" d="M392.67,69.05c1.72,0,3.11-1.39,3.11-3.11s-1.39-3.11-3.11-3.11-3.11,1.39-3.11,3.11,1.39,3.11,3.11,3.11Z"/>
      <path class="cls-1" d="M405.24,69.05c1.72,0,3.11-1.39,3.11-3.11s-1.39-3.11-3.11-3.11-3.11,1.39-3.11,3.11,1.39,3.11,3.11,3.11Z"/>
      <path class="cls-1" d="M417.8,69.05c1.72,0,3.11-1.39,3.11-3.11s-1.39-3.11-3.11-3.11-3.11,1.39-3.11,3.11,1.39,3.11,3.11,3.11Z"/>
      <path class="cls-1" d="M430.37,69.05c1.72,0,3.11-1.39,3.11-3.11s-1.39-3.11-3.11-3.11-3.11,1.39-3.11,3.11,1.39,3.11,3.11,3.11Z"/>
      <path class="cls-1" d="M442.94,69.05c1.72,0,3.11-1.39,3.11-3.11s-1.39-3.11-3.11-3.11-3.11,1.39-3.11,3.11,1.39,3.11,3.11,3.11Z"/>
      <path class="cls-1" d="M455.5,69.05c1.72,0,3.11-1.39,3.11-3.11s-1.39-3.11-3.11-3.11-3.11,1.39-3.11,3.11,1.39,3.11,3.11,3.11Z"/>
      <path class="cls-1" d="M468.07,69.05c1.72,0,3.11-1.39,3.11-3.11s-1.39-3.11-3.11-3.11-3.11,1.39-3.11,3.11,1.39,3.11,3.11,3.11Z"/>
      <path class="cls-1" d="M480.63,69.05c1.72,0,3.11-1.39,3.11-3.11s-1.39-3.11-3.11-3.11-3.11,1.39-3.11,3.11,1.39,3.11,3.11,3.11Z"/>
      <path class="cls-1" d="M493.2,69.05c1.72,0,3.11-1.39,3.11-3.11s-1.39-3.11-3.11-3.11-3.11,1.39-3.11,3.11,1.39,3.11,3.11,3.11Z"/>
      <path class="cls-1" d="M505.77,69.05c1.72,0,3.11-1.39,3.11-3.11s-1.39-3.11-3.11-3.11-3.11,1.39-3.11,3.11,1.39,3.11,3.11,3.11Z"/>
      <path class="cls-1" d="M518.33,69.05c1.72,0,3.11-1.39,3.11-3.11s-1.39-3.11-3.11-3.11-3.11,1.39-3.11,3.11,1.39,3.11,3.11,3.11Z"/>
      <path class="cls-1" d="M530.9,69.05c1.72,0,3.11-1.39,3.11-3.11s-1.39-3.11-3.11-3.11-3.11,1.39-3.11,3.11,1.39,3.11,3.11,3.11Z"/>
      <path class="cls-1" d="M543.47,69.05c1.72,0,3.11-1.39,3.11-3.11s-1.39-3.11-3.11-3.11-3.11,1.39-3.11,3.11,1.39,3.11,3.11,3.11Z"/>
      <path class="cls-1" d="M556.03,69.05c1.72,0,3.11-1.39,3.11-3.11s-1.39-3.11-3.11-3.11-3.11,1.39-3.11,3.11,1.39,3.11,3.11,3.11Z"/>
      <path class="cls-1" d="M568.6,69.05c1.72,0,3.11-1.39,3.11-3.11s-1.39-3.11-3.11-3.11-3.11,1.39-3.11,3.11,1.39,3.11,3.11,3.11Z"/>
      <path class="cls-1" d="M581.17,69.05c1.72,0,3.11-1.39,3.11-3.11s-1.39-3.11-3.11-3.11-3.11,1.39-3.11,3.11,1.39,3.11,3.11,3.11Z"/>
      <path class="cls-1" d="M593.73,69.05c1.72,0,3.11-1.39,3.11-3.11s-1.39-3.11-3.11-3.11-3.11,1.39-3.11,3.11,1.39,3.11,3.11,3.11Z"/>
      <path class="cls-1" d="M606.3,69.05c1.72,0,3.11-1.39,3.11-3.11s-1.39-3.11-3.11-3.11-3.11,1.39-3.11,3.11,1.39,3.11,3.11,3.11Z"/>
      <path class="cls-1" d="M618.87,69.05c1.72,0,3.11-1.39,3.11-3.11s-1.39-3.11-3.11-3.11-3.11,1.39-3.11,3.11,1.39,3.11,3.11,3.11Z"/>
      <path class="cls-1" d="M631.43,69.05c1.72,0,3.11-1.39,3.11-3.11s-1.39-3.11-3.11-3.11-3.11,1.39-3.11,3.11,1.39,3.11,3.11,3.11Z"/>
      <path class="cls-1" d="M644,69.05c1.72,0,3.11-1.39,3.11-3.11s-1.39-3.11-3.11-3.11-3.11,1.39-3.11,3.11,1.39,3.11,3.11,3.11Z"/>
      <path class="cls-1" d="M656.57,69.05c1.72,0,3.11-1.39,3.11-3.11s-1.39-3.11-3.11-3.11-3.11,1.39-3.11,3.11,1.39,3.11,3.11,3.11Z"/>
      <path class="cls-1" d="M3.11,81.62c1.72,0,3.11-1.39,3.11-3.11s-1.39-3.11-3.11-3.11-3.11,1.39-3.11,3.11,1.39,3.11,3.11,3.11Z"/>
      <path class="cls-1" d="M15.68,81.62c1.72,0,3.11-1.39,3.11-3.11s-1.39-3.11-3.11-3.11-3.11,1.39-3.11,3.11,1.39,3.11,3.11,3.11Z"/>
      <path class="cls-1" d="M28.24,81.62c1.72,0,3.11-1.39,3.11-3.11s-1.39-3.11-3.11-3.11-3.11,1.39-3.11,3.11,1.39,3.11,3.11,3.11Z"/>
      <path class="cls-1" d="M40.81,81.62c1.72,0,3.11-1.39,3.11-3.11s-1.39-3.11-3.11-3.11-3.11,1.39-3.11,3.11,1.39,3.11,3.11,3.11Z"/>
      <path class="cls-1" d="M53.38,81.62c1.72,0,3.11-1.39,3.11-3.11s-1.39-3.11-3.11-3.11-3.11,1.39-3.11,3.11,1.39,3.11,3.11,3.11Z"/>
      <path class="cls-1" d="M65.94,81.62c1.72,0,3.11-1.39,3.11-3.11s-1.39-3.11-3.11-3.11-3.11,1.39-3.11,3.11,1.39,3.11,3.11,3.11Z"/>
      <path class="cls-1" d="M78.51,81.62c1.72,0,3.11-1.39,3.11-3.11s-1.39-3.11-3.11-3.11-3.11,1.39-3.11,3.11,1.39,3.11,3.11,3.11Z"/>
      <path class="cls-1" d="M91.08,81.62c1.72,0,3.11-1.39,3.11-3.11s-1.39-3.11-3.11-3.11-3.11,1.39-3.11,3.11,1.39,3.11,3.11,3.11Z"/>
      <path class="cls-1" d="M103.64,81.62c1.72,0,3.11-1.39,3.11-3.11s-1.39-3.11-3.11-3.11-3.11,1.39-3.11,3.11,1.39,3.11,3.11,3.11Z"/>
      <path class="cls-1" d="M116.21,81.62c1.72,0,3.11-1.39,3.11-3.11s-1.39-3.11-3.11-3.11-3.11,1.39-3.11,3.11,1.39,3.11,3.11,3.11Z"/>
      <path class="cls-1" d="M141.34,81.62c1.72,0,3.11-1.39,3.11-3.11s-1.39-3.11-3.11-3.11-3.11,1.39-3.11,3.11,1.39,3.11,3.11,3.11Z"/>
      <path class="cls-1" d="M153.91,81.62c1.72,0,3.11-1.39,3.11-3.11s-1.39-3.11-3.11-3.11-3.11,1.39-3.11,3.11,1.39,3.11,3.11,3.11Z"/>
      <path class="cls-1" d="M166.47,81.62c1.72,0,3.11-1.39,3.11-3.11s-1.39-3.11-3.11-3.11-3.11,1.39-3.11,3.11,1.39,3.11,3.11,3.11Z"/>
      <path class="cls-1" d="M179.04,81.62c1.72,0,3.11-1.39,3.11-3.11s-1.39-3.11-3.11-3.11-3.11,1.39-3.11,3.11,1.39,3.11,3.11,3.11Z"/>
      <path class="cls-1" d="M191.61,81.62c1.72,0,3.11-1.39,3.11-3.11s-1.39-3.11-3.11-3.11-3.11,1.39-3.11,3.11,1.39,3.11,3.11,3.11Z"/>
      <path class="cls-1" d="M292.14,81.62c1.72,0,3.11-1.39,3.11-3.11s-1.39-3.11-3.11-3.11-3.11,1.39-3.11,3.11,1.39,3.11,3.11,3.11Z"/>
      <path class="cls-1" d="M304.7,81.62c1.72,0,3.11-1.39,3.11-3.11s-1.39-3.11-3.11-3.11-3.11,1.39-3.11,3.11,1.39,3.11,3.11,3.11Z"/>
      <path class="cls-1" d="M317.27,81.62c1.72,0,3.11-1.39,3.11-3.11s-1.39-3.11-3.11-3.11-3.11,1.39-3.11,3.11,1.39,3.11,3.11,3.11Z"/>
      <path class="cls-1" d="M329.84,81.62c1.72,0,3.11-1.39,3.11-3.11s-1.39-3.11-3.11-3.11-3.11,1.39-3.11,3.11,1.39,3.11,3.11,3.11Z"/>
      <path class="cls-1" d="M342.4,81.62c1.72,0,3.11-1.39,3.11-3.11s-1.39-3.11-3.11-3.11-3.11,1.39-3.11,3.11,1.39,3.11,3.11,3.11Z"/>
      <path class="cls-1" d="M354.97,81.62c1.72,0,3.11-1.39,3.11-3.11s-1.39-3.11-3.11-3.11-3.11,1.39-3.11,3.11,1.39,3.11,3.11,3.11Z"/>
      <path class="cls-1" d="M367.54,81.62c1.72,0,3.11-1.39,3.11-3.11s-1.39-3.11-3.11-3.11-3.11,1.39-3.11,3.11,1.39,3.11,3.11,3.11Z"/>
      <path class="cls-1" d="M380.1,81.62c1.72,0,3.11-1.39,3.11-3.11s-1.39-3.11-3.11-3.11-3.11,1.39-3.11,3.11,1.39,3.11,3.11,3.11Z"/>
      <path class="cls-1" d="M392.67,81.62c1.72,0,3.11-1.39,3.11-3.11s-1.39-3.11-3.11-3.11-3.11,1.39-3.11,3.11,1.39,3.11,3.11,3.11Z"/>
      <path class="cls-1" d="M405.24,81.62c1.72,0,3.11-1.39,3.11-3.11s-1.39-3.11-3.11-3.11-3.11,1.39-3.11,3.11,1.39,3.11,3.11,3.11Z"/>
      <path class="cls-1" d="M417.8,81.62c1.72,0,3.11-1.39,3.11-3.11s-1.39-3.11-3.11-3.11-3.11,1.39-3.11,3.11,1.39,3.11,3.11,3.11Z"/>
      <path class="cls-1" d="M430.37,81.62c1.72,0,3.11-1.39,3.11-3.11s-1.39-3.11-3.11-3.11-3.11,1.39-3.11,3.11,1.39,3.11,3.11,3.11Z"/>
      <path class="cls-1" d="M442.94,81.62c1.72,0,3.11-1.39,3.11-3.11s-1.39-3.11-3.11-3.11-3.11,1.39-3.11,3.11,1.39,3.11,3.11,3.11Z"/>
      <path class="cls-1" d="M455.5,81.62c1.72,0,3.11-1.39,3.11-3.11s-1.39-3.11-3.11-3.11-3.11,1.39-3.11,3.11,1.39,3.11,3.11,3.11Z"/>
      <path class="cls-1" d="M468.07,81.62c1.72,0,3.11-1.39,3.11-3.11s-1.39-3.11-3.11-3.11-3.11,1.39-3.11,3.11,1.39,3.11,3.11,3.11Z"/>
      <path class="cls-1" d="M480.63,81.62c1.72,0,3.11-1.39,3.11-3.11s-1.39-3.11-3.11-3.11-3.11,1.39-3.11,3.11,1.39,3.11,3.11,3.11Z"/>
      <path class="cls-1" d="M493.2,81.62c1.72,0,3.11-1.39,3.11-3.11s-1.39-3.11-3.11-3.11-3.11,1.39-3.11,3.11,1.39,3.11,3.11,3.11Z"/>
      <path class="cls-1" d="M505.77,81.62c1.72,0,3.11-1.39,3.11-3.11s-1.39-3.11-3.11-3.11-3.11,1.39-3.11,3.11,1.39,3.11,3.11,3.11Z"/>
      <path class="cls-1" d="M518.33,81.62c1.72,0,3.11-1.39,3.11-3.11s-1.39-3.11-3.11-3.11-3.11,1.39-3.11,3.11,1.39,3.11,3.11,3.11Z"/>
      <path class="cls-1" d="M530.9,81.62c1.72,0,3.11-1.39,3.11-3.11s-1.39-3.11-3.11-3.11-3.11,1.39-3.11,3.11,1.39,3.11,3.11,3.11Z"/>
      <path class="cls-1" d="M543.47,81.62c1.72,0,3.11-1.39,3.11-3.11s-1.39-3.11-3.11-3.11-3.11,1.39-3.11,3.11,1.39,3.11,3.11,3.11Z"/>
      <path class="cls-1" d="M556.03,81.62c1.72,0,3.11-1.39,3.11-3.11s-1.39-3.11-3.11-3.11-3.11,1.39-3.11,3.11,1.39,3.11,3.11,3.11Z"/>
      <path class="cls-1" d="M568.6,81.62c1.72,0,3.11-1.39,3.11-3.11s-1.39-3.11-3.11-3.11-3.11,1.39-3.11,3.11,1.39,3.11,3.11,3.11Z"/>
      <path class="cls-1" d="M581.17,81.62c1.72,0,3.11-1.39,3.11-3.11s-1.39-3.11-3.11-3.11-3.11,1.39-3.11,3.11,1.39,3.11,3.11,3.11Z"/>
      <path class="cls-1" d="M593.73,81.62c1.72,0,3.11-1.39,3.11-3.11s-1.39-3.11-3.11-3.11-3.11,1.39-3.11,3.11,1.39,3.11,3.11,3.11Z"/>
      <path class="cls-1" d="M606.3,81.62c1.72,0,3.11-1.39,3.11-3.11s-1.39-3.11-3.11-3.11-3.11,1.39-3.11,3.11,1.39,3.11,3.11,3.11Z"/>
      <path class="cls-1" d="M618.87,81.62c1.72,0,3.11-1.39,3.11-3.11s-1.39-3.11-3.11-3.11-3.11,1.39-3.11,3.11,1.39,3.11,3.11,3.11Z"/>
      <path class="cls-1" d="M631.43,81.62c1.72,0,3.11-1.39,3.11-3.11s-1.39-3.11-3.11-3.11-3.11,1.39-3.11,3.11,1.39,3.11,3.11,3.11Z"/>
      <path class="cls-1" d="M644,81.62c1.72,0,3.11-1.39,3.11-3.11s-1.39-3.11-3.11-3.11-3.11,1.39-3.11,3.11,1.39,3.11,3.11,3.11Z"/>
      <path class="cls-1" d="M656.57,81.62c1.72,0,3.11-1.39,3.11-3.11s-1.39-3.11-3.11-3.11-3.11,1.39-3.11,3.11,1.39,3.11,3.11,3.11Z"/>
      <path class="cls-1" d="M669.13,81.62c1.72,0,3.11-1.39,3.11-3.11s-1.39-3.11-3.11-3.11-3.11,1.39-3.11,3.11,1.39,3.11,3.11,3.11Z"/>
      <path class="cls-1" d="M3.11,94.19c1.72,0,3.11-1.39,3.11-3.11s-1.39-3.11-3.11-3.11-3.11,1.39-3.11,3.11,1.39,3.11,3.11,3.11Z"/>
      <path class="cls-1" d="M15.68,94.19c1.72,0,3.11-1.39,3.11-3.11s-1.39-3.11-3.11-3.11-3.11,1.39-3.11,3.11,1.39,3.11,3.11,3.11Z"/>
      <path class="cls-1" d="M28.24,94.19c1.72,0,3.11-1.39,3.11-3.11s-1.39-3.11-3.11-3.11-3.11,1.39-3.11,3.11,1.39,3.11,3.11,3.11Z"/>
      <path class="cls-1" d="M40.81,94.19c1.72,0,3.11-1.39,3.11-3.11s-1.39-3.11-3.11-3.11-3.11,1.39-3.11,3.11,1.39,3.11,3.11,3.11Z"/>
      <path class="cls-1" d="M53.38,94.19c1.72,0,3.11-1.39,3.11-3.11s-1.39-3.11-3.11-3.11-3.11,1.39-3.11,3.11,1.39,3.11,3.11,3.11Z"/>
      <path class="cls-1" d="M65.94,94.19c1.72,0,3.11-1.39,3.11-3.11s-1.39-3.11-3.11-3.11-3.11,1.39-3.11,3.11,1.39,3.11,3.11,3.11Z"/>
      <circle class="cls-1" cx="78.51" cy="91.08" r="3.11"/>
      <path class="cls-1" d="M91.08,94.19c1.72,0,3.11-1.39,3.11-3.11s-1.39-3.11-3.11-3.11-3.11,1.39-3.11,3.11,1.39,3.11,3.11,3.11Z"/>
      <path class="cls-1" d="M103.64,94.19c1.72,0,3.11-1.39,3.11-3.11s-1.39-3.11-3.11-3.11-3.11,1.39-3.11,3.11,1.39,3.11,3.11,3.11Z"/>
      <path class="cls-1" d="M116.21,94.19c1.72,0,3.11-1.39,3.11-3.11s-1.39-3.11-3.11-3.11-3.11,1.39-3.11,3.11,1.39,3.11,3.11,3.11Z"/>
      <path class="cls-1" d="M128.77,94.19c1.72,0,3.11-1.39,3.11-3.11s-1.39-3.11-3.11-3.11-3.11,1.39-3.11,3.11,1.39,3.11,3.11,3.11Z"/>
      <path class="cls-1" d="M141.34,94.19c1.72,0,3.11-1.39,3.11-3.11s-1.39-3.11-3.11-3.11-3.11,1.39-3.11,3.11,1.39,3.11,3.11,3.11Z"/>
      <circle class="cls-1" cx="153.91" cy="91.08" r="3.11"/>
      <path class="cls-1" d="M166.47,94.19c1.72,0,3.11-1.39,3.11-3.11s-1.39-3.11-3.11-3.11-3.11,1.39-3.11,3.11,1.39,3.11,3.11,3.11Z"/>
      <circle class="cls-1" cx="179.04" cy="91.08" r="3.11"/>
      <circle class="cls-1" cx="191.61" cy="91.08" r="3.11"/>
      <path class="cls-1" d="M204.17,94.19c1.72,0,3.11-1.39,3.11-3.11s-1.39-3.11-3.11-3.11-3.11,1.39-3.11,3.11,1.39,3.11,3.11,3.11Z"/>
      <path class="cls-1" d="M216.74,94.19c1.72,0,3.11-1.39,3.11-3.11s-1.39-3.11-3.11-3.11-3.11,1.39-3.11,3.11,1.39,3.11,3.11,3.11Z"/>
      <path class="cls-1" d="M279.57,94.19c1.72,0,3.11-1.39,3.11-3.11s-1.39-3.11-3.11-3.11-3.11,1.39-3.11,3.11,1.39,3.11,3.11,3.11Z"/>
      <path class="cls-1" d="M292.14,94.19c1.72,0,3.11-1.39,3.11-3.11s-1.39-3.11-3.11-3.11-3.11,1.39-3.11,3.11,1.39,3.11,3.11,3.11Z"/>
      <path class="cls-1" d="M304.7,94.19c1.72,0,3.11-1.39,3.11-3.11s-1.39-3.11-3.11-3.11-3.11,1.39-3.11,3.11,1.39,3.11,3.11,3.11Z"/>
      <path class="cls-1" d="M317.27,94.19c1.72,0,3.11-1.39,3.11-3.11s-1.39-3.11-3.11-3.11-3.11,1.39-3.11,3.11,1.39,3.11,3.11,3.11Z"/>
      <path class="cls-1" d="M329.84,94.19c1.72,0,3.11-1.39,3.11-3.11s-1.39-3.11-3.11-3.11-3.11,1.39-3.11,3.11,1.39,3.11,3.11,3.11Z"/>
      <path class="cls-1" d="M342.4,94.19c1.72,0,3.11-1.39,3.11-3.11s-1.39-3.11-3.11-3.11-3.11,1.39-3.11,3.11,1.39,3.11,3.11,3.11Z"/>
      <path class="cls-1" d="M354.97,94.19c1.72,0,3.11-1.39,3.11-3.11s-1.39-3.11-3.11-3.11-3.11,1.39-3.11,3.11,1.39,3.11,3.11,3.11Z"/>
      <path class="cls-1" d="M367.54,94.19c1.72,0,3.11-1.39,3.11-3.11s-1.39-3.11-3.11-3.11-3.11,1.39-3.11,3.11,1.39,3.11,3.11,3.11Z"/>
      <path class="cls-1" d="M380.1,94.19c1.72,0,3.11-1.39,3.11-3.11s-1.39-3.11-3.11-3.11-3.11,1.39-3.11,3.11,1.39,3.11,3.11,3.11Z"/>
      <path class="cls-1" d="M392.67,94.19c1.72,0,3.11-1.39,3.11-3.11s-1.39-3.11-3.11-3.11-3.11,1.39-3.11,3.11,1.39,3.11,3.11,3.11Z"/>
      <path class="cls-1" d="M405.24,94.19c1.72,0,3.11-1.39,3.11-3.11s-1.39-3.11-3.11-3.11-3.11,1.39-3.11,3.11,1.39,3.11,3.11,3.11Z"/>
      <path class="cls-1" d="M417.8,94.19c1.72,0,3.11-1.39,3.11-3.11s-1.39-3.11-3.11-3.11-3.11,1.39-3.11,3.11,1.39,3.11,3.11,3.11Z"/>
      <path class="cls-1" d="M430.37,94.19c1.72,0,3.11-1.39,3.11-3.11s-1.39-3.11-3.11-3.11-3.11,1.39-3.11,3.11,1.39,3.11,3.11,3.11Z"/>
      <path class="cls-1" d="M442.94,94.19c1.72,0,3.11-1.39,3.11-3.11s-1.39-3.11-3.11-3.11-3.11,1.39-3.11,3.11,1.39,3.11,3.11,3.11Z"/>
      <circle class="cls-1" cx="518.33" cy="91.08" r="3.11"/>
      <circle class="cls-1" cx="530.9" cy="91.08" r="3.11" transform="translate(438.33 621.72) rotate(-89.84)"/>
      <path class="cls-1" d="M543.47,94.19c1.72,0,3.11-1.39,3.11-3.11s-1.39-3.11-3.11-3.11-3.11,1.39-3.11,3.11,1.39,3.11,3.11,3.11Z"/>
      <circle class="cls-1" cx="556.03" cy="91.08" r="3.11"/>
      <path class="cls-1" d="M568.6,94.19c1.72,0,3.11-1.39,3.11-3.11s-1.39-3.11-3.11-3.11-3.11,1.39-3.11,3.11,1.39,3.11,3.11,3.11Z"/>
      <path class="cls-1" d="M581.17,94.19c1.72,0,3.11-1.39,3.11-3.11s-1.39-3.11-3.11-3.11-3.11,1.39-3.11,3.11,1.39,3.11,3.11,3.11Z"/>
      <path class="cls-1" d="M593.73,94.19c1.72,0,3.11-1.39,3.11-3.11s-1.39-3.11-3.11-3.11-3.11,1.39-3.11,3.11,1.39,3.11,3.11,3.11Z"/>
      <path class="cls-1" d="M606.3,94.19c1.72,0,3.11-1.39,3.11-3.11s-1.39-3.11-3.11-3.11-3.11,1.39-3.11,3.11,1.39,3.11,3.11,3.11Z"/>
      <path class="cls-1" d="M618.87,94.19c1.72,0,3.11-1.39,3.11-3.11s-1.39-3.11-3.11-3.11-3.11,1.39-3.11,3.11,1.39,3.11,3.11,3.11Z"/>
      <path class="cls-1" d="M631.43,94.19c1.72,0,3.11-1.39,3.11-3.11s-1.39-3.11-3.11-3.11-3.11,1.39-3.11,3.11,1.39,3.11,3.11,3.11Z"/>
      <path class="cls-1" d="M644,94.19c1.72,0,3.11-1.39,3.11-3.11s-1.39-3.11-3.11-3.11-3.11,1.39-3.11,3.11,1.39,3.11,3.11,3.11Z"/>
      <path class="cls-1" d="M656.57,94.19c1.72,0,3.11-1.39,3.11-3.11s-1.39-3.11-3.11-3.11-3.11,1.39-3.11,3.11,1.39,3.11,3.11,3.11Z"/>
      <circle class="cls-1" cx="669.13" cy="91.08" r="3.11"/>
      <path class="cls-1" d="M681.7,94.19c1.72,0,3.11-1.39,3.11-3.11s-1.39-3.11-3.11-3.11-3.11,1.39-3.11,3.11,1.39,3.11,3.11,3.11Z"/>
      <path class="cls-1" d="M28.24,106.75c1.72,0,3.11-1.39,3.11-3.11s-1.39-3.11-3.11-3.11-3.11,1.39-3.11,3.11,1.39,3.11,3.11,3.11Z"/>
      <path class="cls-1" d="M40.81,106.75c1.72,0,3.11-1.39,3.11-3.11s-1.39-3.11-3.11-3.11-3.11,1.39-3.11,3.11,1.39,3.11,3.11,3.11Z"/>
      <path class="cls-1" d="M53.38,106.75c1.72,0,3.11-1.39,3.11-3.11s-1.39-3.11-3.11-3.11-3.11,1.39-3.11,3.11,1.39,3.11,3.11,3.11Z"/>
      <path class="cls-1" d="M65.94,106.75c1.72,0,3.11-1.39,3.11-3.11s-1.39-3.11-3.11-3.11-3.11,1.39-3.11,3.11,1.39,3.11,3.11,3.11Z"/>
      <path class="cls-1" d="M78.51,106.75c1.72,0,3.11-1.39,3.11-3.11s-1.39-3.11-3.11-3.11-3.11,1.39-3.11,3.11,1.39,3.11,3.11,3.11Z"/>
      <path class="cls-1" d="M91.08,106.75c1.72,0,3.11-1.39,3.11-3.11s-1.39-3.11-3.11-3.11-3.11,1.39-3.11,3.11,1.39,3.11,3.11,3.11Z"/>
      <path class="cls-1" d="M103.64,106.75c1.72,0,3.11-1.39,3.11-3.11s-1.39-3.11-3.11-3.11-3.11,1.39-3.11,3.11,1.39,3.11,3.11,3.11Z"/>
      <path class="cls-1" d="M116.21,106.75c1.72,0,3.11-1.39,3.11-3.11s-1.39-3.11-3.11-3.11-3.11,1.39-3.11,3.11,1.39,3.11,3.11,3.11Z"/>
      <path class="cls-1" d="M128.77,106.75c1.72,0,3.11-1.39,3.11-3.11s-1.39-3.11-3.11-3.11-3.11,1.39-3.11,3.11,1.39,3.11,3.11,3.11Z"/>
      <path class="cls-1" d="M141.34,106.75c1.72,0,3.11-1.39,3.11-3.11s-1.39-3.11-3.11-3.11-3.11,1.39-3.11,3.11,1.39,3.11,3.11,3.11Z"/>
      <path class="cls-1" d="M153.91,106.75c1.72,0,3.11-1.39,3.11-3.11s-1.39-3.11-3.11-3.11-3.11,1.39-3.11,3.11,1.39,3.11,3.11,3.11Z"/>
      <path class="cls-1" d="M166.47,106.75c1.72,0,3.11-1.39,3.11-3.11s-1.39-3.11-3.11-3.11-3.11,1.39-3.11,3.11,1.39,3.11,3.11,3.11Z"/>
      <path class="cls-1" d="M179.04,106.75c1.72,0,3.11-1.39,3.11-3.11s-1.39-3.11-3.11-3.11-3.11,1.39-3.11,3.11,1.39,3.11,3.11,3.11Z"/>
      <path class="cls-1" d="M191.61,106.75c1.72,0,3.11-1.39,3.11-3.11s-1.39-3.11-3.11-3.11-3.11,1.39-3.11,3.11,1.39,3.11,3.11,3.11Z"/>
      <path class="cls-1" d="M204.17,106.75c1.72,0,3.11-1.39,3.11-3.11s-1.39-3.11-3.11-3.11-3.11,1.39-3.11,3.11,1.39,3.11,3.11,3.11Z"/>
      <path class="cls-1" d="M216.74,106.75c1.72,0,3.11-1.39,3.11-3.11s-1.39-3.11-3.11-3.11-3.11,1.39-3.11,3.11,1.39,3.11,3.11,3.11Z"/>
      <path class="cls-1" d="M229.31,106.75c1.72,0,3.11-1.39,3.11-3.11s-1.39-3.11-3.11-3.11-3.11,1.39-3.11,3.11,1.39,3.11,3.11,3.11Z"/>
      <path class="cls-1" d="M241.87,106.75c1.72,0,3.11-1.39,3.11-3.11s-1.39-3.11-3.11-3.11-3.11,1.39-3.11,3.11,1.39,3.11,3.11,3.11Z"/>
      <path class="cls-1" d="M254.44,106.75c1.72,0,3.11-1.39,3.11-3.11s-1.39-3.11-3.11-3.11-3.11,1.39-3.11,3.11,1.39,3.11,3.11,3.11Z"/>
      <path class="cls-1" d="M267.01,106.75c1.72,0,3.11-1.39,3.11-3.11s-1.39-3.11-3.11-3.11-3.11,1.39-3.11,3.11,1.39,3.11,3.11,3.11Z"/>
      <path class="cls-1" d="M279.57,106.75c1.72,0,3.11-1.39,3.11-3.11s-1.39-3.11-3.11-3.11-3.11,1.39-3.11,3.11,1.39,3.11,3.11,3.11Z"/>
      <path class="cls-1" d="M292.14,106.75c1.72,0,3.11-1.39,3.11-3.11s-1.39-3.11-3.11-3.11-3.11,1.39-3.11,3.11,1.39,3.11,3.11,3.11Z"/>
      <path class="cls-1" d="M304.7,106.75c1.72,0,3.11-1.39,3.11-3.11s-1.39-3.11-3.11-3.11-3.11,1.39-3.11,3.11,1.39,3.11,3.11,3.11Z"/>
      <path class="cls-1" d="M317.27,106.75c1.72,0,3.11-1.39,3.11-3.11s-1.39-3.11-3.11-3.11-3.11,1.39-3.11,3.11,1.39,3.11,3.11,3.11Z"/>
      <path class="cls-1" d="M329.84,106.75c1.72,0,3.11-1.39,3.11-3.11s-1.39-3.11-3.11-3.11-3.11,1.39-3.11,3.11,1.39,3.11,3.11,3.11Z"/>
      <path class="cls-1" d="M342.4,106.75c1.72,0,3.11-1.39,3.11-3.11s-1.39-3.11-3.11-3.11-3.11,1.39-3.11,3.11,1.39,3.11,3.11,3.11Z"/>
      <path class="cls-1" d="M354.97,106.75c1.72,0,3.11-1.39,3.11-3.11s-1.39-3.11-3.11-3.11-3.11,1.39-3.11,3.11,1.39,3.11,3.11,3.11Z"/>
      <path class="cls-1" d="M367.54,106.75c1.72,0,3.11-1.39,3.11-3.11s-1.39-3.11-3.11-3.11-3.11,1.39-3.11,3.11,1.39,3.11,3.11,3.11Z"/>
      <path class="cls-1" d="M380.1,106.75c1.72,0,3.11-1.39,3.11-3.11s-1.39-3.11-3.11-3.11-3.11,1.39-3.11,3.11,1.39,3.11,3.11,3.11Z"/>
      <path class="cls-1" d="M392.67,106.75c1.72,0,3.11-1.39,3.11-3.11s-1.39-3.11-3.11-3.11-3.11,1.39-3.11,3.11,1.39,3.11,3.11,3.11Z"/>
      <path class="cls-1" d="M405.24,106.75c1.72,0,3.11-1.39,3.11-3.11s-1.39-3.11-3.11-3.11-3.11,1.39-3.11,3.11,1.39,3.11,3.11,3.11Z"/>
      <path class="cls-1" d="M417.8,106.75c1.72,0,3.11-1.39,3.11-3.11s-1.39-3.11-3.11-3.11-3.11,1.39-3.11,3.11,1.39,3.11,3.11,3.11Z"/>
      <path class="cls-1" d="M530.9,106.75c1.72,0,3.11-1.39,3.11-3.11s-1.39-3.11-3.11-3.11-3.11,1.39-3.11,3.11,1.39,3.11,3.11,3.11Z"/>
      <path class="cls-1" d="M543.47,106.75c1.72,0,3.11-1.39,3.11-3.11s-1.39-3.11-3.11-3.11-3.11,1.39-3.11,3.11,1.39,3.11,3.11,3.11Z"/>
      <path class="cls-1" d="M556.03,106.75c1.72,0,3.11-1.39,3.11-3.11s-1.39-3.11-3.11-3.11-3.11,1.39-3.11,3.11,1.39,3.11,3.11,3.11Z"/>
      <path class="cls-1" d="M568.6,106.75c1.72,0,3.11-1.39,3.11-3.11s-1.39-3.11-3.11-3.11-3.11,1.39-3.11,3.11,1.39,3.11,3.11,3.11Z"/>
      <path class="cls-1" d="M581.17,106.75c1.72,0,3.11-1.39,3.11-3.11s-1.39-3.11-3.11-3.11-3.11,1.39-3.11,3.11,1.39,3.11,3.11,3.11Z"/>
      <path class="cls-1" d="M593.73,106.75c1.72,0,3.11-1.39,3.11-3.11s-1.39-3.11-3.11-3.11-3.11,1.39-3.11,3.11,1.39,3.11,3.11,3.11Z"/>
      <path class="cls-1" d="M606.3,106.75c1.72,0,3.11-1.39,3.11-3.11s-1.39-3.11-3.11-3.11-3.11,1.39-3.11,3.11,1.39,3.11,3.11,3.11Z"/>
      <path class="cls-1" d="M618.87,106.75c1.72,0,3.11-1.39,3.11-3.11s-1.39-3.11-3.11-3.11-3.11,1.39-3.11,3.11,1.39,3.11,3.11,3.11Z"/>
      <path class="cls-1" d="M631.43,106.75c1.72,0,3.11-1.39,3.11-3.11s-1.39-3.11-3.11-3.11-3.11,1.39-3.11,3.11,1.39,3.11,3.11,3.11Z"/>
      <path class="cls-1" d="M644,106.75c1.72,0,3.11-1.39,3.11-3.11s-1.39-3.11-3.11-3.11-3.11,1.39-3.11,3.11,1.39,3.11,3.11,3.11Z"/>
      <path class="cls-1" d="M656.57,106.75c1.72,0,3.11-1.39,3.11-3.11s-1.39-3.11-3.11-3.11-3.11,1.39-3.11,3.11,1.39,3.11,3.11,3.11Z"/>
      <path class="cls-1" d="M669.13,106.75c1.72,0,3.11-1.39,3.11-3.11s-1.39-3.11-3.11-3.11-3.11,1.39-3.11,3.11,1.39,3.11,3.11,3.11Z"/>
      <path class="cls-1" d="M681.7,106.75c1.72,0,3.11-1.39,3.11-3.11s-1.39-3.11-3.11-3.11-3.11,1.39-3.11,3.11,1.39,3.11,3.11,3.11Z"/>
      <path class="cls-1" d="M694.26,106.75c1.72,0,3.11-1.39,3.11-3.11s-1.39-3.11-3.11-3.11-3.11,1.39-3.11,3.11,1.39,3.11,3.11,3.11Z"/>
      <path class="cls-1" d="M28.24,119.32c1.72,0,3.11-1.39,3.11-3.11s-1.39-3.11-3.11-3.11-3.11,1.39-3.11,3.11,1.39,3.11,3.11,3.11Z"/>
      <path class="cls-1" d="M40.81,119.32c1.72,0,3.11-1.39,3.11-3.11s-1.39-3.11-3.11-3.11-3.11,1.39-3.11,3.11,1.39,3.11,3.11,3.11Z"/>
      <path class="cls-1" d="M53.38,119.32c1.72,0,3.11-1.39,3.11-3.11s-1.39-3.11-3.11-3.11-3.11,1.39-3.11,3.11,1.39,3.11,3.11,3.11Z"/>
      <path class="cls-1" d="M65.94,119.32c1.72,0,3.11-1.39,3.11-3.11s-1.39-3.11-3.11-3.11-3.11,1.39-3.11,3.11,1.39,3.11,3.11,3.11Z"/>
      <path class="cls-1" d="M78.51,119.32c1.72,0,3.11-1.39,3.11-3.11s-1.39-3.11-3.11-3.11-3.11,1.39-3.11,3.11,1.39,3.11,3.11,3.11Z"/>
      <path class="cls-1" d="M91.08,119.32c1.72,0,3.11-1.39,3.11-3.11s-1.39-3.11-3.11-3.11-3.11,1.39-3.11,3.11,1.39,3.11,3.11,3.11Z"/>
      <path class="cls-1" d="M103.64,119.32c1.72,0,3.11-1.39,3.11-3.11s-1.39-3.11-3.11-3.11-3.11,1.39-3.11,3.11,1.39,3.11,3.11,3.11Z"/>
      <path class="cls-1" d="M116.21,119.32c1.72,0,3.11-1.39,3.11-3.11s-1.39-3.11-3.11-3.11-3.11,1.39-3.11,3.11,1.39,3.11,3.11,3.11Z"/>
      <path class="cls-1" d="M128.77,119.32c1.72,0,3.11-1.39,3.11-3.11s-1.39-3.11-3.11-3.11-3.11,1.39-3.11,3.11,1.39,3.11,3.11,3.11Z"/>
      <path class="cls-1" d="M141.34,119.32c1.72,0,3.11-1.39,3.11-3.11s-1.39-3.11-3.11-3.11-3.11,1.39-3.11,3.11,1.39,3.11,3.11,3.11Z"/>
      <path class="cls-1" d="M153.91,119.32c1.72,0,3.11-1.39,3.11-3.11s-1.39-3.11-3.11-3.11-3.11,1.39-3.11,3.11,1.39,3.11,3.11,3.11Z"/>
      <path class="cls-1" d="M166.47,119.32c1.72,0,3.11-1.39,3.11-3.11s-1.39-3.11-3.11-3.11-3.11,1.39-3.11,3.11,1.39,3.11,3.11,3.11Z"/>
      <path class="cls-1" d="M179.04,119.32c1.72,0,3.11-1.39,3.11-3.11s-1.39-3.11-3.11-3.11-3.11,1.39-3.11,3.11,1.39,3.11,3.11,3.11Z"/>
      <path class="cls-1" d="M191.61,119.32c1.72,0,3.11-1.39,3.11-3.11s-1.39-3.11-3.11-3.11-3.11,1.39-3.11,3.11,1.39,3.11,3.11,3.11Z"/>
      <path class="cls-1" d="M204.17,119.32c1.72,0,3.11-1.39,3.11-3.11s-1.39-3.11-3.11-3.11-3.11,1.39-3.11,3.11,1.39,3.11,3.11,3.11Z"/>
      <path class="cls-1" d="M216.74,119.32c1.72,0,3.11-1.39,3.11-3.11s-1.39-3.11-3.11-3.11-3.11,1.39-3.11,3.11,1.39,3.11,3.11,3.11Z"/>
      <path class="cls-1" d="M229.31,119.32c1.72,0,3.11-1.39,3.11-3.11s-1.39-3.11-3.11-3.11-3.11,1.39-3.11,3.11,1.39,3.11,3.11,3.11Z"/>
      <path class="cls-1" d="M241.87,119.32c1.72,0,3.11-1.39,3.11-3.11s-1.39-3.11-3.11-3.11-3.11,1.39-3.11,3.11,1.39,3.11,3.11,3.11Z"/>
      <path class="cls-1" d="M254.44,119.32c1.72,0,3.11-1.39,3.11-3.11s-1.39-3.11-3.11-3.11-3.11,1.39-3.11,3.11,1.39,3.11,3.11,3.11Z"/>
      <path class="cls-1" d="M267.01,119.32c1.72,0,3.11-1.39,3.11-3.11s-1.39-3.11-3.11-3.11-3.11,1.39-3.11,3.11,1.39,3.11,3.11,3.11Z"/>
      <path class="cls-1" d="M279.57,119.32c1.72,0,3.11-1.39,3.11-3.11s-1.39-3.11-3.11-3.11-3.11,1.39-3.11,3.11,1.39,3.11,3.11,3.11Z"/>
      <path class="cls-1" d="M292.14,119.32c1.72,0,3.11-1.39,3.11-3.11s-1.39-3.11-3.11-3.11-3.11,1.39-3.11,3.11,1.39,3.11,3.11,3.11Z"/>
      <path class="cls-1" d="M304.7,119.32c1.72,0,3.11-1.39,3.11-3.11s-1.39-3.11-3.11-3.11-3.11,1.39-3.11,3.11,1.39,3.11,3.11,3.11Z"/>
      <path class="cls-1" d="M317.27,119.32c1.72,0,3.11-1.39,3.11-3.11s-1.39-3.11-3.11-3.11-3.11,1.39-3.11,3.11,1.39,3.11,3.11,3.11Z"/>
      <path class="cls-1" d="M329.84,119.32c1.72,0,3.11-1.39,3.11-3.11s-1.39-3.11-3.11-3.11-3.11,1.39-3.11,3.11,1.39,3.11,3.11,3.11Z"/>
      <path class="cls-1" d="M342.4,119.32c1.72,0,3.11-1.39,3.11-3.11s-1.39-3.11-3.11-3.11-3.11,1.39-3.11,3.11,1.39,3.11,3.11,3.11Z"/>
      <path class="cls-1" d="M354.97,119.32c1.72,0,3.11-1.39,3.11-3.11s-1.39-3.11-3.11-3.11-3.11,1.39-3.11,3.11,1.39,3.11,3.11,3.11Z"/>
      <path class="cls-1" d="M367.54,119.32c1.72,0,3.11-1.39,3.11-3.11s-1.39-3.11-3.11-3.11-3.11,1.39-3.11,3.11,1.39,3.11,3.11,3.11Z"/>
      <path class="cls-1" d="M380.1,119.32c1.72,0,3.11-1.39,3.11-3.11s-1.39-3.11-3.11-3.11-3.11,1.39-3.11,3.11,1.39,3.11,3.11,3.11Z"/>
      <path class="cls-1" d="M392.67,119.32c1.72,0,3.11-1.39,3.11-3.11s-1.39-3.11-3.11-3.11-3.11,1.39-3.11,3.11,1.39,3.11,3.11,3.11Z"/>
      <path class="cls-1" d="M405.24,119.32c1.72,0,3.11-1.39,3.11-3.11s-1.39-3.11-3.11-3.11-3.11,1.39-3.11,3.11,1.39,3.11,3.11,3.11Z"/>
      <path class="cls-1" d="M417.8,119.32c1.72,0,3.11-1.39,3.11-3.11s-1.39-3.11-3.11-3.11-3.11,1.39-3.11,3.11,1.39,3.11,3.11,3.11Z"/>
      <path class="cls-1" d="M430.37,119.32c1.72,0,3.11-1.39,3.11-3.11s-1.39-3.11-3.11-3.11-3.11,1.39-3.11,3.11,1.39,3.11,3.11,3.11Z"/>
      <path class="cls-1" d="M556.03,119.32c1.72,0,3.11-1.39,3.11-3.11s-1.39-3.11-3.11-3.11-3.11,1.39-3.11,3.11,1.39,3.11,3.11,3.11Z"/>
      <path class="cls-1" d="M568.6,119.32c1.72,0,3.11-1.39,3.11-3.11s-1.39-3.11-3.11-3.11-3.11,1.39-3.11,3.11,1.39,3.11,3.11,3.11Z"/>
      <path class="cls-1" d="M581.17,119.32c1.72,0,3.11-1.39,3.11-3.11s-1.39-3.11-3.11-3.11-3.11,1.39-3.11,3.11,1.39,3.11,3.11,3.11Z"/>
      <path class="cls-1" d="M593.73,119.32c1.72,0,3.11-1.39,3.11-3.11s-1.39-3.11-3.11-3.11-3.11,1.39-3.11,3.11,1.39,3.11,3.11,3.11Z"/>
      <path class="cls-1" d="M606.3,119.32c1.72,0,3.11-1.39,3.11-3.11s-1.39-3.11-3.11-3.11-3.11,1.39-3.11,3.11,1.39,3.11,3.11,3.11Z"/>
      <path class="cls-1" d="M618.87,119.32c1.72,0,3.11-1.39,3.11-3.11s-1.39-3.11-3.11-3.11-3.11,1.39-3.11,3.11,1.39,3.11,3.11,3.11Z"/>
      <path class="cls-1" d="M631.43,119.32c1.72,0,3.11-1.39,3.11-3.11s-1.39-3.11-3.11-3.11-3.11,1.39-3.11,3.11,1.39,3.11,3.11,3.11Z"/>
      <path class="cls-1" d="M644,119.32c1.72,0,3.11-1.39,3.11-3.11s-1.39-3.11-3.11-3.11-3.11,1.39-3.11,3.11,1.39,3.11,3.11,3.11Z"/>
      <path class="cls-1" d="M656.57,119.32c1.72,0,3.11-1.39,3.11-3.11s-1.39-3.11-3.11-3.11-3.11,1.39-3.11,3.11,1.39,3.11,3.11,3.11Z"/>
      <path class="cls-1" d="M669.13,119.32c1.72,0,3.11-1.39,3.11-3.11s-1.39-3.11-3.11-3.11-3.11,1.39-3.11,3.11,1.39,3.11,3.11,3.11Z"/>
      <path class="cls-1" d="M681.7,119.32c1.72,0,3.11-1.39,3.11-3.11s-1.39-3.11-3.11-3.11-3.11,1.39-3.11,3.11,1.39,3.11,3.11,3.11Z"/>
      <path class="cls-1" d="M694.26,119.32c1.72,0,3.11-1.39,3.11-3.11s-1.39-3.11-3.11-3.11-3.11,1.39-3.11,3.11,1.39,3.11,3.11,3.11Z"/>
      <path class="cls-1" d="M706.83,119.32c1.72,0,3.11-1.39,3.11-3.11s-1.39-3.11-3.11-3.11-3.11,1.39-3.11,3.11,1.39,3.11,3.11,3.11Z"/>
      <path class="cls-1" d="M719.4,119.32c1.72,0,3.11-1.39,3.11-3.11s-1.39-3.11-3.11-3.11-3.11,1.39-3.11,3.11,1.39,3.11,3.11,3.11Z"/>
      <path class="cls-1" d="M3.11,131.88c1.72,0,3.11-1.39,3.11-3.11s-1.39-3.11-3.11-3.11-3.11,1.39-3.11,3.11,1.39,3.11,3.11,3.11Z"/>
      <path class="cls-1" d="M15.68,131.88c1.72,0,3.11-1.39,3.11-3.11s-1.39-3.11-3.11-3.11-3.11,1.39-3.11,3.11,1.39,3.11,3.11,3.11Z"/>
      <path class="cls-1" d="M28.24,131.88c1.72,0,3.11-1.39,3.11-3.11s-1.39-3.11-3.11-3.11-3.11,1.39-3.11,3.11,1.39,3.11,3.11,3.11Z"/>
      <path class="cls-1" d="M40.81,131.88c1.72,0,3.11-1.39,3.11-3.11s-1.39-3.11-3.11-3.11-3.11,1.39-3.11,3.11,1.39,3.11,3.11,3.11Z"/>
      <path class="cls-1" d="M53.38,131.88c1.72,0,3.11-1.39,3.11-3.11s-1.39-3.11-3.11-3.11-3.11,1.39-3.11,3.11,1.39,3.11,3.11,3.11Z"/>
      <path class="cls-1" d="M65.94,131.88c1.72,0,3.11-1.39,3.11-3.11s-1.39-3.11-3.11-3.11-3.11,1.39-3.11,3.11,1.39,3.11,3.11,3.11Z"/>
      <path class="cls-1" d="M78.51,131.88c1.72,0,3.11-1.39,3.11-3.11s-1.39-3.11-3.11-3.11-3.11,1.39-3.11,3.11,1.39,3.11,3.11,3.11Z"/>
      <path class="cls-1" d="M91.08,131.88c1.72,0,3.11-1.39,3.11-3.11s-1.39-3.11-3.11-3.11-3.11,1.39-3.11,3.11,1.39,3.11,3.11,3.11Z"/>
      <path class="cls-1" d="M103.64,131.88c1.72,0,3.11-1.39,3.11-3.11s-1.39-3.11-3.11-3.11-3.11,1.39-3.11,3.11,1.39,3.11,3.11,3.11Z"/>
      <path class="cls-1" d="M116.21,131.88c1.72,0,3.11-1.39,3.11-3.11s-1.39-3.11-3.11-3.11-3.11,1.39-3.11,3.11,1.39,3.11,3.11,3.11Z"/>
      <path class="cls-1" d="M128.77,131.88c1.72,0,3.11-1.39,3.11-3.11s-1.39-3.11-3.11-3.11-3.11,1.39-3.11,3.11,1.39,3.11,3.11,3.11Z"/>
      <path class="cls-1" d="M141.34,131.88c1.72,0,3.11-1.39,3.11-3.11s-1.39-3.11-3.11-3.11-3.11,1.39-3.11,3.11,1.39,3.11,3.11,3.11Z"/>
      <path class="cls-1" d="M153.91,131.88c1.72,0,3.11-1.39,3.11-3.11s-1.39-3.11-3.11-3.11-3.11,1.39-3.11,3.11,1.39,3.11,3.11,3.11Z"/>
      <path class="cls-1" d="M166.47,131.88c1.72,0,3.11-1.39,3.11-3.11s-1.39-3.11-3.11-3.11-3.11,1.39-3.11,3.11,1.39,3.11,3.11,3.11Z"/>
      <path class="cls-1" d="M179.04,131.88c1.72,0,3.11-1.39,3.11-3.11s-1.39-3.11-3.11-3.11-3.11,1.39-3.11,3.11,1.39,3.11,3.11,3.11Z"/>
      <path class="cls-1" d="M191.61,131.88c1.72,0,3.11-1.39,3.11-3.11s-1.39-3.11-3.11-3.11-3.11,1.39-3.11,3.11,1.39,3.11,3.11,3.11Z"/>
      <path class="cls-1" d="M204.17,131.88c1.72,0,3.11-1.39,3.11-3.11s-1.39-3.11-3.11-3.11-3.11,1.39-3.11,3.11,1.39,3.11,3.11,3.11Z"/>
      <path class="cls-1" d="M216.74,131.88c1.72,0,3.11-1.39,3.11-3.11s-1.39-3.11-3.11-3.11-3.11,1.39-3.11,3.11,1.39,3.11,3.11,3.11Z"/>
      <path class="cls-1" d="M229.31,131.88c1.72,0,3.11-1.39,3.11-3.11s-1.39-3.11-3.11-3.11-3.11,1.39-3.11,3.11,1.39,3.11,3.11,3.11Z"/>
      <path class="cls-1" d="M241.87,131.88c1.72,0,3.11-1.39,3.11-3.11s-1.39-3.11-3.11-3.11-3.11,1.39-3.11,3.11,1.39,3.11,3.11,3.11Z"/>
      <path class="cls-1" d="M254.44,131.88c1.72,0,3.11-1.39,3.11-3.11s-1.39-3.11-3.11-3.11-3.11,1.39-3.11,3.11,1.39,3.11,3.11,3.11Z"/>
      <path class="cls-1" d="M267.01,131.88c1.72,0,3.11-1.39,3.11-3.11s-1.39-3.11-3.11-3.11-3.11,1.39-3.11,3.11,1.39,3.11,3.11,3.11Z"/>
      <path class="cls-1" d="M279.57,131.88c1.72,0,3.11-1.39,3.11-3.11s-1.39-3.11-3.11-3.11-3.11,1.39-3.11,3.11,1.39,3.11,3.11,3.11Z"/>
      <path class="cls-1" d="M292.14,131.88c1.72,0,3.11-1.39,3.11-3.11s-1.39-3.11-3.11-3.11-3.11,1.39-3.11,3.11,1.39,3.11,3.11,3.11Z"/>
      <path class="cls-1" d="M304.7,131.88c1.72,0,3.11-1.39,3.11-3.11s-1.39-3.11-3.11-3.11-3.11,1.39-3.11,3.11,1.39,3.11,3.11,3.11Z"/>
      <path class="cls-1" d="M317.27,131.88c1.72,0,3.11-1.39,3.11-3.11s-1.39-3.11-3.11-3.11-3.11,1.39-3.11,3.11,1.39,3.11,3.11,3.11Z"/>
      <path class="cls-1" d="M329.84,131.88c1.72,0,3.11-1.39,3.11-3.11s-1.39-3.11-3.11-3.11-3.11,1.39-3.11,3.11,1.39,3.11,3.11,3.11Z"/>
      <path class="cls-1" d="M342.4,131.88c1.72,0,3.11-1.39,3.11-3.11s-1.39-3.11-3.11-3.11-3.11,1.39-3.11,3.11,1.39,3.11,3.11,3.11Z"/>
      <path class="cls-1" d="M354.97,131.88c1.72,0,3.11-1.39,3.11-3.11s-1.39-3.11-3.11-3.11-3.11,1.39-3.11,3.11,1.39,3.11,3.11,3.11Z"/>
      <path class="cls-1" d="M367.54,131.88c1.72,0,3.11-1.39,3.11-3.11s-1.39-3.11-3.11-3.11-3.11,1.39-3.11,3.11,1.39,3.11,3.11,3.11Z"/>
      <path class="cls-1" d="M380.1,131.88c1.72,0,3.11-1.39,3.11-3.11s-1.39-3.11-3.11-3.11-3.11,1.39-3.11,3.11,1.39,3.11,3.11,3.11Z"/>
      <path class="cls-1" d="M392.67,131.88c1.72,0,3.11-1.39,3.11-3.11s-1.39-3.11-3.11-3.11-3.11,1.39-3.11,3.11,1.39,3.11,3.11,3.11Z"/>
      <path class="cls-1" d="M405.24,131.88c1.72,0,3.11-1.39,3.11-3.11s-1.39-3.11-3.11-3.11-3.11,1.39-3.11,3.11,1.39,3.11,3.11,3.11Z"/>
      <path class="cls-1" d="M417.8,131.88c1.72,0,3.11-1.39,3.11-3.11s-1.39-3.11-3.11-3.11-3.11,1.39-3.11,3.11,1.39,3.11,3.11,3.11Z"/>
      <path class="cls-1" d="M430.37,131.88c1.72,0,3.11-1.39,3.11-3.11s-1.39-3.11-3.11-3.11-3.11,1.39-3.11,3.11,1.39,3.11,3.11,3.11Z"/>
      <path class="cls-1" d="M568.6,131.88c1.72,0,3.11-1.39,3.11-3.11s-1.39-3.11-3.11-3.11-3.11,1.39-3.11,3.11,1.39,3.11,3.11,3.11Z"/>
      <path class="cls-1" d="M581.17,131.88c1.72,0,3.11-1.39,3.11-3.11s-1.39-3.11-3.11-3.11-3.11,1.39-3.11,3.11,1.39,3.11,3.11,3.11Z"/>
      <path class="cls-1" d="M593.73,131.88c1.72,0,3.11-1.39,3.11-3.11s-1.39-3.11-3.11-3.11-3.11,1.39-3.11,3.11,1.39,3.11,3.11,3.11Z"/>
      <path class="cls-1" d="M606.3,131.88c1.72,0,3.11-1.39,3.11-3.11s-1.39-3.11-3.11-3.11-3.11,1.39-3.11,3.11,1.39,3.11,3.11,3.11Z"/>
      <path class="cls-1" d="M618.87,131.88c1.72,0,3.11-1.39,3.11-3.11s-1.39-3.11-3.11-3.11-3.11,1.39-3.11,3.11,1.39,3.11,3.11,3.11Z"/>
      <path class="cls-1" d="M631.43,131.88c1.72,0,3.11-1.39,3.11-3.11s-1.39-3.11-3.11-3.11-3.11,1.39-3.11,3.11,1.39,3.11,3.11,3.11Z"/>
      <path class="cls-1" d="M644,131.88c1.72,0,3.11-1.39,3.11-3.11s-1.39-3.11-3.11-3.11-3.11,1.39-3.11,3.11,1.39,3.11,3.11,3.11Z"/>
      <path class="cls-1" d="M656.57,131.88c1.72,0,3.11-1.39,3.11-3.11s-1.39-3.11-3.11-3.11-3.11,1.39-3.11,3.11,1.39,3.11,3.11,3.11Z"/>
      <path class="cls-1" d="M669.13,131.88c1.72,0,3.11-1.39,3.11-3.11s-1.39-3.11-3.11-3.11-3.11,1.39-3.11,3.11,1.39,3.11,3.11,3.11Z"/>
      <path class="cls-1" d="M681.7,131.88c1.72,0,3.11-1.39,3.11-3.11s-1.39-3.11-3.11-3.11-3.11,1.39-3.11,3.11,1.39,3.11,3.11,3.11Z"/>
      <path class="cls-1" d="M694.26,131.88c1.72,0,3.11-1.39,3.11-3.11s-1.39-3.11-3.11-3.11-3.11,1.39-3.11,3.11,1.39,3.11,3.11,3.11Z"/>
      <path class="cls-1" d="M706.83,131.88c1.72,0,3.11-1.39,3.11-3.11s-1.39-3.11-3.11-3.11-3.11,1.39-3.11,3.11,1.39,3.11,3.11,3.11Z"/>
      <path class="cls-1" d="M3.11,144.45c1.72,0,3.11-1.39,3.11-3.11s-1.39-3.11-3.11-3.11-3.11,1.39-3.11,3.11,1.39,3.11,3.11,3.11Z"/>
      <path class="cls-1" d="M15.68,144.45c1.72,0,3.11-1.39,3.11-3.11s-1.39-3.11-3.11-3.11-3.11,1.39-3.11,3.11,1.39,3.11,3.11,3.11Z"/>
      <path class="cls-1" d="M28.24,144.45c1.72,0,3.11-1.39,3.11-3.11s-1.39-3.11-3.11-3.11-3.11,1.39-3.11,3.11,1.39,3.11,3.11,3.11Z"/>
      <path class="cls-1" d="M40.81,144.45c1.72,0,3.11-1.39,3.11-3.11s-1.39-3.11-3.11-3.11-3.11,1.39-3.11,3.11,1.39,3.11,3.11,3.11Z"/>
      <path class="cls-1" d="M53.38,144.45c1.72,0,3.11-1.39,3.11-3.11s-1.39-3.11-3.11-3.11-3.11,1.39-3.11,3.11,1.39,3.11,3.11,3.11Z"/>
      <path class="cls-1" d="M65.94,144.45c1.72,0,3.11-1.39,3.11-3.11s-1.39-3.11-3.11-3.11-3.11,1.39-3.11,3.11,1.39,3.11,3.11,3.11Z"/>
      <path class="cls-1" d="M78.51,144.45c1.72,0,3.11-1.39,3.11-3.11s-1.39-3.11-3.11-3.11-3.11,1.39-3.11,3.11,1.39,3.11,3.11,3.11Z"/>
      <path class="cls-1" d="M91.08,144.45c1.72,0,3.11-1.39,3.11-3.11s-1.39-3.11-3.11-3.11-3.11,1.39-3.11,3.11,1.39,3.11,3.11,3.11Z"/>
      <path class="cls-1" d="M103.64,144.45c1.72,0,3.11-1.39,3.11-3.11s-1.39-3.11-3.11-3.11-3.11,1.39-3.11,3.11,1.39,3.11,3.11,3.11Z"/>
      <path class="cls-1" d="M116.21,144.45c1.72,0,3.11-1.39,3.11-3.11s-1.39-3.11-3.11-3.11-3.11,1.39-3.11,3.11,1.39,3.11,3.11,3.11Z"/>
      <path class="cls-1" d="M128.77,144.45c1.72,0,3.11-1.39,3.11-3.11s-1.39-3.11-3.11-3.11-3.11,1.39-3.11,3.11,1.39,3.11,3.11,3.11Z"/>
      <path class="cls-1" d="M141.34,144.45c1.72,0,3.11-1.39,3.11-3.11s-1.39-3.11-3.11-3.11-3.11,1.39-3.11,3.11,1.39,3.11,3.11,3.11Z"/>
      <path class="cls-1" d="M153.91,144.45c1.72,0,3.11-1.39,3.11-3.11s-1.39-3.11-3.11-3.11-3.11,1.39-3.11,3.11,1.39,3.11,3.11,3.11Z"/>
      <path class="cls-1" d="M166.47,144.45c1.72,0,3.11-1.39,3.11-3.11s-1.39-3.11-3.11-3.11-3.11,1.39-3.11,3.11,1.39,3.11,3.11,3.11Z"/>
      <path class="cls-1" d="M179.04,144.45c1.72,0,3.11-1.39,3.11-3.11s-1.39-3.11-3.11-3.11-3.11,1.39-3.11,3.11,1.39,3.11,3.11,3.11Z"/>
      <path class="cls-1" d="M191.61,144.45c1.72,0,3.11-1.39,3.11-3.11s-1.39-3.11-3.11-3.11-3.11,1.39-3.11,3.11,1.39,3.11,3.11,3.11Z"/>
      <path class="cls-1" d="M204.17,144.45c1.72,0,3.11-1.39,3.11-3.11s-1.39-3.11-3.11-3.11-3.11,1.39-3.11,3.11,1.39,3.11,3.11,3.11Z"/>
      <path class="cls-1" d="M216.74,144.45c1.72,0,3.11-1.39,3.11-3.11s-1.39-3.11-3.11-3.11-3.11,1.39-3.11,3.11,1.39,3.11,3.11,3.11Z"/>
      <path class="cls-1" d="M229.31,144.45c1.72,0,3.11-1.39,3.11-3.11s-1.39-3.11-3.11-3.11-3.11,1.39-3.11,3.11,1.39,3.11,3.11,3.11Z"/>
      <path class="cls-1" d="M241.87,144.45c1.72,0,3.11-1.39,3.11-3.11s-1.39-3.11-3.11-3.11-3.11,1.39-3.11,3.11,1.39,3.11,3.11,3.11Z"/>
      <path class="cls-1" d="M254.44,144.45c1.72,0,3.11-1.39,3.11-3.11s-1.39-3.11-3.11-3.11-3.11,1.39-3.11,3.11,1.39,3.11,3.11,3.11Z"/>
      <path class="cls-1" d="M267.01,144.45c1.72,0,3.11-1.39,3.11-3.11s-1.39-3.11-3.11-3.11-3.11,1.39-3.11,3.11,1.39,3.11,3.11,3.11Z"/>
      <path class="cls-1" d="M279.57,144.45c1.72,0,3.11-1.39,3.11-3.11s-1.39-3.11-3.11-3.11-3.11,1.39-3.11,3.11,1.39,3.11,3.11,3.11Z"/>
      <path class="cls-1" d="M292.14,144.45c1.72,0,3.11-1.39,3.11-3.11s-1.39-3.11-3.11-3.11-3.11,1.39-3.11,3.11,1.39,3.11,3.11,3.11Z"/>
      <path class="cls-1" d="M304.7,144.45c1.72,0,3.11-1.39,3.11-3.11s-1.39-3.11-3.11-3.11-3.11,1.39-3.11,3.11,1.39,3.11,3.11,3.11Z"/>
      <path class="cls-1" d="M317.27,144.45c1.72,0,3.11-1.39,3.11-3.11s-1.39-3.11-3.11-3.11-3.11,1.39-3.11,3.11,1.39,3.11,3.11,3.11Z"/>
      <path class="cls-1" d="M329.84,144.45c1.72,0,3.11-1.39,3.11-3.11s-1.39-3.11-3.11-3.11-3.11,1.39-3.11,3.11,1.39,3.11,3.11,3.11Z"/>
      <path class="cls-1" d="M342.4,144.45c1.72,0,3.11-1.39,3.11-3.11s-1.39-3.11-3.11-3.11-3.11,1.39-3.11,3.11,1.39,3.11,3.11,3.11Z"/>
      <path class="cls-1" d="M354.97,144.45c1.72,0,3.11-1.39,3.11-3.11s-1.39-3.11-3.11-3.11-3.11,1.39-3.11,3.11,1.39,3.11,3.11,3.11Z"/>
      <path class="cls-1" d="M367.54,144.45c1.72,0,3.11-1.39,3.11-3.11s-1.39-3.11-3.11-3.11-3.11,1.39-3.11,3.11,1.39,3.11,3.11,3.11Z"/>
      <path class="cls-1" d="M380.1,144.45c1.72,0,3.11-1.39,3.11-3.11s-1.39-3.11-3.11-3.11-3.11,1.39-3.11,3.11,1.39,3.11,3.11,3.11Z"/>
      <path class="cls-1" d="M392.67,144.45c1.72,0,3.11-1.39,3.11-3.11s-1.39-3.11-3.11-3.11-3.11,1.39-3.11,3.11,1.39,3.11,3.11,3.11Z"/>
      <path class="cls-1" d="M405.24,144.45c1.72,0,3.11-1.39,3.11-3.11s-1.39-3.11-3.11-3.11-3.11,1.39-3.11,3.11,1.39,3.11,3.11,3.11Z"/>
      <path class="cls-1" d="M417.8,144.45c1.72,0,3.11-1.39,3.11-3.11s-1.39-3.11-3.11-3.11-3.11,1.39-3.11,3.11,1.39,3.11,3.11,3.11Z"/>
      <path class="cls-1" d="M430.37,144.45c1.72,0,3.11-1.39,3.11-3.11s-1.39-3.11-3.11-3.11-3.11,1.39-3.11,3.11,1.39,3.11,3.11,3.11Z"/>
      <path class="cls-1" d="M581.17,144.45c1.72,0,3.11-1.39,3.11-3.11s-1.39-3.11-3.11-3.11-3.11,1.39-3.11,3.11,1.39,3.11,3.11,3.11Z"/>
      <path class="cls-1" d="M593.73,144.45c1.72,0,3.11-1.39,3.11-3.11s-1.39-3.11-3.11-3.11-3.11,1.39-3.11,3.11,1.39,3.11,3.11,3.11Z"/>
      <path class="cls-1" d="M606.3,144.45c1.72,0,3.11-1.39,3.11-3.11s-1.39-3.11-3.11-3.11-3.11,1.39-3.11,3.11,1.39,3.11,3.11,3.11Z"/>
      <path class="cls-1" d="M618.87,144.45c1.72,0,3.11-1.39,3.11-3.11s-1.39-3.11-3.11-3.11-3.11,1.39-3.11,3.11,1.39,3.11,3.11,3.11Z"/>
      <path class="cls-1" d="M631.43,144.45c1.72,0,3.11-1.39,3.11-3.11s-1.39-3.11-3.11-3.11-3.11,1.39-3.11,3.11,1.39,3.11,3.11,3.11Z"/>
      <path class="cls-1" d="M644,144.45c1.72,0,3.11-1.39,3.11-3.11s-1.39-3.11-3.11-3.11-3.11,1.39-3.11,3.11,1.39,3.11,3.11,3.11Z"/>
      <path class="cls-1" d="M656.57,144.45c1.72,0,3.11-1.39,3.11-3.11s-1.39-3.11-3.11-3.11-3.11,1.39-3.11,3.11,1.39,3.11,3.11,3.11Z"/>
      <path class="cls-1" d="M669.13,144.45c1.72,0,3.11-1.39,3.11-3.11s-1.39-3.11-3.11-3.11-3.11,1.39-3.11,3.11,1.39,3.11,3.11,3.11Z"/>
      <path class="cls-1" d="M681.7,144.45c1.72,0,3.11-1.39,3.11-3.11s-1.39-3.11-3.11-3.11-3.11,1.39-3.11,3.11,1.39,3.11,3.11,3.11Z"/>
      <path class="cls-1" d="M694.26,144.45c1.72,0,3.11-1.39,3.11-3.11s-1.39-3.11-3.11-3.11-3.11,1.39-3.11,3.11,1.39,3.11,3.11,3.11Z"/>
      <path class="cls-1" d="M706.83,144.45c1.72,0,3.11-1.39,3.11-3.11s-1.39-3.11-3.11-3.11-3.11,1.39-3.11,3.11,1.39,3.11,3.11,3.11Z"/>
      <path class="cls-1" d="M3.11,157.02c1.72,0,3.11-1.39,3.11-3.11s-1.39-3.11-3.11-3.11-3.11,1.39-3.11,3.11,1.39,3.11,3.11,3.11Z"/>
      <path class="cls-1" d="M15.68,157.02c1.72,0,3.11-1.39,3.11-3.11s-1.39-3.11-3.11-3.11-3.11,1.39-3.11,3.11,1.39,3.11,3.11,3.11Z"/>
      <path class="cls-1" d="M28.24,157.02c1.72,0,3.11-1.39,3.11-3.11s-1.39-3.11-3.11-3.11-3.11,1.39-3.11,3.11,1.39,3.11,3.11,3.11Z"/>
      <path class="cls-1" d="M40.81,157.02c1.72,0,3.11-1.39,3.11-3.11s-1.39-3.11-3.11-3.11-3.11,1.39-3.11,3.11,1.39,3.11,3.11,3.11Z"/>
      <path class="cls-1" d="M53.38,157.02c1.72,0,3.11-1.39,3.11-3.11s-1.39-3.11-3.11-3.11-3.11,1.39-3.11,3.11,1.39,3.11,3.11,3.11Z"/>
      <path class="cls-1" d="M65.94,157.02c1.72,0,3.11-1.39,3.11-3.11s-1.39-3.11-3.11-3.11-3.11,1.39-3.11,3.11,1.39,3.11,3.11,3.11Z"/>
      <path class="cls-1" d="M78.51,157.02c1.72,0,3.11-1.39,3.11-3.11s-1.39-3.11-3.11-3.11-3.11,1.39-3.11,3.11,1.39,3.11,3.11,3.11Z"/>
      <path class="cls-1" d="M91.08,157.02c1.72,0,3.11-1.39,3.11-3.11s-1.39-3.11-3.11-3.11-3.11,1.39-3.11,3.11,1.39,3.11,3.11,3.11Z"/>
      <path class="cls-1" d="M103.64,157.02c1.72,0,3.11-1.39,3.11-3.11s-1.39-3.11-3.11-3.11-3.11,1.39-3.11,3.11,1.39,3.11,3.11,3.11Z"/>
      <path class="cls-1" d="M116.21,157.02c1.72,0,3.11-1.39,3.11-3.11s-1.39-3.11-3.11-3.11-3.11,1.39-3.11,3.11,1.39,3.11,3.11,3.11Z"/>
      <path class="cls-1" d="M128.77,157.02c1.72,0,3.11-1.39,3.11-3.11s-1.39-3.11-3.11-3.11-3.11,1.39-3.11,3.11,1.39,3.11,3.11,3.11Z"/>
      <path class="cls-1" d="M141.34,157.02c1.72,0,3.11-1.39,3.11-3.11s-1.39-3.11-3.11-3.11-3.11,1.39-3.11,3.11,1.39,3.11,3.11,3.11Z"/>
      <path class="cls-1" d="M153.91,157.02c1.72,0,3.11-1.39,3.11-3.11s-1.39-3.11-3.11-3.11-3.11,1.39-3.11,3.11,1.39,3.11,3.11,3.11Z"/>
      <path class="cls-1" d="M166.47,157.02c1.72,0,3.11-1.39,3.11-3.11s-1.39-3.11-3.11-3.11-3.11,1.39-3.11,3.11,1.39,3.11,3.11,3.11Z"/>
      <path class="cls-1" d="M179.04,157.02c1.72,0,3.11-1.39,3.11-3.11s-1.39-3.11-3.11-3.11-3.11,1.39-3.11,3.11,1.39,3.11,3.11,3.11Z"/>
      <path class="cls-1" d="M191.61,157.02c1.72,0,3.11-1.39,3.11-3.11s-1.39-3.11-3.11-3.11-3.11,1.39-3.11,3.11,1.39,3.11,3.11,3.11Z"/>
      <path class="cls-1" d="M204.17,157.02c1.72,0,3.11-1.39,3.11-3.11s-1.39-3.11-3.11-3.11-3.11,1.39-3.11,3.11,1.39,3.11,3.11,3.11Z"/>
      <path class="cls-1" d="M216.74,157.02c1.72,0,3.11-1.39,3.11-3.11s-1.39-3.11-3.11-3.11-3.11,1.39-3.11,3.11,1.39,3.11,3.11,3.11Z"/>
      <path class="cls-1" d="M229.31,157.02c1.72,0,3.11-1.39,3.11-3.11s-1.39-3.11-3.11-3.11-3.11,1.39-3.11,3.11,1.39,3.11,3.11,3.11Z"/>
      <path class="cls-1" d="M241.87,157.02c1.72,0,3.11-1.39,3.11-3.11s-1.39-3.11-3.11-3.11-3.11,1.39-3.11,3.11,1.39,3.11,3.11,3.11Z"/>
      <path class="cls-1" d="M254.44,157.02c1.72,0,3.11-1.39,3.11-3.11s-1.39-3.11-3.11-3.11-3.11,1.39-3.11,3.11,1.39,3.11,3.11,3.11Z"/>
      <path class="cls-1" d="M267.01,157.02c1.72,0,3.11-1.39,3.11-3.11s-1.39-3.11-3.11-3.11-3.11,1.39-3.11,3.11,1.39,3.11,3.11,3.11Z"/>
      <path class="cls-1" d="M279.57,157.02c1.72,0,3.11-1.39,3.11-3.11s-1.39-3.11-3.11-3.11-3.11,1.39-3.11,3.11,1.39,3.11,3.11,3.11Z"/>
      <path class="cls-1" d="M292.14,157.02c1.72,0,3.11-1.39,3.11-3.11s-1.39-3.11-3.11-3.11-3.11,1.39-3.11,3.11,1.39,3.11,3.11,3.11Z"/>
      <path class="cls-1" d="M304.7,157.02c1.72,0,3.11-1.39,3.11-3.11s-1.39-3.11-3.11-3.11-3.11,1.39-3.11,3.11,1.39,3.11,3.11,3.11Z"/>
      <path class="cls-1" d="M317.27,157.02c1.72,0,3.11-1.39,3.11-3.11s-1.39-3.11-3.11-3.11-3.11,1.39-3.11,3.11,1.39,3.11,3.11,3.11Z"/>
      <path class="cls-1" d="M329.84,157.02c1.72,0,3.11-1.39,3.11-3.11s-1.39-3.11-3.11-3.11-3.11,1.39-3.11,3.11,1.39,3.11,3.11,3.11Z"/>
      <path class="cls-1" d="M342.4,157.02c1.72,0,3.11-1.39,3.11-3.11s-1.39-3.11-3.11-3.11-3.11,1.39-3.11,3.11,1.39,3.11,3.11,3.11Z"/>
      <path class="cls-1" d="M354.97,157.02c1.72,0,3.11-1.39,3.11-3.11s-1.39-3.11-3.11-3.11-3.11,1.39-3.11,3.11,1.39,3.11,3.11,3.11Z"/>
      <path class="cls-1" d="M367.54,157.02c1.72,0,3.11-1.39,3.11-3.11s-1.39-3.11-3.11-3.11-3.11,1.39-3.11,3.11,1.39,3.11,3.11,3.11Z"/>
      <path class="cls-1" d="M380.1,157.02c1.72,0,3.11-1.39,3.11-3.11s-1.39-3.11-3.11-3.11-3.11,1.39-3.11,3.11,1.39,3.11,3.11,3.11Z"/>
      <path class="cls-1" d="M392.67,157.02c1.72,0,3.11-1.39,3.11-3.11s-1.39-3.11-3.11-3.11-3.11,1.39-3.11,3.11,1.39,3.11,3.11,3.11Z"/>
      <path class="cls-1" d="M405.24,157.02c1.72,0,3.11-1.39,3.11-3.11s-1.39-3.11-3.11-3.11-3.11,1.39-3.11,3.11,1.39,3.11,3.11,3.11Z"/>
      <path class="cls-1" d="M417.8,157.02c1.72,0,3.11-1.39,3.11-3.11s-1.39-3.11-3.11-3.11-3.11,1.39-3.11,3.11,1.39,3.11,3.11,3.11Z"/>
      <path class="cls-1" d="M581.17,157.02c1.72,0,3.11-1.39,3.11-3.11s-1.39-3.11-3.11-3.11-3.11,1.39-3.11,3.11,1.39,3.11,3.11,3.11Z"/>
      <path class="cls-1" d="M593.73,157.02c1.72,0,3.11-1.39,3.11-3.11s-1.39-3.11-3.11-3.11-3.11,1.39-3.11,3.11,1.39,3.11,3.11,3.11Z"/>
      <path class="cls-1" d="M606.3,157.02c1.72,0,3.11-1.39,3.11-3.11s-1.39-3.11-3.11-3.11-3.11,1.39-3.11,3.11,1.39,3.11,3.11,3.11Z"/>
      <path class="cls-1" d="M631.43,157.02c1.72,0,3.11-1.39,3.11-3.11s-1.39-3.11-3.11-3.11-3.11,1.39-3.11,3.11,1.39,3.11,3.11,3.11Z"/>
      <path class="cls-1" d="M644,157.02c1.72,0,3.11-1.39,3.11-3.11s-1.39-3.11-3.11-3.11-3.11,1.39-3.11,3.11,1.39,3.11,3.11,3.11Z"/>
      <path class="cls-1" d="M656.57,157.02c1.72,0,3.11-1.39,3.11-3.11s-1.39-3.11-3.11-3.11-3.11,1.39-3.11,3.11,1.39,3.11,3.11,3.11Z"/>
      <path class="cls-1" d="M669.13,157.02c1.72,0,3.11-1.39,3.11-3.11s-1.39-3.11-3.11-3.11-3.11,1.39-3.11,3.11,1.39,3.11,3.11,3.11Z"/>
      <path class="cls-1" d="M681.7,157.02c1.72,0,3.11-1.39,3.11-3.11s-1.39-3.11-3.11-3.11-3.11,1.39-3.11,3.11,1.39,3.11,3.11,3.11Z"/>
      <path class="cls-1" d="M694.26,157.02c1.72,0,3.11-1.39,3.11-3.11s-1.39-3.11-3.11-3.11-3.11,1.39-3.11,3.11,1.39,3.11,3.11,3.11Z"/>
      <path class="cls-1" d="M706.83,157.02c1.72,0,3.11-1.39,3.11-3.11s-1.39-3.11-3.11-3.11-3.11,1.39-3.11,3.11,1.39,3.11,3.11,3.11Z"/>
      <path class="cls-1" d="M3.11,169.58c1.72,0,3.11-1.39,3.11-3.11s-1.39-3.11-3.11-3.11-3.11,1.39-3.11,3.11,1.39,3.11,3.11,3.11Z"/>
      <path class="cls-1" d="M15.68,169.58c1.72,0,3.11-1.39,3.11-3.11s-1.39-3.11-3.11-3.11-3.11,1.39-3.11,3.11,1.39,3.11,3.11,3.11Z"/>
      <path class="cls-1" d="M28.24,169.58c1.72,0,3.11-1.39,3.11-3.11s-1.39-3.11-3.11-3.11-3.11,1.39-3.11,3.11,1.39,3.11,3.11,3.11Z"/>
      <path class="cls-1" d="M40.81,169.58c1.72,0,3.11-1.39,3.11-3.11s-1.39-3.11-3.11-3.11-3.11,1.39-3.11,3.11,1.39,3.11,3.11,3.11Z"/>
      <path class="cls-1" d="M53.38,169.58c1.72,0,3.11-1.39,3.11-3.11s-1.39-3.11-3.11-3.11-3.11,1.39-3.11,3.11,1.39,3.11,3.11,3.11Z"/>
      <path class="cls-1" d="M65.94,169.58c1.72,0,3.11-1.39,3.11-3.11s-1.39-3.11-3.11-3.11-3.11,1.39-3.11,3.11,1.39,3.11,3.11,3.11Z"/>
      <path class="cls-1" d="M78.51,169.58c1.72,0,3.11-1.39,3.11-3.11s-1.39-3.11-3.11-3.11-3.11,1.39-3.11,3.11,1.39,3.11,3.11,3.11Z"/>
      <path class="cls-1" d="M91.08,169.58c1.72,0,3.11-1.39,3.11-3.11s-1.39-3.11-3.11-3.11-3.11,1.39-3.11,3.11,1.39,3.11,3.11,3.11Z"/>
      <path class="cls-1" d="M103.64,169.58c1.72,0,3.11-1.39,3.11-3.11s-1.39-3.11-3.11-3.11-3.11,1.39-3.11,3.11,1.39,3.11,3.11,3.11Z"/>
      <path class="cls-1" d="M116.21,169.58c1.72,0,3.11-1.39,3.11-3.11s-1.39-3.11-3.11-3.11-3.11,1.39-3.11,3.11,1.39,3.11,3.11,3.11Z"/>
      <path class="cls-1" d="M128.77,169.58c1.72,0,3.11-1.39,3.11-3.11s-1.39-3.11-3.11-3.11-3.11,1.39-3.11,3.11,1.39,3.11,3.11,3.11Z"/>
      <path class="cls-1" d="M141.34,169.58c1.72,0,3.11-1.39,3.11-3.11s-1.39-3.11-3.11-3.11-3.11,1.39-3.11,3.11,1.39,3.11,3.11,3.11Z"/>
      <path class="cls-1" d="M153.91,169.58c1.72,0,3.11-1.39,3.11-3.11s-1.39-3.11-3.11-3.11-3.11,1.39-3.11,3.11,1.39,3.11,3.11,3.11Z"/>
      <path class="cls-1" d="M166.47,169.58c1.72,0,3.11-1.39,3.11-3.11s-1.39-3.11-3.11-3.11-3.11,1.39-3.11,3.11,1.39,3.11,3.11,3.11Z"/>
      <path class="cls-1" d="M179.04,169.58c1.72,0,3.11-1.39,3.11-3.11s-1.39-3.11-3.11-3.11-3.11,1.39-3.11,3.11,1.39,3.11,3.11,3.11Z"/>
      <path class="cls-1" d="M191.61,169.58c1.72,0,3.11-1.39,3.11-3.11s-1.39-3.11-3.11-3.11-3.11,1.39-3.11,3.11,1.39,3.11,3.11,3.11Z"/>
      <path class="cls-1" d="M204.17,169.58c1.72,0,3.11-1.39,3.11-3.11s-1.39-3.11-3.11-3.11-3.11,1.39-3.11,3.11,1.39,3.11,3.11,3.11Z"/>
      <path class="cls-1" d="M216.74,169.58c1.72,0,3.11-1.39,3.11-3.11s-1.39-3.11-3.11-3.11-3.11,1.39-3.11,3.11,1.39,3.11,3.11,3.11Z"/>
      <path class="cls-1" d="M229.31,169.58c1.72,0,3.11-1.39,3.11-3.11s-1.39-3.11-3.11-3.11-3.11,1.39-3.11,3.11,1.39,3.11,3.11,3.11Z"/>
      <path class="cls-1" d="M241.87,169.58c1.72,0,3.11-1.39,3.11-3.11s-1.39-3.11-3.11-3.11-3.11,1.39-3.11,3.11,1.39,3.11,3.11,3.11Z"/>
      <path class="cls-1" d="M254.44,169.58c1.72,0,3.11-1.39,3.11-3.11s-1.39-3.11-3.11-3.11-3.11,1.39-3.11,3.11,1.39,3.11,3.11,3.11Z"/>
      <path class="cls-1" d="M267.01,169.58c1.72,0,3.11-1.39,3.11-3.11s-1.39-3.11-3.11-3.11-3.11,1.39-3.11,3.11,1.39,3.11,3.11,3.11Z"/>
      <path class="cls-1" d="M279.57,169.58c1.72,0,3.11-1.39,3.11-3.11s-1.39-3.11-3.11-3.11-3.11,1.39-3.11,3.11,1.39,3.11,3.11,3.11Z"/>
      <path class="cls-1" d="M292.14,169.58c1.72,0,3.11-1.39,3.11-3.11s-1.39-3.11-3.11-3.11-3.11,1.39-3.11,3.11,1.39,3.11,3.11,3.11Z"/>
      <path class="cls-1" d="M304.7,169.58c1.72,0,3.11-1.39,3.11-3.11s-1.39-3.11-3.11-3.11-3.11,1.39-3.11,3.11,1.39,3.11,3.11,3.11Z"/>
      <path class="cls-1" d="M317.27,169.58c1.72,0,3.11-1.39,3.11-3.11s-1.39-3.11-3.11-3.11-3.11,1.39-3.11,3.11,1.39,3.11,3.11,3.11Z"/>
      <path class="cls-1" d="M329.84,169.58c1.72,0,3.11-1.39,3.11-3.11s-1.39-3.11-3.11-3.11-3.11,1.39-3.11,3.11,1.39,3.11,3.11,3.11Z"/>
      <path class="cls-1" d="M342.4,169.58c1.72,0,3.11-1.39,3.11-3.11s-1.39-3.11-3.11-3.11-3.11,1.39-3.11,3.11,1.39,3.11,3.11,3.11Z"/>
      <path class="cls-1" d="M354.97,169.58c1.72,0,3.11-1.39,3.11-3.11s-1.39-3.11-3.11-3.11-3.11,1.39-3.11,3.11,1.39,3.11,3.11,3.11Z"/>
      <path class="cls-1" d="M367.54,169.58c1.72,0,3.11-1.39,3.11-3.11s-1.39-3.11-3.11-3.11-3.11,1.39-3.11,3.11,1.39,3.11,3.11,3.11Z"/>
      <path class="cls-1" d="M380.1,169.58c1.72,0,3.11-1.39,3.11-3.11s-1.39-3.11-3.11-3.11-3.11,1.39-3.11,3.11,1.39,3.11,3.11,3.11Z"/>
      <path class="cls-1" d="M392.67,169.58c1.72,0,3.11-1.39,3.11-3.11s-1.39-3.11-3.11-3.11-3.11,1.39-3.11,3.11,1.39,3.11,3.11,3.11Z"/>
      <path class="cls-1" d="M593.73,169.58c1.72,0,3.11-1.39,3.11-3.11s-1.39-3.11-3.11-3.11-3.11,1.39-3.11,3.11,1.39,3.11,3.11,3.11Z"/>
      <path class="cls-1" d="M606.3,169.58c1.72,0,3.11-1.39,3.11-3.11s-1.39-3.11-3.11-3.11-3.11,1.39-3.11,3.11,1.39,3.11,3.11,3.11Z"/>
      <path class="cls-1" d="M618.87,169.58c1.72,0,3.11-1.39,3.11-3.11s-1.39-3.11-3.11-3.11-3.11,1.39-3.11,3.11,1.39,3.11,3.11,3.11Z"/>
      <path class="cls-1" d="M631.43,169.58c1.72,0,3.11-1.39,3.11-3.11s-1.39-3.11-3.11-3.11-3.11,1.39-3.11,3.11,1.39,3.11,3.11,3.11Z"/>
      <path class="cls-1" d="M644,169.58c1.72,0,3.11-1.39,3.11-3.11s-1.39-3.11-3.11-3.11-3.11,1.39-3.11,3.11,1.39,3.11,3.11,3.11Z"/>
      <path class="cls-1" d="M656.57,169.58c1.72,0,3.11-1.39,3.11-3.11s-1.39-3.11-3.11-3.11-3.11,1.39-3.11,3.11,1.39,3.11,3.11,3.11Z"/>
      <path class="cls-1" d="M669.13,169.58c1.72,0,3.11-1.39,3.11-3.11s-1.39-3.11-3.11-3.11-3.11,1.39-3.11,3.11,1.39,3.11,3.11,3.11Z"/>
      <path class="cls-1" d="M681.7,169.58c1.72,0,3.11-1.39,3.11-3.11s-1.39-3.11-3.11-3.11-3.11,1.39-3.11,3.11,1.39,3.11,3.11,3.11Z"/>
      <path class="cls-1" d="M694.26,169.58c1.72,0,3.11-1.39,3.11-3.11s-1.39-3.11-3.11-3.11-3.11,1.39-3.11,3.11,1.39,3.11,3.11,3.11Z"/>
      <path class="cls-1" d="M706.83,169.58c1.72,0,3.11-1.39,3.11-3.11s-1.39-3.11-3.11-3.11-3.11,1.39-3.11,3.11,1.39,3.11,3.11,3.11Z"/>
      <path class="cls-1" d="M719.4,169.58c1.72,0,3.11-1.39,3.11-3.11s-1.39-3.11-3.11-3.11-3.11,1.39-3.11,3.11,1.39,3.11,3.11,3.11Z"/>
      <path class="cls-1" d="M103.64,182.15c1.72,0,3.11-1.39,3.11-3.11s-1.39-3.11-3.11-3.11-3.11,1.39-3.11,3.11,1.39,3.11,3.11,3.11Z"/>
      <path class="cls-1" d="M116.21,182.15c1.72,0,3.11-1.39,3.11-3.11s-1.39-3.11-3.11-3.11-3.11,1.39-3.11,3.11,1.39,3.11,3.11,3.11Z"/>
      <path class="cls-1" d="M128.77,182.15c1.72,0,3.11-1.39,3.11-3.11s-1.39-3.11-3.11-3.11-3.11,1.39-3.11,3.11,1.39,3.11,3.11,3.11Z"/>
      <path class="cls-1" d="M141.34,182.15c1.72,0,3.11-1.39,3.11-3.11s-1.39-3.11-3.11-3.11-3.11,1.39-3.11,3.11,1.39,3.11,3.11,3.11Z"/>
      <path class="cls-1" d="M153.91,182.15c1.72,0,3.11-1.39,3.11-3.11s-1.39-3.11-3.11-3.11-3.11,1.39-3.11,3.11,1.39,3.11,3.11,3.11Z"/>
      <path class="cls-1" d="M166.47,182.15c1.72,0,3.11-1.39,3.11-3.11s-1.39-3.11-3.11-3.11-3.11,1.39-3.11,3.11,1.39,3.11,3.11,3.11Z"/>
      <path class="cls-1" d="M179.04,182.15c1.72,0,3.11-1.39,3.11-3.11s-1.39-3.11-3.11-3.11-3.11,1.39-3.11,3.11,1.39,3.11,3.11,3.11Z"/>
      <path class="cls-1" d="M191.61,182.15c1.72,0,3.11-1.39,3.11-3.11s-1.39-3.11-3.11-3.11-3.11,1.39-3.11,3.11,1.39,3.11,3.11,3.11Z"/>
      <path class="cls-1" d="M204.17,182.15c1.72,0,3.11-1.39,3.11-3.11s-1.39-3.11-3.11-3.11-3.11,1.39-3.11,3.11,1.39,3.11,3.11,3.11Z"/>
      <path class="cls-1" d="M216.74,182.15c1.72,0,3.11-1.39,3.11-3.11s-1.39-3.11-3.11-3.11-3.11,1.39-3.11,3.11,1.39,3.11,3.11,3.11Z"/>
      <path class="cls-1" d="M229.31,182.15c1.72,0,3.11-1.39,3.11-3.11s-1.39-3.11-3.11-3.11-3.11,1.39-3.11,3.11,1.39,3.11,3.11,3.11Z"/>
      <path class="cls-1" d="M241.87,182.15c1.72,0,3.11-1.39,3.11-3.11s-1.39-3.11-3.11-3.11-3.11,1.39-3.11,3.11,1.39,3.11,3.11,3.11Z"/>
      <path class="cls-1" d="M254.44,182.15c1.72,0,3.11-1.39,3.11-3.11s-1.39-3.11-3.11-3.11-3.11,1.39-3.11,3.11,1.39,3.11,3.11,3.11Z"/>
      <path class="cls-1" d="M267.01,182.15c1.72,0,3.11-1.39,3.11-3.11s-1.39-3.11-3.11-3.11-3.11,1.39-3.11,3.11,1.39,3.11,3.11,3.11Z"/>
      <path class="cls-1" d="M279.57,182.15c1.72,0,3.11-1.39,3.11-3.11s-1.39-3.11-3.11-3.11-3.11,1.39-3.11,3.11,1.39,3.11,3.11,3.11Z"/>
      <path class="cls-1" d="M292.14,182.15c1.72,0,3.11-1.39,3.11-3.11s-1.39-3.11-3.11-3.11-3.11,1.39-3.11,3.11,1.39,3.11,3.11,3.11Z"/>
      <path class="cls-1" d="M304.7,182.15c1.72,0,3.11-1.39,3.11-3.11s-1.39-3.11-3.11-3.11-3.11,1.39-3.11,3.11,1.39,3.11,3.11,3.11Z"/>
      <path class="cls-1" d="M317.27,182.15c1.72,0,3.11-1.39,3.11-3.11s-1.39-3.11-3.11-3.11-3.11,1.39-3.11,3.11,1.39,3.11,3.11,3.11Z"/>
      <path class="cls-1" d="M329.84,182.15c1.72,0,3.11-1.39,3.11-3.11s-1.39-3.11-3.11-3.11-3.11,1.39-3.11,3.11,1.39,3.11,3.11,3.11Z"/>
      <path class="cls-1" d="M342.4,182.15c1.72,0,3.11-1.39,3.11-3.11s-1.39-3.11-3.11-3.11-3.11,1.39-3.11,3.11,1.39,3.11,3.11,3.11Z"/>
      <path class="cls-1" d="M606.3,182.15c1.72,0,3.11-1.39,3.11-3.11s-1.39-3.11-3.11-3.11-3.11,1.39-3.11,3.11,1.39,3.11,3.11,3.11Z"/>
      <path class="cls-1" d="M618.87,182.15c1.72,0,3.11-1.39,3.11-3.11s-1.39-3.11-3.11-3.11-3.11,1.39-3.11,3.11,1.39,3.11,3.11,3.11Z"/>
      <path class="cls-1" d="M631.43,182.15c1.72,0,3.11-1.39,3.11-3.11s-1.39-3.11-3.11-3.11-3.11,1.39-3.11,3.11,1.39,3.11,3.11,3.11Z"/>
      <path class="cls-1" d="M644,182.15c1.72,0,3.11-1.39,3.11-3.11s-1.39-3.11-3.11-3.11-3.11,1.39-3.11,3.11,1.39,3.11,3.11,3.11Z"/>
      <path class="cls-1" d="M656.57,182.15c1.72,0,3.11-1.39,3.11-3.11s-1.39-3.11-3.11-3.11-3.11,1.39-3.11,3.11,1.39,3.11,3.11,3.11Z"/>
      <path class="cls-1" d="M669.13,182.15c1.72,0,3.11-1.39,3.11-3.11s-1.39-3.11-3.11-3.11-3.11,1.39-3.11,3.11,1.39,3.11,3.11,3.11Z"/>
      <path class="cls-1" d="M681.7,182.15c1.72,0,3.11-1.39,3.11-3.11s-1.39-3.11-3.11-3.11-3.11,1.39-3.11,3.11,1.39,3.11,3.11,3.11Z"/>
      <path class="cls-1" d="M694.26,182.15c1.72,0,3.11-1.39,3.11-3.11s-1.39-3.11-3.11-3.11-3.11,1.39-3.11,3.11,1.39,3.11,3.11,3.11Z"/>
      <path class="cls-1" d="M706.83,182.15c1.72,0,3.11-1.39,3.11-3.11s-1.39-3.11-3.11-3.11-3.11,1.39-3.11,3.11,1.39,3.11,3.11,3.11Z"/>
      <path class="cls-1" d="M719.4,182.15c1.72,0,3.11-1.39,3.11-3.11s-1.39-3.11-3.11-3.11-3.11,1.39-3.11,3.11,1.39,3.11,3.11,3.11Z"/>
      <path class="cls-1" d="M166.47,194.72c1.72,0,3.11-1.39,3.11-3.11s-1.39-3.11-3.11-3.11-3.11,1.39-3.11,3.11,1.39,3.11,3.11,3.11Z"/>
      <path class="cls-1" d="M179.04,194.72c1.72,0,3.11-1.39,3.11-3.11s-1.39-3.11-3.11-3.11-3.11,1.39-3.11,3.11,1.39,3.11,3.11,3.11Z"/>
      <path class="cls-1" d="M191.61,194.72c1.72,0,3.11-1.39,3.11-3.11s-1.39-3.11-3.11-3.11-3.11,1.39-3.11,3.11,1.39,3.11,3.11,3.11Z"/>
      <path class="cls-1" d="M204.17,194.72c1.72,0,3.11-1.39,3.11-3.11s-1.39-3.11-3.11-3.11-3.11,1.39-3.11,3.11,1.39,3.11,3.11,3.11Z"/>
      <path class="cls-1" d="M216.74,194.72c1.72,0,3.11-1.39,3.11-3.11s-1.39-3.11-3.11-3.11-3.11,1.39-3.11,3.11,1.39,3.11,3.11,3.11Z"/>
      <path class="cls-1" d="M229.31,194.72c1.72,0,3.11-1.39,3.11-3.11s-1.39-3.11-3.11-3.11-3.11,1.39-3.11,3.11,1.39,3.11,3.11,3.11Z"/>
      <path class="cls-1" d="M241.87,194.72c1.72,0,3.11-1.39,3.11-3.11s-1.39-3.11-3.11-3.11-3.11,1.39-3.11,3.11,1.39,3.11,3.11,3.11Z"/>
      <path class="cls-1" d="M254.44,194.72c1.72,0,3.11-1.39,3.11-3.11s-1.39-3.11-3.11-3.11-3.11,1.39-3.11,3.11,1.39,3.11,3.11,3.11Z"/>
      <path class="cls-1" d="M267.01,194.72c1.72,0,3.11-1.39,3.11-3.11s-1.39-3.11-3.11-3.11-3.11,1.39-3.11,3.11,1.39,3.11,3.11,3.11Z"/>
      <path class="cls-1" d="M279.57,194.72c1.72,0,3.11-1.39,3.11-3.11s-1.39-3.11-3.11-3.11-3.11,1.39-3.11,3.11,1.39,3.11,3.11,3.11Z"/>
      <path class="cls-1" d="M292.14,194.72c1.72,0,3.11-1.39,3.11-3.11s-1.39-3.11-3.11-3.11-3.11,1.39-3.11,3.11,1.39,3.11,3.11,3.11Z"/>
      <path class="cls-1" d="M304.7,194.72c1.72,0,3.11-1.39,3.11-3.11s-1.39-3.11-3.11-3.11-3.11,1.39-3.11,3.11,1.39,3.11,3.11,3.11Z"/>
      <path class="cls-1" d="M317.27,194.72c1.72,0,3.11-1.39,3.11-3.11s-1.39-3.11-3.11-3.11-3.11,1.39-3.11,3.11,1.39,3.11,3.11,3.11Z"/>
      <path class="cls-1" d="M329.84,194.72c1.72,0,3.11-1.39,3.11-3.11s-1.39-3.11-3.11-3.11-3.11,1.39-3.11,3.11,1.39,3.11,3.11,3.11Z"/>
      <path class="cls-1" d="M593.73,194.72c1.72,0,3.11-1.39,3.11-3.11s-1.39-3.11-3.11-3.11-3.11,1.39-3.11,3.11,1.39,3.11,3.11,3.11Z"/>
      <path class="cls-1" d="M606.3,194.72c1.72,0,3.11-1.39,3.11-3.11s-1.39-3.11-3.11-3.11-3.11,1.39-3.11,3.11,1.39,3.11,3.11,3.11Z"/>
      <path class="cls-1" d="M618.87,194.72c1.72,0,3.11-1.39,3.11-3.11s-1.39-3.11-3.11-3.11-3.11,1.39-3.11,3.11,1.39,3.11,3.11,3.11Z"/>
      <path class="cls-1" d="M631.43,194.72c1.72,0,3.11-1.39,3.11-3.11s-1.39-3.11-3.11-3.11-3.11,1.39-3.11,3.11,1.39,3.11,3.11,3.11Z"/>
      <path class="cls-1" d="M644,194.72c1.72,0,3.11-1.39,3.11-3.11s-1.39-3.11-3.11-3.11-3.11,1.39-3.11,3.11,1.39,3.11,3.11,3.11Z"/>
      <path class="cls-1" d="M656.57,194.72c1.72,0,3.11-1.39,3.11-3.11s-1.39-3.11-3.11-3.11-3.11,1.39-3.11,3.11,1.39,3.11,3.11,3.11Z"/>
      <path class="cls-1" d="M669.13,194.72c1.72,0,3.11-1.39,3.11-3.11s-1.39-3.11-3.11-3.11-3.11,1.39-3.11,3.11,1.39,3.11,3.11,3.11Z"/>
      <path class="cls-1" d="M681.7,194.72c1.72,0,3.11-1.39,3.11-3.11s-1.39-3.11-3.11-3.11-3.11,1.39-3.11,3.11,1.39,3.11,3.11,3.11Z"/>
      <path class="cls-1" d="M694.26,194.72c1.72,0,3.11-1.39,3.11-3.11s-1.39-3.11-3.11-3.11-3.11,1.39-3.11,3.11,1.39,3.11,3.11,3.11Z"/>
      <path class="cls-1" d="M706.83,194.72c1.72,0,3.11-1.39,3.11-3.11s-1.39-3.11-3.11-3.11-3.11,1.39-3.11,3.11,1.39,3.11,3.11,3.11Z"/>
      <path class="cls-1" d="M719.4,194.72c1.72,0,3.11-1.39,3.11-3.11s-1.39-3.11-3.11-3.11-3.11,1.39-3.11,3.11,1.39,3.11,3.11,3.11Z"/>
      <path class="cls-1" d="M166.47,207.28c1.72,0,3.11-1.39,3.11-3.11s-1.39-3.11-3.11-3.11-3.11,1.39-3.11,3.11,1.39,3.11,3.11,3.11Z"/>
      <path class="cls-1" d="M179.04,207.28c1.72,0,3.11-1.39,3.11-3.11s-1.39-3.11-3.11-3.11-3.11,1.39-3.11,3.11,1.39,3.11,3.11,3.11Z"/>
      <path class="cls-1" d="M191.61,207.28c1.72,0,3.11-1.39,3.11-3.11s-1.39-3.11-3.11-3.11-3.11,1.39-3.11,3.11,1.39,3.11,3.11,3.11Z"/>
      <path class="cls-1" d="M204.17,207.28c1.72,0,3.11-1.39,3.11-3.11s-1.39-3.11-3.11-3.11-3.11,1.39-3.11,3.11,1.39,3.11,3.11,3.11Z"/>
      <path class="cls-1" d="M216.74,207.28c1.72,0,3.11-1.39,3.11-3.11s-1.39-3.11-3.11-3.11-3.11,1.39-3.11,3.11,1.39,3.11,3.11,3.11Z"/>
      <path class="cls-1" d="M229.31,207.28c1.72,0,3.11-1.39,3.11-3.11s-1.39-3.11-3.11-3.11-3.11,1.39-3.11,3.11,1.39,3.11,3.11,3.11Z"/>
      <path class="cls-1" d="M241.87,207.28c1.72,0,3.11-1.39,3.11-3.11s-1.39-3.11-3.11-3.11-3.11,1.39-3.11,3.11,1.39,3.11,3.11,3.11Z"/>
      <path class="cls-1" d="M254.44,207.28c1.72,0,3.11-1.39,3.11-3.11s-1.39-3.11-3.11-3.11-3.11,1.39-3.11,3.11,1.39,3.11,3.11,3.11Z"/>
      <path class="cls-1" d="M267.01,207.28c1.72,0,3.11-1.39,3.11-3.11s-1.39-3.11-3.11-3.11-3.11,1.39-3.11,3.11,1.39,3.11,3.11,3.11Z"/>
      <path class="cls-1" d="M279.57,207.28c1.72,0,3.11-1.39,3.11-3.11s-1.39-3.11-3.11-3.11-3.11,1.39-3.11,3.11,1.39,3.11,3.11,3.11Z"/>
      <path class="cls-1" d="M292.14,207.28c1.72,0,3.11-1.39,3.11-3.11s-1.39-3.11-3.11-3.11-3.11,1.39-3.11,3.11,1.39,3.11,3.11,3.11Z"/>
      <path class="cls-1" d="M304.7,207.28c1.72,0,3.11-1.39,3.11-3.11s-1.39-3.11-3.11-3.11-3.11,1.39-3.11,3.11,1.39,3.11,3.11,3.11Z"/>
      <path class="cls-1" d="M317.27,207.28c1.72,0,3.11-1.39,3.11-3.11s-1.39-3.11-3.11-3.11-3.11,1.39-3.11,3.11,1.39,3.11,3.11,3.11Z"/>
      <path class="cls-1" d="M329.84,207.28c1.72,0,3.11-1.39,3.11-3.11s-1.39-3.11-3.11-3.11-3.11,1.39-3.11,3.11,1.39,3.11,3.11,3.11Z"/>
      <path class="cls-1" d="M342.4,207.28c1.72,0,3.11-1.39,3.11-3.11s-1.39-3.11-3.11-3.11-3.11,1.39-3.11,3.11,1.39,3.11,3.11,3.11Z"/>
      <path class="cls-1" d="M581.17,207.28c1.72,0,3.11-1.39,3.11-3.11s-1.39-3.11-3.11-3.11-3.11,1.39-3.11,3.11,1.39,3.11,3.11,3.11Z"/>
      <path class="cls-1" d="M593.73,207.28c1.72,0,3.11-1.39,3.11-3.11s-1.39-3.11-3.11-3.11-3.11,1.39-3.11,3.11,1.39,3.11,3.11,3.11Z"/>
      <path class="cls-1" d="M606.3,207.28c1.72,0,3.11-1.39,3.11-3.11s-1.39-3.11-3.11-3.11-3.11,1.39-3.11,3.11,1.39,3.11,3.11,3.11Z"/>
      <path class="cls-1" d="M618.87,207.28c1.72,0,3.11-1.39,3.11-3.11s-1.39-3.11-3.11-3.11-3.11,1.39-3.11,3.11,1.39,3.11,3.11,3.11Z"/>
      <path class="cls-1" d="M631.43,207.28c1.72,0,3.11-1.39,3.11-3.11s-1.39-3.11-3.11-3.11-3.11,1.39-3.11,3.11,1.39,3.11,3.11,3.11Z"/>
      <path class="cls-1" d="M644,207.28c1.72,0,3.11-1.39,3.11-3.11s-1.39-3.11-3.11-3.11-3.11,1.39-3.11,3.11,1.39,3.11,3.11,3.11Z"/>
      <path class="cls-1" d="M656.57,207.28c1.72,0,3.11-1.39,3.11-3.11s-1.39-3.11-3.11-3.11-3.11,1.39-3.11,3.11,1.39,3.11,3.11,3.11Z"/>
      <path class="cls-1" d="M669.13,207.28c1.72,0,3.11-1.39,3.11-3.11s-1.39-3.11-3.11-3.11-3.11,1.39-3.11,3.11,1.39,3.11,3.11,3.11Z"/>
      <path class="cls-1" d="M681.7,207.28c1.72,0,3.11-1.39,3.11-3.11s-1.39-3.11-3.11-3.11-3.11,1.39-3.11,3.11,1.39,3.11,3.11,3.11Z"/>
      <path class="cls-1" d="M694.26,207.28c1.72,0,3.11-1.39,3.11-3.11s-1.39-3.11-3.11-3.11-3.11,1.39-3.11,3.11,1.39,3.11,3.11,3.11Z"/>
      <path class="cls-1" d="M706.83,207.28c1.72,0,3.11-1.39,3.11-3.11s-1.39-3.11-3.11-3.11-3.11,1.39-3.11,3.11,1.39,3.11,3.11,3.11Z"/>
      <path class="cls-1" d="M719.4,207.28c1.72,0,3.11-1.39,3.11-3.11s-1.39-3.11-3.11-3.11-3.11,1.39-3.11,3.11,1.39,3.11,3.11,3.11Z"/>
      <path class="cls-1" d="M179.04,219.85c1.72,0,3.11-1.39,3.11-3.11s-1.39-3.11-3.11-3.11-3.11,1.39-3.11,3.11,1.39,3.11,3.11,3.11Z"/>
      <path class="cls-1" d="M191.61,219.85c1.72,0,3.11-1.39,3.11-3.11s-1.39-3.11-3.11-3.11-3.11,1.39-3.11,3.11,1.39,3.11,3.11,3.11Z"/>
      <path class="cls-1" d="M204.17,219.85c1.72,0,3.11-1.39,3.11-3.11s-1.39-3.11-3.11-3.11-3.11,1.39-3.11,3.11,1.39,3.11,3.11,3.11Z"/>
      <path class="cls-1" d="M216.74,219.85c1.72,0,3.11-1.39,3.11-3.11s-1.39-3.11-3.11-3.11-3.11,1.39-3.11,3.11,1.39,3.11,3.11,3.11Z"/>
      <path class="cls-1" d="M229.31,219.85c1.72,0,3.11-1.39,3.11-3.11s-1.39-3.11-3.11-3.11-3.11,1.39-3.11,3.11,1.39,3.11,3.11,3.11Z"/>
      <path class="cls-1" d="M241.87,219.85c1.72,0,3.11-1.39,3.11-3.11s-1.39-3.11-3.11-3.11-3.11,1.39-3.11,3.11,1.39,3.11,3.11,3.11Z"/>
      <path class="cls-1" d="M254.44,219.85c1.72,0,3.11-1.39,3.11-3.11s-1.39-3.11-3.11-3.11-3.11,1.39-3.11,3.11,1.39,3.11,3.11,3.11Z"/>
      <path class="cls-1" d="M267.01,219.85c1.72,0,3.11-1.39,3.11-3.11s-1.39-3.11-3.11-3.11-3.11,1.39-3.11,3.11,1.39,3.11,3.11,3.11Z"/>
      <path class="cls-1" d="M279.57,219.85c1.72,0,3.11-1.39,3.11-3.11s-1.39-3.11-3.11-3.11-3.11,1.39-3.11,3.11,1.39,3.11,3.11,3.11Z"/>
      <path class="cls-1" d="M292.14,219.85c1.72,0,3.11-1.39,3.11-3.11s-1.39-3.11-3.11-3.11-3.11,1.39-3.11,3.11,1.39,3.11,3.11,3.11Z"/>
      <path class="cls-1" d="M304.7,219.85c1.72,0,3.11-1.39,3.11-3.11s-1.39-3.11-3.11-3.11-3.11,1.39-3.11,3.11,1.39,3.11,3.11,3.11Z"/>
      <path class="cls-1" d="M317.27,219.85c1.72,0,3.11-1.39,3.11-3.11s-1.39-3.11-3.11-3.11-3.11,1.39-3.11,3.11,1.39,3.11,3.11,3.11Z"/>
      <path class="cls-1" d="M329.84,219.85c1.72,0,3.11-1.39,3.11-3.11s-1.39-3.11-3.11-3.11-3.11,1.39-3.11,3.11,1.39,3.11,3.11,3.11Z"/>
      <path class="cls-1" d="M342.4,219.85c1.72,0,3.11-1.39,3.11-3.11s-1.39-3.11-3.11-3.11-3.11,1.39-3.11,3.11,1.39,3.11,3.11,3.11Z"/>
      <path class="cls-1" d="M354.97,219.85c1.72,0,3.11-1.39,3.11-3.11s-1.39-3.11-3.11-3.11-3.11,1.39-3.11,3.11,1.39,3.11,3.11,3.11Z"/>
      <path class="cls-1" d="M581.17,219.85c1.72,0,3.11-1.39,3.11-3.11s-1.39-3.11-3.11-3.11-3.11,1.39-3.11,3.11,1.39,3.11,3.11,3.11Z"/>
      <path class="cls-1" d="M593.73,219.85c1.72,0,3.11-1.39,3.11-3.11s-1.39-3.11-3.11-3.11-3.11,1.39-3.11,3.11,1.39,3.11,3.11,3.11Z"/>
      <path class="cls-1" d="M606.3,219.85c1.72,0,3.11-1.39,3.11-3.11s-1.39-3.11-3.11-3.11-3.11,1.39-3.11,3.11,1.39,3.11,3.11,3.11Z"/>
      <path class="cls-1" d="M618.87,219.85c1.72,0,3.11-1.39,3.11-3.11s-1.39-3.11-3.11-3.11-3.11,1.39-3.11,3.11,1.39,3.11,3.11,3.11Z"/>
      <path class="cls-1" d="M631.43,219.85c1.72,0,3.11-1.39,3.11-3.11s-1.39-3.11-3.11-3.11-3.11,1.39-3.11,3.11,1.39,3.11,3.11,3.11Z"/>
      <path class="cls-1" d="M644,219.85c1.72,0,3.11-1.39,3.11-3.11s-1.39-3.11-3.11-3.11-3.11,1.39-3.11,3.11,1.39,3.11,3.11,3.11Z"/>
      <path class="cls-1" d="M656.57,219.85c1.72,0,3.11-1.39,3.11-3.11s-1.39-3.11-3.11-3.11-3.11,1.39-3.11,3.11,1.39,3.11,3.11,3.11Z"/>
      <path class="cls-1" d="M669.13,219.85c1.72,0,3.11-1.39,3.11-3.11s-1.39-3.11-3.11-3.11-3.11,1.39-3.11,3.11,1.39,3.11,3.11,3.11Z"/>
      <path class="cls-1" d="M681.7,219.85c1.72,0,3.11-1.39,3.11-3.11s-1.39-3.11-3.11-3.11-3.11,1.39-3.11,3.11,1.39,3.11,3.11,3.11Z"/>
      <path class="cls-1" d="M694.26,219.85c1.72,0,3.11-1.39,3.11-3.11s-1.39-3.11-3.11-3.11-3.11,1.39-3.11,3.11,1.39,3.11,3.11,3.11Z"/>
      <path class="cls-1" d="M706.83,219.85c1.72,0,3.11-1.39,3.11-3.11s-1.39-3.11-3.11-3.11-3.11,1.39-3.11,3.11,1.39,3.11,3.11,3.11Z"/>
      <path class="cls-1" d="M179.04,232.42c1.72,0,3.11-1.39,3.11-3.11s-1.39-3.11-3.11-3.11-3.11,1.39-3.11,3.11,1.39,3.11,3.11,3.11Z"/>
      <path class="cls-1" d="M191.61,232.42c1.72,0,3.11-1.39,3.11-3.11s-1.39-3.11-3.11-3.11-3.11,1.39-3.11,3.11,1.39,3.11,3.11,3.11Z"/>
      <path class="cls-1" d="M204.17,232.42c1.72,0,3.11-1.39,3.11-3.11s-1.39-3.11-3.11-3.11-3.11,1.39-3.11,3.11,1.39,3.11,3.11,3.11Z"/>
      <path class="cls-1" d="M216.74,232.42c1.72,0,3.11-1.39,3.11-3.11s-1.39-3.11-3.11-3.11-3.11,1.39-3.11,3.11,1.39,3.11,3.11,3.11Z"/>
      <path class="cls-1" d="M229.31,232.42c1.72,0,3.11-1.39,3.11-3.11s-1.39-3.11-3.11-3.11-3.11,1.39-3.11,3.11,1.39,3.11,3.11,3.11Z"/>
      <path class="cls-1" d="M241.87,232.42c1.72,0,3.11-1.39,3.11-3.11s-1.39-3.11-3.11-3.11-3.11,1.39-3.11,3.11,1.39,3.11,3.11,3.11Z"/>
      <path class="cls-1" d="M254.44,232.42c1.72,0,3.11-1.39,3.11-3.11s-1.39-3.11-3.11-3.11-3.11,1.39-3.11,3.11,1.39,3.11,3.11,3.11Z"/>
      <path class="cls-1" d="M267.01,232.42c1.72,0,3.11-1.39,3.11-3.11s-1.39-3.11-3.11-3.11-3.11,1.39-3.11,3.11,1.39,3.11,3.11,3.11Z"/>
      <path class="cls-1" d="M279.57,232.42c1.72,0,3.11-1.39,3.11-3.11s-1.39-3.11-3.11-3.11-3.11,1.39-3.11,3.11,1.39,3.11,3.11,3.11Z"/>
      <path class="cls-1" d="M292.14,232.42c1.72,0,3.11-1.39,3.11-3.11s-1.39-3.11-3.11-3.11-3.11,1.39-3.11,3.11,1.39,3.11,3.11,3.11Z"/>
      <path class="cls-1" d="M304.7,232.42c1.72,0,3.11-1.39,3.11-3.11s-1.39-3.11-3.11-3.11-3.11,1.39-3.11,3.11,1.39,3.11,3.11,3.11Z"/>
      <path class="cls-1" d="M317.27,232.42c1.72,0,3.11-1.39,3.11-3.11s-1.39-3.11-3.11-3.11-3.11,1.39-3.11,3.11,1.39,3.11,3.11,3.11Z"/>
      <path class="cls-1" d="M329.84,232.42c1.72,0,3.11-1.39,3.11-3.11s-1.39-3.11-3.11-3.11-3.11,1.39-3.11,3.11,1.39,3.11,3.11,3.11Z"/>
      <path class="cls-1" d="M342.4,232.42c1.72,0,3.11-1.39,3.11-3.11s-1.39-3.11-3.11-3.11-3.11,1.39-3.11,3.11,1.39,3.11,3.11,3.11Z"/>
      <path class="cls-1" d="M354.97,232.42c1.72,0,3.11-1.39,3.11-3.11s-1.39-3.11-3.11-3.11-3.11,1.39-3.11,3.11,1.39,3.11,3.11,3.11Z"/>
      <path class="cls-1" d="M367.54,232.42c1.72,0,3.11-1.39,3.11-3.11s-1.39-3.11-3.11-3.11-3.11,1.39-3.11,3.11,1.39,3.11,3.11,3.11Z"/>
      <path class="cls-1" d="M593.73,232.42c1.72,0,3.11-1.39,3.11-3.11s-1.39-3.11-3.11-3.11-3.11,1.39-3.11,3.11,1.39,3.11,3.11,3.11Z"/>
      <path class="cls-1" d="M606.3,232.42c1.72,0,3.11-1.39,3.11-3.11s-1.39-3.11-3.11-3.11-3.11,1.39-3.11,3.11,1.39,3.11,3.11,3.11Z"/>
      <path class="cls-1" d="M618.87,232.42c1.72,0,3.11-1.39,3.11-3.11s-1.39-3.11-3.11-3.11-3.11,1.39-3.11,3.11,1.39,3.11,3.11,3.11Z"/>
      <path class="cls-1" d="M631.43,232.42c1.72,0,3.11-1.39,3.11-3.11s-1.39-3.11-3.11-3.11-3.11,1.39-3.11,3.11,1.39,3.11,3.11,3.11Z"/>
      <path class="cls-1" d="M644,232.42c1.72,0,3.11-1.39,3.11-3.11s-1.39-3.11-3.11-3.11-3.11,1.39-3.11,3.11,1.39,3.11,3.11,3.11Z"/>
      <path class="cls-1" d="M656.57,232.42c1.72,0,3.11-1.39,3.11-3.11s-1.39-3.11-3.11-3.11-3.11,1.39-3.11,3.11,1.39,3.11,3.11,3.11Z"/>
      <path class="cls-1" d="M669.13,232.42c1.72,0,3.11-1.39,3.11-3.11s-1.39-3.11-3.11-3.11-3.11,1.39-3.11,3.11,1.39,3.11,3.11,3.11Z"/>
      <path class="cls-1" d="M681.7,232.42c1.72,0,3.11-1.39,3.11-3.11s-1.39-3.11-3.11-3.11-3.11,1.39-3.11,3.11,1.39,3.11,3.11,3.11Z"/>
      <path class="cls-1" d="M694.26,232.42c1.72,0,3.11-1.39,3.11-3.11s-1.39-3.11-3.11-3.11-3.11,1.39-3.11,3.11,1.39,3.11,3.11,3.11Z"/>
      <path class="cls-1" d="M706.83,232.42c1.72,0,3.11-1.39,3.11-3.11s-1.39-3.11-3.11-3.11-3.11,1.39-3.11,3.11,1.39,3.11,3.11,3.11Z"/>
      <path class="cls-1" d="M191.61,244.98c1.72,0,3.11-1.39,3.11-3.11s-1.39-3.11-3.11-3.11-3.11,1.39-3.11,3.11,1.39,3.11,3.11,3.11Z"/>
      <path class="cls-1" d="M204.17,244.98c1.72,0,3.11-1.39,3.11-3.11s-1.39-3.11-3.11-3.11-3.11,1.39-3.11,3.11,1.39,3.11,3.11,3.11Z"/>
      <path class="cls-1" d="M216.74,244.98c1.72,0,3.11-1.39,3.11-3.11s-1.39-3.11-3.11-3.11-3.11,1.39-3.11,3.11,1.39,3.11,3.11,3.11Z"/>
      <path class="cls-1" d="M229.31,244.98c1.72,0,3.11-1.39,3.11-3.11s-1.39-3.11-3.11-3.11-3.11,1.39-3.11,3.11,1.39,3.11,3.11,3.11Z"/>
      <path class="cls-1" d="M241.87,244.98c1.72,0,3.11-1.39,3.11-3.11s-1.39-3.11-3.11-3.11-3.11,1.39-3.11,3.11,1.39,3.11,3.11,3.11Z"/>
      <path class="cls-1" d="M267.01,244.98c1.72,0,3.11-1.39,3.11-3.11s-1.39-3.11-3.11-3.11-3.11,1.39-3.11,3.11,1.39,3.11,3.11,3.11Z"/>
      <path class="cls-1" d="M279.57,244.98c1.72,0,3.11-1.39,3.11-3.11s-1.39-3.11-3.11-3.11-3.11,1.39-3.11,3.11,1.39,3.11,3.11,3.11Z"/>
      <path class="cls-1" d="M292.14,244.98c1.72,0,3.11-1.39,3.11-3.11s-1.39-3.11-3.11-3.11-3.11,1.39-3.11,3.11,1.39,3.11,3.11,3.11Z"/>
      <path class="cls-1" d="M304.7,244.98c1.72,0,3.11-1.39,3.11-3.11s-1.39-3.11-3.11-3.11-3.11,1.39-3.11,3.11,1.39,3.11,3.11,3.11Z"/>
      <path class="cls-1" d="M317.27,244.98c1.72,0,3.11-1.39,3.11-3.11s-1.39-3.11-3.11-3.11-3.11,1.39-3.11,3.11,1.39,3.11,3.11,3.11Z"/>
      <path class="cls-1" d="M329.84,244.98c1.72,0,3.11-1.39,3.11-3.11s-1.39-3.11-3.11-3.11-3.11,1.39-3.11,3.11,1.39,3.11,3.11,3.11Z"/>
      <path class="cls-1" d="M342.4,244.98c1.72,0,3.11-1.39,3.11-3.11s-1.39-3.11-3.11-3.11-3.11,1.39-3.11,3.11,1.39,3.11,3.11,3.11Z"/>
      <path class="cls-1" d="M354.97,244.98c1.72,0,3.11-1.39,3.11-3.11s-1.39-3.11-3.11-3.11-3.11,1.39-3.11,3.11,1.39,3.11,3.11,3.11Z"/>
      <path class="cls-1" d="M367.54,244.98c1.72,0,3.11-1.39,3.11-3.11s-1.39-3.11-3.11-3.11-3.11,1.39-3.11,3.11,1.39,3.11,3.11,3.11Z"/>
      <path class="cls-1" d="M380.1,244.98c1.72,0,3.11-1.39,3.11-3.11s-1.39-3.11-3.11-3.11-3.11,1.39-3.11,3.11,1.39,3.11,3.11,3.11Z"/>
      <path class="cls-1" d="M593.73,244.98c1.72,0,3.11-1.39,3.11-3.11s-1.39-3.11-3.11-3.11-3.11,1.39-3.11,3.11,1.39,3.11,3.11,3.11Z"/>
      <path class="cls-1" d="M606.3,244.98c1.72,0,3.11-1.39,3.11-3.11s-1.39-3.11-3.11-3.11-3.11,1.39-3.11,3.11,1.39,3.11,3.11,3.11Z"/>
      <path class="cls-1" d="M618.87,244.98c1.72,0,3.11-1.39,3.11-3.11s-1.39-3.11-3.11-3.11-3.11,1.39-3.11,3.11,1.39,3.11,3.11,3.11Z"/>
      <path class="cls-1" d="M631.43,244.98c1.72,0,3.11-1.39,3.11-3.11s-1.39-3.11-3.11-3.11-3.11,1.39-3.11,3.11,1.39,3.11,3.11,3.11Z"/>
      <path class="cls-1" d="M644,244.98c1.72,0,3.11-1.39,3.11-3.11s-1.39-3.11-3.11-3.11-3.11,1.39-3.11,3.11,1.39,3.11,3.11,3.11Z"/>
      <path class="cls-1" d="M656.57,244.98c1.72,0,3.11-1.39,3.11-3.11s-1.39-3.11-3.11-3.11-3.11,1.39-3.11,3.11,1.39,3.11,3.11,3.11Z"/>
      <path class="cls-1" d="M669.13,244.98c1.72,0,3.11-1.39,3.11-3.11s-1.39-3.11-3.11-3.11-3.11,1.39-3.11,3.11,1.39,3.11,3.11,3.11Z"/>
      <path class="cls-1" d="M681.7,244.98c1.72,0,3.11-1.39,3.11-3.11s-1.39-3.11-3.11-3.11-3.11,1.39-3.11,3.11,1.39,3.11,3.11,3.11Z"/>
      <path class="cls-1" d="M694.26,244.98c1.72,0,3.11-1.39,3.11-3.11s-1.39-3.11-3.11-3.11-3.11,1.39-3.11,3.11,1.39,3.11,3.11,3.11Z"/>
      <circle class="cls-1" cx="191.61" cy="254.44" r="3.11"/>
      <path class="cls-1" d="M204.17,257.55c1.72,0,3.11-1.39,3.11-3.11s-1.39-3.11-3.11-3.11-3.11,1.39-3.11,3.11,1.39,3.11,3.11,3.11Z"/>
      <path class="cls-1" d="M216.74,257.55c1.72,0,3.11-1.39,3.11-3.11s-1.39-3.11-3.11-3.11-3.11,1.39-3.11,3.11,1.39,3.11,3.11,3.11Z"/>
      <path class="cls-1" d="M229.31,257.55c1.72,0,3.11-1.39,3.11-3.11s-1.39-3.11-3.11-3.11-3.11,1.39-3.11,3.11,1.39,3.11,3.11,3.11Z"/>
      <circle class="cls-1" cx="241.87" cy="254.44" r="3.11"/>
      <path class="cls-1" d="M267.01,257.55c1.72,0,3.11-1.39,3.11-3.11s-1.39-3.11-3.11-3.11-3.11,1.39-3.11,3.11,1.39,3.11,3.11,3.11Z"/>
      <path class="cls-1" d="M279.57,257.55c1.72,0,3.11-1.39,3.11-3.11s-1.39-3.11-3.11-3.11-3.11,1.39-3.11,3.11,1.39,3.11,3.11,3.11Z"/>
      <path class="cls-1" d="M292.14,257.55c1.72,0,3.11-1.39,3.11-3.11s-1.39-3.11-3.11-3.11-3.11,1.39-3.11,3.11,1.39,3.11,3.11,3.11Z"/>
      <path class="cls-1" d="M304.7,257.55c1.72,0,3.11-1.39,3.11-3.11s-1.39-3.11-3.11-3.11-3.11,1.39-3.11,3.11,1.39,3.11,3.11,3.11Z"/>
      <path class="cls-1" d="M317.27,257.55c1.72,0,3.11-1.39,3.11-3.11s-1.39-3.11-3.11-3.11-3.11,1.39-3.11,3.11,1.39,3.11,3.11,3.11Z"/>
      <path class="cls-1" d="M329.84,257.55c1.72,0,3.11-1.39,3.11-3.11s-1.39-3.11-3.11-3.11-3.11,1.39-3.11,3.11,1.39,3.11,3.11,3.11Z"/>
      <path class="cls-1" d="M342.4,257.55c1.72,0,3.11-1.39,3.11-3.11s-1.39-3.11-3.11-3.11-3.11,1.39-3.11,3.11,1.39,3.11,3.11,3.11Z"/>
      <path class="cls-1" d="M354.97,257.55c1.72,0,3.11-1.39,3.11-3.11s-1.39-3.11-3.11-3.11-3.11,1.39-3.11,3.11,1.39,3.11,3.11,3.11Z"/>
      <path class="cls-1" d="M367.54,257.55c1.72,0,3.11-1.39,3.11-3.11s-1.39-3.11-3.11-3.11-3.11,1.39-3.11,3.11,1.39,3.11,3.11,3.11Z"/>
      <path class="cls-1" d="M380.1,257.55c1.72,0,3.11-1.39,3.11-3.11s-1.39-3.11-3.11-3.11-3.11,1.39-3.11,3.11,1.39,3.11,3.11,3.11Z"/>
      <path class="cls-1" d="M606.3,257.55c1.72,0,3.11-1.39,3.11-3.11s-1.39-3.11-3.11-3.11-3.11,1.39-3.11,3.11,1.39,3.11,3.11,3.11Z"/>
      <path class="cls-1" d="M618.87,257.55c1.72,0,3.11-1.39,3.11-3.11s-1.39-3.11-3.11-3.11-3.11,1.39-3.11,3.11,1.39,3.11,3.11,3.11Z"/>
      <path class="cls-1" d="M631.43,257.55c1.72,0,3.11-1.39,3.11-3.11s-1.39-3.11-3.11-3.11-3.11,1.39-3.11,3.11,1.39,3.11,3.11,3.11Z"/>
      <path class="cls-1" d="M644,257.55c1.72,0,3.11-1.39,3.11-3.11s-1.39-3.11-3.11-3.11-3.11,1.39-3.11,3.11,1.39,3.11,3.11,3.11Z"/>
      <path class="cls-1" d="M656.57,257.55c1.72,0,3.11-1.39,3.11-3.11s-1.39-3.11-3.11-3.11-3.11,1.39-3.11,3.11,1.39,3.11,3.11,3.11Z"/>
      <circle class="cls-1" cx="669.13" cy="254.44" r="3.11"/>
      <path class="cls-1" d="M681.7,257.55c1.72,0,3.11-1.39,3.11-3.11s-1.39-3.11-3.11-3.11-3.11,1.39-3.11,3.11,1.39,3.11,3.11,3.11Z"/>
      <path class="cls-1" d="M694.26,257.55c1.72,0,3.11-1.39,3.11-3.11s-1.39-3.11-3.11-3.11-3.11,1.39-3.11,3.11,1.39,3.11,3.11,3.11Z"/>
      <path class="cls-1" d="M267.01,270.12c1.72,0,3.11-1.39,3.11-3.11s-1.39-3.11-3.11-3.11-3.11,1.39-3.11,3.11,1.39,3.11,3.11,3.11Z"/>
      <path class="cls-1" d="M279.57,270.12c1.72,0,3.11-1.39,3.11-3.11s-1.39-3.11-3.11-3.11-3.11,1.39-3.11,3.11,1.39,3.11,3.11,3.11Z"/>
      <path class="cls-1" d="M292.14,270.12c1.72,0,3.11-1.39,3.11-3.11s-1.39-3.11-3.11-3.11-3.11,1.39-3.11,3.11,1.39,3.11,3.11,3.11Z"/>
      <path class="cls-1" d="M304.7,270.12c1.72,0,3.11-1.39,3.11-3.11s-1.39-3.11-3.11-3.11-3.11,1.39-3.11,3.11,1.39,3.11,3.11,3.11Z"/>
      <path class="cls-1" d="M317.27,270.12c1.72,0,3.11-1.39,3.11-3.11s-1.39-3.11-3.11-3.11-3.11,1.39-3.11,3.11,1.39,3.11,3.11,3.11Z"/>
      <path class="cls-1" d="M329.84,270.12c1.72,0,3.11-1.39,3.11-3.11s-1.39-3.11-3.11-3.11-3.11,1.39-3.11,3.11,1.39,3.11,3.11,3.11Z"/>
      <path class="cls-1" d="M342.4,270.12c1.72,0,3.11-1.39,3.11-3.11s-1.39-3.11-3.11-3.11-3.11,1.39-3.11,3.11,1.39,3.11,3.11,3.11Z"/>
      <path class="cls-1" d="M354.97,270.12c1.72,0,3.11-1.39,3.11-3.11s-1.39-3.11-3.11-3.11-3.11,1.39-3.11,3.11,1.39,3.11,3.11,3.11Z"/>
      <path class="cls-1" d="M367.54,270.12c1.72,0,3.11-1.39,3.11-3.11s-1.39-3.11-3.11-3.11-3.11,1.39-3.11,3.11,1.39,3.11,3.11,3.11Z"/>
      <path class="cls-1" d="M380.1,270.12c1.72,0,3.11-1.39,3.11-3.11s-1.39-3.11-3.11-3.11-3.11,1.39-3.11,3.11,1.39,3.11,3.11,3.11Z"/>
      <path class="cls-1" d="M618.87,270.12c1.72,0,3.11-1.39,3.11-3.11s-1.39-3.11-3.11-3.11-3.11,1.39-3.11,3.11,1.39,3.11,3.11,3.11Z"/>
      <path class="cls-1" d="M631.43,270.12c1.72,0,3.11-1.39,3.11-3.11s-1.39-3.11-3.11-3.11-3.11,1.39-3.11,3.11,1.39,3.11,3.11,3.11Z"/>
      <path class="cls-1" d="M644,270.12c1.72,0,3.11-1.39,3.11-3.11s-1.39-3.11-3.11-3.11-3.11,1.39-3.11,3.11,1.39,3.11,3.11,3.11Z"/>
      <path class="cls-1" d="M656.57,270.12c1.72,0,3.11-1.39,3.11-3.11s-1.39-3.11-3.11-3.11-3.11,1.39-3.11,3.11,1.39,3.11,3.11,3.11Z"/>
      <circle class="cls-1" cx="669.13" cy="267.01" r="3.11"/>
      <path class="cls-1" d="M267.01,282.68c1.72,0,3.11-1.39,3.11-3.11s-1.39-3.11-3.11-3.11-3.11,1.39-3.11,3.11,1.39,3.11,3.11,3.11Z"/>
      <path class="cls-1" d="M279.57,282.68c1.72,0,3.11-1.39,3.11-3.11s-1.39-3.11-3.11-3.11-3.11,1.39-3.11,3.11,1.39,3.11,3.11,3.11Z"/>
      <path class="cls-1" d="M292.14,282.68c1.72,0,3.11-1.39,3.11-3.11s-1.39-3.11-3.11-3.11-3.11,1.39-3.11,3.11,1.39,3.11,3.11,3.11Z"/>
      <path class="cls-1" d="M304.7,282.68c1.72,0,3.11-1.39,3.11-3.11s-1.39-3.11-3.11-3.11-3.11,1.39-3.11,3.11,1.39,3.11,3.11,3.11Z"/>
      <path class="cls-1" d="M317.27,282.68c1.72,0,3.11-1.39,3.11-3.11s-1.39-3.11-3.11-3.11-3.11,1.39-3.11,3.11,1.39,3.11,3.11,3.11Z"/>
      <path class="cls-1" d="M329.84,282.68c1.72,0,3.11-1.39,3.11-3.11s-1.39-3.11-3.11-3.11-3.11,1.39-3.11,3.11,1.39,3.11,3.11,3.11Z"/>
      <path class="cls-1" d="M631.43,282.68c1.72,0,3.11-1.39,3.11-3.11s-1.39-3.11-3.11-3.11-3.11,1.39-3.11,3.11,1.39,3.11,3.11,3.11Z"/>
      <path class="cls-1" d="M644,282.68c1.72,0,3.11-1.39,3.11-3.11s-1.39-3.11-3.11-3.11-3.11,1.39-3.11,3.11,1.39,3.11,3.11,3.11Z"/>
      <path class="cls-1" d="M656.57,282.68c1.72,0,3.11-1.39,3.11-3.11s-1.39-3.11-3.11-3.11-3.11,1.39-3.11,3.11,1.39,3.11,3.11,3.11Z"/>
      <path class="cls-1" d="M267.01,295.25c1.72,0,3.11-1.39,3.11-3.11s-1.39-3.11-3.11-3.11-3.11,1.39-3.11,3.11,1.39,3.11,3.11,3.11Z"/>
      <path class="cls-1" d="M279.57,295.25c1.72,0,3.11-1.39,3.11-3.11s-1.39-3.11-3.11-3.11-3.11,1.39-3.11,3.11,1.39,3.11,3.11,3.11Z"/>
      <path class="cls-1" d="M292.14,295.25c1.72,0,3.11-1.39,3.11-3.11s-1.39-3.11-3.11-3.11-3.11,1.39-3.11,3.11,1.39,3.11,3.11,3.11Z"/>
      <path class="cls-1" d="M304.7,295.25c1.72,0,3.11-1.39,3.11-3.11s-1.39-3.11-3.11-3.11-3.11,1.39-3.11,3.11,1.39,3.11,3.11,3.11Z"/>
      <path class="cls-1" d="M317.27,295.25c1.72,0,3.11-1.39,3.11-3.11s-1.39-3.11-3.11-3.11-3.11,1.39-3.11,3.11,1.39,3.11,3.11,3.11Z"/>
      <path class="cls-1" d="M644,295.25c1.72,0,3.11-1.39,3.11-3.11s-1.39-3.11-3.11-3.11-3.11,1.39-3.11,3.11,1.39,3.11,3.11,3.11Z"/>
      <path class="cls-1" d="M656.57,295.25c1.72,0,3.11-1.39,3.11-3.11s-1.39-3.11-3.11-3.11-3.11,1.39-3.11,3.11,1.39,3.11,3.11,3.11Z"/>
      <path class="cls-1" d="M267.01,307.81c1.72,0,3.11-1.39,3.11-3.11s-1.39-3.11-3.11-3.11-3.11,1.39-3.11,3.11,1.39,3.11,3.11,3.11Z"/>
      <path class="cls-1" d="M279.57,307.81c1.72,0,3.11-1.39,3.11-3.11s-1.39-3.11-3.11-3.11-3.11,1.39-3.11,3.11,1.39,3.11,3.11,3.11Z"/>
      <path class="cls-1" d="M292.14,307.81c1.72,0,3.11-1.39,3.11-3.11s-1.39-3.11-3.11-3.11-3.11,1.39-3.11,3.11,1.39,3.11,3.11,3.11Z"/>
      <path class="cls-1" d="M304.7,307.81c1.72,0,3.11-1.39,3.11-3.11s-1.39-3.11-3.11-3.11-3.11,1.39-3.11,3.11,1.39,3.11,3.11,3.11Z"/>
      <path class="cls-1" d="M317.27,307.81c1.72,0,3.11-1.39,3.11-3.11s-1.39-3.11-3.11-3.11-3.11,1.39-3.11,3.11,1.39,3.11,3.11,3.11Z"/>
    </g>
  </g>
</svg>