<?xml version="1.0" encoding="UTF-8"?>
<svg xmlns="http://www.w3.org/2000/svg" viewBox="110 0 60 68.76" width="60" height="68.76">
    <defs>
        <style>
            .cls-1 {
            fill: #9E9E9EFF;
            }
            .cls-2 {
            fill: #ffffff;
            }
        </style>
    </defs>
    <g>
        <path class="cls-2" d="M164.53,4.37c0-.2-.32-.22-.32-.4,0-.01.03-.18.03-.24,0-.18-.06-.32-.29-.32-.09,0-.21.05-.22.05s0-.36-.36-.35c0-.33-.21-.29-.3-.42-.7.16-1.12.56-1.47.83.11.78-.12,2.53-.12,2.53-.24.41-.47.83-.74,1.25-1.25,1.99-5.54,3.45-6.34,5.18-3.56,1.99-3.69.92-4.77,2.67-1.44.49-4.59,1.56-6.07,2.06,0,0-.73-.26-.92-.67.85-.75.7-.78.69-1.5,0-.48.15-1.8-.07-2.36-.62-1.65-.97-2.67-2.63-2.67-.42,0-1.83.32-2.68,1.03-.34.28-.48,1.67-.3,2.91,0,0,.42,2.14.77,2.49-.16.09-.65.24-.83.29-1.32-.66-3.66-1.85-4.86-2.31-.83-1.01-1.62-1.85-2.43-2.31,0,0-1.07-.58-2.16-1.29-1.27-2.55-4.96-5.02-6.36-6.69-.09-.63,0-.71,0-1.27,0-1.4-.25-1.87-.38-2.37-.33-.13-.76-.33-1.05-.49-.02.09-.04.21-.04.29-.11.01-.23,0-.34,0-.04.14-.14.31-.20.41-.17-.03-.16-.09-.28-.11-.12.16-.22.26-.26.44-.04,0-.25-.06-.29-.07-.04.12-.09.36-.10.46-.07-.02-.16-.02-.25-.03-.05.49.20,1.44.30,1.77,0,0,.48.92,1.13,1.57,1.07,2.45,4.14,5.82,6.22,7.96,2.16,3.73,3.66,5.05,5.02,6.23.87,1.11,2.83,2.02,3.04,3.03l1.54,7.82c0,.18.01.36.01.55,0,1.14-.17,2.28-.33,3.43,0,0-.5,2.32-1.02,5.10-.05.08-.10.17-.15.29-.18.45-.33.89-.48,1.35-.27.79-.55,1.66-.61,2.50-.08,1.17-.32,2.26-.32,3.43,0,.98-.20,1.84-.34,2.78-.11.72.02,1.32.03,2.06.01.49-.05.96-.08,1.44-.04.74-.18,1.54-.38,2.27-.07.21-.13.42-.20.64-.28.82-.64,1.63-.93,2.45-.17.51-.32,1.02-.39,1.54-.08.57-.53,2.90.42,3.03.02.54-.22,1.02-.34,1.54-.08.33-.13.93-.39,1.19-.17.17-1.79,1.12-2.06,1.49-.27.37-.05,1.75.05,1.88.10.13,2.95,0,3.33,0,.29,0,.58-.03.88-.08.42-.04.83-.09.83-.09,0,0-.07-1.26,0-1.60.05-.25.05-.90.04-1.38.08-.20.14-.39.15-.53.10-.62.23-1.20.38-1.75.51.07.93-.28,1.17-.71.17-.31.27-.66.33-1.03.09-.51.29-1.00.38-1.52.16-.88.46-1.67.68-2.54.23-.93.30-1.83.36-2.78.02-.37.02-.79.12-1.15.07-.24.12-.28.27-.51.45-.67.79-1.43,1.06-2.17.34-.93.40-1.94.77-2.85.27-.68.53-1.38.77-2.08.09-.25.09-.50.18-.73.10-.28.34-.48.45-.75.13-.32.24-.61.31-.94.30-.38.68-.77.68-.77.15.57.65,1.23,1.12,1.85.05.13.09.27.13.42.12.42.37.68.58,1.06.15.27.20.58.34.83.46.90,1.11,1.68,1.53,2.60.14.30.21.69.34,1.03.29.72,1.12,1.14,1.35,1.85.21.63-.10,1.27-.12,1.90-.04.80.12,1.40.24,2.17.04.26.13.46.22.67,0,.02,0,.04,0,.06.04.34.14.67.26,1-.01.16-.04.32-.05.50-.06.99-.15,1.89.25,2.82.25.59.83,1.68,1.60,1.54.13.73.33,1.41.50,2.12.11.46-.04,1.44.02,1.78.07.34,0,1.60,0,1.60,0,0,1.33.16,1.71.17.37,0,3.23.14,3.33,0,.10-.13.07-1.26-.20-1.64-.27-.37-1.56-1.70-1.80-1.74-.44-.06-.51-2.28-.49-2.64.47-.30.87-.62,1.01-1.19.23-.93-.42-1.71-.67-2.54-.10-.34-.26-.66-.38-.99-.08-.23-.15-.46-.17-.71-.06-.63-.09-1.17-.22-1.77-.11-.54-.38-.97-.54-1.51-.17-.57-.02-1.10-.05-1.67-.04-.77-.29-1.42-.42-2.16-.13-.71-.18-1.41-.30-2.12-.32-1.91-.76-3.73-1.45-5.49-.24-.61-.39-1.30-.58-1.93-.16-.51-.35-.78-.63-1.16-.15-.50-.29-1.00-.43-1.50-.12-.43-.25-.86-.36-1.29-.08-.29-.41-.99-.30-1.27,0,.02-.02.02-.04.02-.08-.79-.24-1.65-.15-2.46.08-.77.24-1.54.36-2.30.10-.61.04-1.19.04-1.82,0-2.03.33-1.72.33-2.91,0-2.09-.34-2.00.29-4.53,1.20-1.24,2.99-2.19,3.30-2.32l2.21-1.23c.96-.53,1.47-1.91,2.29-2.63.27-.24.66-.38.92-.69,1.47-1.74,3.11-3.37,4.65-5.08.91-1.01,2.23-2.10,2.89-3.30.10-.17.44-1.07.44-1.07,0,0-.04-.20-.04-.27,0-.11.19-.23.19-.42Z"/>
    </g>
</svg>