<?xml version="1.0" encoding="UTF-8"?>
<svg id="Capa_2" data-name="Capa 2" xmlns="http://www.w3.org/2000/svg" viewBox="0 0 102.04 102.04">
  <defs>
    <!-- Máscara de recorte: el icono será transparente -->
    <mask id="mascara-icono">
      <rect width="100%" height="100%" fill="white"/> <!-- Área visible -->
      <path fill="black" d="M71.66,39.28c-2.69,0-5.17-.89-7.16-2.39-2.28-1.72-3.93-4.25-4.51-7.16-.14-.72-.22-1.46-.23-2.22h-7.68v32.48c0,3.07-2.01,5.68-4.78,6.59-.8.27-1.67.39-2.58.34-1.16-.06-2.24-.41-3.18-.98-2-1.2-3.36-3.37-3.4-5.86-.06-3.89,3.08-7.05,6.97-7.05.77,0,1.5.13,2.19.35v-7.8c-.73-.11-1.47-.16-2.21-.16-4.25,0-8.22,1.77-11.06,4.95-2.15,2.4-3.44,5.47-3.63,8.69-.26,4.23,1.29,8.24,4.29,11.21.44.44.9.84,1.39,1.21,2.57,1.98,5.71,3.05,9.03,3.05.75,0,1.49-.06,2.21-.16,3.09-.46,5.95-1.87,8.2-4.1,2.77-2.74,4.3-6.37,4.31-10.23l-.04-17.16c1.32,1.02,2.76,1.86,4.31,2.52,2.41,1.02,4.96,1.53,7.59,1.53v-7.65s-.02,0-.02,0h0Z"/> <!-- Área recortada -->
    </mask>
  </defs>

  <!-- Fondo gris con máscara aplicada -->
  <rect width="102.04" height="102.04" rx="11.93" ry="11.93" fill="#494949" mask="url(#mascara-icono)"/>
</svg>