<?xml version="1.0" encoding="UTF-8"?>
<svg id="Capa_2" data-name="Capa 2" xmlns="http://www.w3.org/2000/svg" viewBox="0 0 180.49 68.76">
  <defs>
    <style>
      .cls-1 {
        fill: #535353FF;
      }

      .cls-2 {
        fill: #202020;
      }
    </style>
  </defs>
  <g id="Capa_1-2" data-name="Capa 1">
    <g>
      <path class="cls-2" d="M164.53,4.37c0-.2-.32-.22-.32-.4,0-.01.03-.18.03-.24,0-.18-.06-.32-.29-.32-.09,0-.21.05-.22.05s0-.36-.36-.35c0-.33-.21-.29-.3-.42-.7.16-1.12.56-1.47.83.11.78-.12,2.53-.12,2.53-.24.41-.47.83-.74,1.25-1.25,1.99-5.54,3.45-6.34,5.18-3.56,1.99-3.69.92-4.77,2.67-1.44.49-4.59,1.56-6.07,2.06,0,0-.73-.26-.92-.67.85-.75.7-.78.69-1.5,0-.48.15-1.8-.07-2.36-.62-1.65-.97-2.67-2.63-2.67-.42,0-1.83.32-2.68,1.03-.34.28-.48,1.67-.3,2.91,0,0,.42,2.14.77,2.49-.16.09-.65.24-.83.29-1.32-.66-3.66-1.85-4.86-2.31-.83-1.01-1.62-1.85-2.43-2.31,0,0-1.07-.58-2.16-1.29-1.27-2.55-4.96-5.02-6.36-6.69-.09-.63,0-.71,0-1.27,0-1.4-.25-1.87-.38-2.37-.33-.13-.76-.33-1.05-.49-.02.09-.04.21-.04.29-.11.01-.23,0-.34,0-.04.14-.14.31-.2.41-.17-.03-.16-.09-.28-.11-.12.16-.22.26-.26.44-.04,0-.25-.06-.29-.07-.04.12-.09.36-.1.46-.07-.02-.16-.02-.25-.03-.05.49.2,1.44.3,1.77,0,0,.48.92,1.13,1.57,1.07,2.45,4.14,5.82,6.22,7.96,2.16,3.73,3.66,5.05,5.02,6.23.87,1.11,2.83,2.02,3.04,3.03l1.54,7.82c0,.18.01.36.01.55,0,1.14-.17,2.28-.33,3.43,0,0-.5,2.32-1.02,5.1-.05.08-.1.17-.15.29-.18.45-.33.89-.48,1.35-.27.79-.55,1.66-.61,2.5-.08,1.17-.32,2.26-.32,3.43,0,.98-.2,1.84-.34,2.78-.11.72.02,1.32.03,2.06.01.49-.05.96-.08,1.44-.04.74-.18,1.54-.38,2.27-.07.21-.13.42-.2.64-.28.82-.64,1.63-.93,2.45-.17.51-.32,1.02-.39,1.54-.08.57-.53,2.9.42,3.03.02.54-.22,1.02-.34,1.54-.08.33-.13.93-.39,1.19-.17.17-1.79,1.12-2.06,1.49-.27.37-.05,1.75.05,1.88.1.13,2.95,0,3.33,0,.29,0,.58-.03.88-.08.42-.04.83-.09.83-.09,0,0-.07-1.26,0-1.6.05-.25.05-.9.04-1.38.08-.2.14-.39.15-.53.1-.62.23-1.2.38-1.75.51.07.93-.28,1.17-.71.17-.31.27-.66.33-1.03.09-.51.29-1,.38-1.52.16-.88.46-1.67.68-2.54.23-.93.3-1.83.36-2.78.02-.37.02-.79.12-1.15.07-.24.12-.28.27-.51.45-.67.79-1.43,1.06-2.17.34-.93.4-1.94.77-2.85.27-.68.53-1.38.77-2.08.09-.25.09-.5.18-.73.1-.28.34-.48.45-.75.13-.32.24-.61.31-.94.3-.38.68-.77.68-.77.15.57.65,1.23,1.12,1.85.05.13.09.27.13.42.12.42.37.68.58,1.06.15.27.2.58.34.83.46.9,1.11,1.68,1.53,2.6.14.3.21.69.34,1.03.29.72,1.12,1.14,1.35,1.85.21.63-.1,1.27-.12,1.9-.04.8.12,1.4.24,2.17.04.26.13.46.22.67,0,.02,0,.04,0,.06.04.34.14.67.26,1-.01.16-.04.32-.05.5-.06.99-.15,1.89.25,2.82.25.59.83,1.68,1.6,1.54.13.73.33,1.41.5,2.12.11.46-.04,1.44.02,1.78.07.34,0,1.6,0,1.6,0,0,1.33.16,1.71.17.37,0,3.23.14,3.33,0,.1-.13.07-1.26-.2-1.64-.27-.37-1.56-1.7-1.8-1.74-.44-.06-.51-2.28-.49-2.64.47-.3.87-.62,1.01-1.19.23-.93-.42-1.71-.67-2.54-.1-.34-.26-.66-.38-.99-.08-.23-.15-.46-.17-.71-.06-.63-.09-1.17-.22-1.77-.11-.54-.38-.97-.54-1.51-.17-.57-.02-1.1-.05-1.67-.04-.77-.29-1.42-.42-2.16-.13-.71-.18-1.41-.3-2.12-.32-1.91-.76-3.73-1.45-5.49-.24-.61-.39-1.3-.58-1.93-.16-.51-.35-.78-.63-1.16-.15-.5-.29-1-.43-1.5-.12-.43-.25-.86-.36-1.29-.08-.29-.41-.99-.3-1.27,0,.02-.02.02-.04.02-.08-.79-.24-1.65-.15-2.46.08-.77.24-1.54.36-2.3.1-.61.04-1.19.04-1.82,0-2.03.33-1.72.33-2.91,0-2.09-.34-2,.29-4.53,1.2-1.24,2.99-2.19,3.3-2.32l2.21-1.23c.96-.53,1.47-1.91,2.29-2.63.27-.24.66-.38.92-.69,1.47-1.74,3.11-3.37,4.65-5.08.91-1.01,2.23-2.1,2.89-3.3.1-.17.44-1.07.44-1.07,0,0-.04-.2-.04-.27,0-.11.19-.23.19-.42Z"/>
      <rect class="cls-1" x="23.74" y="34.38" width="8.91" height="34.38"/>
      <path class="cls-1" d="M34.8,34.38v34.38h15.52s5.63-4.99,5.63-4.99v-24.49l-5.63-4.9h-15.52ZM47.03,61.15h-3.33v-19.16h3.33v19.16Z"/>
      <polygon class="cls-1" points="58.09 68.76 75.23 68.76 75.23 61.15 67 61.15 67 54.49 73.86 54.49 73.86 47.41 67 47.41 67 41.99 75.23 41.99 75.23 34.38 58.09 34.38 58.09 68.76"/>
      <path class="cls-1" d="M97.99,48.36v-9.27l-5.48-4.71h-15.13v34.38s8.91,0,8.91,0v-14.12h3.33v14.12h8.91v-14.5s-3.52-2.95-3.52-2.95l2.99-2.95ZM89.62,47.98h-3.33v-5.99h3.33v5.99Z"/>
      <polygon class="cls-1" points="114.63 45.98 108.46 34.38 100.67 34.38 100.67 68.76 109.19 68.76 109.19 51.69 114.63 61.34 120.06 51.69 120.06 68.76 128.58 68.76 128.58 34.38 120.8 34.38 114.63 45.98"/>
      <polygon class="cls-1" points="12.78 34.38 3.87 34.38 3.87 47.66 0 51.52 3.87 55.38 3.87 68.76 21.59 68.76 21.59 61.24 12.78 61.24 12.78 34.38"/>
      <polygon class="cls-1" points="176.62 47.66 176.62 34.38 168.1 34.38 168.1 44.56 162.23 34.38 154.45 34.38 154.45 68.76 162.96 68.76 162.96 51.93 168.1 61.44 168.1 68.76 176.62 68.76 176.62 55.38 180.49 51.52 176.62 47.66"/>
    </g>
  </g>
</svg>