<?xml version="1.0" encoding="UTF-8"?>
<svg id="Capa_2" data-name="Capa 2" xmlns="http://www.w3.org/2000/svg" viewBox="0 0 376.69 456.26">
  <defs>
    <style>
      .cls-1 {
        fill: red;
      }
    </style>
  </defs>
  <g id="Capa_1-2" data-name="Capa 1">
    <g>
      <path class="cls-1" d="M294.02,240.8l-102.69-35.73c-2.28-.79-3.6-.79-5.9,0l-102.69,35.73c-3.6,1.22-6.05,4.6-6.09,8.44v38.76c-.04,3.39,1.51,6.24,4.25,7.83,2.89,1.68,6.61,1.67,9.49,0,2.72-1.59,4.26-4.45,4.22-7.79v-32.42l93.73-32.61,93.8,32.61v32.37c-.13,3.44,1.37,6.34,4.12,7.98,1.45.86,3.14,1.29,4.83,1.29s3.4-.43,4.85-1.3c2.74-1.64,4.23-4.55,4.09-7.98v-38.73c0-3.83-2.43-7.22-6.01-8.43Z"/>
      <path class="cls-1" d="M188.43,157.68c6.08,0,12.26-.7,18.43-2.15,20.74-4.9,38.29-17.56,49.4-35.65,11-17.9,14.35-38.96,9.43-59.31C255.48,18.28,212.49-7.92,169.86,2.16c-20.75,4.9-38.3,17.57-49.43,35.68-10.99,17.9-14.34,38.95-9.43,59.28,8.73,36.17,41.45,60.57,77.43,60.57ZM135.64,47.17c8.59-13.99,22.23-23.8,38.39-27.62h0c4.8-1.14,9.59-1.68,14.32-1.68,27.84,0,53.18,18.86,59.95,46.83,3.8,15.76,1.22,32.05-7.26,45.84-8.59,13.98-22.21,23.77-38.35,27.58-4.79,1.13-9.58,1.67-14.3,1.67-27.88,0-53.22-18.86-59.97-46.82-3.81-15.75-1.25-32.01,7.22-45.8Z"/>
      <path class="cls-1" d="M369.43,303.77l-39.23-81.01c-9.95-20.52-18.94-32.75-30.07-40.86-11.75-8.6-26.6-12.61-46.72-12.61H123.3c-20.12,0-34.98,4-46.75,12.6-11.12,8.11-20.11,20.33-30.05,40.87L7.28,303.76c-7.01,14.46-8.93,26.54-5.87,36.92,3.27,10.98,12.4,19.65,26.38,25.08l41.39,16.09c10.08,3.92,20.39,3.51,29.01-1.14.55-.29,1.1-.61,1.66-.97,17.71,30.14,45.32,54.85,84.29,75.47,1.32.7,2.77,1.05,4.21,1.05s2.88-.35,4.18-1.05c39.01-20.63,66.61-45.34,84.3-75.47.54.34,1.1.67,1.67.97,8.51,4.59,19.09,5,29.02,1.14l41.42-16.09c13.98-5.43,23.08-14.1,26.33-25.09,3.08-10.43,1.17-22.51-5.84-36.91ZM289.91,329.61c11.78-5.07,32.2-13.36,33.68-13.96,3.33-1.09,5.54-3.55,6.07-6.75.57-3.43-.93-7.12-3.72-9.19-2.61-1.93-5.91-2.16-9.06-.63-1.46.59-21.92,8.92-34.03,14.12-21.27,9.13-26.7,31.27-21.02,47.44.58,1.7,1.32,3.4,2.25,5.16-14.89,27.79-39.68,51-75.74,70.88-36.02-19.86-60.82-43.07-75.74-70.87.87-1.64,1.63-3.37,2.27-5.15,5.69-16.19.25-38.33-21.05-47.45-12.08-5.2-32.55-13.53-34.01-14.12-3.16-1.53-6.47-1.3-9.08.64-2.79,2.07-4.28,5.76-3.71,9.18.53,3.2,2.75,5.66,6.09,6.76,1.49.61,21.87,8.9,33.67,13.96,16.12,6.92,12.64,20.97,11.19,25.11-1.59,4.52-4.6,8.25-8.25,10.22-4.17,2.25-8.65,2.32-14.08.19l-41.39-16.09c-9.11-3.52-13.93-7.67-15.64-13.46-1.71-5.73-.07-14.03,4.74-24l39.29-81.01c8.43-17.45,15.98-27.99,24.47-34.18,8.9-6.48,19.73-9.24,36.21-9.24h130.1c16.48,0,27.3,2.76,36.18,9.24,8.49,6.19,16.05,16.73,24.5,34.18l39.23,81.01c4.82,9.95,6.47,18.25,4.76,24.01-1.71,5.8-6.53,9.95-15.63,13.46l-41.42,16.1c-5.41,2.12-9.89,2.05-14.08-.2-3.63-1.96-6.63-5.68-8.21-10.21-1.45-4.14-4.93-18.2,11.18-25.11Z"/>
      <path class="cls-1" d="M242.39,279.54c-3.31-3.23-7.99-4.78-12.86-4.25-4.27.46-8.2,2.29-11.08,5.16l-43.23,43.24-17.63-17.6c-3.04-3.07-7.14-4.77-11.57-4.77h0c-4.42,0-8.53,1.69-11.58,4.77l-11.21,11.4c-6.32,6.36-6.32,16.7,0,23.07l40.36,40.35c3.52,3.52,7.53,5.38,11.6,5.38h.01c4.04,0,8.02-1.85,11.49-5.33l66.85-67.47c6.53-6.59,5.22-17.38-.09-23l-11.05-10.95ZM238.91,302.79l-63.79,64.36-37.46-37.46,9-9.22,22.19,22.25c3.49,3.45,9.16,3.45,12.66-.01l47.91-47.94,9.49,8.03Z"/>
    </g>
  </g>
</svg>