<?xml version="1.0" encoding="UTF-8"?>
<svg id="Capa_2" data-name="Capa 2" xmlns="http://www.w3.org/2000/svg" viewBox="0 0 349.19 349.19">
  <defs>
    <style>
      .cls-1 {
        fill: red;
      }
    </style>
  </defs>
  <g id="Capa_1-2" data-name="Capa 1">
    <g>
      <g>
        <g>
          <path class="cls-1" d="M234.08,230.61c-3.51,0-6.73-2.34-7.68-5.9l-8.41-31.41c-3.51-13.14-15.47-22.32-29.07-22.32h-28.68c-13.6,0-25.56,9.18-29.07,22.31l-8.41,31.41c-1.14,4.24-5.5,6.76-9.74,5.63-4.24-1.14-6.76-5.49-5.63-9.74l8.41-31.41c5.37-20.08,23.64-34.11,44.43-34.11h28.68c20.79,0,39.06,14.03,44.43,34.11l8.4,31.4c1.14,4.24-1.38,8.6-5.63,9.74-.69.18-1.38.27-2.06.27Z"/>
          <path class="cls-1" d="M174.6,170.99c-21.42,0-38.84-17.42-38.84-38.84s17.42-38.84,38.84-38.84,38.84,17.42,38.84,38.84-17.42,38.84-38.84,38.84ZM174.6,109.21c-12.65,0-22.94,10.29-22.94,22.94s10.29,22.94,22.94,22.94,22.94-10.29,22.94-22.94-10.29-22.94-22.94-22.94Z"/>
        </g>
        <path class="cls-1" d="M174.6,271.05c-1.06,0-2.12-.21-3.12-.64-28.92-12.34-53.47-30.27-72.98-53.3-15.57-18.38-27.93-39.99-36.75-64.23-14.97-41.14-14.56-75.39-14.53-76.82.06-3.71,2.69-6.88,6.32-7.64,38.41-8.07,67.55-25.39,85.24-38.5,19.28-14.29,29.54-26.84,29.64-26.97,1.51-1.86,3.78-2.95,6.18-2.95h.01c2.4,0,4.68,1.09,6.18,2.96.09.12,10.36,12.67,29.64,26.96,17.68,13.11,46.83,30.43,85.24,38.5,3.63.76,6.25,3.94,6.32,7.64.02,1.44.43,35.68-14.53,76.82-8.82,24.24-21.19,45.86-36.75,64.23-19.5,23.02-44.05,40.96-72.97,53.3-1,.43-2.06.64-3.12.64ZM63.29,82.51c.59,11.31,3.09,36.84,13.59,65.46,18.29,49.86,51.15,85.66,97.71,106.45,46.56-20.8,79.43-56.6,97.71-106.45,10.5-28.62,13-54.14,13.59-65.46-38.27-9.22-67.39-26.74-85.42-40.17-11.92-8.88-20.58-17.08-25.88-22.56-5.3,5.47-13.96,13.67-25.88,22.56-18.03,13.44-47.15,30.96-85.42,40.17Z"/>
      </g>
      <g>
        <path class="cls-1" d="M271.75,306.32H77.44c-4.39,0-7.95-3.56-7.95-7.95v-62.92c0-4.39,3.56-7.95,7.95-7.95h51.04c4.39,0,7.95,3.56,7.95,7.95s-3.56,7.95-7.95,7.95h-43.09v47.02h178.4v-47.02h-43.09c-4.39,0-7.95-3.56-7.95-7.95s3.56-7.95,7.95-7.95h51.04c4.39,0,7.95,3.56,7.95,7.95v62.92c0,4.39-3.56,7.95-7.95,7.95Z"/>
        <path class="cls-1" d="M341.24,349.19h-69.15c-4.39,0-7.95-3.56-7.95-7.95v-76.75c0-4.39,3.56-7.95,7.95-7.95h69.15c2.66,0,5.14,1.33,6.61,3.53,1.48,2.21,1.75,5.01.73,7.46l-14.64,35.33,14.64,35.33c1.02,2.45.74,5.25-.73,7.46-1.48,2.21-3.96,3.53-6.61,3.53ZM280.04,333.28h49.29l-11.35-27.38c-.81-1.95-.81-4.14,0-6.09l11.35-27.38h-49.29v60.85Z"/>
        <path class="cls-1" d="M77.1,349.19H7.95c-2.66,0-5.14-1.33-6.61-3.53-1.48-2.21-1.75-5.01-.73-7.46l14.64-35.33L.61,267.53c-1.02-2.45-.74-5.25.73-7.46,1.48-2.21,3.96-3.53,6.61-3.53h69.15c4.39,0,7.95,3.56,7.95,7.95v76.75c0,4.39-3.56,7.95-7.95,7.95ZM19.85,333.28h49.29v-60.85H19.85l11.35,27.38c.81,1.95.81,4.14,0,6.09l-11.35,27.38Z"/>
      </g>
    </g>
  </g>
</svg>