<?xml version="1.0" encoding="UTF-8"?>
<svg id="Capa_2" data-name="Capa 2" xmlns="http://www.w3.org/2000/svg" viewBox="0 0 512 512">
  <defs>
    <style>
      .cls-1 {
        fill: red;
      }
    </style>
  </defs>
  <g id="Capa_1-2" data-name="Capa 1">
    <g>
      <path class="cls-1" d="M487.23,429.42h-8.26V156.9c0-22.77-18.52-41.29-41.29-41.29h-24.77v16.52h24.77c13.66,0,24.77,11.12,24.77,24.77v272.52H49.55V156.9c0-13.66,11.12-24.77,24.77-24.77h24.77v-16.52h-24.77c-22.77,0-41.29,18.52-41.29,41.29v272.52h-8.26c-13.66,0-24.77,11.12-24.77,24.77,0,31.87,25.94,57.81,57.81,57.81h396.39c31.87,0,57.81-25.94,57.81-57.81,0-13.66-11.12-24.77-24.77-24.77ZM206.45,445.94h99.1v8.26c0,4.56-3.7,8.26-8.26,8.26h-82.58c-4.56,0-8.26-3.7-8.26-8.26v-8.26ZM379.87,495.48h-16.52v-16.52h16.52v16.52ZM445.94,495.48h-16.52v-16.52h16.52v16.52ZM462.45,494.65v-32.2h-49.55v33.03h-16.52v-33.03h-49.55v33.03H57.81c-22.77,0-41.29-18.52-41.29-41.29,0-4.56,3.7-8.26,8.26-8.26h165.16v8.26c0,13.66,11.12,24.77,24.77,24.77h82.58c13.66,0,24.77-11.12,24.77-24.77v-8.26h165.16c4.56,0,8.26,3.7,8.26,8.26,0,19.93-14.21,36.62-33.03,40.46h0Z"/>
      <path class="cls-1" d="M181.68,165.16v-16.52h-99.1c-9.11,0-16.52,7.41-16.52,16.52v231.23c0,9.11,7.41,16.52,16.52,16.52h346.84c9.11,0,16.52-7.41,16.52-16.52v-231.23c0-9.11-7.41-16.52-16.52-16.52h-99.1v16.52h99.1v231.23h-33.03v-47.31l-22.58-7.23c-2.06-6.38-4.6-12.55-7.59-18.41l10.83-21.05-43.55-43.55-21.05,10.83c-5.86-2.99-12.02-5.53-18.41-7.59l-7.25-22.59h-61.6l-7.23,22.58c-6.38,2.06-12.55,4.6-18.41,7.59l-21.05-10.83-43.55,43.55,10.83,21.05c-2.99,5.86-5.53,12.02-7.59,18.41l-22.59,7.25v47.31h-33.03v-231.23h99.1ZM181.68,379.87c0-40.98,33.34-74.32,74.32-74.32s74.32,33.34,74.32,74.32c0,5.61-.83,11.11-2.06,16.52h-34.45c2.25-5.16,3.48-10.77,3.48-16.52,0-22.77-18.52-41.29-41.29-41.29s-41.29,18.52-41.29,41.29c0,5.75,1.22,11.35,3.48,16.52h-34.44c-1.23-5.41-2.06-10.91-2.06-16.52ZM231.23,379.87c0-13.66,11.12-24.77,24.77-24.77s24.77,11.12,24.77,24.77c0,6.16-2.41,11.98-6.51,16.52h-36.54c-4.09-4.53-6.5-10.36-6.5-16.52h0ZM132.13,361.12l19.46-6.23,1.21-4.27c2.3-8.16,5.51-15.94,9.52-23.1l2.16-3.87-9.33-18.12,26.52-26.52,18.12,9.33,3.87-2.16c7.16-4.01,14.94-7.22,23.1-9.52l4.27-1.21,6.22-19.45h37.5l6.23,19.46,4.27,1.21c8.16,2.3,15.94,5.51,23.1,9.52l3.87,2.16,18.12-9.33,26.52,26.52-9.33,18.12,2.16,3.87c4.01,7.16,7.22,14.94,9.52,23.1l1.21,4.27,19.46,6.22v35.27h-34.59c1-5.43,1.56-10.94,1.56-16.52,0-50.09-40.75-90.84-90.84-90.84s-90.84,40.75-90.84,90.84c0,5.57.57,11.09,1.56,16.52h-34.59v-35.27Z"/>
      <path class="cls-1" d="M107.35,33.03h33.03v16.52h-33.03v-16.52Z"/>
      <path class="cls-1" d="M239.48,33.03h33.03v16.52h-33.03v-16.52Z"/>
      <path class="cls-1" d="M371.61,33.03h33.03v16.52h-33.03v-16.52Z"/>
      <path class="cls-1" d="M247.74,222.97h16.52V82.58h41.29V0h-99.1v82.58h41.29v140.39ZM222.97,16.52h66.06v49.55h-66.06V16.52Z"/>
      <path class="cls-1" d="M379.87,115.61h-82.58v107.35h16.52v-90.84h82.58v-49.55h41.29V0h-99.1v82.58h41.29v33.03ZM355.1,16.52h66.06v49.55h-66.06V16.52Z"/>
      <path class="cls-1" d="M115.61,132.13h82.58v90.84h16.52v-107.35h-82.58v-33.03h41.29V0h-99.1v82.58h41.29v49.55ZM90.84,16.52h66.06v49.55h-66.06V16.52Z"/>
    </g>
  </g>
</svg>